<svg id="Capa_1" enable-background="new 0 0 512 512" height="512" viewBox="0 0 512 512" width="512" xmlns="http://www.w3.org/2000/svg"><g><path d="m440.366 69.607-63.015-63.019c-4.249-4.248-9.9-6.588-15.912-6.588h-210.878c-6.012 0-11.663 2.34-15.912 6.589l-63.014 63.018c-4.25 4.25-6.591 9.901-6.591 15.91v213.918c0 4.142 3.358 7.5 7.5 7.5s7.5-3.358 7.5-7.5v-208.911l35.035 14.515v301.922l-35.035 14.515v-87.04c0-4.142-3.358-7.5-7.5-7.5s-7.5 3.358-7.5 7.5v92.047c0 6.009 2.341 11.66 6.591 15.91l63.015 63.018c4.249 4.249 9.899 6.589 15.911 6.589h210.879c6.011 0 11.662-2.34 15.912-6.589l63.014-63.018c4.25-4.25 6.591-9.901 6.591-15.91v-340.966c0-6.009-2.341-11.66-6.591-15.91zm-43.444 337.354v-301.922l35.035-14.515v330.952zm-73.426 10.53 12.209 29.477h-159.41l12.209-29.477zm-134.992-322.982-12.209-29.477h159.411l-12.209 29.477zm158.206 15.096-9.355-9.355 12.208-29.474 26.621 26.619zm-4.792-59.573h-171.836l-14.51-35.032h200.856zm-167.272 50.218-9.355 9.355-29.474-12.211 26.621-26.619zm-9.356 302.145 9.355 9.355-12.208 29.474-26.621-26.619zm4.792 59.573h171.836l14.51 35.032h-200.856zm167.272-50.218 9.355-9.355 29.474 12.211-26.621 26.619zm15.095-23.214v-189.701c0-4.142-3.358-7.5-7.5-7.5s-7.5 3.358-7.5 7.5v191.607l-12.049 12.049h-138.8l-12.049-12.049v-268.884l12.049-12.049h138.8l12.048 12.049v42.277c0 4.142 3.358 7.5 7.5 7.5s7.5-3.358 7.5-7.5v-40.371l29.473-12.211v289.494zm73.764-311.868-35.03 14.513-35.408-35.404 14.512-35.038zm-284.5-55.929 14.512 35.037-35.408 35.405-35.03-14.513zm-11.635 90.514 29.473 12.21v265.073l-29.473 12.21zm-44.291 324.079 35.03-14.513 35.408 35.405-14.512 35.037zm284.5 55.93-14.512-35.037 35.408-35.405 35.031 14.513z"/></g></svg>