<svg id="Capa_1" enable-background="new 0 0 512 512" height="512" viewBox="0 0 512 512" width="512" xmlns="http://www.w3.org/2000/svg"><g><path d="m399.644 135.249c0-6.151-2.612-12.058-7.099-16.193l-123.729-114.05c-3.62-3.337-8.451-5.006-12.816-5.006-4.39 0-9.213 1.685-12.815 5.006l-25.242 23.266c-3.046 2.807-3.239 7.552-.432 10.598 2.808 3.046 7.553 3.239 10.598.432l20.391-18.796v39.132c-.629.409-1.236.864-1.803 1.386l-84.754 78.122-28.572-12.519 69.035-63.635c3.046-2.808 3.239-7.552.432-10.598-2.808-3.046-7.553-3.239-10.598-.432l-72.786 67.092c-4.511 4.157-7.098 10.06-7.098 16.194v241.502c0 6.134 2.587 12.037 7.098 16.194l123.729 114.049c3.614 3.332 8.441 5.007 12.817 5.007 4.314 0 9.161-1.637 12.815-5.006l123.73-114.049c4.472-4.122 7.099-10.014 7.099-16.194zm-43.57 223.875v-206.242l28.57-12.522v231.283zm-228.718 12.509v-231.264l28.571 12.519v206.231zm43.571-212.173 16.121 7.064v178.962l-16.121 7.061zm22.145 199.763 54.327 50.074c.352.324.722.618 1.101.895v22.046l-71.551-65.952zm70.428 50.969c.378-.277.748-.57 1.1-.894l54.327-50.074 16.123 7.064-71.549 65.95v-22.046zm61.452-64.705v-31.324c0-4.142-3.357-7.5-7.5-7.5s-7.5 3.358-7.5 7.5v32.933l-53.952 49.729-53.951-49.728v-182.193l53.951-49.729 53.952 49.729v114.258c0 4.142 3.357 7.5 7.5 7.5s7.5-3.358 7.5-7.5v-112.64l16.122-7.066v193.095zm-6.019-192.704-54.333-50.08c-.352-.324-.722-.618-1.101-.895v-22.046l71.554 65.955zm59.689-26.162-28.568 12.522-84.752-78.12c-.566-.522-1.173-.977-1.802-1.386v-39.131zm-130.122-46.859v22.046c-.378.277-.748.57-1.1.894l-54.334 50.081-16.122-7.064zm-115.129 305.611 28.574-12.516 84.751 78.12c.567.522 1.174.977 1.803 1.386v39.131zm130.129 106.12v-39.132c.629-.409 1.236-.864 1.803-1.386l84.747-78.116 28.572 12.519z"/></g></svg>