<svg id="Capa_1" enable-background="new 0 0 512 512" height="512" viewBox="0 0 512 512" width="512" xmlns="http://www.w3.org/2000/svg"><g><path d="m404.204 128.335-53.592-49.063c-3.055-2.797-7.799-2.588-10.595.467-2.797 3.055-2.588 7.799.467 10.595l44.489 40.729h-50.4l-50.384-92.267 30.483 27.907c3.054 2.797 7.799 2.588 10.595-.467 2.797-3.055 2.588-7.799-.467-10.595l-54.785-50.155c-7.99-7.315-20.039-7.315-28.029 0l-134.19 122.849c-5.405 4.948-7.196 12.566-4.562 19.409l20.363 52.895c1.485 3.855 5.818 5.796 9.693 4.305 3.865-1.488 5.793-5.828 4.305-9.693l-8.878-23.062 37.323 23.368 52.825 210.808-68.697-178.453c-1.489-3.866-5.83-5.791-9.693-4.305-3.865 1.488-5.793 5.828-4.305 9.693l102.783 266.994c2.736 7.112 9.428 11.706 17.047 11.706s14.31-4.594 17.048-11.705l135.718-352.551c2.634-6.842.843-14.46-4.562-19.409zm-10.863 17.728-1.082 2.81-52.838 33.083-57.3-35.892h111.22zm-47.381 49.495 37.323-23.368-90.149 234.176zm-151.443-64.494 61.483-112.593 61.483 112.593zm-67.49 0 100.783-92.267-50.384 92.267zm-8.368 14.999h111.256l-57.335 35.893-52.839-33.083zm137.364 1.351 74.798 46.853-74.821 298.586-74.821-298.585z"/></g></svg>