<svg id="Capa_1" enable-background="new 0 0 512 512" height="512" viewBox="0 0 512 512" width="512" xmlns="http://www.w3.org/2000/svg"><g><path d="m509.843 245.231-66.736-161.108c-2.876-6.945-8.285-12.354-15.231-15.231l-161.108-66.735c-6.944-2.876-14.593-2.876-21.537 0l-85.023 35.219c-3.826 1.585-5.644 5.972-4.059 9.799 1.585 3.826 5.972 5.645 9.799 4.059l65.236-27.023-58.733 137.634-80.119-80.118 41.42-17.157c3.826-1.585 5.644-5.972 4.059-9.799s-5.973-5.642-9.799-4.059l-43.889 18.18c-6.945 2.877-12.354 8.286-15.231 15.231l-66.735 161.109c-2.876 6.944-2.876 14.592 0 21.536l66.735 161.108c2.877 6.945 8.286 12.355 15.231 15.231l161.109 66.735c3.472 1.438 7.12 2.157 10.768 2.157s7.296-.719 10.768-2.157l161.109-66.735c6.945-2.877 12.354-8.286 15.232-15.232l66.734-161.107c2.876-6.944 2.876-14.593 0-21.537zm-493.836 15.776c-1.331-3.23-1.331-6.785 0-10.014l151.488-64.645v139.303zm166.487-78.513h147.012v147.012h-147.012zm162.011 3.854 151.488 64.645c1.331 3.23 1.331 6.784 0 10.014l-151.488 64.644zm143.284 44.836-137.634-58.733 80.118-80.119zm-148.24-69.339-58.733-137.634 138.851 57.516zm-78.542-145.838 64.645 151.488h-139.304l64.645-151.488c3.23-1.332 6.784-1.332 10.014 0zm-179.28 76.325 80.119 80.119-137.635 58.733zm-57.516 188.484 137.635 58.733-80.119 80.119zm148.24 69.338 58.733 137.634-138.851-57.515zm78.542 145.839-64.645-151.488h139.303l-23.953 56.131c-1.626 3.81.145 8.216 3.954 9.841 3.821 1.632 8.221-.158 9.841-3.954l24.055-56.369 80.119 80.119-138.851 57.516 20.991-49.193c1.625-3.809-.145-8.215-3.955-9.841-3.806-1.624-8.214.146-9.841 3.955l-27.004 63.283c-3.23 1.332-6.784 1.332-10.014 0zm179.28-76.325-80.119-80.119 137.634-58.733z"/></g></svg>