<svg id="Capa_1" enable-background="new 0 0 512 512" height="512" viewBox="0 0 512 512" width="512" xmlns="http://www.w3.org/2000/svg"><g><path d="m509.671 244.38-66.081-159.536c-3.103-7.493-8.94-13.33-16.434-16.434l-159.536-66.082c-7.495-3.103-15.748-3.103-23.241 0l-77.335 32.033c-3.826 1.585-5.644 5.972-4.059 9.799 1.585 3.826 5.973 5.644 9.799 4.059l56.141-23.254c-9.478 28.451-21.668 54.383-36.472 77.621-26.899-5.963-53.856-15.681-80.676-29.097l28.69-11.884c3.826-1.585 5.644-5.972 4.059-9.799s-5.972-5.644-9.799-4.059l-49.884 20.663c-7.493 3.104-13.329 8.94-16.434 16.434l-66.081 159.536c-3.104 7.494-3.104 15.747 0 23.241l66.082 159.535c3.104 7.493 8.94 13.329 16.434 16.433l159.536 66.083c7.508 3.109 15.762 3.097 23.241 0l71.743-29.717c3.827-1.585 5.644-5.972 4.058-9.799-1.585-3.826-5.972-5.644-9.798-4.059l-50.549 20.938c9.478-28.451 21.668-54.383 36.472-77.62 26.899 5.963 53.856 15.681 80.676 29.097l-34.311 14.212c-3.827 1.585-5.644 5.972-4.058 9.799 1.583 3.822 5.967 5.646 9.798 4.059l55.505-22.991c7.495-3.105 13.331-8.941 16.434-16.434l66.082-159.536c3.103-7.494 3.103-15.748-.002-23.241zm-71.16 155.842c-13.416-26.82-23.133-53.777-29.096-80.676 23.237-14.804 49.169-26.994 77.621-36.472zm-413.547-117.147c28.451 9.478 54.383 21.669 77.621 36.472-5.963 26.899-15.68 53.856-29.096 80.676zm48.524-171.298c13.416 26.82 23.133 53.777 29.097 80.676-23.238 14.804-49.17 26.994-77.621 36.473zm-56.019 153.202-1.284-3.099c-3.124-7.541.868-13.249 1.283-14.859 32.388-9.71 61.86-22.677 88.18-38.79 2.671 15.97 4.021 31.907 4.021 47.768 0 15.862-1.35 31.798-4.021 47.769-26.32-16.111-55.791-29.079-88.179-38.789zm101.851-65.593c15.889-10.856 30.514-22.949 43.815-36.251 13.301-13.301 25.394-27.926 36.251-43.815 18.911 3.559 37.804 5.349 56.614 5.349 18.811 0 37.703-1.79 56.615-5.349 10.856 15.889 22.949 30.514 36.25 43.815 13.302 13.301 27.926 25.394 43.815 36.25-3.559 18.912-5.349 37.804-5.349 56.615s1.79 37.703 5.348 56.615c-15.889 10.856-30.513 22.949-43.815 36.25-13.301 13.302-25.394 27.926-36.25 43.815-18.911-3.559-37.804-5.349-56.615-5.349-18.81 0-37.703 1.79-56.615 5.349-10.856-15.889-22.95-30.514-36.251-43.815s-27.926-25.394-43.814-36.25c3.559-18.912 5.349-37.804 5.349-56.615.001-18.811-1.79-37.703-5.348-56.614zm283.01 56.614c0-15.862 1.35-31.798 4.021-47.769 26.32 16.112 55.792 29.08 88.18 38.79.418 1.62 4.401 7.337 1.284 14.86l-1.284 3.099c-32.388 9.71-61.86 22.677-88.18 38.789-2.671-15.971-4.021-31.907-4.021-47.769zm84.706-27.074c-28.451-9.478-54.383-21.669-77.62-36.472 5.963-26.899 15.681-53.856 29.096-80.676zm-57.303-138.343 1.283 3.098c-16.035 29.768-27.706 59.777-34.924 89.782-25.606-18.269-48.086-40.267-67.555-67.555 30.005-7.218 60.014-18.889 89.781-34.924 1.441.85 8.298 2.077 11.415 9.599zm-110.187 12.002c-14.803-23.237-26.994-49.169-36.471-77.62l117.147 48.524c-26.82 13.415-53.777 23.132-80.676 29.096zm-72.525-85.116c1.187-.306 4.441-2.449 8.98-2.472 4.211-.021 6.852 1.739 8.979 2.472 9.71 32.388 22.678 61.86 38.79 88.18-15.971 2.671-31.907 4.021-47.769 4.021s-31.798-1.35-47.768-4.021c16.111-26.321 29.078-55.792 38.788-88.18zm-153.339 63.514c29.767 16.036 59.777 27.706 89.781 34.925-9.404 13.181-19.719 25.405-30.935 36.621s-23.44 21.53-36.621 30.935c-7.218-30.005-18.889-60.014-34.925-89.782l1.283-3.098c3.126-7.541 9.985-8.756 11.417-9.601zm-12.698 337.335c16.036-29.767 27.706-59.777 34.924-89.781 13.181 9.404 25.405 19.719 36.62 30.934 11.216 11.216 21.53 23.44 30.935 36.621-30.005 7.218-60.015 18.889-89.781 34.923l-3.099-1.284c-7.541-3.123-8.754-9.981-9.599-11.413zm111.469-8.903c14.804 23.237 26.994 49.169 36.472 77.62l-117.147-48.524c26.82-13.416 53.776-23.132 80.675-29.096zm72.526 85.116-3.098 1.283c-7.541 3.124-13.243-.867-14.86-1.284-9.71-32.388-22.677-61.859-38.789-88.18 15.971-2.671 31.908-4.021 47.769-4.021s31.798 1.35 47.768 4.021c-16.113 26.322-29.08 55.793-38.79 88.181zm153.339-63.515c-29.768-16.036-59.777-27.706-89.781-34.924 9.404-13.181 19.718-25.405 30.934-36.621s23.44-21.53 36.621-30.935c7.218 30.005 18.888 60.014 34.924 89.781l-1.284 3.099c-3.123 7.543-9.976 8.752-11.414 9.6z"/></g></svg>