<svg id="Capa_1" enable-background="new 0 0 512 512" height="512" viewBox="0 0 512 512" width="512" xmlns="http://www.w3.org/2000/svg"><g><path d="m441.883 248.641-175.689-243.422c-2.441-3.381-6.397-5.219-10.194-5.219-3.777 0-7.739 1.819-10.193 5.219l-52.763 73.103c-2.425 3.358-1.667 8.046 1.691 10.471 3.359 2.423 8.047 1.667 10.471-1.692l43.294-59.985v44.272c-.696.593-1.326 1.271-1.87 2.025l-126.367 175.087h-31.546l96.102-133.152c2.425-3.358 1.667-8.046-1.691-10.471-3.359-2.423-8.046-1.667-10.471 1.692l-102.541 142.072c-3.178 4.401-3.178 10.316 0 14.718l175.691 243.424c2.438 3.375 6.39 5.217 10.193 5.217 3.799 0 7.752-1.836 10.194-5.218l175.689-243.424c3.179-4.401 3.178-10.316 0-14.717zm-18.6-.141h-31.546l-126.366-175.085c-.545-.755-1.175-1.433-1.871-2.026v-44.27zm-70.328 0-88.406-122.49c-.317-.438-.674-.837-1.049-1.217v-28.34l109.739 152.047zm-193.91 15 88.406 122.49c.317.438.674.837 1.049 1.217v28.34l-109.739-152.047zm96.955 108.704-83.87-116.204 83.87-116.204 83.87 116.204zm-7.5-275.751v28.341c-.375.38-.732.779-1.049 1.217l-88.406 122.489h-20.284zm-159.783 167.047h31.546l126.366 175.085c.545.755 1.175 1.433 1.871 2.026v44.272zm174.783 221.385v-44.274c.696-.593 1.326-1.271 1.871-2.026l34.023-47.14c2.425-3.358 1.667-8.046-1.691-10.471-3.359-2.424-8.047-1.667-10.471 1.692l-23.732 32.881v-28.341c.375-.38.732-.779 1.049-1.217l88.407-122.489h20.285l-65.527 90.791c-2.425 3.358-1.667 8.046 1.691 10.471 3.359 2.423 8.047 1.667 10.471-1.692l71.864-99.569h31.544z"/></g></svg>