<svg id="Capa_1" enable-background="new 0 0 512 512" height="512" viewBox="0 0 512 512" width="512" xmlns="http://www.w3.org/2000/svg"><g><path d="m506.66 215.728-210.388-210.388c-3.257-3.257-7.912-5.34-12.892-5.34h-54.76c-4.98 0-9.634 2.082-12.893 5.34l-52.017 52.018c-2.929 2.929-2.929 7.678 0 10.606 2.93 2.929 7.678 2.929 10.607 0l34.947-34.947-38.46 137.789-137.79 38.461 116.558-116.558c2.929-2.929 2.929-7.678 0-10.606-2.93-2.929-7.678-2.929-10.607 0l-133.625 133.626c-3.444 3.444-5.34 8.022-5.34 12.892v54.759c0 4.87 1.896 9.449 5.34 12.893l210.388 210.387c3.444 3.444 8.023 5.34 12.894 5.34h54.758c4.87 0 9.449-1.896 12.894-5.34l210.386-210.388c3.443-3.444 5.34-8.022 5.34-12.893v-54.759c0-4.869-1.896-9.447-5.34-12.892zm-186.686 173.617c-3.994-1.115-8.126 1.218-9.24 5.207l-28.601 102.448h-52.264l-43.283-155.07c46.098-11.288 92.734-11.288 138.832.001l-5.272 18.916c-1.33 4.771 2.257 9.516 7.229 9.516 3.282 0 6.297-2.172 7.221-5.488l6.598-23.676 137.791-38.464-176.249 176.247 22.445-80.397c1.114-3.989-1.218-8.126-5.207-9.24zm-149.903-202.759c11.287 46.098 11.287 92.734-.001 138.832l-155.07-43.286v-52.263zm59.795-171.586h52.268l43.281 155.071c-46.099 11.288-92.733 11.286-138.83 0zm112.064 310.418c-11.288-46.098-11.288-92.735-.001-138.832l155.071 43.283v52.263zm-156.761-140.249c47.047 11.177 94.615 11.177 141.662 0-11.177 47.047-11.177 94.614 0 141.662-46.765-11.111-94.334-11.245-141.662 0 11.177-47.047 11.177-94.614 0-141.662zm156.026-14.363-38.46-137.789 176.251 176.25zm-170.387 170.392 38.46 137.788-176.252-176.252z"/></g></svg>