<svg id="Capa_1" enable-background="new 0 0 512 512" height="512" viewBox="0 0 512 512" width="512" xmlns="http://www.w3.org/2000/svg"><g><path d="m508.825 172.741-107.393-152.497c-3.282-4.659-8.688-7.467-14.39-7.467h-262.083c-5.688 0-11.101 2.795-14.391 7.467l-30.612 43.47c-2.386 3.387-1.573 8.067 1.814 10.452 3.386 2.386 8.067 1.573 10.452-1.814l26.528-37.668 42.173 81.284c-41.526 59.047-39.195 55.487-40.01 57.001l-101.263 2.435 52.417-74.431c2.386-3.387 1.573-8.067-1.814-10.452-3.388-2.386-8.067-1.573-10.452 1.814l-56.626 80.405c-4.45 6.318-4.208 15.049.634 21.115l238.43 298.743c7.054 8.839 20.479 8.824 27.52.002l49.085-61.501c2.584-3.238 2.054-7.958-1.183-10.542-3.238-2.584-7.958-2.054-10.542 1.184l-43.617 54.65v-131.36c1.155-.77 2.207-1.71 3.099-2.828l123.05-154.176 102.101 2.379-162.682 203.832c-2.584 3.238-2.055 7.958 1.184 10.542 3.238 2.585 7.958 2.054 10.542-1.184l167.395-209.739c4.844-6.069 5.081-14.8.634-21.116zm-16.467 2.672-101.223-2.358c-.842-1.591 1.422 1.899-40.057-57.087l42.173-81.285zm-318.116-66.348-42.174-81.286h247.865l-42.174 81.286zm-154 81.331 102.039-2.454 123.119 154.262c.892 1.118 1.944 2.059 3.1 2.828v131.361zm235.758 141.039-121.372-152.073 38.939-55.294h164.867l38.939 55.294z"/></g></svg>