<svg id="Capa_1" enable-background="new 0 0 512 512" height="512" viewBox="0 0 512 512" width="512" xmlns="http://www.w3.org/2000/svg"><g><path d="m509.928 40.077c-.012-.022-.021-.045-.034-.067-.013-.023-.03-.044-.043-.067-2.819-4.826-7.83-7.706-13.424-7.706h-347.17c-4.142 0-7.5 3.358-7.5 7.5s3.358 7.5 7.5 7.5h333.122l-96.599 55.772c-.849-.22-1.728-.342-2.625-.342h-254.309c-.896 0-1.776.122-2.625.342l-96.599-55.772h84.636c4.142 0 7.5-3.358 7.5-7.5s-3.358-7.5-7.5-7.5h-98.687c-5.61 0-10.634 2.896-13.447 7.746-.005.009-.012.017-.017.027-.006.01-.01.021-.016.031-2.793 4.862-2.788 10.661.017 15.519l240.425 416.427c5.978 10.354 20.94 10.378 26.931.002l121.622-210.652c2.071-3.587.842-8.174-2.745-10.245-3.588-2.072-8.174-.843-10.245 2.745l-114.597 198.485v-111.542c.615-.624 1.16-1.325 1.608-2.101l127.155-220.237c.448-.776.782-1.599 1.016-2.444l96.601-55.773-94.284 163.303c-2.071 3.587-.842 8.174 2.745 10.245 3.571 2.062 8.164.858 10.245-2.745l101.308-175.468c2.798-4.846 2.808-10.628.035-15.483zm-487.807 20.149 96.599 55.772c.234.845.568 1.669 1.016 2.446l127.154 220.238c.449.776.995 1.477 1.61 2.102v111.54zm233.877 264.233-119.392-206.794h238.786z"/></g></svg>