<svg id="Capa_1" enable-background="new 0 0 512 512" height="512" viewBox="0 0 512 512" width="512" xmlns="http://www.w3.org/2000/svg"><g><path d="m508.639 173.056-46.451-64.886c-2.412-3.369-7.096-4.142-10.464-1.733-3.367 2.411-4.143 7.095-1.732 10.463l42.769 59.741h-212.054l129.428-115.416 19.464 27.189c2.413 3.368 7.097 4.142 10.463 1.733 3.368-2.411 4.144-7.095 1.733-10.463l-21.258-29.695c-3.343-4.669-8.769-7.457-14.512-7.457h-300.05c-5.744 0-11.169 2.788-14.512 7.458l-88.102 123.066c-4.883 6.821-4.404 15.966 1.166 22.24l56.951 64.143c2.749 3.097 7.489 3.379 10.587.629 3.097-2.75 3.379-7.49.629-10.587l-51.355-57.841h227.162v255.85l-152.397-171.643c-2.749-3.096-7.489-3.378-10.587-.629-3.097 2.75-3.379 7.49-.629 10.587l157.764 177.689c6.993 7.877 19.543 8.054 26.695 0l238.126-268.199c5.57-6.274 6.049-15.419 1.166-22.239zm-254.81 3.585-133.572-119.111h271.487l-133.572 119.111zm-151.964-115.415 129.428 115.415h-212.054zm161.634 386.265v-255.851h227.163z"/></g></svg>