<svg id="Capa_1" enable-background="new 0 0 512 512" height="512" viewBox="0 0 512 512" width="512" xmlns="http://www.w3.org/2000/svg"><g><path d="m512 153.507c0-2.736-1.144-6.274-3.455-8.934l-104.019-119.721c-2.679-3.085-6.557-4.854-10.64-4.854h-275.774c-4.083 0-7.961 1.769-10.639 4.852l-26.214 30.169c-2.717 3.127-2.385 7.864.742 10.582 3.127 2.716 7.865 2.385 10.581-.742l25.945-29.859h74.831l-35.834 111.007h-135.453l47.602-54.784c2.717-3.127 2.385-7.865-.742-10.581-3.126-2.715-7.864-2.384-10.581.742l-54.906 63.19c-2.225 2.561-3.444 6.296-3.444 8.933 0 3.006.915 6.232 2.788 8.742l241.915 324.091c2.793 3.741 7.098 5.662 11.295 5.662 4.161 0 8.481-1.894 11.295-5.663l241.907-324.09c1.782-2.387 2.8-5.351 2.8-8.742zm-354.718 7.5 80.803 291.387-217.504-291.387zm144.793 161.767c-3.995-1.107-8.124 1.232-9.232 5.223l-36.843 132.862-83.152-299.852h166.303l-36.954 133.261c-1.107 3.991 1.231 8.125 5.224 9.231 4.007 1.113 8.13-1.249 9.232-5.223l38.066-137.269h136.69l-217.493 291.382 33.383-120.384c1.107-3.991-1.231-8.125-5.224-9.231zm187.844-176.768h-135.444l-35.835-111.007h74.83zm-280.796-111.007h93.754l35.836 111.007h-165.425z"/></g></svg>