<svg id="Capa_1" enable-background="new 0 0 512 512" height="512" viewBox="0 0 512 512" width="512" xmlns="http://www.w3.org/2000/svg"><g><path d="m506.744 144.708-139.453-139.454c-3.388-3.388-7.893-5.254-12.684-5.254h-197.214c-4.791 0-9.295 1.867-12.685 5.256l-61.192 61.19c-2.929 2.929-2.929 7.677 0 10.606 2.928 2.929 7.677 2.929 10.606 0l56.316-56.314 43.534 105.108-68.126 68.124-105.101-43.539 48.509-48.51c2.929-2.929 2.929-7.678 0-10.606-2.929-2.929-7.678-2.929-10.606 0l-53.394 53.393c-3.388 3.389-5.254 7.894-5.254 12.685v197.214c0 4.791 1.866 9.295 5.255 12.685l139.453 139.454c3.388 3.388 7.893 5.254 12.684 5.254h197.215c4.79 0 9.295-1.867 12.684-5.256l139.454-139.452c3.389-3.388 5.255-7.893 5.255-12.685v-197.214c0-4.79-1.867-9.295-5.256-12.685zm-114.849 159.462v-96.341l105.105-43.532v183.415zm99.366-153.732-105.108 43.534-68.124-68.126 43.54-105.101zm-283.432-30.333-43.532-105.105h183.415l-43.542 105.105zm-192.829 227.598v-183.415l105.105 43.541v96.341zm5.739 13.859 105.108-43.534 68.124 68.126-43.539 105.101zm283.431 30.333 43.533 105.105h-183.415l43.541-105.105zm57.392 99.366-43.534-105.107 22.998-22.996c2.929-2.929 2.93-7.678.001-10.607-2.929-2.928-7.677-2.929-10.607 0l-24.347 24.344h-100.149l-70.819-70.821v-100.15l70.821-70.819h100.149l70.819 70.821v100.149l-21.729 21.73c-2.929 2.929-2.929 7.678 0 10.606 2.929 2.93 7.678 2.929 10.606 0l20.382-20.383 105.101 43.54z"/></g></svg>