<?xml version="1.0" encoding="UTF-8"?>
<!-- Generator: Adobe Illustrator 26.0.2, SVG Export Plug-In . SVG Version: 6.00 Build 0)  -->
<svg xmlns="http://www.w3.org/2000/svg" xmlns:xlink="http://www.w3.org/1999/xlink" version="1.1" id="Capa_1" x="0px" y="0px" viewBox="0 0 512 512" style="enable-background:new 0 0 512 512;" xml:space="preserve" width="512" height="512">
<path d="M507.842,195.533l-74.806-97.569c-3.764-4.911-9.706-7.843-15.895-7.843H94.858c-6.189,0-12.131,2.932-15.895,7.842  L4.158,195.532l-0.01,0.015c-6.545,8.554-5.241,20.712,3.178,27.638l235.947,194.144c3.687,3.033,8.207,4.55,12.726,4.55  c4.519,0,9.039-1.517,12.726-4.55l235.946-194.144C513.091,216.259,514.403,204.094,507.842,195.533z M414.744,105.12  l-68.549,93.727l-74.637-93.727H414.744z M329.695,202.203h-147.39L256,109.659L329.695,202.203z M240.441,105.119l-74.637,93.727  l-68.549-93.727H240.441z M43.339,169.078l42.024-54.812l64.314,87.936H17.943L43.339,169.078z M23.66,217.202h137.976  l65.963,167.806L23.66,217.202z M260.579,404.608c-0.189,0.085-2.098,2.245-4.58,2.324c-2.356,0.074-3.646-1.71-4.579-2.324  l-73.668-187.407h156.495L260.579,404.608z M284.401,385.007l65.963-167.805h137.975L284.401,385.007z M362.322,202.203  l64.314-87.936l67.42,87.936H362.322z"/>
</svg>
