<svg id="Capa_1" enable-background="new 0 0 512.001 512.001" height="512" viewBox="0 0 512.001 512.001" width="512" xmlns="http://www.w3.org/2000/svg"><g><path d="m507.465 244.204-66.546-73.994c-3.34-3.713-8.12-5.843-13.115-5.843h-77.53c-1.434 0-2.64-1.175-2.64-2.641v-77.53c0-4.996-2.13-9.776-5.844-13.117l-73.994-66.543c-6.725-6.047-16.867-6.048-23.592-.001l-24.846 22.345c-3.08 2.77-3.331 7.512-.562 10.592s7.511 3.331 10.592.562l19.112-17.189v40.145c-.792.476-1.55 1.031-2.262 1.671l-32.458 29.19c-3.074 2.764-4.837 6.72-4.837 10.854v95.634l-30.641-30.641c.675-1.868 1.063-3.873 1.063-5.971v-77.53c0-.747.318-1.462.874-1.961l23.134-20.805c3.08-2.77 3.331-7.512.562-10.592-2.77-3.081-7.512-3.331-10.592-.562l-23.134 20.805c-3.714 3.34-5.844 8.12-5.844 13.115v77.53c0 1.442-1.182 2.64-2.641 2.64h-77.528c-4.996 0-9.777 2.13-13.117 5.845l-66.543 73.992c-6.048 6.725-6.048 16.868-.001 23.592l66.546 73.995c3.34 3.713 8.12 5.843 13.114 5.843h77.53c.717 0 1.366.289 1.842.755.007.008.013.016.021.023.007.007.016.013.023.021.465.476.754 1.126.754 1.842v77.529c0 4.996 2.13 9.776 5.844 13.117l73.995 66.544c3.363 3.024 7.58 4.537 11.797 4.536 4.216 0 8.433-1.512 11.795-4.535l73.994-66.546c3.714-3.34 5.844-8.12 5.844-13.115v-77.53c0-1.442 1.182-2.64 2.641-2.64h77.529c4.996 0 9.777-2.13 13.117-5.845l66.544-73.994c6.048-6.725 6.048-16.868 0-23.592zm-77.698-63.964 61.389 68.261h-40.145c-.476-.792-1.032-1.55-1.671-2.262l-29.19-32.458c-2.764-3.074-6.72-4.837-10.854-4.837h-95.634l30.641-30.641c1.868.675 3.873 1.063 5.971 1.063h77.53c.748 0 1.464.318 1.963.874zm-98.006-98.007c.556.5.875 1.215.875 1.963v77.529c0 2.098.387 4.103 1.063 5.972l-30.641 30.641v-95.634c0-4.134-1.763-8.091-4.836-10.854l-32.459-29.19c-.711-.64-1.469-1.195-2.261-1.671v-40.143zm-249.527 98.007c.5-.556 1.215-.874 1.963-.874h77.529c2.098 0 4.103-.387 5.971-1.063l30.641 30.641h-95.634c-4.134 0-8.091 1.763-10.854 4.836l-29.19 32.459c-.64.711-1.195 1.469-1.671 2.261h-40.143zm0 151.521-61.389-68.261h40.145c.476.792 1.032 1.55 1.671 2.262l29.19 32.458c2.764 3.074 6.72 4.837 10.854 4.837h95.634l-30.641 30.641c-1.868-.675-3.873-1.063-5.971-1.063h-77.53c-.749-.001-1.464-.319-1.963-.874zm98.006 98.006c-.556-.5-.874-1.215-.874-1.963v-77.529c0-2.098-.387-4.103-1.063-5.972l30.641-30.641v95.634c0 4.134 1.763 8.091 4.836 10.854l32.459 29.19c.711.64 1.469 1.195 2.261 1.671v40.143zm152.395-1.962c0 .747-.318 1.462-.874 1.961l-68.261 61.39v-40.145c.792-.476 1.55-1.031 2.262-1.671l32.458-29.19c3.074-2.764 4.837-6.72 4.837-10.854v-14.873c0-4.142-3.358-7.5-7.5-7.5s-7.5 3.358-7.5 7.5v14.694l-32.057 28.829-32.056-28.828v-106.463c0-8.037-6.562-14.598-14.598-14.598h-106.463l-28.828-32.057 28.828-32.056h106.462c8.037 0 14.598-6.562 14.598-14.598v-106.463l32.057-28.828 32.056 28.828v106.462c0 8.037 6.562 14.598 14.598 14.598h106.462l28.83 32.057-28.828 32.056h-106.463c-8.037 0-14.598 6.562-14.598 14.598v56.769c0 4.142 3.358 7.5 7.5 7.5s7.5-3.358 7.5-7.5v-45.761l30.641 30.641c-.675 1.868-1.063 3.873-1.063 5.971zm97.132-96.045c-.499.556-1.215.875-1.963.875h-77.529c-2.098 0-4.103.387-5.971 1.063l-30.641-30.641h95.634c4.134 0 8.091-1.763 10.854-4.836l29.19-32.459c.64-.711 1.195-1.469 1.671-2.261h40.143z"/></g></svg>