<svg id="Capa_1" enable-background="new 0 0 512 512" height="512" viewBox="0 0 512 512" width="512" xmlns="http://www.w3.org/2000/svg"><g><path d="m505.518 131.21-139.47-113.15c-5.594-4.539-13.612-5.158-19.831-1.55l-88.95 51.566c-.782.453-1.753.454-2.536 0l-88.95-51.566c-6.241-3.618-14.253-2.974-19.83 1.552l-29.061 23.576c-3.217 2.609-3.709 7.333-1.099 10.549 2.609 3.216 7.333 3.709 10.549 1.099l23.339-18.934 7.054 90.166c-.809.462-1.589.988-2.327 1.586 0 0-52.321 42.482-52.669 42.816l-80.217-30.595 77.534-62.901c3.217-2.609 3.709-7.333 1.099-10.549-2.609-3.218-7.334-3.709-10.549-1.099l-83.122 67.433c-4.876 3.956-7.254 10.259-6.259 16.409l28.554 176.433c.723 4.468 3.108 8.434 6.715 11.168l209.923 159.077c6.208 4.704 14.961 4.704 21.17-.002l131.996-100.023c3.301-2.501 3.95-7.206 1.448-10.507-2.501-3.302-7.206-3.951-10.507-1.448l-126.022 95.495v-93.619c1.074-.507 2.112-1.115 3.085-1.853l126.701-96.014 68.531 41.205-44.204 33.497c-3.301 2.501-3.95 7.206-1.448 10.507 2.498 3.297 7.2 3.953 10.507 1.448l49.835-37.764c3.607-2.733 5.992-6.699 6.716-11.169l28.553-176.432c.997-6.16-1.391-12.458-6.258-16.407zm-15.039 7.114-80.223 30.59c-.346-.332-.701-.654-1.076-.959l-51.585-41.849c-.738-.598-1.518-1.125-2.328-1.586l7.054-90.168zm-143.113-105.141-7.053 90.163c-.874.331-1.728.73-2.551 1.207l-74.262 43.051v-85.88c.436-.207.868-.425 1.29-.67zm-100.158 47.871c.422.245.855.464 1.292.67v85.882l-74.261-43.054c-.823-.478-1.678-.877-2.552-1.208l-7.054-90.161zm-231.025 71.29 80.215 30.595c.037.475.087.95.164 1.425l14.42 89.108-68.527 41.203zm34 175.187 68.531-41.205 126.701 96.013c.973.737 2.011 1.345 3.085 1.853v93.621zm207.342 42.854c-.898.68-2.153.679-3.05-.001l-127.548-96.654c-.521-.395-.864-.966-.968-1.61l-14.589-90.153c-.143-.882.209-1.803.901-2.364l51.586-41.85c.81-.657 1.958-.745 2.858-.224l80.492 46.666c2.712 1.572 5.753 2.358 8.793 2.358 3.039-.001 6.079-.787 8.789-2.359l80.495-46.665c.908-.527 2.063-.421 2.859.224l51.584 41.849c.348.282.608.651.765 1.057l.003.006c.155.407.207.859.135 1.301l-14.589 90.151c-.104.645-.448 1.216-.967 1.61zm212.021-55.71-68.528-41.203s14.548-90.065 14.585-90.543l80.215-30.587z"/></g></svg>