<svg id="Capa_1" enable-background="new 0 0 512 512" height="512" viewBox="0 0 512 512" width="512" xmlns="http://www.w3.org/2000/svg"><g><path d="m462.724 378.554-55.106-215.105c-.884-3.45-2.669-6.927-5.245-9.787l-133-147.698c-3.479-3.863-8.507-5.964-13.373-5.964-4.845 0-9.882 2.086-13.373 5.963l-27.346 30.366c-2.772 3.078-2.523 7.82.554 10.592 3.077 2.771 7.82 2.523 10.592-.554l22.072-24.51v163.195c-.856.503-1.677 1.092-2.443 1.782l-50.517 45.542-72.543-71.147 79.811-88.632c2.772-3.078 2.523-7.82-.555-10.592s-7.821-2.524-10.592.555l-82.035 91.102c-2.492 2.767-4.331 6.219-5.245 9.787l-55.105 215.105c-1.62 6.322.33 13.026 5.017 17.494l116.456 110.985c3.361 3.204 7.77 4.968 12.416 4.968h145.672c4.406 0 8.975-1.689 12.415-4.967l116.457-110.986c4.567-4.355 6.674-11.03 5.016-17.494zm-73.722-217.325-72.543 71.147-50.517-45.542c-.765-.69-1.586-1.279-2.442-1.782v-163.195zm-133.002 36.837 53.537 48.265c.396.356.69.814.851 1.323l16.211 51.366c1.246 3.95 5.459 6.139 9.409 4.895 3.95-1.247 6.142-5.459 4.896-9.41l-15.687-49.706 70.136-68.787 51.486 200.972-84.578-14.754c-.042-.149-.076-.298-.123-.446l-10.821-34.288c-1.247-3.951-5.461-6.142-9.409-4.895-3.95 1.247-6.142 5.459-4.896 9.41l10.79 34.188-51.583 41.368c-.53.426-1.196.66-1.875.66h-76.884c-.643 0-1.28-.212-1.795-.598l-55.47-41.508 41.32-118.442c.164-.472.449-.9.823-1.237zm-36.924 225.163h73.851l29.089 73.771h-132.032zm-102.428-247.217 70.025 68.677s-40.876 117.222-40.963 117.535l-80.525 14.67zm-45.797 215.096 78.758-14.348c1.47 1.44-1.468-.992 55.284 41.546l-28.82 73.081zm265.076 100.278-28.89-73.266c53.275-42.775 50.189-40.143 51.391-41.33l82.621 14.413z"/></g></svg>