<svg id="Capa_1" enable-background="new 0 0 512 512" height="512" viewBox="0 0 512 512" width="512" xmlns="http://www.w3.org/2000/svg"><g><path d="m400.901 154.807-130.028-148.078c-3.755-4.276-9.175-6.729-14.867-6.729s-11.112 2.453-14.868 6.729l-27.629 31.464c-2.733 3.113-2.426 7.851.688 10.584 3.111 2.733 7.851 2.424 10.584-.687l27.628-31.464c1.905-2.168 5.284-2.173 7.192 0l128.848 146.732-92.877 84.049c-.074.067-.17.104-.27.104h-78.594c-.1 0-.195-.037-.27-.104l-92.877-84.049 78.131-88.975c2.733-3.112 2.426-7.851-.688-10.584-3.112-2.734-7.852-2.426-10.584.687l-79.312 90.32c-2.782 3.169-3.835 7.59-3.021 11.309l72.61 332.122c1.744 7.975 8.934 13.762 17.097 13.762h116.418c8.163 0 15.353-5.788 17.097-13.762 0 0 72.651-332.318 72.669-332.417.713-4.018-.528-8.11-3.077-11.013zm-156.632 342.193-22.565-234.488h68.603l-22.565 234.488zm-48.915-1.966-67.176-307.267 78.061 70.641 22.96 238.592h-31.403c-1.165 0-2.193-.827-2.442-1.966zm121.303 0c-.249 1.139-1.276 1.966-2.442 1.966h-31.403l22.96-238.593 78.061-70.64z"/></g></svg>