<svg id="Capa_1" enable-background="new 0 0 512 512" height="512" viewBox="0 0 512 512" width="512" xmlns="http://www.w3.org/2000/svg"><g><path d="m414.844 114.068c-.03-.033-.055-.07-.086-.103 0 0-.007-.008-.077-.083l-.005-.005c-.799-.852-9.325-9.936-101.552-108.196-3.388-3.609-8.17-5.679-13.121-5.68h-88.008c-4.953.001-9.736 2.071-13.122 5.68l-28.327 30.181c-2.835 3.021-2.685 7.767.336 10.602 3.02 2.834 7.767 2.686 10.602-.336l28.328-30.182c.562-.6 1.359-.944 2.185-.944h88.006c.824 0 1.621.345 2.186.946 0 0 93.858 100 101.133 107.75l-147.039 100.982c-.17.116-.396.117-.566 0l-147.039-100.983c.898-.958 48.859-52.057 48.859-52.057 2.835-3.021 2.685-7.767-.336-10.602-3.02-2.834-7.766-2.685-10.602.336l-49.265 52.489-.015.014c-.007.007-.013.015-.02.023l-.069.073c-.029.032-.053.067-.082.099-5.17 5.646-6.901 13.634-4.506 20.92l120.713 367.037c1.961 5.963 7.496 9.969 13.774 9.969h57.735c6.278 0 11.813-4.007 13.774-9.97l24.854-75.567c1.294-3.935-.847-8.174-4.782-9.468-3.931-1.293-8.172.847-9.468 4.781l-24.738 75.226h-21.006v-259.178c.434-.24.863-.493 1.276-.777l135.929-93.354-80.543 244.897c-1.294 3.935.847 8.174 4.782 9.468 3.944 1.298 8.176-.857 9.468-4.781l84.946-258.281c2.396-7.288.663-15.28-4.512-20.926zm-187.351 382.932-116.197-353.309 135.928 93.353c.413.284.841.537 1.274.776v259.18z"/></g></svg>