<svg id="Capa_1" enable-background="new 0 0 512 512" height="512" viewBox="0 0 512 512" width="512" xmlns="http://www.w3.org/2000/svg"><g><path d="m456.557 250.155-54.6-155.796c-1.55-4.423-4.695-8.548-8.971-11.225l-129.227-80.909c-2.389-1.495-5.439-2.225-7.759-2.225-2.335 0-5.388.74-7.763 2.228l-63.344 39.66c-3.528 2.209-4.598 6.86-2.389 10.388 2.21 3.528 6.86 4.599 10.388 2.388l55.569-34.792v102.164c-.074.045-.151.083-.224.13l-44.758 28.022-71.67-57.28 31.273-19.58c3.528-2.208 4.597-6.859 2.389-10.388-2.208-3.527-6.86-4.599-10.388-2.388l-36.071 22.584c-3.978 2.491-7.316 6.511-8.968 11.224l-54.603 155.794c-1.279 3.649-1.355 7.814.001 11.686l54.601 155.796c1.631 4.656 4.879 8.664 8.97 11.225l129.221 80.909c2.329 1.458 5.391 2.231 7.765 2.231 2.296 0 5.379-.741 7.761-2.233l129.225-80.907c4.243-2.655 7.394-6.721 8.973-11.225l12.704-36.256c1.376-3.929-.692-8.229-4.621-9.606-3.928-1.372-8.229.693-9.606 4.621l-10.834 30.919-71.671-57.279 30.314-86.5h91.744l-27.933 79.702c-1.377 3.929.691 8.229 4.62 9.606.825.289 1.666.426 2.493.426 3.113 0 6.025-1.942 7.113-5.046l30.274-86.381c1.353-3.853 1.289-8.012.002-11.687zm-16.568-1.695h-91.744l-30.314-86.498 71.67-57.28zm-59.799-155.553-71.671 57.28-44.755-28.023c-.074-.047-.152-.086-.227-.131v-102.161zm-257.791 11.777 71.669 57.278-30.314 86.498h-91.745zm-50.389 158.851h91.745l30.314 86.498-71.67 57.279zm59.8 155.552 71.672-57.28 44.758 28.023c.073.046.149.084.223.129v102.166zm131.727 73.035v-102.162c.074-.045.151-.083.225-.13l44.757-28.022 71.671 57.279zm71.311-235.936-31.853 90.889c-.117.336-.35.625-.653.816l-46.342 29.014-46.345-29.016c-.301-.188-.531-.478-.649-.814l-31.853-90.89c-.043-.122-.043-.254-.001-.375l31.853-90.889c.117-.336.349-.625.653-.816l46.344-29.016 46.339 29.015c.303.19.535.48.653.817l31.854 90.889c.042.122.042.255 0 .376z"/></g></svg>