<svg id="Capa_1" enable-background="new 0 0 512 512" height="512" viewBox="0 0 512 512" width="512" xmlns="http://www.w3.org/2000/svg"><g><path d="m470.545 120.823-204.748-118.214c-5.712-3.297-13.261-3.656-19.593 0l-75.467 43.57c-3.588 2.071-4.817 6.659-2.745 10.246 2.071 3.588 6.658 4.815 10.246 2.745l55.545-32.068-95.005 152.558-84.62-48.852 93.77-54.138c3.588-2.071 4.817-6.659 2.745-10.246-2.071-3.588-6.658-4.816-10.246-2.745l-98.975 57.143c-5.805 3.353-9.795 9.72-9.795 16.966v236.428c0 6.976 3.753 13.477 9.796 16.966l204.75 118.212c5.885 3.398 13.442 3.552 19.593-.001l73.861-42.643c3.588-2.071 4.817-6.659 2.745-10.246-2.071-3.588-6.66-4.816-10.246-2.745l-68.656 39.637v-97.711l179.622-5.992-80.66 46.568c-3.587 2.071-4.817 6.659-2.745 10.246 2.078 3.599 6.668 4.81 10.246 2.745l100.582-58.07c6.043-3.488 9.798-9.99 9.798-16.968v-236.426c-.001-6.96-3.766-13.482-9.798-16.965zm-339.268 71.829-84.618 158.56v-207.412zm334.064 158.558-84.619-158.558 84.619-48.857zm-92.12-171.55-95.005-152.558 179.619 103.705zm-16.038 2.623h-202.366l101.182-162.48zm.515 15.001-101.698 176.145-101.699-176.145zm-216.13 7.947 101.183 175.253-191.303-6.384zm228.864-.001 90.123 168.872-191.306 6.382zm-301.557 184.462 179.625 5.993v97.712z"/></g></svg>