<svg id="Capa_1" enable-background="new 0 0 512 512" height="512" viewBox="0 0 512 512" width="512" xmlns="http://www.w3.org/2000/svg"><g><path d="m512 18.459c0-10.134-8.311-18.459-18.459-18.459h-475.082c-10.139 0-18.459 8.315-18.459 18.459v133.006c0 4.143 3.358 7.5 7.5 7.5s7.5-3.357 7.5-7.5v-93.374l116.487 195.929c.726 1.221.726 2.738 0 3.959l-116.487 195.93v-267.444c0-4.143-3.358-7.5-7.5-7.5s-7.5 3.357-7.5 7.5v307.076c0 5.07 2.125 9.771 5.407 13.053 3.261 3.259 7.95 5.406 13.053 5.406h475.082c10.132 0 18.459-8.309 18.459-18.459v-475.082zm-68.703 374.474 53.703 90.328v3.132l-230.393-230.393 230.393-230.393v3.132l-129.379 217.615c-3.538 5.949-3.538 13.342 0 19.291l57.966 97.5c1.402 2.358 3.895 3.668 6.453 3.668 1.304 0 2.624-.34 3.826-1.055 3.561-2.116 4.73-6.719 2.613-10.279l-57.966-97.5c-.726-1.221-.726-2.738 0-3.959l116.487-195.93v395.82l-40.811-68.643c-2.116-3.56-6.717-4.729-10.279-2.613-3.56 2.116-4.73 6.718-2.613 10.279zm39.964 104.067-217.615-129.379c-5.948-3.538-13.34-3.538-19.292 0l-217.614 129.379h-3.133l230.393-230.393 230.393 230.393zm-29.351 0h-395.82l195.93-116.486c1.22-.726 2.739-.726 3.96 0zm-425.17-482 217.615 129.379c2.975 1.77 6.31 2.653 9.646 2.653 3.335 0 6.671-.884 9.646-2.653l217.614-129.379h3.132l-230.393 230.393-230.393-230.393zm29.35 0h395.82l-195.93 116.486c-1.221.725-2.738.725-3.96 0zm86.289 250.646c3.538-5.949 3.538-13.342 0-19.291l-129.379-217.617v-3.131l230.393 230.393-230.393 230.393v-3.131z"/></g></svg>