<svg id="Capa_1" enable-background="new 0 0 512 512" height="512" viewBox="0 0 512 512" width="512" xmlns="http://www.w3.org/2000/svg"><g><path d="m508.224 321.446-15.879-146.508c-.283-2.613-1.089-5.095-2.396-7.375l-73.277-127.868c-2.638-4.604-7.327-8.024-12.553-9.117l-144.243-30.174c-2.574-.539-5.182-.539-7.756 0l-55.035 11.514c-4.054.848-6.653 4.822-5.805 8.877.848 4.054 4.823 6.656 8.877 5.805l26.581-5.561-47.295 108.49-62.185-85.587 48.136-10.07c4.054-.848 6.653-4.822 5.805-8.877-.848-4.054-4.813-6.652-8.877-5.805l-54.454 11.392c-5.223 1.092-9.909 4.505-12.554 9.121l-73.267 127.862c-1.308 2.283-2.114 4.764-2.396 7.373l-15.876 146.52c-.569 5.256 1.113 10.693 4.794 14.754l98.963 109.195c1.765 1.946 3.874 3.479 6.272 4.558l134.441 60.374c2.434 1.094 5.262 1.662 7.76 1.662 2.412 0 5.254-.536 7.757-1.661l134.429-60.375c2.397-1.077 4.509-2.61 6.274-4.559l98.964-109.202c3.575-3.943 5.383-9.331 4.795-14.758zm-116.219-37.49 88.56-78.502 12.051 111.19zm-367.989 46.963 100.614-32.693-25.506 115.567zm7.415-125.464 88.565 78.505-100.613 32.693zm105.112 73.129-103.13-91.416 1.15-10.614c.059-.54.228-1.057.499-1.532l5.307-9.262 137.166-13.339 66.33 91.292zm197.921-126.164 137.163 13.339 5.308 9.263c.271.474.439.989.498 1.532l1.15 10.612-103.125 91.414-107.323-34.869zm128.017-2.621-117.789-11.455 62.181-85.581zm-129.926-20.269-47.297-108.492 109.484 22.902zm-87.812-112.258 10.449-2.186c.533-.11 1.076-.11 1.611 0l10.45 2.186 55.074 126.334-66.327 91.289-66.329-91.291zm-139.62 35.484 62.185 85.588-117.793 11.455zm13.523 382.577-7.168-7.909 29.701-134.575 107.321-34.872v112.844l-118.812 69.833-9.737-4.373c-.499-.224-.938-.543-1.305-.948zm27.823 12.857 102.031-59.97v105.79zm117.031 45.823v-105.792l102.029 59.97zm129.851-58.681c-.367.405-.807.725-1.305.948l-9.737 4.373-118.809-69.832v-112.844l107.318 34.867 12.427 56.312c.772 3.5 3.875 5.886 7.317 5.886.535 0 1.079-.058 1.623-.178 4.045-.893 6.601-4.896 5.708-8.94l-10.527-47.703 100.619 32.69-75.112 82.882-7.42-33.617c-.894-4.045-4.9-6.603-8.94-5.708-4.045.894-6.601 4.896-5.708 8.94l9.715 44.015z"/></g></svg>