<svg id="Capa_1" enable-background="new 0 0 512 512" height="512" viewBox="0 0 512 512" width="512" xmlns="http://www.w3.org/2000/svg"><g><path d="m490.169 467.474c14.478-70.157 21.818-141.307 21.818-211.474s-7.341-141.317-21.82-211.479c-2.412-11.646-11.63-20.407-22.706-22.702-70.156-14.478-141.307-21.819-211.474-21.819s-141.316 7.341-211.479 21.82c-11.472 2.377-20.38 11.498-22.701 22.707-19.392 93.965-25.888 189.259-19.307 283.236.29 4.132 3.863 7.251 8.006 6.958 4.132-.289 7.247-3.874 6.958-8.005-6.192-88.428-.624-178.049 16.529-266.591l68.713 195.875-68.718 195.891c-5.85-30.185-10.394-60.652-13.527-90.749-.429-4.12-4.125-7.119-8.236-6.683-4.12.429-7.112 4.116-6.683 8.236 3.62 34.769 9.092 70.021 16.266 104.783 2.321 11.211 11.131 20.305 22.706 22.702 70.156 14.48 141.306 21.82 211.473 21.82s141.317-7.341 211.479-21.82c11.502-2.382 20.366-11.424 22.703-22.706zm-445.804.149 69.418-197.886 128.468 128.468zm197.887-353.827-128.469 128.469-69.418-197.887zm225.357-69.417-69.417 197.887-44.262-44.26c-2.927-2.929-7.676-2.929-10.606 0-2.929 2.929-2.929 7.678.001 10.606l47.39 47.388-134.728 134.728-134.727-134.728 134.727-134.727 62.597 62.599c2.929 2.929 7.678 2.929 10.606 0 2.93-2.929 2.93-7.678.001-10.606l-59.468-59.469zm-69.417 225.358 69.417 197.886-197.885-69.418zm98.795-13.737c0 64.973-6.391 130.81-19.001 195.891l-68.717-195.891 68.717-195.891c12.611 65.085 19.001 130.92 19.001 195.891zm-45.11-221.999-195.89 68.718-195.889-68.718c65.084-12.61 130.919-19.001 195.889-19.001 64.973 0 130.81 6.392 195.89 19.001zm-391.779 443.998 195.889-68.717 195.889 68.717c-65.083 12.611-130.918 19.001-195.889 19.001-64.972 0-130.807-6.391-195.889-19.001z"/></g></svg>