<svg id="Capa_1" enable-background="new 0 0 512 512" height="512" viewBox="0 0 512 512" width="512" xmlns="http://www.w3.org/2000/svg"><g><path d="m496.381 170.838-85.106-117.136c-2.716-3.736-6.471-6.465-10.86-7.89l-137.702-44.741c-4.392-1.428-9.034-1.428-13.422 0l-137.704 44.741c-4.391 1.426-8.148 4.155-10.861 7.891l-42.14 57.999c-2.435 3.35-1.692 8.041 1.659 10.475 3.35 2.435 8.039 1.692 10.475-1.659l32.205-44.324c7.488 24.223 10.508 49.721 9.028 75.149-23.728 9.267-48.912 14.276-74.263 14.636l12.462-17.151c2.435-3.35 1.692-8.041-1.659-10.475-3.348-2.434-8.039-1.693-10.475 1.659l-22.398 30.825c-2.713 3.733-4.146 8.148-4.146 12.768v144.791c0 4.62 1.434 9.035 4.146 12.767l85.105 117.133c2.714 3.737 6.471 6.467 10.861 7.892l135.195 43.925c1.679.455 4.618 1.886 9.22 1.886 2.257 0 4.516-.356 6.71-1.07l71.504-23.231c3.939-1.279 6.096-5.511 4.815-9.45-1.279-3.94-5.514-6.093-9.45-4.815l-55.423 18.006c8.179-23.998 20.723-46.4 36.867-66.102 24.64 6.451 47.956 17.203 68.679 31.811l-16.839 5.472c-3.939 1.28-6.096 5.511-4.815 9.45 1.03 3.17 3.97 5.184 7.131 5.184 2.108 0 .278.158 35.235-11.065 4.39-1.426 8.145-4.154 10.861-7.891l85.107-117.135c2.711-3.733 4.144-8.147 4.144-12.766v-144.792c-.001-4.619-1.434-9.033-4.146-12.767zm-87.306 264.969c-7.489-24.223-10.508-49.721-9.029-75.15 23.726-9.266 48.91-14.275 74.265-14.635zm-7.414-91.738c3.48-25.621 11.455-50.466 23.945-73.697 16.064 23.339 36.31 43.573 59.762 59.406-.097.468-.244.921-.439 1.356-28.273-.976-56.549 3.494-83.268 12.935zm-96.071 64.546c-32.705-7.147-66.468-7.149-99.18 0-22.259-25.004-49.568-44.846-80.232-58.29-1.637-16.473-5.038-32.854-10.226-48.821-5.187-15.966-12.064-31.217-20.421-45.505 8.358-14.288 15.234-29.538 20.421-45.504 5.187-15.964 8.588-32.342 10.225-48.812 15.16-6.647 29.685-14.949 43.266-24.816 13.582-9.867 25.961-21.119 36.968-33.483 32.711 7.147 66.467 7.147 99.179 0 22.236 24.979 49.569 44.855 80.234 58.3 3.311 33.31 13.741 65.416 30.646 94.316-16.903 28.896-27.336 61.004-30.647 94.325-15.159 6.646-29.685 14.941-43.264 24.807-13.582 9.868-25.962 21.119-36.969 33.483zm-267.9-62.595c25.356.36 50.538 5.368 74.264 14.634 1.48 25.429-1.54 50.928-9.029 75.152zm-11.217-145.509c20.296 15.195 37.726 34.047 51.475 55.489-13.749 21.442-31.18 40.295-51.475 55.49zm.16 129.266c23.452-15.833 43.697-36.067 59.762-59.406 6.113 11.37 11.253 23.335 15.293 35.768 4.04 12.435 6.915 25.137 8.653 37.93-26.718-9.44-54.992-13.91-83.267-12.936-.197-.435-.344-.888-.441-1.356zm88.323 121.567c-.414-.238-.8-.518-1.154-.839 9.667-26.594 14.153-54.863 13.431-83.187 23.195 11.183 44.38 26.414 62.686 45.545-27.159 8.067-52.658 21.069-74.963 38.481zm86.021-26.007c16.144 19.702 28.688 42.105 36.867 66.103l-105.546-34.293c20.723-14.607 44.039-25.359 68.679-31.81zm54.31-410.275c.475-.051.952-.051 1.428 0 7.811 27.197 20.798 52.703 38.03 75.193-25.241 4.571-51.329 4.738-77.489 0 17.232-22.49 30.22-47.997 38.031-75.193zm-54.309 71.601c-24.64-6.451-47.956-17.202-68.679-31.81l105.546-34.293c-8.18 23.998-20.724 46.401-36.867 66.103zm273.333 79.316c-25.357-.361-50.539-5.368-74.264-14.634-1.48-25.429 1.54-50.928 9.029-75.152zm-40.26 90.021c13.749-21.442 31.18-40.295 51.475-55.49v110.981c-20.295-15.196-37.725-34.049-51.475-55.491zm51.316-73.777c-23.452 15.833-43.698 36.067-59.762 59.406-12.194-22.681-20.379-47.453-23.944-73.691 24.309 8.589 49.908 13.065 75.63 13.065 2.542 0 5.087-.06 7.631-.147.199.438.347.895.445 1.367zm-87.169-120.728c-9.667 26.594-14.153 54.863-13.431 83.186-23.29-11.229-44.452-26.489-62.686-45.545 27.16-8.066 52.66-21.069 74.964-38.48.413.238.798.518 1.153.839zm-87.175 25.168c-16.143-19.702-28.687-42.104-36.866-66.102l105.546 34.292c-20.724 14.607-44.04 25.359-68.68 31.81zm-197.22-25.168c.354-.321.739-.601 1.154-.838 22.305 17.412 47.804 30.414 74.964 38.48-17.734 18.534-38.739 34-62.686 45.544.72-28.324-3.766-56.593-13.432-83.186zm-12.117 144.366c-4.039 12.433-9.178 24.397-15.292 35.767-16.064-23.338-36.309-43.572-59.762-59.405.098-.472.247-.929.444-1.369 2.544.088 5.088.147 7.632.147 25.72 0 51.32-4.476 75.629-13.065-1.737 12.793-4.611 25.492-8.651 37.925zm155.028 291.078c-.475.052-.952.052-1.428 0-7.811-27.197-20.798-52.704-38.031-75.194 12.704-2.301 25.671-3.492 38.745-3.492s26.042 1.191 38.745 3.492c-17.232 22.49-30.22 47.997-38.031 75.194zm94.66-109.672c10.576-7.683 21.765-14.341 33.392-19.947-.722 28.323 3.764 56.592 13.431 83.185-.354.321-.739.601-1.154.839-22.304-17.412-47.803-30.414-74.962-38.48 8.926-9.328 18.717-17.913 29.293-25.597z"/></g></svg>