<svg id="Capa_1" enable-background="new 0 0 512 512" height="512" viewBox="0 0 512 512" width="512" xmlns="http://www.w3.org/2000/svg"><g><path d="m511.941 429.442c-5.834-81.835-30.429-164.601-73.107-238.523-41.875-72.531-100.666-135.664-170.017-182.573-7.786-5.267-17.848-5.268-25.634-.001-20.364 13.774-39.988 29.042-58.327 45.379-3.093 2.756-3.367 7.496-.611 10.59 2.755 3.092 7.497 3.363 10.589.611 11.701-10.423 23.946-20.388 36.573-29.801-22.24 39.138-39.794 79.159-52.373 119.396-18.289-4.904-37.071-8.803-56.066-11.647 14.337-18.994 29.974-37.106 46.85-54.19 2.911-2.947 2.881-7.695-.065-10.606-2.947-2.91-7.696-2.881-10.606.065-93.163 94.314-149.661 219.075-159.088 351.301-.669 9.375 4.363 18.09 12.819 22.201 74.974 36.448 159.062 55.961 243.122 55.961 83.744-.001 167.814-19.351 243.12-55.962 8.457-4.11 13.49-12.825 12.821-22.201zm-86.097-231.023c8.277 14.336 15.875 29.078 22.797 44.141-12.912 16.76-26.837 32.64-41.524 47.327-61.02-62.8-132.828-106.922-213.651-131.27 14.713-46.939 36.413-93.616 64.578-138.92.826.224 1.629.573 2.369 1.073 67.48 45.644 124.685 107.074 165.431 177.649zm-254.295 235.703c4.872 18.234 10.87 36.427 17.898 54.313-50.713-6.335-100.603-19.831-147.503-39.992 44.987-.304 88.437-5.095 129.605-14.321zm10.928-18.022c-18.723-79.622-16.472-161.334 6.692-243.113 78.336 23.606 147.97 66.408 207.184 127.347-59.599 56.038-131.485 94.947-213.876 115.766zm-69.536-259.496c20.951 2.799 41.685 6.917 61.798 12.291-23.875 84.274-26.18 168.526-6.857 250.668-48.052 10.732-99.33 15.273-152.609 13.526-.218-.825-.316-1.692-.253-2.58 7.059-98.999 41.24-193.694 97.921-273.905zm379.621 281.549c-73.275 35.622-155.077 54.451-236.562 54.452-16.56 0-33.132-.791-49.643-2.329-8.05-19.576-14.836-39.578-20.213-59.631 84.913-21.454 159.032-61.589 220.515-119.411 9.615 10.455 18.984 21.463 27.914 32.813 2.556 3.251 7.271 3.822 10.532 1.258 3.255-2.561 3.818-7.276 1.257-10.531-9.25-11.759-18.962-23.163-28.932-33.989 13.36-13.337 26.113-27.628 38.075-42.656 19.866 47.069 33.124 97.002 39.122 147.678-8.596-14.66-17.639-28.828-27.04-42.343-2.364-3.398-7.039-4.237-10.439-1.874-3.4 2.365-4.24 7.04-1.874 10.44 14.06 20.213 27.297 41.936 39.411 64.603-.611.605-1.316 1.128-2.123 1.52z"/></g></svg>