<svg id="Capa_1" enable-background="new 0 0 512 512" height="512" viewBox="0 0 512 512" width="512" xmlns="http://www.w3.org/2000/svg"><g><path d="m468.737 261.38c1.057-62.813-16.657-127.084-54.829-177.829-41.626-55.294-102.955-83.551-157.906-83.551-37.692 0-74.785 11.919-107.269 34.468-3.403 2.362-4.246 7.035-1.884 10.438 2.363 3.404 7.037 4.247 10.438 1.885 25.074-17.405 53.073-27.938 81.832-30.913l-45.905 77.207c-.983.651-1.961 1.32-2.932 2.002l-80.795-1.708c.199-.267.392-.54.593-.807 6.57-8.729 13.777-16.946 21.418-24.424 2.961-2.896 3.012-7.645.116-10.605-2.897-2.962-7.646-3.012-10.606-.115-51.062 49.956-77.223 124.219-77.74 193.243-2.642 156.672 102.821 261.329 212.734 261.329 81.847 0 150.814-54.522 185.995-130.73 1.736-3.761.095-8.217-3.666-9.953-3.76-1.735-8.217-.094-9.953 3.666-2.39 5.178-4.96 10.24-7.667 15.196l-33.107-73.533 65.559-41.394c-1.49 23.335-5.685 46.127-12.55 67.976-1.521 4.841 2.112 9.75 7.157 9.75 3.189 0 6.146-2.051 7.153-5.254 8.66-27.562 13.298-56.524 13.813-86.171.002-.057 0-.115.001-.173zm-409.892 13.874 65.555 41.391-33.107 73.534c-18.61-34.096-29.792-73.558-32.448-114.925zm32.448-153.432 33.107 73.533-65.555 41.391c2.656-41.366 13.838-80.827 32.448-114.924zm-33.066 133.054 62.011-39.154c-4.366 25.559-4.653 53.315 0 80.556l-62.011-39.154c-.001-.375-.001-1.873 0-2.248zm73.209 82.678c6.48 16.997 15.032 32.717 25.486 46.604 4.977 6.611 10.273 12.658 15.841 18.122l-71.146 1.504zm249.131 0 29.819 66.231-71.147-1.504c18.27-17.928 32.139-40.624 41.328-64.727zm-124.565 85.81c-70.86 0-124.146-78.024-124.146-167.364 0-63.414 26.297-118.704 64.961-147.091.093-.061.18-.129.269-.194 17.539-12.802 37.608-20.079 58.915-20.079 21.308 0 41.378 7.278 58.919 20.082.088.064.175.129.265.191 39.391 27.37 64.962 83.677 64.962 147.092 0 96.833-58.114 167.363-124.145 167.363zm37.775 8.269-37.775 63.534-37.775-63.534c24.516 8.969 50.979 8.989 75.55 0zm45.462-321.914 71.147-1.504-29.819 66.231c-9.191-24.108-23.062-46.803-41.328-64.727zm81.471 12.103c18.61 34.098 29.792 73.559 32.448 114.924l-65.554-41.391zm-18.787-29.251c.201.267.394.54.593.808l-80.795 1.708c-.972-.683-1.949-1.351-2.932-2.002l-45.9-77.199c49.392 5.101 95.699 32.405 129.034 76.685zm-145.921-75.738 37.775 63.534c-12.13-4.438-24.81-6.732-37.775-6.732s-25.645 2.294-37.775 6.732zm-124.566 157.613-29.819-66.23 71.146 1.504c-18.269 17.927-32.138 40.623-41.327 64.726zm-21.95 244.175 80.795-1.708c.972.683 1.949 1.351 2.932 2.002l45.9 77.199c-52.63-5.436-98.278-35.426-129.627-77.493zm163.404 77.493 45.9-77.199c.983-.651 1.96-1.32 2.932-2.002l80.792 1.708c-.198.266-.389.541-.589.806-33.336 44.282-79.644 71.586-129.035 76.687zm118.874-199.836c4.366-25.56 4.653-53.315 0-80.556l62.012 39.154c.001.375.002 1.873 0 2.248z"/></g></svg>