<svg id="Capa_1" enable-background="new 0 0 512 512" height="512" viewBox="0 0 512 512" width="512" xmlns="http://www.w3.org/2000/svg"><g><path d="m256 0c-54.905 0-106.107 17.29-148.249 47.275-3.375 2.402-4.164 7.085-1.763 10.46 2.4 3.373 7.083 4.162 10.459 1.763 4.124-2.935 8.33-5.722 12.604-8.377l29.838 51.681-99.036 13.163c8.984-12.559 19.161-24.261 30.398-34.912 3.006-2.85 3.134-7.597.284-10.603-2.849-3.007-7.596-3.134-10.603-.284-16.123 15.282-30.21 32.597-41.859 51.446-25.545 42.669-38.073 90.18-38.073 134.388 0 140.317 113.417 256 256 256 88.283 0 170.637-45.088 217.926-121.613.325-.743 38.074-58.309 38.074-134.387 0-142.394-115.854-256-256-256zm219.363 355.895-38.134-92.395h59.654c-.998 31.949-8.36 63.478-21.52 92.395zm-219.363 141.105c-1.182 0-2.322-.008-3.438-.022l-66.34-86.237h139.555l-66.34 86.237c-1.115.014-2.255.022-3.437.022zm-240.883-233.5h59.654l-38.134 92.395c-13.16-28.917-20.522-60.446-21.52-92.395zm21.52-107.395 38.134 92.395h-59.654c.998-31.949 8.36-63.478 21.52-92.395zm12.346 223.353c-1.154-1.929-2.293-3.899-3.41-5.896l41.528-100.62 69.778 120.856zm49.987-115.958h144.039l-72.019 124.74zm153.592-248.478c1.116-.015 5.759-.015 6.875 0l66.34 86.237h-139.555zm210.455 117.52c1.153 1.928 2.292 3.898 3.411 5.897l-41.53 100.62-69.777-120.857zm-49.988 115.958h-144.039l72.02-124.741zm-133.832-232.392c32.201 3.08 62.986 12.527 90.796 27.452l-29.873 51.742zm48.822 100.152-72.019 124.74-72.02-124.74zm-95.216 379.632c-32.201-3.08-62.986-12.527-90.796-27.452l29.873-51.742zm107.316-79.194 29.873 51.742c-27.809 14.925-58.594 24.372-90.795 27.452zm-37.14-64.33 25.041 43.372h-144.04l72.02-124.74 29.462 51.03c2.08 3.605 6.675 4.806 10.245 2.745 3.587-2.071 4.816-6.658 2.745-10.245l-29.462-51.03h144.039l-72.019 124.74-25.041-43.372c-2.07-3.588-6.659-4.815-10.245-2.745-3.587 2.071-4.817 6.658-2.745 10.245zm121.919-79.427 41.529 100.62c-1.118 1.998-2.257 3.967-3.411 5.896l-107.896 14.341zm12.331-24.441 38.135-92.395c13.16 28.917 20.522 60.446 21.52 92.395zm14.933-132.532-99.052-13.166 29.871-51.738c26.792 16.615 50.367 38.551 69.181 64.904zm-219.362-99.857-60.92 79.191-29.848-51.699c28.083-15.109 58.845-24.441 90.768-27.492zm10.21 232.389h-144.04l72.02-124.74zm-155.909-9.442-41.528-100.62c1.117-1.996 2.256-3.966 3.411-5.896l107.895-14.341zm-27.262 156.974 99.052 13.165-29.871 51.738c-26.793-16.615-50.368-38.55-69.181-64.903zm323.142 64.905-29.871-51.739 99.052-13.166c-18.812 26.353-42.387 48.289-69.181 64.905z"/></g></svg>