<svg id="Capa_1" enable-background="new 0 0 512 512" height="512" viewBox="0 0 512 512" width="512" xmlns="http://www.w3.org/2000/svg"><g><path d="m510.68 262.687c1.76-4.25 1.76-9.125-.001-13.376-7.424-17.922-62.176-150.106-69.869-168.669-1.787-4.311-5.144-7.669-9.454-9.454-18.137-7.515-149.919-62.097-168.665-69.862-4.251-1.761-9.128-1.763-13.379-.002l-168.669 69.865c-4.314 1.788-7.671 5.147-9.454 9.455l-34.917 84.29c-.006.014-.013.027-.019.041s-.01.029-.015.043l-34.918 84.294c-1.76 4.25-1.76 9.125.001 13.376l34.916 84.289c.006.015.01.031.016.046.004.01.01.019.015.029l34.922 84.305c1.787 4.311 5.144 7.669 9.454 9.454 19.181 7.946 149.713 62.011 168.665 69.861 4.253 1.761 9.125 1.764 13.379.002l168.668-69.865c4.313-1.788 7.671-5.146 9.454-9.454l34.915-84.29c.006-.015.015-.027.021-.042.009-.022.015-.045.024-.067l6.15-14.848c1.586-3.827-.231-8.214-4.059-9.799-3.827-1.589-8.214.232-9.799 4.059l-3.307 7.984-71.041-29.427 96.029-30.895-8.237 19.882c-1.586 3.826.231 8.214 4.059 9.799 3.824 1.584 8.214-.23 9.799-4.059zm-144.118 47.228 59.711 116.358-116.356-59.709-40.059-96.705zm-18.348 149.098-29.427-71.038 89.744 46.053zm-244.747-24.984 89.749-46.056-29.427 71.041zm-50.483-85.818 71.042-29.427-46.056 89.748zm-30.729-74.181 96.03 30.896-71.042 29.427zm24.988-96.384 71.042 29.427-96.03 30.896zm30.728-74.179 13.068 25.465c1.898 3.698 6.423 5.135 10.097 3.249 3.686-1.892 5.14-6.412 3.249-10.097l-18.658-36.357 116.356 59.711 40.058 96.704-96.704-40.056-25.074-48.862c-1.892-3.686-6.411-5.141-10.097-3.249s-5.14 6.412-3.249 10.097l17.009 33.145-71.043-29.427zm85.815-50.481 29.427 71.039-89.745-46.054zm244.747 24.984-89.749 46.057 29.427-71.042zm50.483 85.818-71.043 29.427 46.056-89.748zm-222.614 92.212-96.705 40.057-124.506-40.057 124.506-40.057zm5.74 13.858-40.057 96.704-116.358 59.71 59.711-116.358zm13.858 5.739 40.058 96.703-40.058 124.498-40.057-124.495zm48.926-157.311-30.897-96.027 60.324 24.986zm-8.869 21.411-40.057 96.705-40.058-96.702 40.058-124.499zm-88.984-21.407-29.429-71.043 60.328-24.989zm.001 275.424 30.897 96.027-60.324-24.986zm97.853-.004 29.429 71.043-60.327 24.989zm4.987-248.271 116.358-59.712-59.71 116.358-96.704 40.057zm154.843 32.207 24.988 60.323-96.03-30.896zm-30.728 230.886-46.056-89.748 71.042 29.427zm-158.431-152.532 96.705-40.057 124.506 40.057-124.506 40.057z"/></g></svg>