<svg id="Capa_1" enable-background="new 0 0 512 512" height="512" viewBox="0 0 512 512" width="512" xmlns="http://www.w3.org/2000/svg"><g><path d="m512 123.055c0-6.925-3.408-13.398-9.115-17.316l-126.613-86.92c-3.516-2.413-7.627-3.688-11.889-3.688h-216.766c-4.263 0-8.373 1.275-11.888 3.688l-37.07 25.449c-3.415 2.345-4.282 7.014-1.938 10.429 2.344 3.414 7.014 4.28 10.429 1.938l32.287-22.165 34.768 112.094-39.624 27.202-112.093-59.01 55.97-38.423c3.415-2.345 4.282-7.014 1.938-10.429-2.344-3.413-7.012-4.28-10.429-1.938l-60.851 41.773c-6.263 4.3-9.116 11.068-9.116 17.316v265.891c0 6.925 3.408 13.398 9.115 17.316l126.613 86.92c3.516 2.413 7.627 3.688 11.889 3.688h216.766c4.262 0 8.373-1.275 11.889-3.688l126.612-86.92c5.708-3.918 9.116-10.392 9.116-17.316 0-14.238 0-251.26 0-265.891zm-118.814 205.92 103.814-57.549v112.201zm-106.694 110.247c-3.624-2.009-8.188-.7-10.196 2.924l-20.296 36.611-60.412-108.979h120.825l-23.163 41.785c-2.008 3.623-.699 8.188 2.923 10.196 3.645 2.02 8.201.676 10.196-2.923l20.82-37.557 31.205 100.59h-86.967l17.99-32.452c2.006-3.622.697-8.188-2.925-10.195zm-45.918 42.648h-86.967l31.205-100.59zm86.245-127.092h-141.638l-43.089-29.581v-138.394l43.089-29.581h141.639l43.089 29.581v138.395zm-207.443-172.065-104.376 57.861v-112.808zm7.716 133.699-108.979-60.412 108.979-60.412zm-112.092 67.214v-112.2l103.814 57.55zm256.426-353.496h86.967l-31.205 100.59zm44.986 112.092h-120.824l60.412-108.979zm-131.483-11.713-31.134-100.379h86.78zm199.979 65.079 108.979 60.412-108.979 60.412zm112.092-67.214v112.201l-103.814-57.55zm-6.985-13.276-112.094 59.01-39.975-27.443 34.772-112.091zm-468.03 281.804 112.094-59.01 39.975 27.443-34.772 112.091zm350.733 80.523-34.772-112.091 39.975-27.443 112.094 59.01z"/></g></svg>