<svg id="Capa_1" enable-background="new 0 0 512 512" height="512" viewBox="0 0 512 512" width="512" xmlns="http://www.w3.org/2000/svg"><g><path d="m437.02 74.98c-48.353-48.351-112.64-74.98-181.02-74.98-22.433 0-52.228 3.686-79.491 12.584-3.938 1.285-6.088 5.52-4.803 9.457s5.517 6.087 9.457 4.803c4.925-1.607 9.899-3.044 14.91-4.326l46.169 67.805-38.797 38.798h-54.874l-15.286-80.576c5.352-3.171 10.832-6.148 16.439-8.908 3.716-1.829 5.246-6.325 3.417-10.041s-6.322-5.245-10.041-3.418c-42.282 20.81-78.014 52.873-103.333 92.725-25.993 40.914-39.767 88.35-39.767 137.097 0 141.483 114.497 256 256 256 68.38 0 132.667-26.629 181.02-74.98 48.351-48.353 74.98-112.64 74.98-181.02s-26.629-132.667-74.98-181.02zm-121.07 414.536-46.191-67.838 38.797-38.798h54.874l15.297 80.633c-19.594 11.634-40.697 20.375-62.777 26.003zm-182.676-26.003 15.297-80.633h54.874l38.797 38.798-46.191 67.838c-22.081-5.628-43.184-14.369-62.777-26.003zm-84.787-84.786c-11.634-19.593-20.375-40.696-26.003-62.777l67.838-46.192 38.797 38.797v54.874zm-33.487-122.727c0-14.901 1.374-29.667 4.055-44.138l62.172 42.334c-.212 1.276-.212 2.33 0 3.607l-62.198 42.352c-2.655-14.418-4.029-29.179-4.029-44.155zm33.547-122.715 80.574 15.286v54.874l-38.797 38.797-67.793-46.161c5.625-21.993 14.357-43.127 26.016-62.796zm49.231 122.715 31.342-31.342v62.684zm46.342 111.88v-44.325l44.324 44.325zm111.88 46.342-31.342-31.342h62.683zm111.88-46.342h-44.324l44.324-44.325zm-65.538 0h-92.683l-65.538-65.538v-92.684l65.538-65.538h92.684l65.538 65.537v92.684zm76.384-319.393-15.297 80.633h-54.873l-38.798-38.798 46.191-67.838c22.081 5.628 43.184 14.369 62.777 26.003zm84.787 84.786c11.634 19.593 20.375 40.696 26.003 62.777l-67.838 46.191-38.798-38.798v-54.873zm-95.633 10.847v44.324l-44.324-44.324zm15 80.537 31.342 31.342-31.342 31.342zm47.893 29.539 62.198-42.352c2.655 14.418 4.029 29.18 4.029 44.156s-1.374 29.737-4.029 44.156l-62.198-42.352c.098-.591.16-1.192.16-1.804s-.062-1.212-.16-1.804zm24.015-134.534-73.938 14.027c-.701-.98-1.558-1.838-2.538-2.538l14.027-73.939c23.892 16.461 45.252 37.488 62.449 62.45zm-154.632-100.633-42.355 62.203c-1.193-.199-2.41-.199-3.603 0l-42.345-62.189c29.068-5.38 59.066-5.398 88.303-.014zm-44.156 78.749 31.342 31.342h-62.684zm-111.88 90.667v-44.325h44.324zm-24.453-131.205 14.021 73.911c-.98.701-1.838 1.558-2.538 2.538l-73.908-14.021c16.862-24.544 38.039-45.679 62.425-62.428zm-62.455 335.098 73.938-14.027c.701.98 1.558 1.838 2.538 2.539l-14.027 73.939c-23.891-16.461-45.252-37.489-62.449-62.451zm154.632 100.633 42.355-62.204c1.246.207 2.307.215 3.602 0l42.355 62.204c-14.418 2.655-29.18 4.029-44.156 4.029s-29.738-1.374-44.156-4.029zm180.494-38.183-14.027-73.939c.98-.701 1.837-1.558 2.538-2.538 22.879 4.295 21.898 4.26 23.159 4.26 3.532 0 6.678-2.506 7.36-6.103.772-4.069-1.901-7.995-5.971-8.767l-22.518-4.273v-54.874l38.797-38.797 67.838 46.192c-5.628 22.081-14.369 43.184-26.003 62.777l-23.406-4.436c-4.072-.768-7.994 1.902-8.765 5.973-.771 4.069 1.902 7.994 5.972 8.766l17.473 3.312c-16.494 23.941-37.535 45.283-62.447 62.447z"/></g></svg>