<svg id="Capa_1" enable-background="new 0 0 512 512" height="512" viewBox="0 0 512 512" width="512" xmlns="http://www.w3.org/2000/svg"><g><path d="m459.189 5.601c-2.318-3.507-6.213-5.601-10.419-5.601h-19.53c-5.167 0-9.939 2.997-12.154 7.631-12.84 26.81-32.382 50.178-56.514 67.577-21.546 15.535-46.461 26.084-72.557 30.821-.308-2.237-1.233-4.366-2.729-6.128-2.283-2.688-5.617-4.23-9.146-4.23h-40.28c-3.529 0-6.863 1.542-9.146 4.23-1.5 1.767-2.426 3.903-2.732 6.146-33.769-6.083-64.712-21.573-89.975-45.15-3.028-2.825-7.774-2.661-10.6.366-2.826 3.028-2.663 7.774.366 10.601 28.546 26.641 63.784 43.757 102.209 49.724l2.272 13.862c-70.967-9.491-131.868-54.832-161.208-120.45h14.769c5.022 10.359 11.021 20.335 17.84 29.666 2.444 3.344 7.136 4.072 10.48 1.63 3.344-2.444 4.074-7.137 1.63-10.481-6.47-8.854-12.139-18.335-16.849-28.179-2.217-4.639-6.989-7.636-12.156-7.636h-19.53c-4.206 0-8.101 2.094-10.419 5.601-2.327 3.52-2.727 7.941-1.072 11.827 31.408 73.778 99.662 124.469 179.042 133.444l1.365 8.326c-26.076 4.566-50.47 16.589-70.927 35.089-4.201-5.691-10.952-9.39-18.553-9.39-12.71 0-23.051 10.341-23.051 23.052 0 9.101 5.302 16.984 12.978 20.73-16.808 27.002-25.644 58.466-25.644 91.722 0 22.118 3.901 43.38 11.591 63.355-8.829 3.233-15.147 11.72-15.147 21.655 0 12.71 10.341 23.051 23.051 23.051 5.284 0 10.155-1.792 14.047-4.793 2.667 3.576 5.458 7.045 8.378 10.348 22.978 25.999 52.844 42.705 85.175 47.91-.71 2.215-1.097 4.574-1.097 7.021.002 12.711 10.343 23.052 23.053 23.052s23.051-10.341 23.051-23.052c0-2.448-.387-4.806-1.097-7.021 32.331-5.206 62.197-21.911 85.174-47.908 2.927-3.31 5.719-6.778 8.383-10.347 3.892 3 8.761 4.791 14.044 4.791 12.71 0 23.051-10.341 23.051-23.051 0-9.933-6.315-18.418-15.14-21.653 1.188-3.094 2.289-6.225 3.291-9.374 1.256-3.947-.926-8.165-4.873-9.421-3.946-1.258-8.165.925-9.421 4.872-1.519 4.775-3.294 9.499-5.269 14.1-10.177 3.976-16.459 14.743-14.253 25.938-3.401 4.962-7.096 9.738-11.051 14.209-22.879 25.887-53.255 41.512-85.738 44.177-3.065-1.51-6.51-2.362-10.152-2.362s-7.087.852-10.152 2.362c-32.483-2.665-62.859-18.29-85.739-44.179-3.942-4.457-7.636-9.236-11.048-14.215.284-1.442.436-2.931.436-4.455 0-9.761-6.101-18.119-14.688-21.475-8.415-19.643-12.858-41.53-12.858-63.536 0-33.242 9.609-64.479 27.812-90.523 8.334-2.703 14.598-10.031 15.756-18.944 24.714-25.048 56.74-38.813 90.481-38.813s65.768 13.765 90.482 38.813c1.158 8.913 7.422 16.241 15.756 18.944 18.203 26.044 27.812 57.281 27.812 90.523 0 5.685-.29 11.385-.861 16.943-.453 4.41 3.003 8.268 7.47 8.268 3.797 0 7.055-2.875 7.452-6.734.623-6.065.939-12.282.939-18.477 0-33.256-8.836-64.72-25.644-91.722 7.676-3.746 12.978-11.629 12.978-20.73 0-12.711-10.341-23.052-23.051-23.052-7.6 0-14.351 3.699-18.553 9.39-20.457-18.5-44.851-30.523-70.927-35.089l1.365-8.326c79.38-8.975 147.634-59.666 179.042-133.442 1.656-3.887 1.256-8.309-1.071-11.828zm-73.634 407.861c-4.439 0-8.051-3.611-8.051-8.051s3.612-8.052 8.051-8.052 8.051 3.612 8.051 8.052-3.612 8.051-8.051 8.051zm-121.504 75.486c0 4.439-3.612 8.052-8.051 8.052s-8.051-3.612-8.051-8.052 3.612-8.051 8.051-8.051c4.44 0 8.051 3.612 8.051 8.051zm-137.606-75.486c-4.439 0-8.051-3.611-8.051-8.051s3.612-8.052 8.051-8.052 8.051 3.612 8.051 8.052-3.611 8.051-8.051 8.051zm16.222-213.566c4.405 0 7.991 3.558 8.046 7.949.001.037.004.074.005.111.078 4.435-3.614 8.043-8.051 8.043-4.439 0-8.051-3.612-8.051-8.052s3.612-8.051 8.051-8.051zm226.666 0c4.439 0 8.051 3.612 8.051 8.052s-3.611 8.052-8.051 8.052c-4.436 0-8.128-3.608-8.051-8.043.001-.037.004-.074.005-.111.056-4.392 3.641-7.95 8.046-7.95zm-113.333-42.776c-2.996 0-5.977.108-8.945.299l-7.663-46.75h33.216l-7.663 46.75c-2.968-.191-5.949-.299-8.945-.299zm27.746-21.67 2.272-13.861c29.985-4.683 58.686-16.448 83.327-34.214 25.893-18.67 46.912-43.678 60.84-72.375h14.77c-29.34 65.617-90.241 110.959-161.209 120.45z"/><path d="m256 190.577c-64.412 0-115.597 59.008-115.597 129.82 0 74.765 55.508 129.794 113.668 129.794 64.872 1.183 117.526-57.759 117.526-129.794 0-71.026-51.378-129.82-115.597-129.82zm99.978 117.115c-12.576-4.473-23.979-10.345-34.133-17.575 2.679-13.478 7.136-26.997 13.336-40.464 11.251 16.368 18.69 36.3 20.797 58.039zm-199.955 25.415c12.576 4.473 23.979 10.345 34.132 17.574-2.679 13.477-7.135 26.995-13.336 40.462-11.25-16.368-18.689-36.298-20.796-58.036zm163.444-26.526c8.512 5.414 17.722 10.026 27.636 13.818-9.914 3.792-19.124 8.404-27.636 13.818-.866-9.47-.867-18.159 0-27.636zm-13.887 37.687c-11.284 9.275-21.054 20.271-29.286 32.973-13.526-2.331-27.064-2.331-40.589 0-8.232-12.701-18.001-23.698-29.286-32.972 2.257-15.907 2.257-31.83 0-47.737 11.285-9.275 21.055-20.272 29.287-32.975 13.581 2.341 26.998 2.342 40.587 0 8.232 12.702 18.002 23.699 29.287 32.975-2.256 15.906-2.256 31.828 0 47.736zm3.288 17.052c2.544 10.445 6.045 20.878 10.538 31.29-9.173-4.965-18.365-8.849-27.566-11.652 5.379-7.657 10.861-13.858 17.028-19.638zm-40.631 29.83c-4.768 9.251-8.843 19.263-12.237 30.012-3.394-10.749-7.469-20.761-12.237-30.012 8.16-.974 16.314-.974 24.474 0zm-48.077-10.193c-9.201 2.804-18.393 6.687-27.566 11.652 4.493-10.412 7.995-20.845 10.538-31.29 6.27 5.878 11.724 12.088 17.028 19.638zm-27.627-46.74c-8.512-5.414-17.722-10.026-27.636-13.817 9.914-3.792 19.124-8.404 27.636-13.818.866 9.469.867 18.159 0 27.635zm10.6-54.739c-2.544-10.445-6.046-20.879-10.539-31.291 9.174 4.965 18.365 8.849 27.567 11.653-5.39 7.671-10.873 13.869-17.028 19.638zm40.631-29.832c4.768-9.25 8.843-19.262 12.236-30.01 3.394 10.748 7.469 20.76 12.236 30.01-8.159.975-16.312.975-24.472 0zm48.075 10.194c9.202-2.804 18.394-6.687 27.568-11.653-4.494 10.413-7.996 20.846-10.539 31.292-6.168-5.781-11.65-11.982-17.029-19.639zm-8.203-13.189c-6.581-11.943-11.889-25.405-15.888-40.287 19.315 2.576 36.974 11.42 51.373 24.701-11.888 7.22-23.703 12.415-35.485 15.586zm-55.273 0c-11.782-3.17-23.597-8.366-35.485-15.585 14.399-13.281 32.058-22.125 51.373-24.701-3.998 14.881-9.306 28.343-15.888 40.286zm-51.544 3.002c6.201 13.467 10.657 26.986 13.336 40.464-10.154 7.23-21.557 13.102-34.133 17.575 2.107-21.739 9.546-41.671 20.797-58.039zm51.544 144.493c6.581 11.943 11.889 25.404 15.888 40.285-19.315-2.576-36.973-11.42-51.372-24.7 11.888-7.219 23.702-12.415 35.484-15.585zm55.274 0c11.781 3.17 23.596 8.366 35.483 15.585-14.398 13.28-32.057 22.124-51.372 24.7 4.001-14.881 9.308-28.342 15.889-40.285zm51.544-3.002c-6.2-13.467-10.656-26.985-13.336-40.462 10.154-7.23 21.556-13.102 34.132-17.575-2.107 21.738-9.546 41.668-20.796 58.037z"/></g></svg>