<svg id="Capa_1" enable-background="new 0 0 512 512" height="512" viewBox="0 0 512 512" width="512" xmlns="http://www.w3.org/2000/svg"><g><path d="m459.678 288.492c-16.607-32.365-36.585-60.468-51.31-79.318.026-.293.045-.589.045-.889v-36.348c0-7.142-5.811-12.952-12.952-12.952h-7.321v-17.477h.929c5.208 0 9.866-2.899 12.155-7.566 9.973-20.333 21.86-50.786 21.86-80.392 0-15.78-4.116-29.209-11.903-38.834-7.678-9.489-18.523-14.716-30.536-14.716-12.015 0-22.859 5.227-30.537 14.717-7.786 9.625-11.902 23.054-11.902 38.834 0 29.605 11.888 60.059 21.86 80.392 2.289 4.667 6.947 7.566 12.155 7.566h.919v17.477h-7.312c-7.142 0-12.952 5.811-12.952 12.952v36.348c0 .296.019.588.045.878-14.724 18.857-34.706 46.967-51.309 79.329-21.042 41.013-31.711 79.04-31.711 113.027 0 20.76 4.783 39.765 14.218 56.486 2.04 3.614 6.617 4.878 10.218 2.847 3.607-2.035 4.882-6.61 2.847-10.218-8.15-14.444-12.282-30.97-12.282-49.115 0-69.955 48.986-143.675 80.014-183.342h31.45c69.546 88.755 80.025 152.851 80.025 183.342 0 55.325-40.269 95.48-95.75 95.48-23.536 0-45.796-7.66-62.681-21.569-3.195-2.632-7.923-2.175-10.558 1.021-2.634 3.197-2.177 7.924 1.021 10.558 19.563 16.115 45.21 24.99 72.217 24.99 30.125 0 57.9-10.769 78.21-30.322 20.983-20.204 32.54-48.671 32.54-80.158 0-33.989-10.67-72.017-31.712-113.028zm-106.473-234.941c0-23.419 10.771-38.551 27.439-38.551s27.439 15.132 27.439 38.551c0 26.343-10.736 54.063-19.923 72.958h-15.033c-9.185-18.896-19.922-46.617-19.922-72.958zm14.671 120.434h25.537v29.192h-25.537z"/><path d="m327.264 455.898c13.604 13.096 32.561 20.309 53.381 20.309s39.777-7.213 53.381-20.31c14.844-14.292 21.569-33.692 21.569-54.376 0-52.121-32.462-111.239-62.885-153.558-2.787-3.876-7.297-6.189-12.064-6.189-4.769 0-9.278 2.313-12.065 6.189-30.383 42.263-62.886 101.472-62.886 153.558 0 20.691 6.728 40.086 21.569 54.377zm-6.569-54.377c0-11.392 1.729-23.104 4.652-34.783l14.507 34.398-14.845 24.818c-2.85-7.323-4.314-15.535-4.314-24.433zm27.838-93.062 23.376 39.085-22.509 37.631-17.135-40.629c4.613-12.484 10.253-24.66 16.268-36.087zm80.498 36.106-17.135 40.616-22.509-37.636 23.374-39.078c6.017 11.43 11.657 23.61 16.27 36.098zm11.564 56.956c0 8.897-1.465 17.109-4.314 24.433l-14.839-24.811 14.506-34.383c2.92 11.672 4.647 23.377 4.647 34.761zm-35.928.796-24.022 56.94-24.017-56.945 24.019-40.157zm-71.025 38.426 13.44-22.469 17.314 41.053c-10.339-2.465-19.53-7.304-26.727-14.234-1.431-1.378-2.772-2.831-4.027-4.35zm63.254 18.583 17.317-41.047 13.435 22.464c-1.255 1.519-2.596 2.972-4.026 4.349-7.197 6.929-16.388 11.769-26.726 14.234zm-16.25-202.447c6.973 9.708 15.4 22.213 23.704 36.431l-23.701 39.624-23.703-39.632c8.302-14.213 16.726-26.715 23.7-36.423z"/><path d="m159.079 209.163c.026-.29.044-.582.044-.878v-36.348c0-7.142-5.81-12.952-12.952-12.952h-7.312v-17.477h.92c5.208 0 9.865-2.899 12.155-7.566 9.972-20.332 21.86-50.784 21.86-80.392 0-15.78-4.116-29.209-11.903-38.834-7.676-9.489-18.521-14.716-30.535-14.716s-22.859 5.227-30.537 14.717c-7.787 9.625-11.903 23.054-11.903 38.834 0 29.608 11.888 60.06 21.861 80.392 2.29 4.667 6.947 7.566 12.155 7.566h.928v17.477h-7.321c-7.142 0-12.952 5.811-12.952 12.952v36.348c0 .312.018.62.047.925-7.565 9.689-14.84 19.624-21.628 29.615-2.328 3.426-1.438 8.091 1.989 10.418 3.424 2.328 8.091 1.439 10.418-1.988 6.664-9.809 13.812-19.565 21.248-29.077h31.422c69.54 88.773 80.017 152.857 80.017 183.341 0 55.325-40.265 95.48-95.74 95.48-55.481 0-95.75-40.155-95.75-95.48 0-36.828 13.601-78.922 40.426-125.113 2.08-3.582.862-8.172-2.719-10.252s-8.172-.863-10.252 2.719c-28.17 48.51-42.454 93.138-42.454 132.646 0 31.487 11.557 59.954 32.541 80.158 20.308 19.553 48.083 30.322 78.208 30.322 30.121 0 57.893-10.769 78.201-30.322 20.983-20.204 32.539-48.672 32.539-80.158 0-33.987-10.669-72.015-31.711-113.027-16.603-32.362-36.585-60.473-51.31-79.33zm-55.163-155.612c0-23.419 10.771-38.551 27.439-38.551s27.439 15.132 27.439 38.551c0 26.345-10.736 54.064-19.923 72.958h-15.031c-9.187-18.894-19.924-46.614-19.924-72.958zm14.672 120.434h25.536v29.192h-25.536z"/><path d="m56.406 401.521c0 20.6 6.673 40.033 21.57 54.376 13.602 13.097 32.56 20.31 53.38 20.31s39.778-7.213 53.381-20.31c14.842-14.289 21.569-33.689 21.569-54.376 0-51.998-32.395-111.145-62.885-153.558-2.786-3.875-7.296-6.189-12.064-6.189-4.768 0-9.279 2.313-12.065 6.189-30.415 42.307-62.886 101.493-62.886 153.558zm42.838-93.063 23.376 39.086-22.508 37.63-17.136-40.629c4.613-12.484 10.253-24.66 16.268-36.087zm80.498 36.108-17.135 40.616-22.509-37.636 23.374-39.077c6.017 11.429 11.657 23.609 16.27 36.097zm11.564 56.955c0 8.897-1.465 17.109-4.314 24.433l-14.839-24.811 14.506-34.383c2.919 11.673 4.647 23.377 4.647 34.761zm-35.928.796-24.022 56.938-24.016-56.944 24.019-40.156zm-64.813-1.18-14.845 24.818c-2.85-7.324-4.314-15.536-4.314-24.434 0-11.392 1.729-23.104 4.652-34.783zm-6.212 39.606 13.44-22.469 17.314 41.053c-12.02-2.866-22.847-9.017-30.754-18.584zm63.254 18.583 17.317-41.047 13.435 22.464c-7.909 9.57-18.738 15.719-30.752 18.583zm-16.251-202.447c6.973 9.709 15.4 22.214 23.704 36.432l-23.7 39.623-23.703-39.633c8.301-14.213 16.726-26.714 23.699-36.422z"/></g></svg>