<svg id="Capa_1" enable-background="new 0 0 512 512" height="512" viewBox="0 0 512 512" width="512" xmlns="http://www.w3.org/2000/svg"><g><path d="m329.03 146.368 27.773-22.858c9.061-7.425 9.569-21.123 1.097-29.255-3.604-3.455-7.577-6.726-11.865-9.79l21.761-17.905c5.468-4.501 6.375-12.429 2.066-18.048-35.918-46.845-33.34-43.544-34.035-44.28-2.457-2.661-5.962-4.232-9.609-4.232h-143.338c-3.755 0-7.542 1.626-10.364 5.105-.084.104-33.202 43.304-33.28 43.406-.02.026-.035.054-.055.08-4.245 5.615-3.323 13.491 2.121 17.97l21.753 17.899c-4.289 3.062-8.263 6.335-11.869 9.798-8.462 8.121-7.955 21.816 1.088 29.243l28.786 23.684c-13.675 5.877-26.63 13.354-38.638 22.325-3.318 2.479-3.999 7.179-1.521 10.497 2.471 3.306 7.168 4.007 10.497 1.521 12.628-9.434 26.387-17.077 40.972-22.776v25.029c-52.164 24.129-88.446 76.956-88.446 138.106 0 83.855 68.221 152.076 152.076 152.076 36.076 0 71.056-12.856 98.495-36.202 3.154-2.684 3.536-7.417.852-10.572-2.683-3.153-7.417-3.537-10.572-.852-24.729 21.039-56.256 32.626-88.774 32.626-75.584 0-137.076-61.492-137.076-137.076s61.491-137.075 137.073-137.075c75.586 0 137.079 61.491 137.079 137.075 0 29.001-8.941 56.716-25.858 80.147-2.425 3.357-1.667 8.046 1.69 10.471 3.358 2.423 8.047 1.668 10.472-1.691 18.773-26.003 28.696-56.754 28.696-88.927 0-62.274-37.632-115.917-91.346-139.407v-24.833c68.627 25.413 114.38 90.766 114.38 164.242-.001 96.556-78.554 175.111-175.111 175.111s-175.11-78.555-175.11-175.11c0-43.646 16.214-85.481 45.654-117.799 2.79-3.062 2.569-7.806-.493-10.595-3.061-2.79-7.806-2.567-10.595.493-31.964 35.087-49.566 80.509-49.566 127.9 0 104.828 85.283 190.111 190.11 190.111s190.11-85.283 190.11-190.11c0-77.213-46.534-146.161-117.08-175.522zm-166.2-81.518h46.912l22.428 57.055zm120.408 0-28.689 72.982-28.689-72.982zm-52.825-15 24.136-30.31 24.136 30.31zm100.106-27.999 21.466 27.999h-41.943zm-35.996 23.808-24.414-30.659h46.837zm-79.949 0-22.423-30.659h46.838zm-15.519 4.191h-41.944l21.467-27.999zm100.301 15h46.912l-69.339 57.053zm-91.986 112.935v-24.835c0-2.242-1.003-4.367-2.734-5.792l-42.836-35.244c-2.105-1.729-2.218-4.922-.225-6.835 3.993-3.834 8.536-7.417 13.539-10.697l71.128 58.526c2.407 1.981 5.357 2.972 8.308 2.972 2.949 0 5.899-.99 8.305-2.972l71.125-58.522c5.005 3.288 9.548 6.87 13.537 10.695 1.966 1.887 1.916 5.075-.232 6.838l-42.819 35.24c-1.731 1.425-2.734 3.549-2.734 5.791v23.893c-30.641-9.682-63.889-9.369-94.362.942z"/></g></svg>