<svg id="Capa_1" enable-background="new 0 0 512 512" height="512" viewBox="0 0 512 512" width="512" xmlns="http://www.w3.org/2000/svg"><g><path d="m437.533 5.332c-2.78-3.202-7.05-5.332-11.7-5.332h-235.309c-4.143 0-7.5 3.358-7.5 7.5s3.357 7.5 7.5 7.5h224.446l-40.598 35.28c-.855-.183-1.733-.28-2.622-.28h-231.5c-.76 0-1.508.084-2.244.219l-40.153-35.219h57.672c4.143 0 7.5-3.358 7.5-7.5s-3.357-7.5-7.5-7.5h-69.357c-9.351 0-16.674 8.294-15.353 17.664l67.748 481c1.067 7.576 7.694 13.336 15.348 13.336h204.178c7.643 0 14.278-5.752 15.348-13.338l67.746-481c1.051-7.469-3.533-12.104-3.65-12.33zm-80.099 59.668-30.241 26.28c-.855-.183-1.733-.28-2.623-.28h-137.14c-.886 0-1.76.097-2.612.278l-29.96-26.278zm-8.854 432h-185.162l30.445-35.042c.297.022.594.042.895.042 0 0 123.077-.02 123.372-.041zm-173.528-391.756 42.958 305c.041.293.102.58.163.865l-22.627 26.043-50.866-361.127 30.284 26.562c-.064.879-.037 1.769.088 2.657zm31.808 341.756 22.626-26.042c.299.022.598.042.902.042 0 0 51.821-.02 52.116-.041l22.629 26.041zm72.581-41h-46.881l-42.254-300h131.387zm-192.375-380.508 40.761 35.752c-.1.991-.096 1.997.046 3.002 0 0 54.612 387.582 54.674 387.869l-30.454 35.052zm272.841 461.675-30.453-35.046c.062-.289.124-.579.165-.876l7-49.7c.578-4.102-2.279-7.895-6.381-8.473-4.089-.577-7.896 2.279-8.473 6.381l-5.311 37.708-22.628-26.041c.062-.29.124-.58.166-.877l42.956-305c.125-.884.151-1.77.088-2.644l30.242-26.281-40.631 288.479c-.577 4.102 2.279 7.895 6.381 8.473 4.096.576 7.896-2.279 8.473-6.381l42.627-302.646c.125-.884.151-1.77.088-2.645l40.6-35.283z"/></g></svg>