<svg id="Capa_1" enable-background="new 0 0 512 512" height="512" viewBox="0 0 512 512" width="512" xmlns="http://www.w3.org/2000/svg"><g><path d="m511.259 330.508.74-71.498c.041-3.85-1.437-7.469-4.159-10.192-2.686-2.686-6.244-4.158-10.034-4.158-.052 0-71.649.75-71.649.75-4.528.044-8.825 2.352-11.407 5.926l-86.765 121.255c-3.214-3.331-7.692-5.312-12.492-5.312h-.127s58.637-216.226 58.643-216.252c1.358-5.638-.139-11.527-4.081-15.863l-104.887-114.858c-2.314-2.536-5.609-3.991-9.041-3.991s-6.727 1.455-9.038 3.988l-45.849 50.209c-2.793 3.059-2.578 7.803.48 10.596 3.06 2.793 7.803 2.579 10.596-.48l25.757-28.207-30.184 113.659-54.072-21.394 34.898-38.207c2.793-3.058 2.578-7.802-.48-10.596-3.058-2.792-7.802-2.58-10.596.48l-35.451 38.812c-3.934 4.328-5.43 10.223-4.068 15.856.004.021.01.042.015.062.036.147.065.294.105.44l58.522 215.744h-.127c-4.8 0-9.279 1.98-12.492 5.312l-86.787-121.283c-2.523-3.491-6.803-5.851-11.379-5.896 0 0-71.603-.75-71.655-.75-3.791 0-7.35 1.473-10.035 4.158-2.723 2.724-4.2 6.343-4.159 10.19l.74 71.494c.045 4.558 2.389 8.858 5.936 11.407l116.53 83.391-16.847 3.761c-10.47 2.338-17.782 11.463-17.782 22.19v32.38c0 6.646 5.407 12.054 12.053 12.054h310.741c6.646 0 12.053-5.407 12.053-12.054v-32.38c0-10.728-7.312-19.852-17.782-22.189l-16.849-3.762 45.733-32.732c3.368-2.41 4.145-7.096 1.733-10.464-2.411-3.37-7.098-4.143-10.464-1.733l-56.647 40.544c-9.276-2.341-12.807-2.111-17.573-5.224l77.594-77.588 52.513 2.277-27.428 19.62c-3.368 2.41-4.146 7.095-1.735 10.464 2.41 3.368 7.096 4.146 10.464 1.735l42.352-30.3c3.532-2.538 5.878-6.839 5.923-11.391zm-14.954-4.509-62.912-2.728-2.729-62.908 66.328-.696zm-80.022-51.03 2.279 52.527-75.92 75.915-6.926-15.849zm-132.06 92.309 20.187-185.135 51.119-20.226-55.706 205.361zm-41.356 0-19.984-183.279h66.236l-19.984 183.279zm61.371-201.199-30.184-113.659 84.256 92.265zm-14.745 2.92h-66.986l33.493-126.119zm-133.022-7.082 51.119 20.227 20.187 185.135h-15.6zm19.814 225.646-6.926 15.848-75.921-75.92 2.279-52.522zm-94.949-127.2-2.729 62.905-62.912 2.731-.687-66.332zm-51.028 80.012c18.438-.799 43.605-1.891 52.523-2.277l77.594 77.594c-4.761 3.11-8.311 2.886-17.573 5.223zm372.066 103.326c3.562.796 6.05 3.9 6.05 7.551v29.434h-304.847v-29.434c0-3.65 2.488-6.755 6.05-7.551l47.555-10.617c10.823-2.416 19.941-9.978 24.348-20.062l12.819-29.33c.375-.858 1.223-1.413 2.16-1.413h118.984c.938 0 1.785.555 2.161 1.414l12.818 29.328c4.403 10.077 13.516 17.646 24.348 20.063 6.786 1.515 26.259 5.862 47.554 10.617z"/></g></svg>