<svg id="Capa_1" enable-background="new 0 0 512 512" height="512" viewBox="0 0 512 512" width="512" xmlns="http://www.w3.org/2000/svg"><g><path d="m506.046 129.699c-3.783-3.078-8.69-4.275-13.466-3.279l-132.012 27.459c-7.315 1.521-13.017 7.5-14.191 14.878l-15.59 97.977c-.46 2.895-2.311 5.386-4.95 6.663l-32.391 15.679c-3.729 1.805-5.288 6.29-3.483 10.019 1.804 3.729 6.291 5.289 10.018 3.483l32.391-15.679c7.053-3.414 11.998-10.072 13.229-17.809l15.59-97.976c.201-1.265 1.178-2.289 2.432-2.55 139.148-28.792 133.377-28.541 133.377-26.348v342.86c0 1.538-1.251 2.79-2.79 2.79h-319.087v-48.685c0-.958.454-1.878 1.213-2.461l34.157-26.214c5.279-4.051 8.66-10.174 9.275-16.8l4.923-53.021c.1-1.075.765-2.035 1.737-2.505l41.969-20.315c3.729-1.805 5.288-6.29 3.483-10.019-1.806-3.729-6.292-5.289-10.019-3.483l-41.968 20.315c-5.671 2.744-9.556 8.347-10.138 14.62l-4.923 53.021c-.23 2.48-1.495 4.771-3.471 6.286l-34.158 26.215c-4.434 3.402-7.081 8.772-7.081 14.361v50.392c0 7.33 5.964 13.293 13.294 13.293h320.794c9.81 0 17.79-7.981 17.79-17.79v-342.86c0-4.877-2.17-9.44-5.954-12.517z"/><path d="m308.894 326.535c-3.944 0-7.587 1.947-9.807 4.831l-29.095 37.946c-4.078 5.32-3.217 12.823 1.958 17.078l91.731 75.479c4.556 3.749 11.166 3.748 15.721 0l91.729-75.477c5.177-4.259 6.037-11.761 1.959-17.081 0 0-29.476-38.417-29.7-38.664-.035-.039-.075-.072-.11-.109-.071-.077-.133-.163-.206-.238-.016-.016-.034-.03-.05-.046-2.321-2.361-5.523-3.719-8.834-3.719zm43.509 43.574 19.14-24.035 19.14 24.035zm42.832 15-23.693 60.273-23.693-60.273zm-74.062-15h-32.889l16.832-21.955zm10.559 15 18.038 45.888-55.768-45.888zm79.621 0h37.73l-55.768 45.888zm10.559-15 16.057-21.955 16.832 21.955zm-15.458-4.275-19.351-24.299h37.122zm-69.822 0-17.772-24.299h37.122z"/><path d="m437.094 254.462 16.578-16.578c5.024-5.024 5.024-13.199 0-18.222l-16.578-16.578c-5.027-5.025-13.175-5.044-18.221 0l-16.578 16.578c-5.024 5.024-5.024 13.199 0 18.222l16.578 16.578c5.023 5.023 13.197 5.024 18.221 0zm-9.111-39.275 13.586 13.585-13.586 13.586-13.586-13.586z"/><path d="m237.761 426.273c-10.826 0-19.634 8.809-19.634 19.635v6.913c0 10.826 8.808 19.634 19.634 19.634h25.079c10.826 0 19.635-8.809 19.635-19.635v-6.912c0-10.826-8.808-19.635-19.634-19.635zm29.714 19.635v6.912c0 2.556-2.079 4.635-4.634 4.635h-25.079c-2.555 0-4.634-2.079-4.634-4.634v-6.913c0-2.556 2.079-4.635 4.634-4.635h25.08c2.554 0 4.633 2.08 4.633 4.635z"/><path d="m216.694 153.024c3.175 0 6.159-1.237 8.404-3.482l4.184-4.185c28.84 25.52 45.511 61.89 45.963 100.832.125 9.562 12.501 13.306 17.855 5.415.058-.083.115-.168.171-.256.053-.08.104-.161.154-.243 30.256-49.803 24.765-113.344-12.801-157.09l3.671-3.67c4.632-4.634 4.632-12.173-.001-16.808l-35.758-35.758c-4.644-4.644-12.162-4.647-16.808-.001l-3.676 3.676c-10.165-8.73-21.549-15.856-33.939-21.221-3.8-1.646-8.217.102-9.863 3.902-1.646 3.802.101 8.217 3.902 9.863 10.647 4.61 20.443 10.702 29.243 18.111l-30.054 30.054c-24.07-26.878-56.68-44.096-92.298-48.943 19.299-7.983 40.531-10.828 61.335-8.051 4.1.547 7.878-2.334 8.427-6.441.548-4.106-2.335-7.879-6.441-8.427-30.189-4.037-61.182 2.457-87.278 18.28-.063.037-.126.074-.189.112-3.767 2.287-5.513 6.679-4.345 10.93 1.173 4.268 4.934 7.162 9.339 7.201 38.933.453 75.303 17.124 100.824 45.964l-4.184 4.184c-2.245 2.244-3.482 5.229-3.482 8.404 0 2.953 1.081 5.734 3.038 7.916l-168.604 168.609c-4.641 4.643-4.648 12.21.002 16.888l19.808 19.798c4.661 4.662 12.215 4.665 16.878.001l168.605-168.605c2.182 1.958 4.963 3.041 7.918 3.041zm72.161 74.034c-4.838-35.623-22.058-68.246-48.947-92.326l30.067-30.068c28.775 34.169 35.8 81.579 18.88 122.394zm-17.371-145.115-54.791 54.79-31.353-31.353c9.503-9.503 47.675-47.674 54.791-54.79zm-239.752 223.871-15.478-15.47 166.418-166.418 15.474 15.473z"/><path d="m205.646 220.682c-6.729-6.73-18.113-4.911-22.401 3.6l-15.416 30.597c-2.82 5.597-1.737 12.334 2.694 16.765l9.497 9.498c4.999 4.999 13.096 5.002 18.098 0l24.946-24.946c4.989-4.989 4.989-13.109 0-18.098zm-16.578 48.295-7.678-7.679 14.628-29.031 14.88 14.88z"/><path d="m183.553 346.19v-24.31c0-7.449-6.06-13.509-13.508-13.509h-25.787c-5.996 0-11.337 4.026-12.987 9.792l-6.956 24.309c-1.177 4.113-.375 8.433 2.201 11.849 2.576 3.417 6.507 5.376 10.786 5.376h32.743c7.449.001 13.508-6.059 13.508-13.507zm-15-1.493h-29.272l6.102-21.326h23.169v21.326z"/></g></svg>