<svg id="Capa_1" enable-background="new 0 0 512 512" height="512" viewBox="0 0 512 512" width="512" xmlns="http://www.w3.org/2000/svg"><g><path d="m499.5 299.66h-35.52c-7.865 0-10.091 5.065-61.222 34.687-.395.237-.847.363-1.308.363h-19.949v-17.416c0-7.444-6.056-13.5-13.5-13.5h-30.032c-.606-3.218 2.218-11.718-4.962-17.221l-40.289-30.89c-5.452-4.18-13.136-3.295-17.498 2.007l-80.167 97.429c-3.828 4.651-3.834 11.443.001 16.104l28.324 34.423c2.632 3.198 7.358 3.659 10.557 1.025 3.198-2.632 3.658-7.357 1.026-10.557l-20.937-25.444h62.662v76.154l-19.733-23.982c-2.631-3.196-7.358-3.658-10.557-1.025-3.198 2.632-3.658 7.357-1.026 10.557l29.85 36.276c4.356 5.295 12.04 6.189 17.5 2.005l40.29-30.889c7.164-5.496 4.373-14.089 4.96-17.22h30.032c7.444 0 13.5-6.056 13.5-13.5v-17.416c21.135.128 20.174-.284 21.25.359 52.265 30.278 53.587 34.69 61.229 34.69h35.52c6.893 0 12.5-5.607 12.5-12.5v-102.019c-.001-6.892-5.608-12.5-12.501-12.5zm-206.258 63.51 29.727-43.935v87.87zm27.361-67.205-28.916 42.736v-64.906zm-106.579 59.705 62.662-76.154v76.154zm77.663 96.875v-64.906l28.916 42.737zm46.282-44.999v-88.752h28.532v88.752zm63.481-30.916h-19.949v-26.92h19.949c3.19 0 6.32-.87 9.059-2.521l44.237-26.732v85.427l-44.262-26.747c-2.737-1.64-5.861-2.507-9.034-2.507zm95.55 35.05h-27.254v-97.02h27.254z"/><path d="m219.282 256.317c5.449 4.177 13.136 3.296 17.498-2.006l80.166-97.428c3.84-4.666 3.84-11.439 0-16.105l-40.962-49.782c-2.632-3.197-7.357-3.657-10.557-1.025-3.198 2.632-3.658 7.357-1.026 10.557l21.615 26.27-50.704-19.931v-41.693l6.85 8.325c2.632 3.198 7.358 3.66 10.557 1.025 3.198-2.632 3.658-7.357 1.026-10.557l-16.965-20.616c-4.362-5.304-12.049-6.183-17.499-2.007-43.596 33.432-40.428 30.957-41.141 31.626-2.585 2.382-4.11 5.783-4.11 9.321v7.163h-30.032c-7.444 0-13.5 6.056-13.5 13.5v17.416h-19.948c-.461 0-.913-.126-1.301-.359l-54.113-32.699c-2.044-1.243-4.551-1.991-7.116-1.991h-35.52c-6.893 0-12.5 5.607-12.5 12.5v102.02c0 6.893 5.607 12.5 12.5 12.5h35.52c2.513 0 4.974-.688 7.099-1.98l54.105-32.695c.415-.248.86-.374 1.325-.374h19.949v17.416c0 7.444 6.056 13.5 13.5 13.5h30.032v7.163c0 3.556 1.542 6.972 4.149 9.354.042.04.079.084.122.123.768.69-.843-.621 40.981 31.469zm-23.531-36.944 24.561-17.964v36.796zm24.561-159.918v36.796l-24.562-17.963zm-4.238 52.281-27.043 21.535v-41.314zm4.238 15.799v42.59l-26.742-21.295zm-31.281 36.855 27.043 21.535-27.043 19.779zm46.281 68.097v-41.691l50.705-19.931zm65.756-83.657-65.756 25.848v-51.695zm-286.068-48.509h27.254v97.02h-27.254zm95.55 61.969c-3.173 0-6.297.867-9.059 2.521l-44.237 26.732v-85.427l44.244 26.736c2.732 1.647 5.862 2.518 9.052 2.518h19.949v26.92zm34.949 30.916v-88.752h28.532v88.752z"/></g></svg>