<svg id="Capa_1" enable-background="new 0 0 512 512" height="512" viewBox="0 0 512 512" width="512" xmlns="http://www.w3.org/2000/svg"><g><path d="m151.698 307.161c0 57.584 46.878 104.308 104.302 104.308 57.633 0 104.303-46.938 104.303-104.308 0-57.299-46.607-104.303-104.303-104.303-57.575 0-104.302 46.872-104.302 104.303zm192.304-15.206-28.866-9.289 13.826-26.941c7.502 10.61 12.747 22.921 15.04 36.23zm-15.041 66.647-13.826-26.946 28.866-9.283c-2.293 13.308-7.539 25.619-15.04 36.229zm-160.962-36.229 28.866 9.283-13.825 26.946c-7.502-10.611-12.748-22.921-15.041-36.229zm15.04-66.647 13.826 26.94-28.866 9.29c2.292-13.31 7.538-25.621 15.04-36.23zm47.026 8.428 12.075 29.146-29.155-12.076-18.005-35.083zm-22.819 30.929 29.156 12.077-29.158 12.077-37.542-12.073zm5.74 38.012 29.156-12.077-12.077 29.157-35.077 17.997zm43.014-6.337 12.077 29.156-12.077 37.538-12.077-37.537zm25.936 23.417-12.077-29.156 29.156 12.076 17.997 35.077zm22.819-30.938-29.158-12.077 29.156-12.077 37.543 12.082zm-5.74-38.012-29.154 12.076 12.075-29.146 35.084-18.013zm-43.015 6.34-12.077-29.15 12.077-37.538 12.077 37.538zm-24.494-39.532-26.943-13.833c10.611-7.502 22.923-12.749 36.233-15.042zm-.001 118.262 9.29 28.873c-13.312-2.293-25.626-7.541-36.238-15.046zm48.99 0 26.948 13.827c-10.612 7.505-22.926 12.753-36.238 15.046zm-.001-118.262-9.29-28.875c13.31 2.293 25.622 7.539 36.233 15.042z"/><path d="m244.731 40.698c-2.273-2.963-5.829-4.587-9.295-4.587h-108.302c-3.437 0-7.016 1.607-9.293 4.585l-25.14 32.789c-3.86 5.035-3.045 12.137 1.854 16.166l79.288 65.241c4.312 3.549 10.571 3.55 14.882 0l79.29-65.24c4.898-4.03 5.713-11.131 1.854-16.168zm-120.882 16.815 11.894 16.263h-24.363zm76.422 31.262-18.987 48.301-18.987-48.301zm-33.42-15 14.433-18.125 14.434 18.125zm29.994-22.664h27.973l-13.392 18.311zm-45.702 18.311-13.392-18.311h27.973zm-4.962 19.353 13.904 35.371-42.987-35.371zm70.208 0h29.084l-42.988 35.371zm10.438-15 11.894-16.263 12.469 16.263z"/><path d="m451 0h-390c-7.995 0-14.5 6.505-14.5 14.5v89.222c0 4.143 3.358 7.5 7.5 7.5s7.5-3.357 7.5-7.5v-88.722h389v385.222c0 4.143 3.357 7.5 7.5 7.5s7.5-3.357 7.5-7.5v-385.722c0-7.995-6.505-14.5-14.5-14.5z"/><path d="m458 427.722c-4.143 0-7.5 3.357-7.5 7.5v61.778h-389v-358.278c0-4.143-3.358-7.5-7.5-7.5s-7.5 3.357-7.5 7.5v358.778c0 7.995 6.505 14.5 14.5 14.5h390c7.995 0 14.5-6.505 14.5-14.5v-62.278c0-4.143-3.357-7.5-7.5-7.5z"/><path d="m152.235 444.547c-4.142 0-7.5 3.357-7.5 7.5v25.418c0 4.143 3.358 7.5 7.5 7.5h207.53c4.143 0 7.5-3.357 7.5-7.5v-25.418c0-4.143-3.357-7.5-7.5-7.5s-7.5 3.357-7.5 7.5v17.918h-36.883v-17.918c0-4.143-3.357-7.5-7.5-7.5s-7.5 3.357-7.5 7.5v17.918h-36.882v-17.918c0-4.143-3.357-7.5-7.5-7.5s-7.5 3.357-7.5 7.5v17.918h-36.883v-17.918c0-4.143-3.358-7.5-7.5-7.5s-7.5 3.357-7.5 7.5v17.918h-36.882v-17.918c0-4.143-3.358-7.5-7.5-7.5z"/><path d="m298.39 51.111h100.18c4.143 0 7.5-3.357 7.5-7.5s-3.357-7.5-7.5-7.5h-100.18c-4.143 0-7.5 3.357-7.5 7.5s3.357 7.5 7.5 7.5z"/><path d="m298.39 88.775h100.18c4.143 0 7.5-3.357 7.5-7.5s-3.357-7.5-7.5-7.5h-100.18c-4.143 0-7.5 3.357-7.5 7.5s3.357 7.5 7.5 7.5z"/><path d="m298.39 126.44h60.18c4.143 0 7.5-3.357 7.5-7.5s-3.357-7.5-7.5-7.5h-60.18c-4.143 0-7.5 3.357-7.5 7.5s3.357 7.5 7.5 7.5z"/><path d="m105.552 210.359v193.607c0 4.143 3.358 7.5 7.5 7.5s7.5-3.357 7.5-7.5v-193.607c0-4.143-3.358-7.5-7.5-7.5s-7.5 3.358-7.5 7.5z"/></g></svg>