<svg id="Capa_1" enable-background="new 0 0 512 512" height="512" viewBox="0 0 512 512" width="512" xmlns="http://www.w3.org/2000/svg"><g><path d="m273.81 158.114c-53.975 0-97.886 43.911-97.886 97.886s43.911 97.886 97.886 97.886 97.887-43.911 97.887-97.886-43.913-97.886-97.887-97.886zm0 180.772c-45.703 0-82.886-37.183-82.886-82.886s37.183-82.886 82.886-82.886c45.704 0 82.887 37.183 82.887 82.886s-37.183 82.886-82.887 82.886z"/><path d="m273.81 201.899c4.143 0 7.5-3.357 7.5-7.5v-1.016c0-4.143-3.357-7.5-7.5-7.5s-7.5 3.357-7.5 7.5v1.016c0 4.143 3.357 7.5 7.5 7.5z"/><path d="m212.21 248.5h-1.016c-4.143 0-7.5 3.357-7.5 7.5s3.357 7.5 7.5 7.5h1.016c4.143 0 7.5-3.357 7.5-7.5s-3.357-7.5-7.5-7.5z"/><path d="m273.81 310.101c-4.143 0-7.5 3.357-7.5 7.5v1.016c0 4.143 3.357 7.5 7.5 7.5s7.5-3.357 7.5-7.5v-1.016c0-4.143-3.358-7.5-7.5-7.5z"/><path d="m336.426 248.5h-1.016c-4.143 0-7.5 3.357-7.5 7.5s3.357 7.5 7.5 7.5h1.016c4.143 0 7.5-3.357 7.5-7.5s-3.358-7.5-7.5-7.5z"/><path d="m306.418 212.784-32.608 32.608-15.614-15.614c-2.93-2.928-7.678-2.928-10.607 0-2.929 2.93-2.929 7.678 0 10.607l20.918 20.918c2.931 2.929 7.678 2.928 10.607 0l37.912-37.912c2.929-2.93 2.929-7.678 0-10.607-2.93-2.928-7.678-2.928-10.608 0z"/><path d="m424.98 311.285v-110.569l.001-.02-.001-.02v-42.614c0-7.626-3.423-14.688-9.39-19.378-29.669-23.323-49.302-50.86-52.63-73.77v-52.414c0-6.893-5.608-12.5-12.501-12.5h-153.3c-6.893 0-12.501 5.607-12.501 12.5v52.393c-1.162 8.03-4.295 16.642-9.338 25.613-2.029 3.61-.748 8.183 2.863 10.213 3.611 2.029 8.183.748 10.213-2.863 4.764-8.475 8.11-16.809 9.988-24.857h150.848c5.936 25.472 26.384 53.343 57.089 77.479 2.324 1.828 3.658 4.592 3.658 7.585v20.319l-68.383-68.383c-3.335-3.334-7.769-5.17-12.483-5.17h-110.607c-4.715 0-9.148 1.836-12.485 5.171l-68.382 68.382v-20.319c0-2.992 1.334-5.757 3.66-7.585 9.218-7.246 17.706-15.043 25.23-23.174 2.813-3.04 2.629-7.785-.411-10.599s-7.784-2.63-10.599.411c-6.989 7.553-14.893 14.81-23.49 21.568-5.968 4.691-9.391 11.754-9.391 19.378v65.297h-23.12c-6.893 0-12.5 5.607-12.5 12.5v40.281c0 6.893 5.607 12.5 12.5 12.5h23.12v65.297c0 7.624 3.423 14.687 9.391 19.378 29.669 23.323 49.302 50.86 52.63 73.77v52.415c0 6.893 5.608 12.5 12.501 12.5h153.3c6.893 0 12.501-5.607 12.501-12.5v-52.426c.67-4.61 2.005-9.466 3.983-14.448 1.528-3.85-.354-8.21-4.203-9.738s-8.21.354-9.738 4.203c-1.595 4.017-2.854 8.003-3.768 11.911h-150.848c-5.936-25.472-26.384-53.343-57.088-77.479-2.326-1.828-3.66-4.593-3.66-7.585v-20.318l68.382 68.38c3.335 3.334 7.77 5.171 12.485 5.171h110.608c4.716 0 9.15-1.837 12.485-5.171l68.381-68.381v20.318c0 2.993-1.334 5.757-3.659 7.585-13.087 10.288-24.929 21.929-34.244 33.664-2.575 3.244-2.033 7.962 1.211 10.537 1.379 1.095 3.024 1.626 4.658 1.626 2.21 0 4.398-.972 5.879-2.837 8.6-10.833 19.584-21.621 31.765-31.197 5.968-4.689 9.391-11.752 9.391-19.378v-42.613l.001-.02zm-172.249-296.285h42.157v17.623h-42.157zm-15 0v20.123c0 6.893 5.607 12.5 12.5 12.5h47.157c6.893 0 12.5-5.607 12.5-12.5v-20.123h38.072v42.998h-148.301v-42.998zm57.158 482h-42.157v-17.623h42.157zm15 0v-20.123c0-6.893-5.607-12.5-12.5-12.5h-47.157c-6.893 0-12.5 5.607-12.5 12.5v20.123h-38.072v-42.998h148.302v42.998zm-207.87-223.359v-35.281h20.62v35.281zm307.183 39.542-78.21 78.21c-.501.502-1.168.778-1.878.778h-110.608c-.71 0-1.377-.276-1.878-.778l-78.21-78.208c-.503-.503-.779-1.171-.779-1.88v-110.609c0-.699.283-1.384.778-1.878l78.209-78.21c.503-.503 1.171-.779 1.88-.779h110.608c.709 0 1.377.276 1.878.778l78.212 78.212c.492.492.774 1.171.776 1.867v110.628c-.002.706-.277 1.369-.778 1.869z"/><path d="m243.513 149.146c4.143 0 7.5-3.357 7.5-7.5v-1.016c0-4.143-3.357-7.5-7.5-7.5s-7.5 3.357-7.5 7.5v1.016c0 4.142 3.357 7.5 7.5 7.5z"/><path d="m273.81 149.146c4.143 0 7.5-3.357 7.5-7.5v-1.016c0-4.143-3.357-7.5-7.5-7.5s-7.5 3.357-7.5 7.5v1.016c0 4.142 3.357 7.5 7.5 7.5z"/><path d="m304.107 149.146c4.143 0 7.5-3.357 7.5-7.5v-1.016c0-4.143-3.357-7.5-7.5-7.5s-7.5 3.357-7.5 7.5v1.016c0 4.142 3.358 7.5 7.5 7.5z"/><path d="m166.219 201.862c1.465 1.467 3.386 2.2 5.307 2.2 1.918 0 3.836-.731 5.3-2.193 2.931-2.927 2.934-7.676.007-10.606l-.718-.719c-2.927-2.932-7.676-2.933-10.606-.007-2.931 2.927-2.934 7.676-.007 10.606z"/><path d="m187.649 180.445c1.464 1.463 3.382 2.193 5.3 2.193 1.921 0 3.842-.733 5.307-2.2 2.927-2.931 2.924-7.68-.007-10.606l-.719-.718c-2.93-2.928-7.679-2.925-10.606.007-2.927 2.931-2.924 7.68.007 10.606z"/><path d="m209.065 159.016c1.465 1.467 3.386 2.2 5.307 2.2 1.918 0 3.836-.731 5.3-2.193 2.931-2.927 2.934-7.676.007-10.606l-.718-.719c-2.928-2.932-7.677-2.933-10.606-.007-2.931 2.927-2.934 7.676-.007 10.606z"/><path d="m166.955 286.297c0-4.143-3.357-7.5-7.5-7.5h-1.016c-4.143 0-7.5 3.357-7.5 7.5s3.357 7.5 7.5 7.5h1.016c4.143 0 7.5-3.358 7.5-7.5z"/><path d="m158.439 263.5h1.016c4.143 0 7.5-3.357 7.5-7.5s-3.357-7.5-7.5-7.5h-1.016c-4.143 0-7.5 3.357-7.5 7.5s3.358 7.5 7.5 7.5z"/><path d="m158.439 233.203h1.016c4.143 0 7.5-3.357 7.5-7.5s-3.357-7.5-7.5-7.5h-1.016c-4.143 0-7.5 3.357-7.5 7.5s3.358 7.5 7.5 7.5z"/><path d="m209.065 352.984-.718.719c-2.927 2.931-2.924 7.68.007 10.606 1.464 1.463 3.382 2.193 5.3 2.193 1.921 0 3.842-.733 5.307-2.2l.718-.719c2.927-2.931 2.924-7.68-.007-10.606-2.931-2.927-7.68-2.924-10.607.007z"/><path d="m187.649 331.555-.719.718c-2.931 2.927-2.934 7.676-.007 10.606 1.465 1.467 3.386 2.2 5.307 2.2 1.918 0 3.836-.731 5.3-2.193l.719-.718c2.931-2.927 2.934-7.676.007-10.606-2.928-2.932-7.677-2.933-10.607-.007z"/><path d="m166.219 310.138-.718.719c-2.927 2.931-2.924 7.68.007 10.606 1.464 1.463 3.382 2.193 5.3 2.193 1.921 0 3.842-.733 5.307-2.2l.718-.719c2.927-2.931 2.924-7.68-.007-10.606-2.93-2.928-7.68-2.925-10.607.007z"/><path d="m304.107 362.854c-4.143 0-7.5 3.357-7.5 7.5v1.016c0 4.143 3.357 7.5 7.5 7.5s7.5-3.357 7.5-7.5v-1.016c0-4.142-3.357-7.5-7.5-7.5z"/><path d="m273.81 362.854c-4.143 0-7.5 3.357-7.5 7.5v1.016c0 4.143 3.357 7.5 7.5 7.5s7.5-3.357 7.5-7.5v-1.016c0-4.142-3.358-7.5-7.5-7.5z"/><path d="m243.513 362.854c-4.143 0-7.5 3.357-7.5 7.5v1.016c0 4.143 3.357 7.5 7.5 7.5s7.5-3.357 7.5-7.5v-1.016c0-4.142-3.358-7.5-7.5-7.5z"/><path d="m381.401 310.138c-2.928-2.932-7.677-2.933-10.606-.007-2.931 2.927-2.934 7.676-.007 10.606l.718.719c1.465 1.467 3.386 2.2 5.307 2.2 1.918 0 3.836-.731 5.3-2.193 2.931-2.927 2.934-7.676.007-10.606z"/><path d="m359.971 331.555c-2.93-2.928-7.679-2.925-10.606.007-2.927 2.931-2.924 7.68.007 10.606l.719.718c1.464 1.463 3.382 2.193 5.3 2.193 1.921 0 3.842-.733 5.307-2.2 2.927-2.931 2.924-7.68-.007-10.606z"/><path d="m338.555 352.984c-2.927-2.932-7.676-2.933-10.606-.007-2.931 2.927-2.934 7.676-.007 10.606l.718.719c1.465 1.467 3.386 2.2 5.307 2.2 1.918 0 3.836-.731 5.3-2.193 2.931-2.927 2.934-7.676.007-10.606z"/><path d="m389.181 218.203h-1.016c-4.143 0-7.5 3.357-7.5 7.5s3.357 7.5 7.5 7.5h1.016c4.143 0 7.5-3.357 7.5-7.5s-3.358-7.5-7.5-7.5z"/><path d="m389.181 248.5h-1.016c-4.143 0-7.5 3.357-7.5 7.5s3.357 7.5 7.5 7.5h1.016c4.143 0 7.5-3.357 7.5-7.5s-3.358-7.5-7.5-7.5z"/><path d="m389.181 278.797h-1.016c-4.143 0-7.5 3.357-7.5 7.5s3.357 7.5 7.5 7.5h1.016c4.143 0 7.5-3.357 7.5-7.5s-3.358-7.5-7.5-7.5z"/><path d="m333.248 161.216c1.921 0 3.842-.733 5.307-2.2l.718-.719c2.927-2.931 2.924-7.68-.007-10.606-2.93-2.928-7.679-2.925-10.606.007l-.718.719c-2.927 2.931-2.924 7.68.007 10.606 1.463 1.462 3.381 2.193 5.299 2.193z"/><path d="m354.671 182.639c1.918 0 3.836-.731 5.3-2.193l.719-.718c2.931-2.927 2.934-7.676.007-10.606-2.928-2.932-7.677-2.933-10.606-.007l-.719.718c-2.931 2.927-2.934 7.676-.007 10.606 1.464 1.466 3.385 2.2 5.306 2.2z"/><path d="m376.095 204.062c1.921 0 3.842-.733 5.307-2.2l.718-.719c2.927-2.931 2.924-7.68-.007-10.606-2.931-2.928-7.68-2.925-10.606.007l-.718.719c-2.927 2.931-2.924 7.68.007 10.606 1.463 1.463 3.381 2.193 5.299 2.193z"/></g></svg>