<svg id="Capa_1" enable-background="new 0 0 512 512" height="512" viewBox="0 0 512 512" width="512" xmlns="http://www.w3.org/2000/svg"><g><path d="m482.43 308.03h-38.35c-4.142 0-7.5 3.357-7.5 7.5s3.358 7.5 7.5 7.5h38.35c1.378 0 2.5 1.121 2.5 2.5v122.53c0 1.379-1.122 2.5-2.5 2.5h-79.754v-59.349c0-7.336-5.968-13.304-13.304-13.304h-266.745c-7.336 0-13.304 5.968-13.304 13.304v59.349h-79.753c-1.378 0-2.5-1.121-2.5-2.5v-122.53c0-1.379 1.122-2.5 2.5-2.5h379.51c4.142 0 7.5-3.357 7.5-7.5s-3.358-7.5-7.5-7.5h-64.641l-14.035-32.972h31.907c7.335 0 13.304-5.968 13.304-13.304v-23.969c0-7.336-5.968-13.304-13.304-13.304h-212.621c-7.335 0-13.304 5.968-13.304 13.304v23.969c0 7.336 5.968 13.304 13.304 13.304h31.907l-14.035 32.972h-137.992c-9.649 0-17.5 7.851-17.5 17.5v122.53c0 9.649 7.851 17.5 17.5 17.5h79.754v33.137c0 7.336 5.968 13.304 13.304 13.304h266.745c7.336 0 13.304-5.968 13.304-13.304v-33.137h79.754c9.649 0 17.5-7.851 17.5-17.5v-122.53c-.001-9.649-7.851-17.5-17.501-17.5zm-331.044-68.548h209.228v20.576h-209.228zm46.513 35.577h116.202l14.035 32.972h-144.272zm189.777 221.941h-263.352v-104.093h263.353v104.093z"/><path d="m117.169 79.125 51.034 41.992c3.199 2.633 7.925 2.173 10.557-1.025 2.632-3.199 2.172-7.925-1.026-10.557l-40.018-32.929h64.115l30.652 77.977-27.633-22.737c-3.198-2.634-7.925-2.172-10.557 1.025-2.632 3.199-2.172 7.925 1.026 10.557l51.54 42.409c2.648 2.179 5.895 3.268 9.141 3.268s6.493-1.089 9.142-3.269l129.688-106.71c6.02-4.952 7.02-13.677 2.277-19.863l-41.122-53.636c-2.675-3.474-6.936-5.627-11.413-5.627h-177.144c-4.576 0-8.818 2.257-11.412 5.626l-41.122 53.636c-4.744 6.187-3.744 14.912 2.275 19.863zm176.883-2.519-38.052 96.802-38.052-96.802zm-71.551-15 33.499-42.066 33.499 42.066zm87.668 15h64.115l-94.767 77.977zm10.928-15 28.759-39.322 30.147 39.322zm-15.635-4.032-33.902-42.574h65.04zm-98.924 0-31.137-42.574h65.04zm-44.393-35.289 28.759 39.322h-58.906z"/><path d="m175.895 477.158c13.736 0 24.911-11.175 24.911-24.911v-14.586c0-13.736-11.175-24.912-24.911-24.912s-24.912 11.176-24.912 24.912v14.586c0 13.736 11.176 24.911 24.912 24.911zm-9.912-39.497c0-5.466 4.446-9.912 9.912-9.912 5.465 0 9.911 4.446 9.911 9.912v14.586c0 5.465-4.446 9.911-9.911 9.911s-9.912-4.446-9.912-9.911z"/><path d="m266.156 477.158c13.736 0 24.912-11.175 24.912-24.911v-14.586c0-13.736-11.175-24.912-24.912-24.912s-24.912 11.176-24.912 24.912v14.586c.001 13.736 11.176 24.911 24.912 24.911zm-9.911-39.497c0-5.466 4.446-9.912 9.912-9.912s9.912 4.446 9.912 9.912v14.586c0 5.465-4.446 9.911-9.912 9.911s-9.912-4.446-9.912-9.911z"/><path d="m336.105 477.158c13.736 0 24.912-11.175 24.912-24.911v-14.586c0-13.736-11.175-24.912-24.912-24.912-13.736 0-24.911 11.176-24.911 24.912v14.586c0 13.736 11.175 24.911 24.911 24.911zm-9.911-39.497c0-5.466 4.446-9.912 9.911-9.912s9.912 4.446 9.912 9.912v14.586c0 5.465-4.446 9.911-9.912 9.911-5.465 0-9.911-4.446-9.911-9.911z"/><path d="m221.025 476.585c4.142 0 7.5-3.357 7.5-7.5v-1.16c0-4.143-3.358-7.5-7.5-7.5s-7.5 3.357-7.5 7.5v1.16c0 4.143 3.358 7.5 7.5 7.5z"/><path d="m70.307 337.011c-12.261 0-22.235 9.975-22.235 22.234 0 12.261 9.975 22.235 22.235 22.235s22.235-9.975 22.235-22.235-9.975-22.234-22.235-22.234zm0 29.469c-3.99 0-7.235-3.246-7.235-7.235s3.246-7.234 7.235-7.234 7.235 3.245 7.235 7.234-3.246 7.235-7.235 7.235z"/><path d="m70.307 392.106c-12.261 0-22.235 9.975-22.235 22.234 0 12.261 9.975 22.235 22.235 22.235s22.235-9.975 22.235-22.235c0-12.259-9.975-22.234-22.235-22.234zm0 29.47c-3.99 0-7.235-3.246-7.235-7.235s3.246-7.234 7.235-7.234 7.235 3.245 7.235 7.234-3.246 7.235-7.235 7.235z"/></g></svg>