<svg id="Capa_1" enable-background="new 0 0 512 512" height="512" viewBox="0 0 512 512" width="512" xmlns="http://www.w3.org/2000/svg"><g><path d="m256 292.168c-4.142 0-7.5 3.357-7.5 7.5v14.57c0 4.143 3.358 7.5 7.5 7.5s7.5-3.357 7.5-7.5v-14.57c0-4.143-3.358-7.5-7.5-7.5z"/><path d="m499.22 143.689h-23.479c-19.234-12.132-41.692-22.479-66.944-30.85l3.264-2.686c6.389-5.257 7.451-14.52 2.416-21.085-10.06-13.116-45.439-59.32-46.875-61.068-2.652-3.229-7.015-5.433-11.647-5.433h-137.819c-4.142 0-7.5 3.357-7.5 7.5s3.358 7.5 7.5 7.5h22.304l-40.292 50.598-37.006-50.598h19.994c4.142 0 7.5-3.357 7.5-7.5s-3.358-7.5-7.5-7.5h-27.092c-4.457 0-9.124 2.077-12.12 5.979l-46.402 60.524c-5.033 6.566-3.971 15.828 2.417 21.084l3.264 2.686c-25.251 8.37-47.71 18.718-66.944 30.85h-23.479c-7.047 0-12.78 5.733-12.78 12.78v34.021c0 6.993 5.647 12.684 12.619 12.771l39.346 70.286h-7.498c-7.995 0-14.5 6.505-14.5 14.5v186.886c0 7.995 6.505 14.5 14.5 14.5h286.661c4.142 0 7.5-3.357 7.5-7.5s-3.358-7.5-7.5-7.5h-44.318v-28.324h133.611v28.322h-54.293c-4.142 0-7.5 3.357-7.5 7.5s3.358 7.5 7.5 7.5h101.405c7.995 0 14.5-6.505 14.5-14.5v-186.885c0-7.995-6.505-14.5-14.5-14.5h-7.498l39.346-70.286c6.972-.087 12.619-5.778 12.619-12.771v-34.02c0-7.047-5.733-12.781-12.78-12.781zm-2.22 44.581h-179.874l35.95-29.58h143.924zm-377.175-81.178h75.701l36.192 92.069zm30.275-61.947 34.336 46.947h-70.329zm211.799 0 35.994 46.947h-70.329zm-106.359 173.617-43.896-111.67h88.714l-43.897 111.67c-.231.173-.297.295-.456.297-.161.002-.335-.207-.465-.297zm-39.344-126.67 39.804-49.985 39.804 49.984h-79.608zm100.278 15h75.703l-111.894 92.069zm128.515 36.597h-73.684l23.692-19.495c18.163 5.521 34.88 12.043 49.992 19.495zm-96.132-106.122-37.006 50.598-40.291-50.598zm-231.854 86.628 23.692 19.495h-73.684c15.112-7.453 31.829-13.975 49.992-19.495zm-102.003 34.494h143.925l35.949 29.58h-179.874zm29.967 129.858c2.429 0-10.109 0 31.613.001v185.884h-31.613zm161.34.002-2.266 2.677c-4.118 4.863-4.562 11.988-1.08 17.326l5.427 8.318h-116.808v-28.321zm89.977 12.101-26.399 40.464h-27.77l-26.399-40.464 17.368-20.513h45.832zm-71.094 41.974v31.367h-133.611v-42.12h126.595zm-133.611 46.366h133.611v42.12h-133.611zm148.611-32.975c.55.063 1.107.099 1.669.099h28.282c.562 0 1.119-.036 1.669-.099v118.415h-31.62zm46.62-13.392 7.016-10.753h126.595v42.12h-133.611zm133.61-54.074v28.321h-116.808l5.428-8.319c3.481-5.337 3.037-12.462-1.081-17.325l-2.266-2.677zm-328.841 185.884v-28.323h133.611v28.322h-133.611zm195.231-43.323v-42.12h133.611v42.12zm180.223 43.323h-31.613v-185.884c3.241 0-11.709.001 31.613-.001zm-174.04-200.884-2.77-3.271c-2.765-3.267-6.807-5.141-11.088-5.141h-46.27c-4.281 0-8.323 1.874-11.087 5.14l-2.771 3.271h-149.852l-39.341-70.278h183.291l31.399 25.836c.874.537 4.69 4.945 11.497 4.945 6.921 0 10.545-4.362 11.497-4.945l31.399-25.836h183.291l-39.342 70.28c-11.882-.001-129.005-.001-149.853-.001z"/></g></svg>