<svg id="Capa_1" enable-background="new 0 0 512 512" height="512" viewBox="0 0 512 512" width="512" xmlns="http://www.w3.org/2000/svg"><g><path d="m465.267 260.615-48.036-51.686c-5.2-5.583-13.36-7.225-20.296-4.098l-91.15 41.017 21.885-95.331c1.495-6.519-.166-13.478-4.445-18.619l-104.309-125.287c-3.206-3.851-7.723-6.179-12.719-6.556-4.991-.383-9.811 1.247-13.56 4.572l-33.649 29.86c-3.098 2.749-3.381 7.489-.632 10.587 2.749 3.1 7.49 3.383 10.588.632l33.649-29.86c1.422-1.261 3.591-1.083 4.795.362l91.868 110.345-39.926-13.37c-5.607-1.877-11.869.454-14.883 5.544l-48.155 81.316-109.35-81.569 55.761-49.483c3.098-2.749 3.381-7.489.632-10.588-2.749-3.098-7.49-3.38-10.588-.631l-58.367 51.796c-4.764 4.239-6.722 10.696-5.111 16.849l26.404 101.107c-.09.085-.186.163-.273.251-.299.301-.586.618-.859.951 0 0-49.681 60.426-49.914 60.76-.011.016-.021.033-.031.049-3.174 4.608-3.499 10.575-.748 15.545l110.405 199.472c2.542 4.595 7.383 7.448 12.634 7.448h144.829c8.278 0 15.859-4.531 19.786-11.829l32.068-59.657c.285-.528.782-.893 1.352-.998l24.977-4.593c5.78-1.077 10.68-4.914 13.109-10.272l27.09-59.889c1.707-3.773.032-8.217-3.742-9.924-3.775-1.71-8.218-.032-9.924 3.742l-27.087 59.883c-.405.894-1.226 1.534-2.177 1.712l-24.97 4.591c-5.056.938-9.363 4.072-11.83 8.625l-32.078 59.677c-1.306 2.427-3.825 3.934-6.575 3.934h-16.517l56.901-139.381c.497-.249.983-.531 1.451-.856l92.855-64.415-15.503 34.273c-1.707 3.773-.032 8.217 3.742 9.924 3.766 1.705 8.214.039 9.924-3.742l23.873-52.777c2.946-6.539 1.702-14.155-3.174-19.413zm-62.168-42.108c1.079-.485 2.346-.225 3.151.64l46.787 50.343-105.67 73.306-49.651-61.792 3.859-16.81zm-146.718-90.493 56.697 18.986c-.011.054-.015.109-.027.163l-80.312 349.837h-24.465v-287.751zm-68.751 368.986c-6.004-28.247-17.108-79.825-33.061-153.561.222-.201.451-.391.664-.605l38.042-38.424v192.59zm-.51-207.692-42.546 42.972c-.425.431-1.079.551-1.628.296l-82.974-38.218 45.522-55.338zm6.155-73.73v59.903l-80.755-49.751c-.672-.415-1.371-.756-2.084-1.043l-22.696-86.904 101.693 75.855c1.17.873 2.473 1.52 3.842 1.94zm-127.632 97.907 71.029 32.716c1.1.507 2.238.881 3.392 1.13 15.298 70.71 26.116 120.944 32.231 149.669h-5.08zm182.486 183.515 45.31-197.369 43.852 54.573-58.295 142.796z"/></g></svg>