<svg id="Capa_1" enable-background="new 0 0 512 512" height="512" viewBox="0 0 512 512" width="512" xmlns="http://www.w3.org/2000/svg"><g><path d="m237.17 477.91c60.93 0 110.49-49.57 110.49-110.5 0-60.92-49.56-110.49-110.49-110.49-60.92 0-110.49 49.57-110.49 110.49 0 60.93 49.57 110.5 110.49 110.5zm0-205.99c52.66 0 95.49 42.84 95.49 95.49 0 52.66-42.83 95.5-95.49 95.5-52.65 0-95.49-42.84-95.49-95.5 0-52.65 42.84-95.49 95.49-95.49z"/><path d="m237.17 392.39c13.77 0 24.98-11.2 24.98-24.98 0-11.16-7.36-20.63-17.48-23.82v-22.96c0-4.14-3.36-7.5-7.5-7.5s-7.5 3.36-7.5 7.5v22.96c-10.12 3.19-17.48 12.66-17.48 23.82 0 13.78 11.21 24.98 24.98 24.98zm-.04-34.95h.08c5.48.02 9.94 4.48 9.94 9.97 0 5.51-4.48 9.98-9.98 9.98s-9.98-4.47-9.98-9.98c0-5.48 4.46-9.95 9.94-9.97z"/><path d="m416.28 80.63h24.19c6.89 0 12.5-5.61 12.5-12.5v-50.63c0-9.65-7.85-17.5-17.5-17.5h-17.66c-4.14 0-7.5 3.36-7.5 7.5s3.36 7.5 7.5 7.5h17.66c1.38 0 2.5 1.12 2.5 2.5v13.94h-127.42v-16.44h72.26c4.14 0 7.5-3.36 7.5-7.5s-3.36-7.5-7.5-7.5h-312.28c-6.34 0-11.5 5.16-11.5 11.5v6.3c0 3.99 2.02 7.64 5.41 9.75l52.81 32.94c3.19 1.99 6.86 3.04 10.62 3.04h35.92v62.64h-35.92c-3.76 0-7.43 1.05-10.62 3.04l-52.81 32.94c-3.39 2.12-5.41 5.76-5.41 9.76v6.3c0 6.34 5.16 11.5 11.5 11.5h93.26v53.17c-42.58 25.19-71.21 71.58-71.21 124.53 0 23.08 5.58 46.04 16.12 66.4 1.91 3.68 6.43 5.12 10.11 3.22 3.68-1.91 5.11-6.43 3.21-10.11-9.58-18.5-14.44-38.52-14.44-59.51 0-71.45 58.14-129.58 129.59-129.58 71.46 0 129.59 58.13 129.59 129.58 0 71.46-58.13 129.59-129.59 129.59-36.63 0-71.71-15.61-96.26-42.83-2.78-3.08-7.52-3.32-10.6-.55-3.07 2.77-3.32 7.52-.54 10.59 27.39 30.37 66.53 47.79 107.4 47.79 79.73 0 144.59-64.86 144.59-144.59 0-52.95-28.63-99.34-71.21-124.53v-53.17h124.92c9.65 0 17.5-7.85 17.5-17.5v-28.94-21.691c0-6.893-5.607-12.5-12.5-12.5h-24.19c-6.893 0-12.5 5.607-12.5 12.5v21.691h-93.23v-96.83h93.23v21.69c0 6.89 5.61 12.5 12.5 12.5zm2.5-34.19h19.19v19.19h-19.19zm-254.99 128.27h-89.76v-.86l51.15-31.91c.81-.5 1.74-.77 2.69-.77h35.92zm0-126.18h-35.92c-.95 0-1.88-.26-2.68-.76l-51.16-31.91v-.86h89.76zm131.76 186.62c-17.86-7.92-37.61-12.32-58.38-12.32-20.76 0-40.51 4.41-58.38 12.32v-45.44h116.76zm0-60.44h-116.76v-50.63h116.76zm0-65.63h-116.76v-28.45h116.76zm0-43.45h-116.76v-50.63h116.76zm123.23 58.449h19.189v19.191h-19.189zm19.19 34.191v13.94c0 1.38-1.12 2.5-2.5 2.5h-124.92v-16.44z"/><path d="m237.171 301.048c4.143 0 7.5-3.357 7.5-7.5v-1.125c0-4.143-3.357-7.5-7.5-7.5s-7.5 3.357-7.5 7.5v1.125c0 4.142 3.357 7.5 7.5 7.5z"/><path d="m179.637 320.486c2.931 2.929 7.678 2.928 10.607 0 2.929-2.93 2.929-7.678 0-10.607l-.796-.796c-2.93-2.928-7.678-2.928-10.607 0-2.929 2.93-2.929 7.678 0 10.607z"/><path d="m163.305 359.914h-1.124c-4.143 0-7.5 3.357-7.5 7.5s3.357 7.5 7.5 7.5h1.124c4.143 0 7.5-3.357 7.5-7.5s-3.358-7.5-7.5-7.5z"/><path d="m184.145 427.94c1.919 0 3.839-.732 5.304-2.196l.796-.796c2.929-2.93 2.929-7.678 0-10.607-2.93-2.928-7.678-2.928-10.607 0l-.796.796c-2.929 2.93-2.929 7.678 0 10.607 1.464 1.464 3.384 2.196 5.303 2.196z"/><path d="m237.171 433.779c-4.143 0-7.5 3.357-7.5 7.5v1.125c0 4.143 3.357 7.5 7.5 7.5s7.5-3.357 7.5-7.5v-1.125c0-4.142-3.358-7.5-7.5-7.5z"/><path d="m284.891 425.74c1.465 1.467 3.386 2.2 5.307 2.2 1.918 0 3.836-.731 5.3-2.193 2.931-2.927 2.934-7.676.007-10.606l-.795-.796c-2.928-2.932-7.677-2.933-10.606-.007-2.931 2.927-2.934 7.676-.007 10.606z"/><path d="m311.037 374.914h1.125c4.143 0 7.5-3.357 7.5-7.5s-3.357-7.5-7.5-7.5h-1.125c-4.143 0-7.5 3.357-7.5 7.5s3.358 7.5 7.5 7.5z"/><path d="m294.709 320.482.795-.796c2.927-2.931 2.924-7.68-.007-10.606-2.93-2.928-7.679-2.925-10.606.007l-.795.796c-2.927 2.931-2.924 7.68.007 10.606 2.914 2.913 7.665 2.939 10.606-.007z"/></g></svg>