<svg id="Capa_1" enable-background="new 0 0 512 512" height="512" viewBox="0 0 512 512" width="512" xmlns="http://www.w3.org/2000/svg"><g><path d="m414.467 248.935-146.803-242.363c-2.488-4.106-6.836-6.56-11.635-6.57-.009-.001-.019-.002-.029-.002l-.023.001c-4.802.008-9.154 2.463-11.642 6.572l-32.93 54.364c-2.146 3.543-1.014 8.155 2.529 10.301 3.542 2.145 8.154 1.014 10.301-2.529l24.265-40.06v74.284c-1.661 1.095-3.088 2.562-4.165 4.34l-85.546 141.227h-43.457l90.763-149.844c2.146-3.543 1.014-8.155-2.529-10.301-3.541-2.145-8.154-1.015-10.301 2.529l-95.733 158.051c-2.64 4.357-2.64 9.772 0 14.13l146.803 242.361c2.488 4.108 6.838 6.564 11.64 6.573l.025.001.026-.001c4.8-.009 9.149-2.463 11.639-6.571l146.802-242.36c2.641-4.358 2.641-9.773 0-14.133zm-17.8-.435h-43.456l-85.546-141.228c-1.077-1.778-2.504-3.244-4.164-4.339v-74.283zm-133.167-119.15 72.173 119.15h-72.173zm-15 0v119.15h-72.174zm0 253.301-72.174-119.151h72.174zm-133.167-119.151h43.455l85.546 141.226c1.077 1.779 2.504 3.246 4.165 4.341v74.284zm148.167 219.85v-74.283c1.66-1.094 3.088-2.561 4.165-4.339l40.002-66.041c2.146-3.543 1.014-8.155-2.529-10.301-3.541-2.145-8.154-1.014-10.301 2.529l-31.337 51.736v-119.151h72.173l-22.68 37.443c-2.146 3.543-1.014 8.155 2.529 10.301 3.541 2.145 8.154 1.014 10.301-2.529l27.387-45.215h43.458z"/></g></svg>