<svg id="Capa_1" enable-background="new 0 0 512 512" height="512" viewBox="0 0 512 512" width="512" xmlns="http://www.w3.org/2000/svg"><g><path d="m507.837 252.339-74.804-97.568c-3.765-4.911-9.707-7.842-15.895-7.842h-26.442v-89.573l14.445 12.652c3.121 2.735 7.861 2.408 10.582-.7 2.729-3.115 2.416-7.853-.7-10.582l-26.885-23.549c-1.081-.961-2.635-1.673-4.222-1.822-.478-.046-.959-.046-1.437 0-1.579.149-3.141.861-4.222 1.822l-26.884 23.549c-3.116 2.729-3.429 7.467-.7 10.582 2.728 3.117 7.467 3.427 10.582.7l14.444-12.652v89.573h-173.955c-4.142 0-7.499 3.357-7.499 7.499s3.357 7.499 7.499 7.499h38.698l-74.636 93.726-29.504-40.341v-36.626c0-4.142-3.357-7.499-7.499-7.499s-7.499 3.357-7.499 7.499v16.119l-24.045-32.878h69.489c4.142 0 7.499-3.357 7.499-7.499s-3.357-7.499-7.499-7.499h-71.886c-6.188 0-12.129 2.931-15.895 7.842l-74.804 97.568c-6.602 8.611-5.21 20.757 3.169 27.651l235.942 194.14c3.687 3.035 8.206 4.551 12.726 4.551 4.519 0 9.039-1.517 12.726-4.551l159.375-131.138c3.198-2.632 3.657-7.357 1.025-10.555-2.631-3.198-7.358-3.658-10.555-1.025l-27.875 22.936v-80.34h97.639l-42.751 35.177c-3.198 2.632-3.657 7.357-1.025 10.555 2.622 3.187 7.348 3.665 10.555 1.025l49.554-40.775c8.379-6.893 9.771-19.039 3.169-27.651zm-93.096-90.411-24.045 32.878v-32.878zm-39.044 0v53.385l-29.504 40.341-74.636-93.726zm-239.394 200.8v-88.72h25.336l34.875 88.72zm66.106 14.999 25.191 64.085-77.883-64.085zm-81.105-23.38-97.639-80.34h97.639zm56.45-80.339h156.491l-34.875 88.72h-86.74zm4.553-14.999 73.693-92.542 73.693 92.542zm193.39-18.29v18.29h-13.376zm-226.018 18.29h-13.376v-18.29zm-28.375 0h-103.355l67.418-87.934 35.937 49.137zm131.5 203.54-1.382-1.137-32.896-83.685h74.949l-32.895 83.684-1.383 1.138c-1.852 1.523-4.542 1.523-6.393 0zm31.597-20.739 25.191-64.084h52.692zm91.296-79.082h-60.211l34.875-88.72h25.336zm14.999-142.516 35.937-49.137 67.418 87.934h-103.355z"/><path d="m96.978 103.114 26.887 23.549c1.244 1.106 3.071 1.858 4.941 1.858 1.848 0 3.676-.743 4.942-1.858l26.883-23.549c3.115-2.729 3.428-7.467.699-10.583-2.728-3.116-7.466-3.426-10.583-.699l-14.442 12.651v-63.665c0-4.142-3.357-7.499-7.499-7.499s-7.499 3.357-7.499 7.499v63.667l-14.447-12.653c-3.115-2.729-7.854-2.417-10.582.7-2.729 3.116-2.416 7.854.7 10.582z"/></g></svg>