<svg id="Capa_1" enable-background="new 0 0 512 512" height="512" viewBox="0 0 512 512" width="512" xmlns="http://www.w3.org/2000/svg"><g><path d="m510.737 249.647-70.107-169.267c-1.695-4.116-4.895-7.315-8.995-9.003l-169.259-70.105c-4.052-1.694-8.7-1.694-12.728-.01l-83.128 34.431c-3.827 1.585-5.644 5.972-4.059 9.8 1.585 3.827 5.972 5.645 9.8 4.059l68.414-28.336-32.515 119.287-107.339-61.362 39.12-16.203c3.827-1.585 5.644-5.972 4.059-9.8-1.585-3.827-5.972-5.644-9.8-4.059l-53.819 22.291c-4.116 1.694-7.316 4.894-9.005 8.995l-70.103 169.258c-1.695 4.053-1.695 8.701-.01 12.729l70.107 169.268c1.695 4.116 4.895 7.316 8.995 9.003l169.259 70.104c2.029.848 4.207 1.272 6.382 1.272 2.169 0 4.335-.421 6.346-1.262l169.266-70.108c4.116-1.694 7.316-4.894 9.005-8.995l70.103-169.258c1.697-4.052 1.697-8.7.011-12.729zm-489.521 21.68 119.287 32.515-61.363 107.337zm469.568-30.654-119.287-32.515 61.363-107.338zm-346.462 48.663-122.299-33.336 122.299-33.336zm56.278 69.203-110.055 62.916 62.916-110.055zm95.447-5.861h-80.095l-56.63-56.63v-80.095l56.63-56.63h80.095l56.63 56.63v80.095zm-6.711 15-33.336 122.298-33.336-122.298zm22.064-214.217 110.056-62.916-62.917 110.055zm56.278 69.203 122.299 33.336-122.299 33.336zm-63.836-82.162-32.515-119.287 139.852 57.925zm-14.506 3.82h-66.672l33.336-122.298zm-135.875 56.278-62.916-110.055 110.055 62.916zm-74.321-99.78 61.362 107.337-119.286 32.516zm129.018 270.677 32.515 119.287-139.852-57.925zm95.684 0 107.337 61.362-139.852 57.925zm129.018 39.682-18.781-32.852c-2.056-3.596-6.639-4.843-10.234-2.789-3.596 2.056-4.845 6.638-2.789 10.234l20.4 35.684-110.056-62.917 47.139-47.139 24.933 43.614c1.385 2.422 3.915 3.779 6.518 3.779 1.262 0 2.542-.319 3.715-.99 3.596-2.056 4.845-6.638 2.789-10.234l-24.998-43.727 119.287-32.515z"/></g></svg>