<svg id="Capa_1" enable-background="new 0 0 512 512" height="512" viewBox="0 0 512 512" width="512" xmlns="http://www.w3.org/2000/svg"><g><path d="m509.504 452.524-237.556-411.463c-3.329-5.765-9.291-9.208-15.948-9.208s-12.619 3.442-15.948 9.208l-51.34 88.924c-2.071 3.587-.842 8.174 2.745 10.245 3.586 2.07 8.173.842 10.245-2.745l46.798-81.059v144.234l-102.617 33.506 38.335-66.4c2.071-3.587.842-8.174-2.745-10.245-3.587-2.072-8.174-.842-10.245 2.745l-168.732 292.258c-3.328 5.766-3.328 12.65.001 18.416 3.329 5.765 9.291 9.207 15.948 9.207h475.11c6.657 0 12.619-3.442 15.948-9.207 3.329-5.766 3.329-12.65.001-18.416zm-386.866-178.096 22.295 105.616-124.905 72.112zm205.382 41.414-55.736-96.535 105.058 34.303.794 1.375-22.825 108.127-9.832-17.03c-2.071-3.588-6.657-4.816-10.245-2.745-3.587 2.071-4.816 6.657-2.745 10.245l13.126 22.737h-179.231l89.616-155.219 59.031 102.241c2.071 3.587 6.657 4.816 10.245 2.745 3.586-2.071 4.815-6.658 2.744-10.244zm-175.587 77.192 80.333 72.114h-205.241zm102.786 72.113-82.243-73.829h166.049l-82.243 73.829zm104.348-72.113 124.908 72.114h-205.24zm7.5-12.99 22.295-105.616 102.61 177.728zm-.95-145.878-102.617-33.506v-144.234zm-126.401-14.859-83.027 143.807-22.825-108.129.794-1.375z"/></g></svg>