<svg id="Capa_1" enable-background="new 0 0 512 512" height="512" viewBox="0 0 512 512" width="512" xmlns="http://www.w3.org/2000/svg"><g><path d="m510.181 39.226c-2.425-4.199-6.767-6.706-11.617-6.706h-303.533c-4.142 0-7.5 3.358-7.5 7.5s3.358 7.5 7.5 7.5h262.489l-201.52 60.23-201.52-60.231h105.552c4.142 0 7.5-3.358 7.5-7.5s-3.358-7.5-7.5-7.5h-146.596c-4.849 0-9.192 2.508-11.617 6.708-2.425 4.2-2.425 9.215 0 13.414l242.562 420.131c5.162 8.938 18.066 8.951 23.234 0l242.566-420.133c2.425-4.2 2.425-9.214 0-13.413zm-191.463 169.983-51.478-89.164 213.461-63.8zm-14.74 4.468h-95.958l47.98-83.101zm-110.697-4.468-161.984-152.964 213.464 63.8zm-5.029 15.882 48.6 204.642-201.524-349.051zm99.482 119.187c-4.035-.961-8.073 1.535-9.03 5.564l-22.704 95.602-51.48-216.767h102.959l-20.688 87.114c-.957 4.03 1.534 8.072 5.563 9.029 4.024.957 8.072-1.53 9.03-5.564l22.363-94.166 152.925-144.41-201.524 349.045 18.148-76.418c.958-4.03-1.533-8.072-5.562-9.029z"/></g></svg>