<svg id="Capa_1" enable-background="new 0 0 512 512" height="512" viewBox="0 0 512 512" width="512" xmlns="http://www.w3.org/2000/svg"><g><path d="m420.858 163.77c.024-2.88-1.597-7.92-5.169-11.492l-147.038-147.038c-3.539-3.538-8.223-5.24-12.65-5.24-4.412 0-9.1 1.689-12.65 5.24l-69.895 69.895c-2.929 2.929-2.929 7.678 0 10.606 2.93 2.929 7.678 2.927 10.607 0l52.646-52.646-61.184 162.245-66.427-34.633 50.216-50.217c2.929-2.929 2.929-7.678 0-10.606-2.93-2.93-7.678-2.929-10.607 0l-52.394 52.395c-3.389 3.388-5.181 8.391-5.168 11.46-.196 2.86.274 5.777 1.484 8.486l147.036 329.182c2.918 6.535 9.178 10.594 16.336 10.594 7.157 0 13.417-4.06 16.335-10.594l147.034-329.18c1.206-2.7 1.678-5.606 1.488-8.457zm-247.781 47.21 56.073 230.108-116.962-261.853zm139.442 76.674c-4.027-.981-8.081 1.486-9.062 5.511l-47.457 194.749-65.237-267.713 55.642 29.009c6.008 3.133 13.181 3.133 19.191 0l55.64-29.009-9.494 38.96c-.98 4.024 1.487 8.082 5.512 9.062 4.014.979 8.079-1.477 9.062-5.511l12.604-51.731 60.89-31.746-116.959 261.851 35.18-144.369c.98-4.025-1.487-8.082-5.512-9.063zm23.957-92.315-61.186-162.246 127.612 127.613zm-80.476-170.887 67.079 177.872-64.417 33.586c-1.666.868-3.653.869-5.323 0l-64.417-33.585z"/></g></svg>