<svg id="Layer_1" enable-background="new 0 0 512 512" height="512" viewBox="0 0 512 512" width="512" xmlns="http://www.w3.org/2000/svg"><g><path d="m463.583 250.484c-45.637-42.06-91.087-92.869-135.088-151.018-2.499-3.303-7.203-3.955-10.506-1.456-3.303 2.5-3.954 7.204-1.455 10.506 40.101 52.994 81.433 100.001 123.058 139.982h-50.054c-54.061-55.64-98.089-113.06-126.038-152.295v-62.86c7.694 11.774 18.379 27.642 31.627 46.118 2.414 3.366 7.1 4.139 10.465 1.724 3.366-2.414 4.138-7.099 1.725-10.465-28.265-39.416-44.72-66.801-44.883-67.073-1.355-2.263-3.798-3.647-6.435-3.647s-5.08 1.385-6.435 3.647c-.503.841-51.287 85.173-129.542 173.456-2.748 3.1-2.462 7.84.637 10.587 1.428 1.266 3.204 1.888 4.972 1.888 2.071 0 4.133-.853 5.615-2.525 55.118-62.18 96.825-122.523 117.253-153.74v62.892c-27.95 39.236-71.978 96.656-126.038 152.295h-50.064c11.463-11.016 22.976-22.628 34.378-34.695 2.845-3.01 2.71-7.757-.3-10.602s-7.756-2.71-10.602.3c-15.759 16.677-31.725 32.484-47.456 46.982-1.541 1.419-2.417 3.419-2.417 5.515s.876 4.095 2.417 5.515c33.957 31.295 68.187 67.871 101.742 108.714 1.483 1.805 3.632 2.739 5.799 2.739 1.675 0 3.361-.559 4.757-1.705 3.2-2.629 3.663-7.355 1.034-10.556-29.454-35.852-59.446-68.469-89.351-97.207h50.064c54.06 55.638 98.088 113.059 126.038 152.295v62.874c-13.284-20.317-35.547-52.929-64.555-90.199-2.543-3.269-7.256-3.856-10.525-1.312s-3.856 7.256-1.312 10.525c47.925 61.577 77.167 110.187 77.457 110.671 1.355 2.261 3.799 3.646 6.435 3.646 2.637 0 5.08-1.385 6.435-3.647.821-1.371 83.452-138.367 201.148-246.837 1.541-1.42 2.417-3.42 2.417-5.515s-.877-4.097-2.417-5.517zm-200.083 228.224v-62.902c9.549-13.406 19.453-26.825 29.484-39.918 2.519-3.288 1.896-7.996-1.392-10.515s-7.996-1.896-10.515 1.392c-8.491 11.083-16.9 22.397-25.078 33.741-27.852-38.621-69.451-92.178-119.911-144.506 50.464-52.332 92.06-105.885 119.912-144.507 27.852 38.621 69.447 92.173 119.912 144.507-24.82 25.736-49.607 53.94-73.757 83.93-2.598 3.226-2.089 7.948 1.137 10.545 3.227 2.599 7.948 2.088 10.545-1.137 24.789-30.782 50.244-59.641 75.699-85.838h50.063c-84.276 81.025-148.972 173.799-176.099 215.208z"/><path d="m250.08 177.521c-3.333-2.46-8.028-1.752-10.488 1.581-.235.319-23.891 32.269-53.468 63.777-2.835 3.02-2.685 7.767.335 10.602 1.448 1.359 3.292 2.032 5.132 2.032 1.999 0 3.994-.794 5.47-2.367 30.208-32.179 54.36-64.811 54.601-65.137 2.459-3.334 1.751-8.03-1.582-10.488z"/><path d="m260.004 216.851c-3.333-2.459-8.027-1.752-10.488 1.58-.103.139-10.381 14.017-23.212 27.685-2.835 3.02-2.685 7.767.335 10.602 1.448 1.359 3.292 2.032 5.132 2.032 1.999 0 3.994-.794 5.47-2.367 13.462-14.341 23.907-28.451 24.345-29.044 2.458-3.334 1.75-8.028-1.582-10.488z"/></g></svg>