<svg id="Layer_1" enable-background="new 0 0 512 512" height="512" viewBox="0 0 512 512" width="512" xmlns="http://www.w3.org/2000/svg"><g><path d="m453.425 404.393c-20.85-146.612-.211-295.304 0-296.789.519-3.65-1.692-7.136-5.215-8.222-108.343-33.41-186.672-97.041-187.449-97.678-2.765-2.271-6.753-2.272-9.52-.001-.389.319-39.625 32.287-100.488 62.604-3.708 1.847-5.216 6.35-3.37 10.057 1.847 3.708 6.348 5.215 10.057 3.37 42.821-21.329 74.705-43.056 91.06-55.051v42.665c-28.756 19.213-73.153 45.532-127.639 66.958l-37.337-23.565c13.572-4.632 27.237-9.884 40.794-15.681 3.809-1.628 5.576-6.036 3.947-9.845-1.628-3.809-6.037-5.578-9.845-3.947-18.192 7.778-36.573 14.546-54.63 20.115-3.523 1.086-5.734 4.572-5.215 8.222.125.881 12.467 89.323 8.621 196.372-.149 4.14 3.086 7.616 7.226 7.765.092.003.183.005.274.005 4.018 0 7.345-3.183 7.49-7.231 2.935-81.687-3.45-152.729-6.834-183.195l37.566 23.709c3.973 45.434 8.83 131.067.353 222.031l-37.747 23.592c1.987-16.173 3.587-32.949 4.775-50.068.287-4.132-2.831-7.714-6.963-8.001-4.124-.292-7.714 2.831-8.001 6.963-1.556 22.427-3.83 44.244-6.759 64.846-.519 3.65 1.692 7.136 5.215 8.223 108.343 33.411 186.672 97.041 187.449 97.679 1.383 1.136 3.072 1.705 4.761 1.705s3.377-.568 4.761-1.705c.777-.639 78.962-64.224 187.449-97.679 3.522-1.086 5.733-4.572 5.214-8.223zm-189.925-381.689c24.856 18.274 85.369 58.916 164.971 86.041l-37.332 23.561c-54.486-21.426-98.883-47.745-127.639-66.958zm-15 466.591c-24.846-18.267-85.318-58.886-164.885-86.011l37.552-23.47c54.361 21.411 98.648 47.672 127.333 66.837zm187.977-98.642-37.747-23.592c-4.5-48.249-5.792-100.02-3.837-153.949.15-4.139-3.084-7.617-7.224-7.767-4.137-.155-7.616 3.084-7.767 7.224-1.952 53.86-.703 105.624 3.714 153.968-21.889 8.697-43.871 18.837-65.419 30.182-3.666 1.93-5.072 6.465-3.143 10.13 1.343 2.551 3.948 4.008 6.643 4.008 1.178 0 2.373-.278 3.487-.865 21.631-11.388 43.698-21.531 65.648-30.178l37.552 23.47c-79.567 27.124-140.039 67.743-164.885 86.011v-42.643c10.023-6.696 20.479-13.273 31.135-19.584 3.564-2.11 4.742-6.711 2.631-10.275s-6.712-4.742-10.275-2.631c-10.594 6.274-20.998 12.808-30.992 19.463-29.034-19.334-73.342-45.528-127.618-67.087 8.227-90.169 3.599-174.838-.359-220.933 54.428-21.579 98.861-47.84 127.977-67.229 29.115 19.389 73.548 45.649 127.976 67.229-.895 10.397-1.682 21.049-2.344 31.743-.256 4.134 2.888 7.693 7.022 7.95 4.152.259 7.693-2.889 7.95-7.022.695-11.214 1.527-22.379 2.479-33.245l37.574-23.714c-4.501 40.719-14.331 153.993-.178 269.336z"/><path d="m243.967 119.208c-.338.208-34.239 20.97-73.466 39.104-3.76 1.738-5.399 6.195-3.661 9.955 1.267 2.741 3.979 4.355 6.812 4.355 1.053 0 2.124-.223 3.142-.694 40.062-18.52 74.681-39.728 75.026-39.94 3.529-2.169 4.631-6.788 2.462-10.316-2.167-3.529-6.787-4.632-10.315-2.464z"/><path d="m238.434 159.391c-.146.09-14.835 9.089-31.892 16.974-3.76 1.738-5.399 6.195-3.661 9.955 1.267 2.741 3.979 4.355 6.812 4.355 1.053 0 2.124-.223 3.142-.694 17.854-8.253 32.824-17.423 33.453-17.81 3.529-2.169 4.631-6.788 2.462-10.317-2.167-3.528-6.786-4.631-10.316-2.463z"/></g></svg>