<svg id="Layer_1" enable-background="new 0 0 512 512" height="512" viewBox="0 0 512 512" width="512" xmlns="http://www.w3.org/2000/svg"><g><path d="m510.4 461.369c-.385-.49-39.063-49.928-88.693-125.909-45.755-70.049-110.447-177.635-158.796-292.373-1.171-2.78-3.895-4.587-6.912-4.587s-5.74 1.808-6.912 4.587c-12.457 29.56-26.705 60.332-42.35 91.46-1.86 3.701-.368 8.209 3.333 10.069 3.702 1.859 8.209.368 10.069-3.333 10.057-20.01 19.544-39.879 28.359-59.385v81.34c-24.269 47.844-52.081 97.327-82.683 147.107-2.169 3.529-1.067 8.148 2.461 10.317 3.53 2.17 8.148 1.067 10.317-2.461 28.373-46.155 54.373-92.072 77.404-136.691 27.195 52.693 58.355 106.889 92.749 161.307 1.427 2.258 3.86 3.494 6.347 3.494 1.37 0 2.757-.375 4-1.161 3.502-2.213 4.546-6.845 2.333-10.347-36.648-57.984-69.589-115.697-97.928-171.566v-81.348c46.688 103.234 104.03 198.069 145.746 261.922 27.228 41.677 51.199 75.444 67.441 97.625l-72.601-41.558c-8.005-11.788-16.019-23.818-23.835-35.784-2.266-3.468-6.915-4.443-10.381-2.177-3.468 2.265-4.442 6.913-2.178 10.38 5.432 8.314 10.956 16.658 16.508 24.933-88.854-4.448-170.006-2.983-223.595-.879-11.065.434-22.19.938-33.225 1.505 5.689-8.474 11.356-17.03 16.928-25.559 5.114-7.828 10.252-15.798 15.272-23.691 2.223-3.495 1.192-8.13-2.303-10.354-3.497-2.224-8.131-1.192-10.354 2.303-4.988 7.842-10.094 15.761-15.174 23.538-7.963 12.188-16.12 24.429-24.261 36.409l-72.361 41.158c34.637-47.343 104.909-148.075 168.116-267.611 1.936-3.662.537-8.2-3.125-10.136-3.662-1.935-8.2-.537-10.136 3.125-86.969 164.475-187.376 293.052-188.38 294.331-1.871 2.383-2.123 5.658-.641 8.3 1.337 2.384 3.85 3.831 6.539 3.831.292 0 .584-.017.879-.051.403-.048 41.089-4.792 104.771-8.495 4.135-.24 7.292-3.788 7.052-7.923-.241-4.135-3.775-7.295-7.923-7.052-28.558 1.661-52.544 3.532-70.405 5.101l73.02-41.529c15.279-.861 30.847-1.604 46.301-2.211 55.928-2.195 142.038-3.692 235.473 1.575l73.081 41.833c-120.478-11.578-237.609-10.238-317.657-6.785-4.138.179-7.348 3.678-7.17 7.816.179 4.138 3.673 7.335 7.816 7.17 87.377-3.77 219.179-5.008 350.887 10.499.294.035.588.051.879.051 2.688 0 5.201-1.447 6.539-3.83 1.482-2.641 1.229-5.916-.641-8.3z"/><path d="m246.64 267.178c-3.694-1.871-8.208-.394-10.08 3.302-.182.36-18.529 36.452-42.845 73.119-2.289 3.452-1.347 8.106 2.105 10.396 1.275.846 2.714 1.25 4.138 1.25 2.43 0 4.814-1.179 6.257-3.356 24.795-37.389 43.54-74.263 43.726-74.631 1.873-3.695.395-8.207-3.301-10.08z"/><path d="m236.013 350.832c1.275.846 2.714 1.25 4.138 1.25 2.43 0 4.814-1.179 6.257-3.356 11.046-16.657 19.148-32.595 19.488-33.266 1.871-3.695.393-8.207-3.301-10.079-3.693-1.871-8.208-.395-10.08 3.3-.079.157-8.065 15.856-18.608 31.754-2.289 3.453-1.347 8.108 2.106 10.397z"/></g></svg>