<svg id="Layer_1" enable-background="new 0 0 512 512" height="512" viewBox="0 0 512 512" width="512" xmlns="http://www.w3.org/2000/svg"><g><path d="m463.408 173.308c-.336-2.127-1.569-4.007-3.387-5.161-36.062-22.904-73.203-50.59-110.395-82.289-3.153-2.688-7.887-2.31-10.573.843-2.687 3.153-2.31 7.886.843 10.573 31.665 26.988 63.323 51.126 94.351 71.951-19.968 1.95-40.605 3.541-61.788 4.765-43.764-47.372-73.607-96.761-90.943-129.862 9.159 8.907 20.114 19.264 32.552 30.489 3.072 2.773 7.815 2.533 10.592-.543 2.775-3.075 2.532-7.817-.542-10.593-38.37-34.628-62.344-60.779-62.581-61.04-1.421-1.555-3.431-2.441-5.537-2.441-2.107 0-4.117.886-5.537 2.441-.391.427-39.698 43.28-98.828 92.457-3.185 2.649-3.619 7.377-.971 10.562 1.483 1.783 3.619 2.704 5.771 2.704 1.69 0 3.391-.568 4.792-1.733 28.179-23.436 51.953-45.496 69.274-62.336-17.274 32.987-46.977 82.169-90.51 129.407-26.293-1.483-47.564-3.157-62.01-4.432 17.809-11.964 35.897-25.068 53.987-39.113 3.271-2.54 3.864-7.252 1.324-10.523-2.54-3.272-7.253-3.864-10.523-1.324-23.834 18.506-47.651 35.341-70.789 50.037-1.817 1.154-3.051 3.034-3.387 5.161-.336 2.126.259 4.295 1.632 5.954 1.184 1.43 119.303 145.101 198.898 328.229 1.189 2.739 3.892 4.51 6.878 4.51s5.688-1.771 6.878-4.51c79.595-183.128 197.715-326.799 198.898-328.229 1.372-1.659 1.967-3.828 1.631-5.954zm-24.393 10.52c-27.491 35.433-100.489 134.15-162.432 258.776 16.603-67.807 38.43-125.3 55.667-165.058 21.473-49.528 40.121-81.76 44.281-88.77 21.427-1.278 42.297-2.93 62.484-4.948zm-183.015-157.347c12.899 28.154 43.983 88.45 97.145 148.515-11.285.526-22.711.95-34.259 1.271-4.141.115-7.404 3.565-7.289 7.706.113 4.07 3.447 7.292 7.493 7.292.07 0 .142-.001.212-.003 13.281-.369 26.403-.874 39.34-1.511-7.95 14.109-22.979 42.247-40.024 81.529-19.698 45.394-45.292 113.565-62.614 193.844-6.103-28.338-13.598-56.899-22.393-85.306-1.225-3.957-5.421-6.169-9.383-4.946-3.956 1.225-6.171 5.426-4.945 9.383 6.022 19.449 11.424 38.969 16.177 58.434-62.048-124.858-135.198-223.719-162.596-259.019 13.867 1.257 35.309 3.004 62.29 4.575 4.86 8.143 41.166 70.325 73.306 163.026 1.074 3.1 3.979 5.045 7.086 5.045.814 0 1.644-.134 2.457-.416 3.913-1.357 5.986-5.63 4.629-9.543-27.132-78.257-57.338-135.339-69.606-157.143 31.717 1.592 69.445 2.811 110.588 2.811 5.404 0 10.887-.021 16.402-.065 4.143-.033 7.474-3.417 7.44-7.56-.033-4.122-3.385-7.44-7.499-7.44h-.061c-44.802.36-86.07-.806-120.608-2.453 52.899-59.904 83.849-119.949 96.712-148.026z"/><path d="m213.847 222.384c-1.826-3.719-6.317-5.253-10.037-3.429-3.718 1.824-5.254 6.318-3.43 10.037.179.363 17.976 36.777 32.61 78.222 1.088 3.08 3.981 5.005 7.072 5.005.828 0 1.672-.138 2.497-.43 3.906-1.379 5.954-5.664 4.575-9.569-14.938-42.304-33.106-79.466-33.287-79.836z"/><path d="m253.958 232.634c-1.825-3.717-6.317-5.254-10.037-3.429-3.719 1.825-5.254 6.318-3.43 10.037.077.157 7.795 15.942 14.161 33.97 1.088 3.08 3.981 5.004 7.072 5.004.829 0 1.672-.138 2.497-.43 3.906-1.379 5.954-5.664 4.575-9.569-6.654-18.845-14.507-34.908-14.838-35.583z"/></g></svg>