<svg id="Layer_1" enable-background="new 0 0 512 512" height="512" viewBox="0 0 512 512" width="512" xmlns="http://www.w3.org/2000/svg"><g><path d="m511.803 160.968c.821-3.519-.981-7.123-4.29-8.575-1.305-.572-131.816-58.322-246.815-150.739-2.744-2.205-6.652-2.205-9.396 0-43.888 35.271-94.723 69.418-151.095 101.494-3.601 2.048-4.858 6.627-2.81 10.228 2.05 3.601 6.627 4.858 10.228 2.81 51.924-29.546 99.24-60.853 140.875-93.202v43.873c-73.514 54.113-147.167 93.787-186.902 113.689l-37.492-20.688c11.25-5.328 28.854-13.946 50.425-25.442 3.655-1.948 5.039-6.491 3.092-10.146s-6.489-5.04-10.146-3.091c-37.504 19.988-62.739 31.105-62.989 31.215-3.299 1.448-5.1 5.05-4.293 8.561.123.535 12.163 55.084-.163 191.108-.289 3.195 1.486 6.221 4.417 7.527.182.081 18.47 8.255 46.738 22.874 1.102.569 2.279.839 3.439.839 2.714 0 5.335-1.479 6.668-4.056 1.902-3.68.462-8.205-3.217-10.107-14.399-7.446-26.122-13.189-34.326-17.105l36.578-21.07c40.484 20.33 115.199 60.582 188.171 114.191v43.859c-57.243-44.435-117.848-80.535-159.833-103.572-3.631-1.992-8.191-.665-10.183 2.967-1.992 3.631-.664 8.19 2.967 10.183 44.452 24.392 110.003 63.579 169.845 111.749 1.374 1.105 3.039 1.658 4.704 1.658s3.33-.553 4.703-1.658c112.096-90.229 245.514-150.158 246.849-150.752 2.931-1.306 4.706-4.332 4.417-7.527-12.326-136.024-.286-190.573-.166-191.095zm-458.939 156.985-36.657 21.115c7.382-90.179 3.956-142.136 1.085-165.839l36.925 20.375c1.61 25.088 2.501 65.95-1.353 124.349zm210.636 171.061v-43.859c39.66-29.14 84.075-57.523 132.079-84.399 3.614-2.023 4.903-6.594 2.88-10.208-2.021-3.614-6.594-4.903-10.208-2.88-47.982 26.864-92.448 55.238-132.25 84.385-72.909-53.382-147.247-93.519-188.104-114.074 3.113-47.567 3.565-89.396 1.346-124.486 40.141-20.149 113.389-59.707 186.757-113.533 18.736 13.746 38.629 27.419 59.204 40.691 3.48 2.244 8.123 1.244 10.368-2.237s1.243-8.123-2.237-10.368c-20.827-13.435-40.94-27.28-59.835-41.189v-43.877c91.365 70.929 189.206 120.144 224.411 136.868l-37.51 20.698c-23.27-11.654-58.036-30.004-97.264-53.842-3.54-2.152-8.153-1.026-10.304 2.514s-1.025 8.153 2.515 10.304c39.135 23.782 73.887 42.166 97.41 53.971-2.22 35.09-1.768 76.919 1.346 124.486-7.565 3.806-15.281 7.778-22.997 11.842-3.665 1.93-5.072 6.466-3.142 10.131 1.343 2.55 3.947 4.007 6.642 4.007 1.179 0 2.374-.278 3.488-.865 7.916-4.168 15.83-8.24 23.576-12.129l36.602 21.084c-35.203 16.857-134.863 67.172-224.773 136.965zm195.635-171.061c-3.854-58.399-2.962-99.261-1.353-124.349l36.925-20.375c-2.872 23.701-6.298 75.65 1.085 165.839z"/><path d="m221.814 139.352c-.398.296-40.337 29.834-85.03 51.477-3.728 1.805-5.287 6.291-3.481 10.019 1.295 2.675 3.97 4.233 6.756 4.233 1.096 0 2.21-.242 3.263-.752 45.955-22.253 85.766-51.693 87.438-52.936 3.325-2.47 4.018-7.168 1.548-10.493s-7.17-4.017-10.494-1.548z"/><path d="m217.82 179.846c-.195.152-19.794 15.397-44.328 27.538-3.713 1.837-5.233 6.336-3.396 10.048 1.308 2.644 3.965 4.175 6.728 4.175 1.117 0 2.251-.25 3.32-.779 25.972-12.852 46.078-28.511 46.922-29.171 3.261-2.553 3.834-7.265 1.281-10.526-2.551-3.261-7.264-3.836-10.527-1.285z"/></g></svg>