<svg id="Layer_1" enable-background="new 0 0 512 512" height="512" viewBox="0 0 512 512" width="512" xmlns="http://www.w3.org/2000/svg"><g><path d="m392.831 75.805c-36.393-48.884-84.987-75.805-136.831-75.805-47.598 0-93.259 23.207-128.571 65.346-2.661 3.175-2.244 7.905.932 10.566 3.173 2.661 7.904 2.244 10.565-.932 30.527-36.429 69.185-57.443 109.574-59.764v43.785c-27.95 48.66-72.166 120.199-126.508 189.499h-43.409c1.162-52.505 14.531-101.793 38.84-142.97 2.106-3.567.921-8.166-2.646-10.271-3.567-2.104-8.167-.92-10.271 2.646-26.826 45.44-41.006 100.109-41.006 158.095 0 87.028 32.727 167.303 87.545 214.734 1.418 1.227 3.165 1.828 4.904 1.828 2.102 0 4.192-.878 5.675-2.593 2.71-3.132 2.368-7.869-.765-10.579-50.009-43.27-80.475-116.077-82.275-195.89h43.407c54.343 69.3 98.558 140.839 126.508 189.498v43.791c-20.646-1.161-40.727-7.124-59.797-17.771-3.617-2.02-8.186-.724-10.204 2.893-2.02 3.617-.724 8.185 2.893 10.205 23.634 13.194 48.735 19.884 74.609 19.884 51.844 0 100.438-26.921 136.831-75.805 35.898-48.221 55.669-112.216 55.669-180.195s-19.771-131.974-55.669-180.195zm-129.331 420.983v-43.789c12.834-22.346 26.24-44.568 39.864-66.079 2.216-3.499 1.176-8.133-2.324-10.349-3.5-2.217-8.133-1.175-10.349 2.324-11.801 18.633-23.441 37.797-34.691 57.112-28.086-48.202-70.005-114.957-120.83-180.007 50.825-65.05 92.743-131.804 120.829-180.006 23.847 40.952 48.907 80.34 74.594 117.235 2.367 3.4 7.042 4.236 10.44 1.87 3.399-2.367 4.237-7.041 1.87-10.44-27.426-39.393-54.134-81.66-79.404-125.657v-43.79c92.58 5.251 167.063 107.242 169.915 233.288h-43.407c-8.79-11.21-17.656-22.912-26.39-34.831-2.449-3.341-7.142-4.064-10.483-1.617-3.341 2.448-4.065 7.142-1.617 10.483 8.375 11.429 16.872 22.663 25.311 33.465-22.218 28.436-44.475 59.412-66.212 92.158-2.291 3.451-1.351 8.105 2.101 10.396 1.276.847 2.716 1.252 4.141 1.252 2.429 0 4.812-1.178 6.255-3.353 21.969-33.094 44.462-64.349 66.894-92.954h43.407c-2.851 126.046-77.334 228.038-169.914 233.289z"/><path d="m246.55 155.417c-3.535-2.16-8.151-1.046-10.311 2.489-.207.338-20.987 34.229-47.706 68.194-2.561 3.256-1.998 7.971 1.257 10.532 1.375 1.082 3.009 1.606 4.632 1.606 2.221 0 4.42-.982 5.899-2.863 27.288-34.689 48.505-69.302 48.716-69.647 2.162-3.536 1.047-8.151-2.487-10.311z"/><path d="m259.864 193.732c-3.535-2.16-8.149-1.046-10.31 2.488-.09.147-9.12 14.868-20.71 29.603-2.561 3.256-1.998 7.971 1.257 10.532 1.375 1.081 3.009 1.605 4.632 1.605 2.221 0 4.42-.982 5.899-2.863 12.161-15.459 21.336-30.427 21.721-31.056 2.16-3.534 1.045-8.149-2.489-10.309z"/></g></svg>