<svg id="Layer_1" enable-background="new 0 0 512 512" height="512" viewBox="0 0 512 512" width="512" xmlns="http://www.w3.org/2000/svg"><g><path d="m490.726 250.177c-49.963-40.542-99.83-89.317-148.214-144.969-2.718-3.125-7.456-3.457-10.581-.739-3.126 2.718-3.457 7.455-.739 10.581 44.603 51.302 90.488 96.859 136.593 135.628-23.59 2.744-48.031 4.988-73.141 6.715-47.028-65.879-85.467-144.842-108.412-196.722 6.648 8.467 14.12 17.775 22.346 27.716 2.641 3.191 7.368 3.639 10.56.997 3.191-2.641 3.638-7.369.997-10.56-36.353-43.932-57.72-75.232-57.931-75.543-1.399-2.052-3.721-3.281-6.204-3.281s-4.805 1.229-6.202 3.282c-.602.885-61.281 89.558-153.989 180.213-2.961 2.896-3.015 7.645-.119 10.606 1.469 1.502 3.415 2.256 5.363 2.256 1.891 0 3.784-.711 5.243-2.138 50.875-49.748 92.232-98.934 119.535-133.688-22.864 51.709-61.154 130.408-108.014 196.216-32.458-2.16-57.844-4.57-73.435-6.212 11.904-10.02 23.87-20.558 35.721-31.461 3.048-2.805 3.246-7.549.441-10.598-2.805-3.048-7.549-3.246-10.598-.441-16.168 14.875-32.544 29.054-48.673 42.141-1.754 1.425-2.773 3.564-2.773 5.824s1.02 4.4 2.774 5.824c133.651 108.448 227.591 245.522 228.524 246.894 1.396 2.053 3.719 3.282 6.202 3.282s4.805-1.229 6.202-3.282c.933-1.372 94.873-138.447 228.524-246.894 1.755-1.424 2.774-3.563 2.774-5.824s-1.019-4.399-2.774-5.823zm-234.72 235.962c-7.962-17.401-22.507-48.068-41.96-84.393-1.955-3.652-6.5-5.027-10.152-3.07-3.651 1.955-5.026 6.5-3.07 10.152 6.149 11.482 11.801 22.389 16.902 32.477-37.434-46.701-96.253-114.013-167.778-175.118 15.808 1.589 38.548 3.637 66.501 5.502 22.32 31.045 44.798 66.463 66.836 105.316 2.043 3.604 6.621 4.869 10.224 2.823 3.603-2.043 4.867-6.621 2.823-10.224-19.984-35.231-40.344-67.698-60.643-96.715 36.902 2.145 81.038 3.804 129.263 3.804 12.833 0 25.982-.118 39.334-.375 4.142-.08 7.434-3.501 7.354-7.643-.08-4.141-3.531-7.423-7.643-7.354-63.667 1.225-122.044-.743-168.624-3.475 59.186-85.463 104.003-189.106 120.627-229.96 16.668 40.959 61.674 145.034 121.087 230.625-11.638.681-23.408 1.254-35.29 1.716-4.139.161-7.364 3.646-7.203 7.786.157 4.04 3.481 7.208 7.489 7.208.099 0 .198-.002.297-.006 11.248-.437 22.396-.973 33.43-1.605-58.84 84.302-103.363 176.668-119.804 212.529zm38.394-44.991c23.474-46.362 58.645-110.214 100.639-168.747 22.815-1.561 45.091-3.544 66.691-5.939-71.3 60.964-129.946 128.061-167.33 174.686z"/><path d="m234.226 149.332c-3.747-1.771-8.215-.166-9.984 3.58-.172.366-17.533 36.99-40.797 74.282-2.192 3.514-1.121 8.141 2.394 10.333 1.235.771 2.607 1.138 3.962 1.138 2.502 0 4.949-1.252 6.371-3.531 23.746-38.064 41.458-75.445 41.635-75.818 1.767-3.746.164-8.216-3.581-9.984z"/><path d="m251.236 187.078c-3.747-1.771-8.216-.166-9.984 3.579-.075.159-7.622 16.074-17.719 32.258-2.192 3.514-1.121 8.141 2.394 10.333 1.235.771 2.607 1.138 3.962 1.138 2.502 0 4.949-1.252 6.371-3.531 10.579-16.957 18.235-33.114 18.556-33.794 1.767-3.746.165-8.215-3.58-9.983z"/></g></svg>