<svg id="Layer_1" enable-background="new 0 0 512 512" height="512" viewBox="0 0 512 512" width="512" xmlns="http://www.w3.org/2000/svg"><g><path d="m511.356 237.784c-4.354-61.404-30.754-119.222-74.335-162.804-43.535-43.536-101.289-69.931-162.625-74.323-60.713-4.348-121.012 13.006-169.794 48.866-3.337 2.453-4.054 7.147-1.601 10.485s7.148 4.054 10.485 1.601c40.201-29.551 87.5-44.74 135.015-46.096v42.129c-10.897 15.147-86.75 117.832-190.822 190.859h-42.45c1.826-59.192 25.279-117.834 70.359-162.914 2.929-2.929 2.929-7.678 0-10.606-2.929-2.929-7.678-2.929-10.606 0-48.353 48.351-74.982 112.638-74.982 181.018s26.628 132.668 74.981 181.02c48.352 48.352 112.639 74.981 181.02 74.981 68.38 0 132.667-26.629 181.02-74.981 2.929-2.929 2.929-7.678 0-10.606-2.93-2.929-7.678-2.929-10.607 0-43.747 43.747-101.35 68.604-162.913 70.474v-42.564c73.027-104.073 175.712-179.925 190.859-190.822h42.147c-1.363 47.621-16.63 95.027-46.325 135.3-2.458 3.334-1.749 8.029 1.585 10.487 1.34.988 2.899 1.464 4.445 1.464 2.301 0 4.572-1.055 6.042-3.049 35.974-48.789 53.413-109.134 49.102-169.919zm-57.032 10.715c-11.624-8.156-23.411-17.045-35.069-26.446-3.225-2.6-7.946-2.093-10.546 1.13-2.601 3.224-2.095 7.946 1.13 10.546 9.718 7.837 19.529 15.329 29.271 22.354-27.592 20.56-116.142 90.111-183.109 182.906-43.097-59.724-94.724-109.351-131.208-141.02-3.129-2.715-7.865-2.38-10.581.748-2.715 3.128-2.38 7.865.748 10.581 37.208 32.297 90.405 83.548 133.54 145.023v42.564c-61.563-1.869-119.166-26.727-162.914-70.474-45.08-45.08-68.532-103.721-70.359-162.913h42.419c4.095 2.937 14.582 10.6 29.008 22.168 1.384 1.11 3.041 1.649 4.687 1.649 2.197 0 4.375-.961 5.856-2.809 2.591-3.231 2.072-7.952-1.159-10.543-9.735-7.807-17.642-13.822-23.128-17.895 92.961-67.065 162.626-155.818 183.087-183.291 16.043 21.566 62.358 80.89 126.156 137.505 3.1 2.75 7.841 2.466 10.588-.632 2.75-3.098 2.467-7.838-.631-10.588-71.065-63.063-120.025-129.478-128.61-141.423v-42.1c59.658 1.947 118.513 25.643 162.913 70.043 44.421 44.421 68.12 103.266 70.064 162.914h-42.153z"/><path d="m227.804 169.591c2.741-3.105 2.445-7.845-.66-10.586-3.106-2.741-7.844-2.446-10.586.659-.262.297-26.618 30.059-58.835 58.862-3.088 2.761-3.353 7.502-.592 10.59 1.481 1.657 3.533 2.501 5.594 2.501 1.779 0 3.565-.629 4.997-1.909 32.902-29.417 59.813-59.814 60.082-60.117z"/><path d="m233.594 199.052c-3.104-2.741-7.844-2.446-10.586.657-.114.129-11.566 13.057-25.542 25.552-3.088 2.761-3.353 7.502-.592 10.59 1.482 1.657 3.533 2.501 5.594 2.501 1.779 0 3.566-.629 4.997-1.909 14.663-13.11 26.301-26.254 26.789-26.807 2.74-3.104 2.445-7.843-.66-10.584z"/></g></svg>