<svg id="Layer_1" enable-background="new 0 0 512 512" height="512" viewBox="0 0 512 512" width="512" xmlns="http://www.w3.org/2000/svg"><g><path d="m509.859 344.235c-36.268-37.035-72.022-78.313-106.272-122.687-2.532-3.279-7.241-3.884-10.521-1.354-3.278 2.531-3.885 7.241-1.354 10.52 30.663 39.726 62.53 77.006 94.907 111.039l-48.4-.62c-78.807-87.049-138.283-175.096-174.719-234.452v-69.471c18.642 33.354 55.149 94.965 106.636 164.884 1.47 1.997 3.742 3.053 6.045 3.053 1.544 0 3.103-.476 4.442-1.461 3.335-2.456 4.048-7.151 1.592-10.486-76.116-103.366-119.09-188.225-119.515-189.071-1.273-2.531-3.866-4.129-6.7-4.129s-5.427 1.598-6.7 4.129c-.146.29-14.904 29.512-42.153 74.039-2.162 3.533-1.051 8.15 2.482 10.312 3.532 2.164 8.149 1.051 10.312-2.482 11.937-19.506 21.517-36.134 28.559-48.75v69.431c-36.096 58.813-75.951 115.476-118.482 168.444-2.594 3.23-2.078 7.951 1.152 10.544 3.229 2.594 7.949 2.077 10.543-1.152 40.858-50.884 79.271-105.148 114.287-161.438 36.736 59.012 94.028 142.572 168.762 225.535-19.782 22.315-45.925 55.178-67.522 93.891-82.606-7.921-160.192-3.461-202.297.333-21.632-38.856-47.859-71.834-67.706-94.224 10.651-11.825 21.297-24.05 31.712-36.416 2.669-3.168 2.264-7.9-.905-10.568-3.167-2.669-7.9-2.264-10.567.905-11.061 13.134-22.386 26.105-33.694 38.598l-48.401.62c77.969-81.974 138.478-167.701 176.198-226.464 2.237-3.486 1.226-8.125-2.26-10.363-3.486-2.237-8.125-1.226-10.363 2.26-39.338 61.284-103.679 152.155-186.816 237.051-1.443 1.474-2.215 3.477-2.136 5.538.08 2.061 1.006 3.999 2.558 5.356.755.66 75.87 66.984 111.596 152.269 1.181 2.817 3.931 4.603 6.915 4.603.365 0 .733-.027 1.103-.082.741-.11 75.179-10.951 167.192-8.431 4.092.098 7.589-3.151 7.702-7.292s-3.151-7.589-7.292-7.703c-69.084-1.896-128.473 3.653-155.006 6.713l20.614-37.349c41.491-3.776 118.997-8.321 201.356-.332l20.475 37.515c-16.363-2.086-33.401-3.715-50.84-4.859-4.121-.273-7.704 2.859-7.976 6.993-.271 4.133 2.86 7.704 6.993 7.975 22.362 1.466 44.038 3.744 64.428 6.769.37.055.738.082 1.104.082 2.984 0 5.733-1.785 6.914-4.603 35.726-85.284 110.84-151.608 111.595-152.269 1.552-1.357 2.478-3.295 2.558-5.356.079-2.06-.692-4.064-2.135-5.537zm-388.076 143.463c-28.662-60.427-73.241-108.855-95.632-130.954l47.695-.611c19.653 21.92 46.488 55.218 68.332 94.612zm268.472-.079-20.278-37.153c21.818-39.277 48.581-72.477 68.177-94.333l47.694.611c-22.38 22.09-66.93 70.484-95.593 130.875z"/><path d="m228.109 223.904c-3.478-2.251-8.12-1.257-10.371 2.22-.22.339-22.284 34.316-50.356 68.241-2.641 3.191-2.194 7.919.997 10.56 1.398 1.158 3.093 1.722 4.777 1.722 2.157 0 4.299-.926 5.782-2.719 28.624-34.592 51.166-69.306 51.391-69.652 2.252-3.478 1.258-8.121-2.22-10.372z"/><path d="m207.766 295.42c-2.641 3.191-2.194 7.919.997 10.56 1.399 1.158 3.093 1.722 4.777 1.722 2.157 0 4.299-.926 5.782-2.719 12.752-15.41 22.497-30.414 22.905-31.045 2.251-3.477 1.257-8.119-2.22-10.371-3.476-2.25-8.119-1.258-10.371 2.218-.095.148-9.699 14.926-21.87 29.635z"/></g></svg>