<svg id="Layer_1" enable-background="new 0 0 512 512" height="512" viewBox="0 0 512 512" width="512" xmlns="http://www.w3.org/2000/svg"><g><path d="m418.126 380.325c-28.966-122.772-.293-247.41 0-248.654.78-3.314-.77-6.74-3.774-8.341-87.629-46.661-150.074-117.746-152.689-120.749-2.055-2.359-5.362-3.202-8.293-2.106-1.172.439-2.216 1.165-3.036 2.11-.294.339-29.95 34.316-76.269 70.524-3.264 2.551-3.841 7.264-1.29 10.528 2.553 3.264 7.267 3.841 10.528 1.29 18.967-14.827 35.084-29.205 47.146-40.614-13.584 26.332-33.715 60.579-57.372 85.845-19.997-1.492-36.626-3.232-48.724-4.671 10.394-6.187 20.829-12.906 31.193-20.093 3.404-2.36 4.25-7.033 1.89-10.437-2.359-3.403-7.033-4.251-10.437-1.89-16.444 11.402-33.048 21.585-49.351 30.265-3.005 1.601-4.555 5.026-3.774 8.341.178.756 17.736 76.683 11.769 167.86-.271 4.133 2.861 7.703 6.994 7.974.167.011.333.017.498.017 3.918 0 7.217-3.044 7.477-7.011 4.863-74.308-5.192-137.291-9.904-161.627 11.591 1.542 32.007 3.977 58.509 6.011 2.692 25.907 12.11 131.181.176 237.075-27.681-2.15-48.481-4.728-59.114-6.183 2.784-12.853 5.089-26.2 6.871-39.787.538-4.107-2.354-7.873-6.462-8.412-4.112-.543-7.873 2.354-8.411 6.462-2.087 15.924-4.914 31.493-8.402 46.275-.782 3.315.769 6.741 3.774 8.342 87.7 46.698 150.077 117.748 152.689 120.749 1.454 1.671 3.536 2.581 5.669 2.581.879 0 1.767-.155 2.622-.475 1.172-.439 2.217-1.165 3.037-2.11.194-.225 19.836-22.752 51.952-50.519 3.134-2.709 3.478-7.445.769-10.579s-7.445-3.477-10.579-.768c-3.818 3.301-7.457 6.524-10.899 9.635 12.636-18.972 28.578-40.483 46.541-59.338 11.587-.854 23.309-1.931 35.093-3.265-14.404 9.167-28.823 19.322-43.129 30.38-3.277 2.533-3.88 7.244-1.347 10.521 1.478 1.912 3.696 2.914 5.938 2.914 1.603 0 3.217-.511 4.582-1.566 24.512-18.947 49.33-35.152 73.765-48.163 3.005-1.6 4.556-5.025 3.774-8.341zm-79.165-249.571c-23.991-25.601-44.171-60.15-57.701-86.622 24.299 23.053 61.518 54.752 106.765 81.589-16.481 2.183-32.902 3.829-49.064 5.033zm-98.826-72.549c6.791-12.756 12.229-24.114 15.828-31.946 10.932 24.033 34.007 70.285 64.016 105.717-47.382 2.585-91.774 1.579-127.948-.554 16.265-19.17 32.401-43.722 48.104-73.217zm-55.734 87.763c22.849 1.47 49.251 2.534 77.816 2.534 20.82 0 42.79-.565 65.37-1.95-.997 9.872-2.581 27.392-3.85 49.914-.232 4.136 2.931 7.677 7.066 7.91 4.116.233 7.678-2.93 7.91-7.066 1.376-24.426 3.121-42.834 4.06-51.809 19.26-1.487 38.869-3.598 58.504-6.486-2.53 13.167-6.602 37.593-9.082 69.128-3.297 41.92-4.184 104.355 9.544 167.733-19.835 2.99-39.661 5.167-59.133 6.694-5.224-46.273-7.019-97.429-5.334-152.19.128-4.141-3.125-7.6-7.266-7.728-4.113-.122-7.6 3.126-7.727 7.266-1.7 55.228.1 106.888 5.35 153.706-53.672 3.352-103.911 1.986-143.265-.582 11.611-103.741 3.071-206.746.037-237.074zm-11.864 251.274c18.344 19.253 34.476 41.167 47.159 60.39-21.275-19.27-49.688-42.475-83.057-63.59 10.219 1.072 22.301 2.194 35.898 3.2zm99.605 64.363c-6.964 11.043-12.506 20.619-16.102 27.038-10.556-19.057-32.876-56.566-61.954-89.995 20.512 1.159 43.519 1.949 68.132 1.949 17.849 0 36.544-.416 55.743-1.407-19.03 21.877-35.026 45.3-45.819 62.415z"/><path d="m220.016 319.431c.253.025.504.038.753.038 3.808 0 7.068-2.887 7.454-6.756 5.068-50.808.798-100.138.613-102.213-.366-4.125-3.995-7.17-8.134-6.807-4.125.366-7.173 4.007-6.808 8.133.044.495 4.326 50.043-.598 99.398-.41 4.121 2.598 7.796 6.72 8.207z"/><path d="m246.607 288.595c-.376 4.125 2.663 7.774 6.788 8.15.231.021.461.031.689.031 3.835 0 7.105-2.926 7.46-6.82 2.63-28.858-.2-54.186-.322-55.25-.471-4.115-4.179-7.062-8.302-6.598-4.114.47-7.069 4.187-6.601 8.301.029.247 2.772 24.925.288 52.186z"/></g></svg>