<svg id="Layer_1" enable-background="new 0 0 512 512" height="512" viewBox="0 0 512 512" width="512" xmlns="http://www.w3.org/2000/svg"><g><path d="m463.061 375.849c-48.337-135.091-52.451-268.377-52.487-269.708-.06-2.218-1.099-4.297-2.837-5.675-15.919-12.624-31.142-27.761-45.244-44.991-2.623-3.205-7.349-3.678-10.554-1.053-3.205 2.624-3.677 7.349-1.053 10.554 12.102 14.786 25.016 28.121 38.498 39.763l-33.738 16.658c-23.156-21.903-40.773-44.83-52.22-61.55l18.177-36.356c2.471 4.116 5.586 9.08 9.341 14.656 2.313 3.436 6.975 4.345 10.41 2.031 3.436-2.314 4.345-6.975 2.031-10.41-10.124-15.03-15.415-25.521-15.465-25.622-1.441-2.883-4.56-4.519-7.755-4.072-63.348 8.934-127.688.089-128.33 0-3.188-.452-6.309 1.191-7.752 4.068-.275.548-28.093 55.306-79.819 96.324-1.738 1.378-2.777 3.457-2.837 5.675-.004.162-.468 16.542-3.093 43.192-.406 4.122 2.606 7.793 6.729 8.199.25.024.498.037.744.037 3.811 0 7.074-2.893 7.455-6.765 1.376-13.968 2.167-25.07 2.614-32.665l33.951 16.763c-3.465 45.049-13.358 128.959-41.422 220.446l-40.556 11.777c23.007-68.289 34.964-134.303 41.013-178.833.558-4.104-2.318-7.883-6.422-8.441-4.103-.565-7.884 2.318-8.441 6.422-6.358 46.808-19.336 117.693-45.057 189.575-1.148 3.208.015 6.79 2.826 8.716.659.451 66.285 46.009 104.175 123.238 1.387 2.826 4.391 4.483 7.523 4.155.926-.099 93.66-9.688 185.074 0 .266.028.53.042.793.042 2.836 0 5.461-1.609 6.731-4.196 37.891-77.229 103.516-122.787 104.172-123.236 2.811-1.924 3.974-5.506 2.825-8.718zm-154.804-359.209-18.277 36.556c-26.365 1.507-50.674.813-67.848-.191l-18.397-36.485c20.641 1.997 61.365 4.626 104.522.12zm-117.815 6.832 18.253 36.2c-11.467 16.769-29.121 39.763-52.34 61.725l-33.735-16.657c34.429-29.703 57.138-63.403 67.822-81.268zm-118 357.939 39.999-11.616c9.181 8.405 18.106 17.329 26.573 26.573 1.479 1.615 3.502 2.434 5.532 2.434 1.81 0 3.624-.651 5.064-1.969 3.054-2.798 3.262-7.542.464-10.597-8.646-9.44-17.756-18.559-27.127-27.159 28.772-94.054 38.637-180.114 41.994-225.166 25.09-23.412 44.061-48.098 56.247-65.935 17.624 1.031 42.613 1.746 69.752.19 12.166 17.786 31.096 42.398 56.117 65.746 2.186 29.229 7.924 85.205 22.451 150.693.896 4.043 4.895 6.595 8.946 5.697 4.043-.897 6.595-4.902 5.697-8.946-13.985-63.045-19.708-117.12-21.976-146.454l33.973-16.774c2.073 34.288 11.162 139.645 48.004 248.998l-40.556-11.777c-3.938-12.843-7.681-26.091-11.142-39.438-1.04-4.01-5.134-6.42-9.142-5.377-4.01 1.04-6.417 5.133-5.377 9.142 3.456 13.327 7.189 26.56 11.116 39.403-20.292 18.63-47.863 47.548-71.724 85.146-47.724-2.787-92.099-1.526-122.536.191-6.418-10.125-13.451-20.169-20.946-29.908-2.525-3.283-7.235-3.896-10.518-1.37-3.282 2.526-3.896 7.235-1.37 10.518 7.219 9.381 13.99 19.05 20.165 28.793l-19.341 35.999c-29.693-54.115-70.256-90.89-90.339-107.037zm103.407 114.412 19.566-36.418c30.083-1.705 74.034-2.962 121.261-.193l19.461 36.492c-67.173-5.761-132.503-2.034-160.288.119zm173.393-7.421-19.262-36.12c23.145-36.475 49.949-64.51 69.578-82.487l39.999 11.616c-20.077 16.143-60.623 52.905-90.315 106.991z"/><path d="m171.946 288.235c.632.164 1.267.243 1.891.243 3.333 0 6.376-2.24 7.254-5.616 12.838-49.419 16.22-98.818 16.358-100.896.274-4.133-2.854-7.706-6.988-7.979-4.131-.281-7.706 2.855-7.979 6.988-.033.495-3.423 50.053-15.91 98.116-1.041 4.008 1.365 8.102 5.374 9.144z"/><path d="m208.423 270.964c.612.153 1.226.227 1.83.227 3.358 0 6.416-2.273 7.269-5.678 7.046-28.108 8.153-53.569 8.196-54.639.169-4.138-3.048-7.628-7.186-7.798-4.147-.161-7.63 3.047-7.802 7.185-.01.248-1.103 25.053-7.759 51.605-1.006 4.018 1.435 8.091 5.452 9.098z"/></g></svg>