<svg id="Layer_1" enable-background="new 0 0 512 512" height="512" viewBox="0 0 512 512" width="512" xmlns="http://www.w3.org/2000/svg"><g><path d="m509.05 245.473c-55.451-42.319-115.194-96.998-172.771-158.126-2.84-3.016-7.586-3.157-10.602-.317-3.015 2.84-3.157 7.586-.317 10.602 54.504 57.865 108.824 108.176 161.666 149.749l-44.386 9.155c-74.855-61.86-138.33-128.584-179.14-174.614v-53.561c9.071 10.771 22.461 26.319 39.251 44.819 2.783 3.066 7.526 3.298 10.594.513 3.067-2.784 3.297-7.527.513-10.594-32.276-35.563-51.797-60.027-51.991-60.271-1.422-1.787-3.582-2.828-5.867-2.828s-4.445 1.041-5.868 2.829c-.702.881-71.343 89.218-168.878 177.302-3.074 2.776-3.315 7.519-.539 10.593 1.48 1.64 3.52 2.473 5.568 2.473 1.792 0 3.59-.639 5.024-1.934 73.607-66.473 132.058-133.117 157.193-162.922v53.581c-40.81 46.03-104.285 112.754-179.14 174.614l-44.39-9.156c13.094-10.309 26.391-21.247 39.682-32.646 3.144-2.697 3.507-7.432.81-10.576-2.697-3.145-7.432-3.507-10.576-.81-17.471 14.985-34.945 29.158-51.935 42.125-2.995 2.285-3.829 6.438-1.95 9.704.698 1.213 70.264 122.839 106.736 251.371.923 3.25 3.89 5.453 7.21 5.453.24 0 .481-.012.724-.035 1.404-.136 141.993-13.359 280.659 0 3.612.348 6.946-1.933 7.935-5.418 11.131-39.229 26.389-81.605 45.348-125.95 1.628-3.809-.139-8.216-3.948-9.844-3.806-1.627-8.216.139-9.844 3.948-16.773 39.23-30.695 76.975-41.483 112.442l-24.967-36.802c24.012-71.548 54.355-136.229 76.303-179.114l44.384-9.154c-8.853 16.388-24.132 45.698-40.82 82.273-1.719 3.769-.059 8.217 3.71 9.937 1.009.46 2.067.679 3.109.679 2.847 0 5.569-1.629 6.828-4.389 25.661-56.242 47.896-95.01 48.118-95.395 1.876-3.268 1.041-7.421-1.953-9.706zm-127.086 250.151c-107.532-8.855-212.984-2.771-251.956.121l25.101-36.772c49.326-2.853 122.985-5.061 201.831-.235zm-26.167-51.982c-77.719-4.643-150.227-2.555-199.513.24-3.534-10.467-7.33-21.166-11.313-31.883-1.443-3.883-5.761-5.86-9.644-4.417-3.882 1.443-5.86 5.76-4.417 9.643 4.168 11.214 8.128 22.406 11.79 33.322l-25.02 36.653c-30.042-98.705-77.153-190.637-95.752-225.132l44.399 9.158c13.716 26.809 33.431 67.549 52.426 114.643 1.549 3.841 5.921 5.699 9.761 4.15 3.842-1.549 5.7-5.919 4.15-9.761-18.697-46.356-38.08-86.612-51.881-113.707 72.545-60.177 134.312-124.647 175.217-170.491 40.902 45.842 102.678 110.317 175.216 170.492-21.892 42.954-51.622 106.632-75.419 177.09z"/><path d="m230.114 183.288c2.651-3.183 2.22-7.912-.963-10.562-3.182-2.651-7.912-2.22-10.562.963-.318.381-32.191 38.481-70.542 70.026-3.199 2.631-3.66 7.358-1.028 10.557 1.483 1.803 3.631 2.736 5.797 2.736 1.677 0 3.364-.56 4.76-1.708 39.433-32.436 71.205-70.412 72.538-72.012z"/><path d="m234.763 212.759c-3.249-2.57-7.965-2.021-10.535 1.227-.154.194-15.618 19.621-36.61 37.189-3.177 2.659-3.596 7.389-.938 10.565 1.483 1.772 3.612 2.687 5.755 2.687 1.698 0 3.406-.574 4.81-1.749 22.222-18.598 38.082-38.546 38.747-39.386 2.569-3.249 2.018-7.963-1.229-10.533z"/></g></svg>