<svg id="Layer_1" enable-background="new 0 0 512 512" height="512" viewBox="0 0 512 512" width="512" xmlns="http://www.w3.org/2000/svg"><g><path d="m478.406 336.863c-12.734-79.844-.129-160.918 0-161.727.479-3.002-.903-5.997-3.498-7.581-62.18-37.961-84.842-99.853-85.061-100.466-.871-2.458-2.957-4.287-5.507-4.83-72.874-15.521-122.823-59.886-123.316-60.329-2.852-2.574-7.191-2.572-10.045-.004-.496.447-50.445 44.811-123.319 60.332-2.544.542-4.629 2.372-5.503 4.821-.06.167-6.124 16.93-20.47 38.115-2.323 3.43-1.425 8.093 2.004 10.415 3.43 2.324 8.093 1.424 10.416-2.004 8.017-11.838 13.604-22.332 17.167-29.81l24.268 29.199c-3.235 5.813-6.725 11.571-10.41 17.172-14.648 22.263-32.209 41.993-52.242 58.704l-36.308-16.182c11.903-8.389 23.072-18.074 33.325-28.905 2.848-3.008 2.717-7.755-.291-10.603-3.008-2.847-7.755-2.717-10.603.291-12.63 13.343-26.734 24.81-41.921 34.082-2.595 1.584-3.977 4.58-3.498 7.583.129.809 12.75 81.788 0 161.726-.479 3.003.903 5.998 3.498 7.583 62.18 37.961 84.843 99.853 85.062 100.466.871 2.458 2.956 4.287 5.506 4.83 72.874 15.522 122.823 59.886 123.315 60.329 1.426 1.287 3.224 1.93 5.022 1.93s3.596-.643 5.022-1.926c.496-.446 50.445-44.811 123.32-60.332 2.544-.542 4.629-2.372 5.504-4.822.038-.106 3.902-10.819 12.729-25.854 2.097-3.572.901-8.168-2.671-10.265-3.574-2.098-8.169-.901-10.265 2.671-3.788 6.453-6.727 12.159-8.908 16.736l-24.271-29.202c3.236-5.815 6.726-11.573 10.41-17.173 14.595-22.182 32.083-41.85 52.024-58.52l36.461 16.042c-16.834 11.866-32.115 26.264-45.554 42.938-2.599 3.225-2.092 7.947 1.134 10.546 1.386 1.118 3.049 1.661 4.701 1.661 2.191 0 4.362-.956 5.845-2.794 15.413-19.125 33.39-35.025 53.43-47.26 2.596-1.585 3.978-4.58 3.498-7.583zm-22.996-164.17-36.299 16.178c-20.034-16.711-37.596-36.441-52.243-58.703-3.684-5.6-7.174-11.358-10.41-17.173l24.246-29.172c9.163 19.341 31.723 58.634 74.706 88.87zm-191.91-149.56c18.424 13.742 56.013 38.055 105.775 50.975l-24.406 29.364c-34.279-10.853-62.542-26.194-81.369-38.077zm-120.774 50.975c49.761-12.92 87.35-37.233 105.773-50.975v42.262c-18.825 11.883-47.089 27.222-81.368 38.077zm-92.519 112.163 36.763 16.385c2.206 26.673 3.803 65.315.262 106.854l-36.896 16.233c7.474-58.729 2.791-114.552-.129-139.472zm6.446 153.08 36.456-16.039c19.942 16.671 37.429 36.339 52.023 58.521 3.685 5.601 7.175 11.359 10.41 17.172l-24.246 29.172c-9.158-19.332-31.701-58.595-74.643-88.826zm312.622 98.541c-49.761 12.92-87.351 37.233-105.775 50.975v-42.262c18.827-11.883 47.091-27.223 81.368-38.077zm92.39-112.149-36.896-16.233c-1.365-16.025-2.064-32.82-2.078-49.994-.003-4.141-3.36-7.494-7.5-7.494h-.006c-4.143.003-7.497 3.364-7.494 7.506.014 17.779.745 35.177 2.176 51.778-21.314 17.717-39.983 38.653-55.53 62.282-4.288 6.517-8.328 13.241-12.035 20.025-36.346 11.263-66.326 27.426-86.301 39.988-11.724-7.379-23.931-14.159-36.352-20.187-3.726-1.807-8.214-.253-10.022 3.473-1.808 3.727-.253 8.213 3.473 10.022 12.101 5.872 23.992 12.489 35.4 19.696v42.263c-18.424-13.742-56.013-38.055-105.774-50.975l24.406-29.364c4.349 1.376 8.712 2.858 13.026 4.424.845.307 1.709.453 2.56.453 3.065 0 5.943-1.894 7.05-4.942 1.414-3.893-.596-8.196-4.489-9.609-5.157-1.874-10.385-3.631-15.58-5.241-3.706-6.783-7.746-13.506-12.035-20.026-15.546-23.628-34.215-44.564-55.53-62.282 3.71-43.027 2.03-82.997-.256-110.398 21.422-17.763 40.177-38.771 55.786-62.495 4.289-6.52 8.33-13.243 12.035-20.026 36.348-11.263 66.327-27.427 86.301-39.988 19.975 12.561 49.956 28.725 86.302 39.988 3.707 6.784 7.747 13.508 12.035 20.026 15.608 23.723 34.363 44.731 55.786 62.495-.641 7.676-1.16 15.479-1.55 23.252-.208 4.137 2.978 7.659 7.115 7.866 4.129.192 7.658-2.979 7.865-7.115.373-7.439.869-14.905 1.477-22.254l36.761-16.384c-2.918 24.917-7.601 80.74-.126 139.47z"/><path d="m196.225 145.339c-3.356-2.429-8.044-1.678-10.473 1.676-.233.321-23.597 32.485-52.886 64.261-2.807 3.045-2.614 7.791.432 10.598 1.441 1.329 3.264 1.985 5.081 1.985 2.022 0 4.038-.813 5.517-2.417 29.914-32.452 53.769-65.302 54.007-65.63 2.427-3.356 1.677-8.044-1.678-10.473z"/><path d="m206.505 184.577c-3.354-2.429-8.043-1.678-10.473 1.675-.101.14-10.253 14.11-22.959 27.896-2.807 3.045-2.614 7.791.432 10.598 1.441 1.329 3.264 1.985 5.081 1.985 2.022 0 4.038-.813 5.517-2.417 13.331-14.462 23.647-28.667 24.08-29.265 2.427-3.355 1.676-8.043-1.678-10.472z"/></g></svg>