<svg id="Layer_1" enable-background="new 0 0 512 512" height="512" viewBox="0 0 512 512" width="512" xmlns="http://www.w3.org/2000/svg"><g><path d="m510.741 428.335c-44.04-66.041-89.602-139.609-135.422-218.659-2.076-3.583-6.666-4.805-10.249-2.728-3.584 2.077-4.806 6.666-2.729 10.25 41.361 71.358 82.525 138.281 122.562 199.269l-56.478-22.873c-69.124-108.452-127.643-212.213-164.925-280.877v-74.412c16.017 30.554 44.74 84.302 81.822 149.298 1.384 2.425 3.916 3.785 6.521 3.785 1.26 0 2.537-.318 3.71-.987 3.598-2.052 4.851-6.633 2.798-10.231-57.868-101.428-95.286-175.318-95.658-176.053-1.275-2.525-3.864-4.117-6.693-4.117s-5.418 1.592-6.693 4.117c-.155.308-15.843 31.307-42.356 80.229-1.974 3.642-.621 8.194 3.021 10.167 3.642 1.975 8.193.622 10.167-3.02 11.674-21.541 21.262-39.63 28.362-53.179v74.401c-32.356 59.593-66.096 118.824-100.303 176.078-2.124 3.556-.964 8.161 2.592 10.285 3.557 2.125 8.161.964 10.285-2.592 32.313-54.083 64.212-109.928 94.925-166.176 36.711 67.217 91.404 163.604 155.494 264.614-18.381 4.713-36.668 9.708-54.499 14.888-3.978 1.156-6.265 5.317-5.109 9.294.952 3.279 3.947 5.41 7.198 5.41.693 0 1.397-.097 2.097-.3 20.141-5.852 40.874-11.466 61.662-16.699l56.109 22.724c-41.442 9.203-129.949 30.693-215.451 63.311v-37.383c19.292-7.116 39.743-14.101 60.874-20.79 3.948-1.25 6.137-5.465 4.887-9.414s-5.465-6.136-9.414-4.887c-22.196 7.026-43.661 14.379-63.847 21.871-57.504-21.341-114.625-37.539-155.495-48.025 13.842-21.816 27.88-44.419 41.811-67.32 2.153-3.539 1.029-8.153-2.51-10.306-3.538-2.153-8.153-1.029-10.305 2.51-15.316 25.177-30.76 49.989-45.926 73.786l-56.479 22.873c72.04-109.75 135.008-219.434 176.084-293.951 1.999-3.627.68-8.189-2.948-10.189-3.625-1.999-8.188-.68-10.189 2.948-43.457 78.837-111.486 197.144-188.785 313.06-1.393 2.089-1.647 4.737-.679 7.054s3.032 3.996 5.498 4.471c1.278.247 129.145 25.19 247.176 71.619.882.347 1.813.521 2.745.521s1.863-.173 2.745-.521c118.031-46.428 245.898-71.372 247.176-71.619 2.466-.476 4.529-2.154 5.498-4.471s.715-4.964-.677-7.054zm-262.241 65.217c-85.503-32.618-174.009-54.108-215.451-63.311l56.109-22.724c40.325 10.154 99.539 26.595 159.343 48.651v37.384z"/><path d="m227.708 250.786c-3.726-1.811-8.214-.258-10.023 3.467-.178.364-17.959 36.812-41.664 73.869-2.231 3.489-1.213 8.127 2.277 10.359 1.251.801 2.65 1.183 4.034 1.183 2.473 0 4.894-1.222 6.325-3.459 24.194-37.823 42.338-75.025 42.519-75.396 1.809-3.726.258-8.213-3.468-10.023z"/><path d="m218.507 334.607c1.252.801 2.651 1.183 4.035 1.183 2.473 0 4.894-1.222 6.324-3.459 10.78-16.85 18.622-32.93 18.951-33.606 1.81-3.726.257-8.212-3.468-10.023s-8.213-.257-10.023 3.466c-.077.158-7.807 15.998-18.095 32.08-2.232 3.489-1.213 8.127 2.276 10.359z"/></g></svg>