<svg id="Layer_1" enable-background="new 0 0 512 512" height="512" viewBox="0 0 512 512" width="512" xmlns="http://www.w3.org/2000/svg"><g><path d="m490.831 201.872c-11.958-10.069-24.265-20.811-36.58-31.927-3.073-2.775-7.816-2.533-10.593.542-2.775 3.075-2.533 7.817.542 10.593 7.798 7.038 15.594 13.929 23.303 20.599l-48.12 4.157c-55.858-50.509-103.385-100.583-134.253-134.699l5.948-46.017c20.496 23.439 67.749 75.95 126.583 131.459 1.448 1.367 3.299 2.045 5.146 2.045 1.992 0 3.98-.79 5.456-2.353 2.843-3.013 2.705-7.76-.309-10.602-78.276-73.854-135.84-142.304-136.413-142.987-2.545-3.037-7.016-3.567-10.202-1.216-.508.375-51.53 37.839-117.454 70.073-3.721 1.82-5.263 6.311-3.442 10.032 1.819 3.721 6.31 5.262 10.032 3.443 46.513-22.744 85.768-48.063 105.701-61.625l-5.915 45.761c-32.059 20.253-79.887 47.743-132.426 68.643l-30.272-25.961c9.95-3.569 20.164-7.58 30.502-11.98 3.811-1.622 5.586-6.026 3.964-9.838-1.623-3.812-6.026-5.586-9.839-3.964-14.324 6.097-28.386 11.42-41.793 15.823-2.679.879-4.639 3.189-5.071 5.976-.158 1.014-16.333 102.576-66.012 200.454-1.767 3.479-.569 7.732 2.753 9.779.382.236 38.866 24.009 92.614 61.968 1.314.929 2.824 1.375 4.319 1.375 2.354 0 4.672-1.105 6.133-3.174 2.39-3.383 1.584-8.063-1.8-10.453-34.768-24.555-63.225-43.235-79.25-53.528l44.379-12.847c43.8 29.074 108.922 74.553 176.626 129.852l9.585 53.637c-37.089-31.773-78.332-64.23-122.87-96.689-3.348-2.439-8.037-1.704-10.479 1.644-2.439 3.348-1.703 8.039 1.645 10.479 50.71 36.957 97.095 73.893 137.868 109.783 1.38 1.215 3.146 1.87 4.955 1.87.451 0 .906-.041 1.357-.124 2.261-.416 4.206-1.846 5.277-3.879.823-1.562 83.634-157.742 199.316-295.566 2.662-3.169 2.254-7.893-.911-10.558zm-406.633 85.171-44.011 12.74c35.087-74.236 51.842-147.543 57.576-176.593l30.321 26.003c-7.654 34.074-21.265 84.131-43.886 137.85zm205.243 195.235-9.585-53.636c10.813-18.323 22.176-36.9 33.802-55.258 2.216-3.5 1.175-8.133-2.324-10.349-3.5-2.217-8.134-1.176-10.35 2.324-10.628 16.785-21.04 33.751-31.018 50.545-65.349-53.044-127.886-96.815-170.927-125.461 22.553-54.084 36.146-104.305 43.802-138.496 52.539-20.843 100.394-48.116 133.083-68.633 30.618 33.741 76.666 82.119 130.65 131.157-29.008 37.293-57.99 77.921-86.212 120.856-2.275 3.461-1.313 8.112 2.148 10.387 3.462 2.276 8.112 1.313 10.387-2.148 28.738-43.722 58.258-85.015 87.777-122.785l48.126-4.158c-87.511 107.094-154.661 221.608-179.359 265.655z"/><path d="m255.849 124.972c-.338.208-34.24 20.97-73.467 39.104-3.76 1.738-5.398 6.195-3.66 9.955 1.267 2.741 3.979 4.355 6.812 4.355 1.053 0 2.123-.223 3.143-.694 40.062-18.521 74.681-39.728 75.026-39.94 3.528-2.169 4.631-6.788 2.462-10.316-2.167-3.529-6.785-4.632-10.316-2.464z"/><path d="m250.317 165.155c-.147.09-14.876 9.107-31.894 16.974-3.76 1.738-5.398 6.195-3.66 9.955 1.267 2.741 3.979 4.354 6.812 4.354 1.053 0 2.123-.223 3.143-.694 17.854-8.253 32.823-17.423 33.451-17.81 3.529-2.169 4.631-6.787 2.463-10.315s-6.787-4.631-10.315-2.464z"/></g></svg>