<svg id="Layer_1" enable-background="new 0 0 512 512" height="512" viewBox="0 0 512 512" width="512" xmlns="http://www.w3.org/2000/svg"><g><path d="m511.948 422.258c-10.592-89.149-9.674-178.319-7.039-237.426.185-4.138-3.021-7.642-7.159-7.827-4.152-.192-7.642 3.021-7.827 7.159-2.535 56.85-3.491 141.29 5.691 227.118l-36.699-15.394c-10.472-114.687-4.596-222.538.22-279.652l36.576-15.507c-1.012 10.353-2.452 26.578-3.792 47.085-.271 4.133 2.861 7.703 6.995 7.973.167.011.332.017.497.017 3.919 0 7.217-3.044 7.477-7.011 2.367-36.207 5.034-58.825 5.061-59.05.322-2.707-.85-5.375-3.061-6.97-45.088-32.505-79.304-79.214-79.645-79.682-1.597-2.196-4.256-3.358-6.953-3.038-1.134.134-114.94 13.415-246.706 7.038-4.144-.192-7.654 2.991-7.854 7.128s2.991 7.654 7.128 7.854c107.347 5.2 202.994-2.546 236.508-5.8l-15.323 36.555c-57.221 4.846-165.271 10.761-280.223.235l-15.199-36.683c12.058 1.292 24.437 2.425 36.95 3.378 4.125.31 7.733-2.779 8.048-6.909.314-4.13-2.778-7.733-6.909-8.048-16.734-1.275-33.221-2.873-49.001-4.75-2.691-.32-5.355.843-6.952 3.038-.34.468-34.558 47.178-79.643 79.684-2.211 1.594-3.383 4.263-3.061 6.969.197 1.662 19.534 168.097 0 332.515-.321 2.707.851 5.375 3.062 6.968 45.085 32.506 79.303 79.215 79.643 79.684 1.421 1.955 3.685 3.09 6.066 3.09.294 0 .59-.017.886-.053 66.903-7.955 141.5-10.535 221.715-7.672 4.156.151 7.615-3.088 7.763-7.228s-3.088-7.615-7.228-7.763c-75.959-2.713-146.98-.581-211.337 6.333l15.198-36.68c42.228-3.864 87.429-5.822 134.437-5.822 60.723 0 112.101 3.205 145.787 6.056l15.319 36.547c-12.293-1.202-32.914-3.011-59.216-4.546-4.139-.244-7.683 2.916-7.924 7.05-.241 4.135 2.915 7.683 7.05 7.924 43.146 2.518 70.744 5.768 71.018 5.801.296.035.592.052.886.052 2.381 0 4.646-1.136 6.067-3.09.34-.468 34.557-47.178 79.643-79.684 2.209-1.591 3.381-4.259 3.06-6.966zm-22.32-335.241-36.199 15.347c-17.924-15.736-33.049-31.881-43.506-43.844l15.198-36.256c11.645 14.462 35.048 41.472 64.507 64.753zm-402.786-64.707 15.078 36.39c-10.424 11.913-25.498 27.991-43.348 43.663l-36.2-15.347c29.427-23.255 52.812-50.232 64.47-64.706zm-64.426 402.709 36.321-15.236c17.782 15.629 32.796 31.648 43.182 43.517l-15.078 36.39c-11.651-14.466-35.018-41.423-64.425-64.671zm91.351 19.044c-10.852-12.443-26.812-29.52-45.806-46.142 2.091-22.786 3.646-46.612 4.627-70.886.167-4.139-3.052-7.629-7.191-7.797-4.118-.151-7.63 3.052-7.797 7.191-.961 23.784-2.479 47.127-4.516 69.458l-36.699 15.394c14.499-135.547 3.862-269.493-.11-310.558l36.589 15.512c2.879 34.251 7.05 98.689 5.78 173.582-.07 4.142 3.23 7.556 7.372 7.626 4.143.077 7.556-3.23 7.626-7.372 1.29-76.061-2.986-141.44-5.892-175.809 19.085-16.678 35.117-33.827 46.016-46.325 116.833 10.762 226.611 4.686 284.271-.225 10.932 12.551 27.031 29.789 46.211 46.549-4.879 57.552-10.915 167.109-.21 283.659-19.089 16.704-35.114 33.867-46.001 46.366-33.971-2.892-86.104-6.171-147.781-6.171-47.714.001-93.612 2.001-136.489 5.948zm311.354 45.675-15.198-36.257c10.42-11.92 25.487-28.007 43.34-43.697l36.321 15.236c-29.438 23.272-52.824 50.262-64.463 64.718z"/><path d="m102.576 126.68c-4.109.52-7.019 4.271-6.5 8.381.062.493 6.187 49.847 3.105 99.35-.257 4.134 2.885 7.694 7.02 7.951.159.01.316.015.473.015 3.929 0 7.23-3.059 7.478-7.035 3.173-50.96-2.933-100.097-3.194-102.164-.521-4.108-4.281-7.021-8.382-6.498z"/><path d="m135.681 149.879c-4.094.623-6.909 4.447-6.288 8.541.037.245 3.698 24.803 2.23 52.138-.222 4.136 2.951 7.669 7.087 7.891.137.007.272.011.408.011 3.958 0 7.268-3.099 7.483-7.098 1.553-28.936-2.219-54.14-2.38-55.199-.623-4.094-4.448-6.906-8.54-6.284z"/></g></svg>