<svg id="Layer_1" enable-background="new 0 0 512 512" height="512" viewBox="0 0 512 512" width="512" xmlns="http://www.w3.org/2000/svg"><g><path d="m144.408 76.421c58.564-25.519 98.796-51.246 111.61-59.844 18.307 12.184 92.606 59.19 192.78 89.97-12.487 3.831-25.017 8.045-37.467 12.602-3.89 1.424-5.889 5.731-4.465 9.621 1.112 3.039 3.985 4.924 7.043 4.924.856 0 1.727-.147 2.578-.459 16.779-6.142 33.702-11.645 50.452-16.41-4.029 30.015-13.542 115.043-7.275 210.583.26 3.966 3.558 7.009 7.477 7.009.165 0 .332-.005.499-.017 4.133-.271 7.264-3.842 6.993-7.975-7.665-116.836 8.603-217.653 8.768-218.658.626-3.809-1.74-7.472-5.47-8.465-125.794-33.502-216.689-97.281-217.593-97.921-2.599-1.841-6.078-1.841-8.677 0-.438.31-44.539 31.35-113.246 61.289-3.797 1.654-5.534 6.074-3.879 9.872s6.075 5.535 9.872 3.879z"/><path d="m483.4 404.232c-2.251-13.676-4.18-27.96-5.731-42.457-.44-4.119-4.134-7.095-8.255-6.66-4.119.441-7.1 4.137-6.66 8.255 1.331 12.431 2.934 24.715 4.776 36.609-98.854 27.382-175.678 72.514-204.031 90.578v-245.807c32.505-29.781 67.905-70.292 74.268-77.639 14.505-7.2 29.372-14.021 44.213-20.282 3.816-1.61 5.605-6.009 3.995-9.826-1.61-3.816-6.008-5.603-9.826-3.995-15.153 6.394-30.333 13.359-45.141 20.712-69.428 5.976-139.374.845-150.034-.008-38.742-19.239-78.239-35.055-117.755-47.166 15.445-4.739 30.96-10.066 46.366-15.922 3.872-1.472 5.817-5.804 4.346-9.676-1.472-3.871-5.803-5.817-9.676-4.346-23.366 8.883-46.979 16.52-70.185 22.7-3.73.994-6.097 4.657-5.47 8.465.244 1.483 24.113 150.026 0 296.465-.627 3.81 1.74 7.473 5.47 8.466 13.783 3.67 27.802 7.881 41.667 12.514.789.264 1.59.389 2.378.389 3.138 0 6.063-1.985 7.112-5.125 1.313-3.928-.808-8.177-4.736-9.49-11.972-4.001-24.06-7.694-36.021-11.006 19.058-123.003 5.587-245.778.586-283.159 43.29 12.302 86.685 29.194 129.178 50.29 6.362 7.346 41.763 47.859 74.267 77.64v245.743c-21.099-13.53-69.021-42.037-134.14-67.284-3.862-1.498-8.206.419-9.704 4.282-1.498 3.862.419 8.207 4.282 9.704 85.395 33.108 142.16 73.025 142.724 73.424 1.298.92 2.817 1.38 4.337 1.38s3.04-.46 4.338-1.381c.903-.641 91.799-64.42 217.592-97.921 3.731-.994 6.097-4.657 5.47-8.466zm-286.81-234.442c14.592.834 36.79 1.778 62.508 1.778 17.529 0 36.692-.439 56.197-1.649-13.694 15.307-37.012 40.631-59.295 61.342-22.345-20.769-45.732-46.177-59.41-61.471z"/><path d="m81.994 163.789c-4.118.442-7.098 4.14-6.655 8.258.042.394 4.23 39.927 3.758 83.14-.045 4.142 3.275 7.536 7.417 7.582h.083c4.104 0 7.453-3.304 7.498-7.418.483-44.133-3.799-84.505-3.843-84.908-.442-4.118-4.137-7.101-8.258-6.654z"/><path d="m118.297 237.976h.083c4.104 0 7.453-3.304 7.498-7.418.215-19.668-1.636-37.125-1.714-37.859-.443-4.118-4.139-7.103-8.258-6.654-4.118.442-7.098 4.139-6.656 8.257.018.171 1.834 17.345 1.629 36.092-.045 4.142 3.276 7.536 7.418 7.582z"/></g></svg>