<svg id="Layer_1" enable-background="new 0 0 512 512" height="512" viewBox="0 0 512 512" width="512" xmlns="http://www.w3.org/2000/svg"><g><path d="m418.968 184.968c-15.647-35.854-37.447-70.066-64.795-101.684-46.521-53.786-92.437-81.11-94.369-82.247-2.348-1.382-5.26-1.382-7.607 0-1.912 1.125-47.36 28.17-93.64 81.407-2.718 3.126-2.386 7.863.74 10.581s7.863 2.386 10.581-.74c31.136-35.816 62.43-59.679 78.624-70.904v127.883c-22.212 14.786-56.014 34.765-97.384 51.239l-33.064-33.065c8.811-16.709 19.084-33.033 30.808-48.94 2.458-3.334 1.747-8.029-1.587-10.487s-8.03-1.748-10.487 1.587c-48.631 65.977-73.288 138.92-73.288 216.804 0 4.142 3.358 7.5 7.5 7.5s7.5-3.358 7.5-7.5c0-50.621 10.897-99.096 32.485-144.818l30.861 30.862c3.129 35.581 7.011 103.19.3 174.995l-33.717 33.717c-12.527-17.924-21.638-38.325-26.335-60.422-.861-4.051-4.838-6.637-8.896-5.776-4.051.861-6.638 4.844-5.776 8.896 8.778 41.297 32.301 78.889 66.235 105.849 34.331 27.274 77.78 42.295 122.343 42.295 36.389 0 71.821-9.838 102.467-28.45 29.854-18.131 53.973-43.765 69.748-74.129 1.91-3.676.479-8.204-3.197-10.113-3.677-1.91-8.205-.479-10.113 3.198-3.387 6.519-7.157 12.762-11.277 18.709l-33.774-33.774c-6.711-71.799-2.829-139.41.3-174.994l30.708-30.708c18.968 40.311 32.638 88.759 32.638 144.663 0 15.989-2.298 31.812-6.829 47.03-1.182 3.97 1.078 8.146 5.048 9.328.714.213 1.435.314 2.144.314 3.231 0 6.216-2.106 7.186-5.362 4.944-16.607 7.452-33.871 7.452-51.31-.001-48.946-9.937-96.531-29.533-141.434zm-301.331 248.195 33.55-33.55c41.348 16.475 75.127 36.442 97.313 51.211v46.022c-52.114-2.122-99.45-26.261-130.863-63.683zm145.863 63.688v-46.027c22.186-14.769 55.965-34.736 97.313-51.211l33.655 33.655c-31.733 38.157-79.044 61.525-130.968 63.583zm97.385-296.348c-13.429-5.35-26.937-11.422-40.223-18.084-3.701-1.858-8.21-.36-10.065 3.343-1.856 3.703-.36 8.209 3.343 10.066 13.537 6.788 27.305 12.983 41.001 18.453-3.075 36.351-6.55 101.832-.287 171.641-41.753 16.7-75.945 36.823-98.652 51.877-22.708-15.054-56.899-35.177-98.652-51.877 6.262-69.814 2.788-135.292-.288-171.64 41.874-16.717 76.167-36.895 98.94-51.992 8.736 5.792 17.84 11.45 27.124 16.856 3.579 2.083 8.17.873 10.255-2.707 2.084-3.579.873-8.171-2.707-10.255-9.314-5.424-18.437-11.106-27.172-16.921v-127.882c16.375 11.35 48.183 35.62 79.664 72.105 16.861 19.541 35.047 44.342 50.651 74.085z"/><path d="m184.753 225.034c-4.128.331-7.208 3.945-6.878 8.074.032.395 3.14 40.027 1.489 83.211-.158 4.139 3.069 7.623 7.208 7.781.098.003.195.005.292.005 4.01 0 7.335-3.172 7.49-7.213 1.687-44.104-1.494-84.577-1.526-84.981-.332-4.128-3.942-7.206-8.075-6.877z"/><path d="m218.044 248.207c-4.129.331-7.208 3.946-6.877 8.075.014.171 1.363 17.345.645 36.122-.158 4.139 3.069 7.623 7.208 7.781.098.003.195.005.292.005 4.01 0 7.335-3.172 7.49-7.213.751-19.655-.623-37.157-.682-37.892-.332-4.13-3.948-7.207-8.076-6.878z"/></g></svg>