<svg id="Layer_1" enable-background="new 0 0 512 512" height="512" viewBox="0 0 512 512" width="512" xmlns="http://www.w3.org/2000/svg"><g><path d="m450.219 157.89c-107.161-72.908-188.065-154.828-188.868-155.647-1.411-1.435-3.339-2.243-5.351-2.243s-3.939.808-5.35 2.243c-.426.433-43.262 43.867-107.391 95.245-3.232 2.59-3.754 7.31-1.164 10.542 2.59 3.231 7.31 3.753 10.543 1.164 32.629-26.141 59.828-50.272 78.86-67.858-16.895 33.4-44.51 83.43-76.542 123.809-29.547-1.968-53.23-4.343-68.534-6.078 12.198-8.598 24.508-17.605 36.767-26.905 3.3-2.503 3.945-7.208 1.441-10.508-2.501-3.298-7.206-3.946-10.508-1.442-17.509 13.283-35.119 25.96-52.342 37.678-2.719 1.85-3.916 5.254-2.952 8.398.219.713 21.933 72.292 29.775 160.308.348 3.9 3.62 6.835 7.462 6.835.223 0 .448-.01.675-.03 4.126-.368 7.172-4.01 6.805-8.136-6.164-69.171-20.792-128.512-27.236-152.282 14.268 1.732 41.196 4.673 76.511 7.051 6.917 21.349 34.697 113.058 35.834 211.755-39.905-1.846-69.643-4.688-82.228-6.02-.024-7.8-.194-15.766-.508-23.769-.162-4.138-3.619-7.369-7.788-7.2-4.139.162-7.362 3.649-7.2 7.788.396 10.098.558 20.134.479 29.83-.024 3.056 1.808 5.821 4.631 6.99.99.41 99.573 41.745 154.105 109.782 1.424 1.776 3.576 2.81 5.853 2.81 2.276 0 4.429-1.034 5.853-2.81 16.092-20.077 37.557-39.772 63.798-58.538 3.369-2.41 4.147-7.094 1.738-10.463-2.41-3.37-7.096-4.146-10.463-1.738-14.753 10.55-28.083 21.413-39.893 32.5 16.607-35.769 35.327-56.957 41.64-63.528 17.448-.684 35.309-1.724 53.334-3.211-6.845 3.705-14.334 7.944-22.23 12.699-3.549 2.137-4.692 6.746-2.556 10.294 1.408 2.337 3.889 3.631 6.432 3.631 1.317 0 2.652-.347 3.862-1.076 32.268-19.434 58.185-30.247 58.442-30.354 2.822-1.17 4.654-3.935 4.63-6.989-.92-115.334 32.248-225.036 32.583-226.13.966-3.143-.231-6.548-2.949-8.397zm-92.705 7.849c-32.229-40.477-60.048-90.87-77.029-124.442 30.764 28.404 82.952 73.981 145.343 117.946-21.983 2.759-44.801 4.927-68.314 6.496zm-188.642 15.298c25.701 1.483 55.011 2.582 86.577 2.734h.037c4.125 0 7.48-3.334 7.499-7.464.02-4.142-3.321-7.516-7.464-7.536-29.933-.144-57.808-1.147-82.45-2.518 38.389-50.726 69.653-112.845 82.929-140.835 13.325 28.095 44.774 90.576 83.361 141.404-14.563.769-29.372 1.314-44.395 1.631-4.142.088-7.428 3.516-7.34 7.657.086 4.087 3.426 7.342 7.495 7.342.054 0 .107 0 .161-.001 16.138-.341 32.036-.942 47.654-1.799-9.377 30.3-33.719 117.715-34.604 211.136-38.038 1.217-73.832.768-104.67-.374-.952-93.921-25.569-181.7-34.79-211.377zm-29.521 222.75c14.744 1.133 32.891 2.306 53.552 3.198 5.865 6.033 25.049 27.343 42.032 63.896-31.776-29.878-68.676-52.621-95.584-67.094zm116.649 78.187c-13.963-35.733-31.022-60.332-42.359-74.223 15.262.467 31.577.752 48.656.752 11.61 0 23.573-.132 35.797-.429-11.336 13.949-28.24 38.443-42.094 73.9zm149.573-96.151c-27.717 3.217-55.431 5.242-82.233 6.401 1.049-97.905 28.374-189.028 35.631-211.549 26.494-1.776 52.123-4.308 76.694-7.578-8.254 30.522-29.805 119.117-30.092 212.726z"/><path d="m219.111 213.474c-.98-4.024-5.031-6.492-9.062-5.512-4.024.98-6.492 5.038-5.512 9.062.096.393 9.627 39.768 14.992 83.473.467 3.801 3.7 6.587 7.435 6.587.305 0 .613-.019.924-.057 4.111-.505 7.035-4.247 6.53-8.358-5.472-44.566-15.209-84.794-15.307-85.195z"/><path d="m262.929 270.049c-2.438-19.854-6.646-37.242-6.824-37.973-.98-4.024-5.036-6.488-9.062-5.511-4.023.98-6.492 5.037-5.513 9.061.042.17 4.184 17.302 6.51 36.251.467 3.801 3.7 6.587 7.435 6.587.305 0 .613-.019.924-.057 4.111-.505 7.035-4.247 6.53-8.358z"/></g></svg>