<svg id="Layer_1" enable-background="new 0 0 512 512" height="512" viewBox="0 0 512 512" width="512" xmlns="http://www.w3.org/2000/svg"><g><path d="m468.479 352.18c-10.19-136.321-.215-190.973-.115-191.5.623-3.232-.936-6.494-3.842-8.041-1.075-.572-108.622-58.29-203.289-150.511-2.912-2.837-7.555-2.837-10.467 0-32.17 31.339-69.09 61.958-109.735 91.006-3.369 2.409-4.149 7.093-1.74 10.463 2.409 3.371 7.093 4.149 10.463 1.741 32.333-23.108 62.361-47.211 89.582-71.895-31.327 87.367-74.616 159.992-108.992 209.613-29.868-41.099-55.396-69.488-67.16-81.976 10.736-6.094 30.734-17.87 56.175-34.786 3.449-2.293 4.387-6.949 2.093-10.398-2.293-3.45-6.949-4.384-10.397-2.093-37.261 24.774-63.318 38.698-63.577 38.836-2.9 1.543-4.457 4.804-3.844 8.031.102.536 10.077 55.188-.113 191.509-.22 2.949 1.313 5.753 3.916 7.158 1.099.593 110.924 60.37 203.326 150.53 1.456 1.421 3.347 2.132 5.237 2.132s3.781-.71 5.237-2.132c26.922-26.268 57.847-52.448 91.917-77.814 3.323-2.474 4.011-7.172 1.537-10.495s-7.173-4.01-10.494-1.537c-25.715 19.145-49.679 38.76-71.537 58.544 31.328-87.375 74.621-160.005 108.998-209.628 29.913 41.16 55.459 69.564 67.201 82.025-13.491 7.748-41.671 24.534-75.767 48.26-3.399 2.366-4.238 7.04-1.872 10.44 1.458 2.094 3.791 3.216 6.163 3.216 1.479 0 2.972-.436 4.277-1.344 47.061-32.749 82.551-52.009 82.903-52.2 2.603-1.402 4.136-4.205 3.916-7.154zm-16.415-19.851c-13.694-15.121-36.017-41.205-61.268-76.346 24.509-34.135 46.328-59.762 60.122-75.059-2.079 25.583-3.825 73.769 1.146 151.405zm-330.858-76.316c-25.201 35.099-47.557 61.201-61.271 76.331 4.972-77.637 3.228-125.818 1.148-151.405 13.777 15.29 35.57 40.902 60.123 75.074zm134.796 224.678c-18.331-52.749-42.68-105.241-72.54-156.34-2.09-3.578-6.684-4.781-10.26-2.692-3.576 2.09-4.781 6.683-2.691 10.259 28.043 47.99 51.135 97.204 68.844 146.671-73.071-66.087-150.75-112.956-176.194-127.603 11.702-12.363 37.038-40.472 67.193-82.018 7.503 10.813 15.195 22.368 22.935 34.62 1.427 2.258 3.86 3.495 6.348 3.495 1.37 0 2.756-.375 3.999-1.161 3.502-2.212 4.547-6.844 2.335-10.346-8.918-14.115-17.777-27.327-26.371-39.565 36.355-51.857 83.455-130.017 116.399-224.703 17.176 49.419 39.659 98.672 66.988 146.712 1.382 2.43 3.917 3.793 6.525 3.793 1.257 0 2.531-.316 3.701-.982 3.601-2.048 4.859-6.627 2.811-10.228-25.579-44.965-46.835-90.99-63.375-137.185 74.277 67.287 150.859 113.209 176.158 127.632-11.716 12.381-37.032 40.474-67.158 81.979-9.177-13.224-18.637-27.559-28.125-42.92-2.176-3.524-6.797-4.616-10.322-2.439-3.523 2.177-4.616 6.798-2.439 10.322 10.693 17.313 21.358 33.35 31.642 47.993-36.357 51.856-83.458 130.017-116.403 224.706z"/><path d="m228.953 173.459c-3.729-1.812-8.213-.257-10.024 3.467-.177.364-17.958 36.813-41.664 73.869-2.231 3.489-1.213 8.127 2.276 10.359 1.252.801 2.651 1.183 4.035 1.183 2.473 0 4.894-1.222 6.324-3.459 24.196-37.823 42.34-75.025 42.521-75.396 1.809-3.725.258-8.212-3.468-10.023z"/><path d="m245.595 211.376c-3.727-1.812-8.213-.258-10.023 3.466-.077.158-7.808 15.998-18.096 32.08-2.231 3.489-1.213 8.127 2.277 10.359 1.251.801 2.65 1.183 4.034 1.183 2.473 0 4.894-1.222 6.325-3.459 10.778-16.85 18.621-32.93 18.95-33.606 1.81-3.725.258-8.212-3.467-10.023z"/></g></svg>