<svg id="Layer_1" enable-background="new 0 0 512 512" height="512" viewBox="0 0 512 512" width="512" xmlns="http://www.w3.org/2000/svg"><g><path d="m511.647 430.21c-.256-.805-25.626-81.247-39.57-174.21 13.943-92.962 39.314-173.405 39.57-174.21 1.097-3.455-.438-7.203-3.641-8.901-.445-.235-44.834-24.084-78.07-69.799-1.918-2.638-5.32-3.732-8.418-2.711-.783.258-78.959 25.892-165.518 39.516-11.503-1.811-23.472-3.93-35.593-6.303-4.067-.794-8.005 1.854-8.801 5.919s1.854 8.005 5.919 8.801c12.716 2.489 25.272 4.705 37.319 6.584.767.12 1.546.12 2.313 0 45.457-7.092 88.714-17.488 120.094-25.942l-121.717 79.391-121.142-79.467c13.093 3.535 28.254 7.408 44.754 11.225 4.034.931 8.063-1.581 8.998-5.617.934-4.036-1.581-8.064-5.617-8.997-52.813-12.219-91.659-24.983-92.045-25.11-3.099-1.022-6.5.073-8.418 2.711-33.236 45.715-77.625 69.564-78.065 69.797-3.209 1.695-4.745 5.445-3.646 8.904.256.804 25.617 81.186 39.569 174.209-.896 5.974-1.865 12.072-2.884 18.145-.686 4.085 2.07 7.953 6.156 8.638.42.071.837.104 1.25.104 3.597 0 6.773-2.595 7.388-6.26 1.097-6.539 2.138-13.107 3.093-19.523.109-.732.109-1.476 0-2.208-9.774-65.657-25.238-125.297-33.885-155.959l104.621 77.824c2.186 15.242 11.251 86.938.036 158.45l-104.649 77.845c6.095-21.589 15.566-57.516 24.002-99.636.813-4.062-1.819-8.014-5.881-8.827-4.062-.811-8.014 1.82-8.827 5.881-13.574 67.771-29.826 119.224-29.989 119.736-1.097 3.455.438 7.203 3.641 8.901.445.235 44.834 24.084 78.07 69.799 1.439 1.979 3.713 3.09 6.068 3.09.784 0 1.577-.124 2.35-.379.783-.258 78.959-25.893 165.518-39.516 86.559 13.623 164.735 39.258 165.518 39.516 3.097 1.022 6.499-.074 8.418-2.711 33.236-45.715 77.625-69.564 78.065-69.797 3.209-1.694 4.745-5.444 3.646-8.903zm-84.52-406.283c23.716 28.705 49.861 47.416 63.822 56.273l-99.539 73.481zm-15.743.671-38.196 138.759c-48.678-13.995-87.012-35.591-103.92-46.062zm-390.369 55.626c13.939-8.84 40.075-27.533 63.795-56.221l34.942 129.668zm79.487-55.638 141.301 92.692c-16.89 10.463-55.223 32.066-103.909 46.068zm-15.692 463.41c-23.721-28.687-49.857-47.381-63.795-56.221l98.737-73.448zm172.346-30.892c-.767-.12-1.546-.12-2.313 0-45.655 7.122-89.091 17.579-120.503 26.052l57.251-37.556c3.463-2.272 4.429-6.921 2.157-10.385-2.271-3.464-6.922-4.43-10.385-2.157l-82.861 54.357 37.392-138.761c48.686 14.003 87.02 35.607 103.909 46.069l-25.325 16.613c-3.463 2.272-4.429 6.921-2.157 10.385 1.44 2.195 3.835 3.387 6.278 3.387 1.411 0 2.839-.398 4.107-1.23l30.828-20.223 121.717 79.391c-31.381-8.454-74.638-18.851-120.095-25.942zm12.106-62.404c16.884-10.467 55.165-32.044 103.926-46.059l38.196 138.76zm157.865 93.373-35.718-129.756 99.539 73.483c-13.96 8.857-40.105 27.568-63.821 56.273zm-41.782-152.878c-3.809-24.279-5.666-50.891-5.521-79.157.021-4.142-3.319-7.517-7.461-7.539h-.04c-4.124 0-7.478 3.333-7.499 7.461-.142 27.696 1.593 53.895 5.159 77.995-57.966 16.484-101.029 42.86-114.461 51.684-13.432-8.824-56.493-35.2-114.46-51.684 10.18-68.685 2.812-134.949-.056-155.896 57.992-16.483 101.08-42.873 114.516-51.7 13.437 8.827 56.527 35.22 114.525 51.702-1.004 7.421-2.578 20.625-3.744 37.763-.281 4.132 2.841 7.711 6.974 7.992 4.126.271 7.711-2.841 7.992-6.974 1.333-19.584 3.247-34.107 4.108-40.064l105.62-77.97c-8.641 30.623-24.134 90.338-33.921 156.086-.109.732-.109 1.477 0 2.209 9.787 65.748 25.281 125.462 33.921 156.086z"/><path d="m251.831 162.582c-.352.182-35.691 18.373-76.147 33.553-3.878 1.455-5.842 5.779-4.387 9.657 1.129 3.01 3.987 4.867 7.023 4.867.875 0 1.766-.154 2.634-.48 41.318-15.504 77.404-34.085 77.764-34.271 3.68-1.902 5.121-6.426 3.22-10.106-1.903-3.68-6.428-5.121-10.107-3.22z"/><path d="m243.354 202.209c-.153.079-15.506 7.979-33.057 14.564-3.878 1.455-5.842 5.778-4.387 9.657 1.129 3.01 3.987 4.867 7.023 4.867.875 0 1.766-.154 2.634-.48 18.413-6.909 34.018-14.943 34.673-15.282 3.679-1.901 5.121-6.425 3.22-10.104-1.902-3.681-6.425-5.121-10.106-3.222z"/></g></svg>