<svg id="Layer_1" enable-background="new 0 0 512 512" height="512" viewBox="0 0 512 512" width="512" xmlns="http://www.w3.org/2000/svg"><g><path d="m510.738 183.227c-57.513-86.154-65.499-127.104-65.568-127.478-.571-3.259-3.209-5.759-6.494-6.153-56.128-6.735-97.355-33.12-97.76-33.382-2.939-1.914-6.814-1.531-9.327.917-.334.326-33.007 31.961-75.506 55.521-41.977-24.297-75.453-55.318-75.796-55.637-2.517-2.346-6.313-2.676-9.2-.804-.41.266-41.636 26.65-97.764 33.386-3.263.392-5.896 2.891-6.489 6.124-.021.115-2.23 11.769-12.916 35.465-1.703 3.776-.022 8.217 3.754 9.92 3.775 1.704 8.217.022 9.92-3.754 4.702-10.427 7.878-18.721 10-24.936l25.957 30.023c-9.812 23.384-23.763 49.817-41.535 78.695l-40.81-.932c11.229-17.336 21.208-33.983 29.742-49.625 1.984-3.636.644-8.192-2.992-10.176-3.638-1.983-8.192-.644-10.176 2.992-10.169 18.639-22.455 38.77-36.517 59.834-1.646 2.466-1.685 5.67-.099 8.175.546.863 55.08 87.709 93.473 208.35.693 2.178 2.342 3.921 4.478 4.735.96.366 96.675 37.186 151.671 90.402 1.454 1.407 3.334 2.11 5.215 2.11 1.88 0 3.762-.703 5.215-2.11 54.946-53.168 150.711-90.036 151.672-90.402 2.135-.814 3.784-2.557 4.477-4.734 14.895-46.804 33.781-93.736 56.133-139.493 1.818-3.722.275-8.213-3.447-10.031-3.721-1.818-8.213-.275-10.031 3.447-20.891 42.764-38.799 86.552-53.31 130.328l-28.11-26.042c25.383-72.766 54.965-131.17 71.752-161.833l40.717-.929c-3.767 6.473-8.867 15.495-14.895 26.808-1.948 3.656-.564 8.198 3.091 10.146 1.124.599 2.331.883 3.521.883 2.682 0 5.276-1.442 6.625-3.974 12.668-23.772 21.34-37.525 21.427-37.661 1.586-2.506 1.547-5.71-.098-8.175zm-19.944-3.025-40.809.931c-17.773-28.878-31.723-55.311-41.535-78.695l25.945-30.009c6.12 17.936 21.072 53.248 56.399 107.773zm-140.329-103.139-4.555-40.79c15.28 7.931 42.796 20.098 77.277 26.184l-26.117 30.209c-15.819-3.932-31.458-9.168-46.605-15.603zm-235.535 15.603-26.117-30.209c34.482-6.086 61.996-18.254 77.276-26.184l-4.555 40.79c-15.146 6.435-30.785 11.671-46.604 15.603zm66.101-55.034c13.516 11.444 38.264 31.058 67.469 47.961v41.657c-34.861-18.982-63.05-40.937-72.089-48.244zm-160.129 157.567 40.746.93c16.787 30.662 46.369 89.067 71.752 161.833l-28.111 26.043c-30.248-91.162-68.756-161.868-84.387-188.806zm347.541 173.802 28.011 25.951c-25.07 10.511-87.014 38.659-132.955 77.658v-44.304c37.968-27.379 80.275-48.201 104.944-59.305zm-4.558-14.396c-24.709 11.047-68.363 32.336-107.885 60.618-14.765-10.568-31.28-21.015-49.172-31.1-3.608-2.035-8.183-.758-10.216 2.851-2.034 3.608-.757 8.182 2.851 10.216 17.925 10.104 34.403 20.559 49.037 31.114v44.304c-45.94-38.999-107.884-67.147-132.954-77.658l28.01-25.95c8.322 3.743 16.693 7.704 24.945 11.806 1.073.533 2.211.785 3.333.785 2.757 0 5.411-1.526 6.722-4.163 1.843-3.709.331-8.211-3.378-10.055-8.952-4.449-18.042-8.738-27.064-12.769-24.695-71.191-53.042-128.699-73.295-165.656 18.366-29.848 32.778-57.233 42.904-81.521 16.821-4.134 33.452-9.673 49.55-16.504 10.797 8.748 44.256 34.713 85.352 55.426 2.123 1.07 4.628 1.07 6.751 0 11.63-5.861 23.656-12.669 35.745-20.235 3.511-2.197 4.576-6.825 2.378-10.336-2.197-3.511-6.825-4.577-10.336-2.378-7.958 4.98-15.879 9.617-23.662 13.853v-41.562c29.555-16.392 54.072-36.091 67.502-47.763l4.587 41.084c-3.614 2.927-10.282 8.194-19.16 14.631-3.354 2.432-4.101 7.122-1.669 10.475s7.121 4.101 10.475 1.669c8.951-6.491 15.66-11.772 19.487-14.865 16.098 6.831 32.732 12.372 49.555 16.506 10.126 24.289 24.538 51.673 42.904 81.521-20.254 36.957-48.601 94.465-73.297 165.656z"/><path d="m123.624 188.414c-2.022-3.615-6.59-4.908-10.206-2.886-3.615 2.021-4.908 6.59-2.888 10.206.243.434 24.409 43.899 40.095 90.953 1.048 3.143 3.974 5.13 7.114 5.13.786 0 1.586-.125 2.373-.387 3.93-1.31 6.053-5.558 4.743-9.487-16.147-48.439-40.214-91.71-41.231-93.529z"/><path d="m163.077 197.262c-2.111-3.562-6.71-4.736-10.273-2.626-3.563 2.111-4.74 6.711-2.63 10.274.126.213 12.721 21.612 21.6 47.506 1.067 3.113 3.978 5.069 7.094 5.069.807 0 1.627-.131 2.433-.407 3.918-1.344 6.005-5.609 4.662-9.527-9.401-27.411-22.34-49.367-22.886-50.289z"/></g></svg>