<svg id="Layer_1" enable-background="new 0 0 512 512" height="512" viewBox="0 0 512 512" width="512" xmlns="http://www.w3.org/2000/svg"><g><path d="m511.908 303.445c-.076-.481-7.514-48.691-.025-94.883.437-2.69-.621-5.406-2.763-7.092-109.855-86.522-197.716-197.479-198.59-198.59-1.687-2.142-4.404-3.199-7.093-2.764-46.192 7.489-94.4.051-94.88-.025-2.683-.422-5.386.634-7.067 2.768-.543.69-55.27 69.878-131.845 141.163-3.032 2.822-3.202 7.568-.379 10.6 2.822 3.032 7.569 3.201 10.6.379 61.325-57.088 108.819-112.884 126.22-134.002l40.859 76.566c-34.001 38.747-86.563 94.401-150.858 148.576l-74.984-40.015c10.916-8.815 22.007-18.165 33.082-27.892 3.112-2.733 3.42-7.472.686-10.584-2.734-3.113-7.472-3.419-10.585-.686-13.921 12.226-27.859 23.843-41.427 34.527-2.133 1.679-3.191 4.382-2.768 7.063.076.481 7.514 48.691.024 94.883-.436 2.69.622 5.406 2.764 7.093.384.303 39.003 30.813 87.923 77.837 1.455 1.398 3.327 2.093 5.197 2.093 1.969 0 3.936-.771 5.408-2.303 2.87-2.986 2.776-7.734-.21-10.605-35.604-34.224-65.86-59.833-80.181-71.625l75.057-40.08c64.301 54.178 116.867 109.837 150.871 148.587l-40.811 76.477c-23.655-29.294-50.833-59.436-80.923-89.74-2.919-2.94-7.668-2.955-10.607-.038-2.939 2.918-2.956 7.667-.038 10.606 32.753 32.986 61.992 65.75 86.905 97.381 1.687 2.142 4.402 3.201 7.092 2.763 46.192-7.489 94.401-.051 94.881.024.392.062.784.092 1.174.092 2.276 0 4.457-1.038 5.892-2.86 32.969-41.869 72.97-85.137 118.891-128.603 3.009-2.847 3.139-7.594.292-10.603-2.85-3.009-7.597-3.139-10.603-.291-43.185 40.875-81.22 81.613-113.21 121.242l-40.824-76.453c34.006-38.752 86.577-94.414 150.878-148.592l75.052 40.076c-9.188 7.562-24.906 20.785-44.294 38.243-3.078 2.771-3.326 7.514-.555 10.592 1.48 1.645 3.524 2.481 5.576 2.481 1.788 0 3.582-.636 5.016-1.927 30.84-27.769 52.199-44.631 52.411-44.798 2.133-1.676 3.192-4.379 2.769-7.061zm-220.762-286.583-35.144 65.815-35.22-65.999c15.736 1.537 42.296 3.092 70.364.184zm-208.459 239.13-65.824 35.149c2.908-28.077 1.351-54.643-.186-70.376zm138.194 239.143 35.12-65.813 35.244 66.002c-15.727-1.537-42.289-3.094-70.364-.189zm35.119-93.118c-34.054-38.625-85.589-92.927-148.338-146.017 62.749-53.09 114.284-107.392 148.338-146.017 5.922 6.718 11.966 13.452 18.036 20.094 2.795 3.059 7.54 3.272 10.596.477 3.058-2.794 3.271-7.538.477-10.596-6.763-7.4-13.491-14.914-20.052-22.392l40.878-76.553c22.58 27.383 95.86 113.136 184.974 185.117l-74.987 40.017c-36.524-30.771-72.842-64.997-108.028-101.811-2.863-2.994-7.609-3.102-10.604-.24-2.994 2.862-3.102 7.609-.24 10.604 34.942 36.558 71.001 70.603 107.289 101.3-62.748 53.088-114.283 107.39-148.339 146.017zm239.135-181.141c-2.905 28.068-1.349 54.623.187 70.353l-65.99-35.238z"/><path d="m256.336 156.757c-3.153-2.686-7.887-2.307-10.573.845-.257.302-26.083 30.524-57.786 59.892-3.039 2.815-3.22 7.56-.405 10.599 1.478 1.596 3.488 2.403 5.504 2.403 1.823 0 3.652-.661 5.095-1.998 32.379-29.994 58.749-60.861 59.012-61.169 2.685-3.153 2.306-7.886-.847-10.572z"/><path d="m263.491 196.682c-3.153-2.685-7.887-2.306-10.573.847-.111.13-11.3 13.228-25.085 25.998-3.039 2.815-3.22 7.56-.405 10.599 1.478 1.596 3.488 2.403 5.504 2.403 1.823 0 3.652-.661 5.095-1.998 14.43-13.366 25.834-26.714 26.312-27.276 2.685-3.153 2.306-7.887-.848-10.573z"/></g></svg>