<svg id="Layer_1" enable-background="new 0 0 512 512" height="512" viewBox="0 0 512 512" width="512" xmlns="http://www.w3.org/2000/svg"><g><path d="m392.831 75.805c-36.392-48.884-84.986-75.805-136.831-75.805-55.104 0-107.637 31.406-144.128 86.164-2.297 3.447-1.365 8.104 2.082 10.4 3.446 2.297 8.103 1.365 10.4-2.082 13.276-19.923 28.781-36.494 45.758-49.259 9.204 11.506 30.602 41.4 38.815 79.601-5.552 8.484-25.131 37.235-50.757 61.65-8.26.183-36.753-.94-66.229-22.521 4.198-13.755 9.353-27.015 15.43-39.617 1.799-3.731.232-8.214-3.498-10.013-3.729-1.801-8.214-.233-10.014 3.498-19.86 41.186-30.359 88.968-30.359 138.179 0 58.637 15.247 115.923 42.932 161.305 1.413 2.317 3.881 3.595 6.409 3.595 1.331 0 2.68-.354 3.899-1.098 3.536-2.157 4.653-6.772 2.496-10.309-11.273-18.48-20.373-39.069-27.089-60.972 29.224-21.28 57.754-22.505 66.037-22.359 25.619 24.412 45.192 53.153 50.743 61.636-8.114 37.719-29.202 67.477-38.553 79.255-11.792-8.842-22.896-19.551-33.079-32.005-2.623-3.207-7.35-3.68-10.554-1.059-3.207 2.622-3.681 7.347-1.06 10.554 35.57 43.5 81.85 67.457 130.319 67.457 40.712 0 79.601-16.634 112.461-48.103 2.991-2.865 3.094-7.612.229-10.604-2.866-2.991-7.613-3.094-10.604-.229-5.201 4.981-10.561 9.554-16.059 13.712-9.457-11.963-30.281-41.552-38.332-78.978 5.551-8.482 25.122-37.223 50.74-61.634 8.245-.144 36.559 1.067 65.645 22.073-9.14 29.918-22.797 57.293-40.507 80.631-2.504 3.3-1.858 8.004 1.44 10.508 1.356 1.029 2.948 1.526 4.528 1.526 2.266 0 4.505-1.022 5.98-2.967 36.744-48.418 56.979-113.031 56.979-181.935 0-67.979-19.77-131.974-55.669-180.195zm-314.331 180.195c0-26.305 3.132-52.158 9.205-76.695 27.979 18.817 54.531 21.896 67 22.168 1.857 16.48 5.812 61.717.035 109.676-12.427.266-38.913 3.322-66.849 22.044-6.166-24.713-9.391-50.796-9.391-77.193zm341.66-91.671c-29.113 21.06-57.472 22.274-65.724 22.13-25.618-24.411-45.19-53.152-50.74-61.635 8.137-37.826 29.321-67.646 38.631-79.356 34.84 26.442 62.48 68.364 77.833 118.861zm-164.16-149.329c26.365 0 51.407 7.845 73.924 21.907-10.347 13.065-31.454 43.34-40.408 82.569-27.942 2.898-55.256.986-66.423-.056-9.005-39.393-30.259-69.748-40.546-82.702 22.862-14.148 47.894-21.718 73.453-21.718zm0 482c-25.478 0-50.373-7.417-73.167-21.456 10.39-13.151 31.338-43.31 40.261-82.341 11.167-1.043 38.48-2.954 66.423-.056 8.864 38.835 29.638 68.894 40.093 82.17-22.952 14.268-47.922 21.683-73.61 21.683zm101.881-185.85c-1.944-16.126-2.963-33.351-3.033-51.307-.017-4.132-3.371-7.471-7.499-7.471h-.03c-4.142.016-7.486 3.387-7.471 7.529.077 19.665 1.261 38.514 3.521 56.09-25.495 24.458-44.666 52.101-51.406 62.33-30.676-3.298-60.059-1.076-71.28.032-6.722-10.202-25.905-37.877-51.428-62.361 7.021-54.527 1.776-105.096-.003-119.358 25.525-24.486 44.709-52.161 51.431-62.364 11.222 1.109 40.602 3.331 71.28.032 6.741 10.23 25.915 37.876 51.413 62.336-.635 5.143-1.724 15.095-2.53 28.376-.251 4.134 2.897 7.69 7.031 7.941 4.132.246 7.69-2.897 7.941-7.032.643-10.58 1.482-19.052 2.094-24.45 12.387-.27 38.682-3.31 66.465-21.807 5.917 23.998 9.124 49.667 9.124 76.333 0 26.586-3.141 52.474-9.189 76.913-27.782-18.473-54.066-21.497-66.431-21.762z"/><path d="m203.203 204c-4.129.331-7.208 3.946-6.877 8.075.031.395 3.142 39.983 1.488 83.21-.158 4.139 3.068 7.623 7.207 7.781.099.003.195.005.292.005 4.01 0 7.335-3.172 7.489-7.213 1.688-44.104-1.492-84.577-1.525-84.981-.329-4.128-3.942-7.21-8.074-6.877z"/><path d="m236.496 227.172c-4.128.33-7.208 3.944-6.879 8.073.014.172 1.361 17.389.646 36.123-.158 4.139 3.068 7.623 7.208 7.781.098.003.194.005.291.005 4.01 0 7.335-3.172 7.489-7.213.752-19.655-.622-37.156-.681-37.892-.33-4.129-3.962-7.205-8.074-6.877z"/></g></svg>