<svg id="Layer_1" enable-background="new 0 0 512 512" height="512" viewBox="0 0 512 512" width="512" xmlns="http://www.w3.org/2000/svg"><g><path d="m441.976 256c.61-81.04 6.423-135.794 6.481-136.338.234-2.175-.492-4.345-1.99-5.939-41.604-44.296-58.589-107.496-58.755-108.126-.979-3.731-4.636-6.109-8.438-5.503-1.233.197-124.755 19.454-246.549 0-3.844-.611-7.539 1.833-8.468 5.625-.145.586-14.897 59.238-58.836 108.125-1.424 1.584-2.107 3.7-1.879 5.818.022.205 2.229 20.866 4.057 55.229.22 4.137 3.743 7.307 7.888 7.091 4.136-.22 7.311-3.751 7.091-7.888-.9-16.919-1.893-30.58-2.679-40.178 24.864 18.636 42.197 43.348 51.618 73.646 8.263 26.572 7.014 47.732 7 47.942-.022.33-.022.661 0 .99.014.21 1.263 21.37-7 47.942-9.421 30.301-26.757 55.014-51.624 73.651 1.802-22.1 4.709-65.844 5.131-122.032v-.112c-.118-15.79-.442-31.755-.963-47.451-.138-4.14-3.571-7.366-7.745-7.247-4.14.138-7.385 3.605-7.247 7.745.517 15.548.838 31.365.955 47.009-.61 81.04-6.422 135.794-6.48 136.338-.229 2.118.455 4.234 1.879 5.818 43.938 48.888 58.691 107.538 58.835 108.12.829 3.403 3.877 5.725 7.279 5.725.393 0 .791-.031 1.189-.095 23.249-3.714 48.205-6.276 74.177-7.618 4.137-.214 7.317-3.74 7.104-7.877-.215-4.137-3.747-7.327-7.877-7.104-19.671 1.016-38.787 2.722-57.055 5.087 5.24-5.946 12.224-13.135 20.776-20.322 26.933-22.633 55.917-34.598 86.15-35.568 30.233.97 59.217 12.935 86.15 35.568 8.673 7.288 15.733 14.579 20.997 20.573-23.793-2.8-68.341-6.937-120.652-6.439-4.143.04-7.468 3.431-7.428 7.572.04 4.117 3.39 7.428 7.498 7.428h.074c76.543-.743 136.043 8.605 136.635 8.7.398.063.795.095 1.188.095 3.354-.001 6.37-2.258 7.249-5.595.167-.634 17.152-63.833 58.756-108.129 1.498-1.594 2.225-3.764 1.99-5.939-.06-.543-5.872-55.297-6.482-136.337zm-64.37-232.438c6.828 19.885 21.978 57.156 48.34 89.468-13.895 1.159-37.016 2.031-63.507-1.23-4.107-.504-7.854 2.417-8.359 6.528-.507 4.111 2.416 7.854 6.527 8.36 14.634 1.801 28.192 2.416 39.893 2.416 5.068 0 9.786-.115 14.091-.3-28.206 24.344-41.942 53.152-48.621 74.913-3.534 11.516-5.448 22.032-6.467 30.596-33.751-47.325-62.348-94.792-83.522-132.539 14.744 7.54 30.834 13.58 48.098 18.041.629.163 1.26.24 1.881.24 3.338 0 6.383-2.245 7.257-5.625 1.036-4.011-1.375-8.102-5.386-9.138-18.004-4.652-34.607-11.114-49.586-19.284 25.85-5.065 51.059-17.6 73.925-36.909 11.06-9.338 19.608-18.57 25.436-25.537zm-14.446-6.221c-5.265 5.997-12.329 13.293-21.009 20.587-26.934 22.632-55.918 34.598-86.151 35.568-30.234-.97-59.218-12.936-86.15-35.568-8.554-7.188-15.538-14.378-20.778-20.325 89.797 11.598 177.099 4.065 214.088-.262zm-277.358 95.67c27.445-34.179 42.12-69.993 48.685-89.337 5.826 6.954 14.341 16.137 25.342 25.426 22.861 19.304 48.063 31.838 73.908 36.905-34.865 18.965-72.646 25.404-99.985 27.316-19.901 1.391-36.899.625-47.95-.31zm11.596 15.784c4.31.184 9.034.299 14.11.299 7.011 0 14.693-.22 22.875-.781 27.764-1.906 65.727-8.245 101.653-26.569-21.176 37.752-49.779 85.232-83.54 132.569-1.02-8.565-2.934-19.081-6.468-30.597-6.679-21.762-20.417-50.574-48.63-74.921zm62.431 334.104c-11.001 9.289-19.516 18.472-25.342 25.425-6.565-19.344-21.241-55.158-48.686-89.337 11.051-.935 28.049-1.701 47.951-.309 27.339 1.912 65.12 8.351 99.985 27.316-25.845 5.068-51.047 17.602-73.908 36.905zm-25.445-79.213c-14.107-.968-26.723-.92-36.985-.482 28.212-24.346 41.951-53.158 48.63-74.922 3.534-11.516 5.449-22.032 6.468-30.596 33.761 47.339 62.364 94.818 83.54 132.569-35.926-18.323-73.889-24.663-101.653-26.569zm161.876-23.232c-3.556-2.128-8.159-.969-10.287 2.584-10.194 17.035-20.247 34.566-29.974 52.269-23.655-43.034-58.535-101.899-100.679-159.307 42.146-57.411 77.024-116.272 100.68-159.309 23.656 43.037 58.534 101.898 100.679 159.309-17.492 23.827-35.031 49.664-52.184 76.877-2.209 3.504-1.158 8.135 2.346 10.344 3.505 2.208 8.135 1.158 10.344-2.346 13.933-22.105 28.119-43.284 42.319-63.191 1.019 8.565 2.934 19.081 6.468 30.597 6.679 21.764 20.418 50.576 48.631 74.922-10.262-.438-22.879-.486-36.986.482-27.766 1.906-65.732 8.246-101.66 26.573 7.492-13.366 15.149-26.587 22.888-39.518 2.126-3.553.969-8.159-2.585-10.286zm81.346 127.983c-5.829-6.967-14.376-16.199-25.437-25.538-22.861-19.304-48.063-31.838-73.907-36.905 34.865-18.965 72.646-25.404 99.985-27.316 19.752-1.382 36.645-.638 47.701.288-26.363 32.313-41.513 69.586-48.342 89.471zm2.876-184c-8.262-26.572-7.013-47.731-6.999-47.942.011-.165.017-.33.017-.495 0-.174-.006-.347-.019-.521-.084-1.374-3.961-74.396 58.623-121.54-1.802 22.109-4.708 65.84-5.129 122.005v.112c.421 56.187 3.329 99.932 5.131 122.032-24.866-18.637-42.201-43.35-51.624-73.651z"/><path d="m254.508 167.051c-3.608-2.034-8.182-.76-10.217 2.848-.195.345-19.754 34.904-45.297 69.817-2.446 3.343-1.719 8.036 1.624 10.481 1.335.977 2.886 1.448 4.423 1.448 2.311 0 4.59-1.064 6.059-3.072 26.062-35.621 46.058-70.953 46.256-71.305 2.035-3.608.759-8.182-2.848-10.217z"/><path d="m269.151 204.879c-3.608-2.033-8.181-.76-10.218 2.846-.085.15-8.595 15.177-19.664 30.308-2.446 3.343-1.719 8.036 1.624 10.481 1.336.977 2.886 1.447 4.423 1.447 2.311 0 4.59-1.064 6.059-3.072 11.614-15.874 20.261-31.152 20.623-31.794 2.035-3.608.76-8.181-2.847-10.216z"/></g></svg>