<svg id="Layer_1" enable-background="new 0 0 512 512" height="512" viewBox="0 0 512 512" width="512" xmlns="http://www.w3.org/2000/svg"><g><path d="m509.738 164.81c-.613-.599-61.812-60.763-101.764-137.281-1.399-2.679-4.262-4.252-7.281-4.002-9.537.808-19.406 1.534-29.334 2.161-4.134.262-7.273 3.824-7.012 7.958.262 4.135 3.83 7.27 7.958 7.013 6.305-.398 12.587-.837 18.778-1.31-5.6 20.487-16.868 68.071-18.168 123.265-47.158-41.782-86.915-95.443-103.204-118.676 20.714-.08 42.524-.485 64.84-1.359 4.139-.162 7.362-3.649 7.2-7.788-.162-4.14-3.663-7.358-7.788-7.2-117.957 4.624-221.624-3.977-222.657-4.064-3.013-.253-5.882 1.324-7.281 4.002-9.835 18.838-21.784 38.275-35.515 57.772-2.385 3.387-1.573 8.065 1.813 10.45 1.313.925 2.819 1.369 4.312 1.369 2.357-.001 4.678-1.109 6.138-3.183 10.185-14.462 19.426-28.91 27.593-43.134 5.993 23.806 15.467 69.197 15.83 119.352-46.049-2.03-81.347-4.576-100.343-6.104 8.369-8.964 20.748-22.824 34.679-40.395 2.573-3.245 2.028-7.963-1.217-10.536-3.246-2.572-7.963-2.028-10.537 1.218-24.333 30.692-44.317 50.277-44.516 50.472-1.463 1.428-2.28 3.392-2.262 5.436s.871 3.993 2.359 5.395c1.348 1.268 136.021 128.908 247.257 309.297 1.366 2.215 3.782 3.563 6.384 3.563s5.018-1.349 6.384-3.563c24.057-39.014 51.056-78.558 80.247-117.534 2.483-3.315 1.809-8.017-1.507-10.499-3.316-2.483-8.017-1.81-10.499 1.507-16.325 21.797-31.972 43.774-46.814 65.741 22.51-62.301 60.571-161.743 99.918-238.279 34.663-1.456 68.232-3.568 100.56-6.332-24.292 24.446-75.124 77.79-131.62 150.065-2.551 3.264-1.973 7.978 1.29 10.528 1.372 1.071 2.999 1.591 4.614 1.591 2.229 0 4.436-.989 5.914-2.881 77.719-99.425 144.489-162.578 145.155-163.204 1.489-1.401 2.34-3.351 2.359-5.395s-.8-4.009-2.263-5.436zm-388.839-125.529c19.69 1.362 64.467 4.021 120.493 4.571-16.143 23.032-55.522 76.218-102.327 117.93-1.395-54.901-12.601-102.155-18.166-122.501zm-93.355 140.11c20.536 1.6 55.261 4 99.472 5.901 39.283 76.259 77.687 175.472 100.573 237.993-81.322-120.086-166.43-210.035-200.045-243.894zm228.405 278.519c-17.289-49.225-63.45-176.242-111.742-271.924 16.196.611 33.47 1.142 51.622 1.537.056.001.111.002.167.002 4.066 0 7.406-3.251 7.495-7.337.09-4.141-3.193-7.571-7.334-7.661-15.759-.344-30.849-.789-45.142-1.301 49.425-44.485 89.502-99.618 104.507-121.356 15.062 21.822 55.389 77.292 105.073 121.865-40.609 1.355-82.656 1.825-125.912 1.401-4.097-.042-7.532 3.285-7.573 7.427s3.284 7.532 7.426 7.573c10.289.1 20.496.15 30.646.15 34.656 0 68.489-.585 101.379-1.75-48.141 95.61-93.584 222.215-110.612 271.374zm131.85-287.224c.3-50.359 9.818-95.98 15.832-119.873 29.883 52.115 66.52 94.049 84.575 113.331-32.253 2.839-65.771 5.022-100.407 6.542z"/><path d="m205.582 216.808c-1.958-3.65-6.504-5.021-10.154-3.064-3.65 1.958-5.022 6.504-3.065 10.154.234.438 23.639 44.318 38.502 91.638 1.006 3.204 3.963 5.255 7.153 5.255.744 0 1.502-.111 2.25-.347 3.952-1.241 6.149-5.451 4.908-9.402-15.301-48.715-38.61-92.399-39.594-94.234z"/><path d="m234.648 223.537c-3.599 2.049-4.856 6.627-2.81 10.228.123.215 12.341 21.831 20.768 47.876 1.027 3.174 3.969 5.193 7.134 5.193.765 0 1.543-.118 2.31-.366 3.941-1.275 6.102-5.503 4.827-9.444-8.92-27.57-21.473-49.75-22.003-50.681-2.049-3.6-6.628-4.852-10.226-2.806z"/></g></svg>