<svg id="Layer_1" enable-background="new 0 0 512 512" height="512" viewBox="0 0 512 512" width="512" xmlns="http://www.w3.org/2000/svg"><g><path d="m470.415 405.914c-3.648-1.96-8.196-.597-10.158 3.054-31.411 58.414-100.133 88.032-204.257 88.032-75.603 0-132.964-15.772-170.49-46.879-3.188-2.643-7.916-2.2-10.56.988s-2.201 7.917.988 10.561c40.288 33.397 100.87 50.33 180.062 50.33 110.073 0 183.239-32.275 217.468-95.929 1.962-3.647.595-8.195-3.053-10.157z"/><path d="m199.051 275.331c.055 0 .11-.001.166-.002 38.572-.835 76.79-.929 113.597-.273 4.134.108 7.558-3.225 7.632-7.365.073-4.142-3.224-7.559-7.366-7.633-37.004-.657-75.421-.565-114.189.275-4.141.09-7.425 3.52-7.335 7.66.088 4.086 3.428 7.338 7.495 7.338z"/><path d="m505.135 210.964c-16.736-1.422-33.486-2.652-50.173-3.71.184-2.608.277-5.227.277-7.838 0-25.348-8.836-50.086-24.88-69.659-2.626-3.202-7.352-3.671-10.555-1.046-3.204 2.626-3.672 7.352-1.046 10.556 13.852 16.898 21.48 38.26 21.48 60.149 0 2.311-.084 4.628-.25 6.934-60.222-3.458-119.302-4.729-173.519-4.737 9.63-32.313 19.757-60.594 28.368-82.742 15.085-9.449 32.451-14.432 50.379-14.432 17.37 0 34.36 4.725 49.133 13.664 3.544 2.143 8.155 1.01 10.299-2.534s1.01-8.155-2.534-10.3c-17.114-10.356-36.789-15.829-56.897-15.829-14.496 0-28.678 2.816-41.866 8.243 7.859-18.924 13.117-29.831 13.239-30.082.897-1.849.996-3.984.274-5.908-.721-1.923-2.2-3.468-4.091-4.271-.484-.206-48.851-20.959-88.607-55.578-2.259-1.968-5.474-2.402-8.175-1.103-79.683 38.316-165.883 63.349-166.744 63.598-2.908.838-5.027 3.343-5.373 6.35-1.032 8.974-2.603 18.405-4.67 28.03-.87 4.05 1.708 8.037 5.759 8.907 4.05.873 8.038-1.709 8.907-5.759 1.104-5.141 2.073-10.235 2.903-15.244 11.254 10.833 29.731 30.41 44.609 54.808-28.676 9.684-51.745 16.748-65.749 20.887 2.569-6.614 5.691-15.199 8.853-25.209 1.248-3.95-.942-8.163-4.892-9.411-3.952-1.248-8.164.942-9.411 4.892-7.136 22.584-14.206 37.946-14.276 38.098-.864 1.863-.925 4.001-.169 5.911.756 1.911 2.263 3.429 4.168 4.197.266.107 22.12 8.976 55.377 25.788-42.195 2.201-67.631 4.314-68.418 4.381-4.127.351-7.188 3.98-6.838 8.107.351 4.127 3.99 7.223 8.108 6.866.464-.039 9.497-.79 25.477-1.849-4.322 13.242-11.102 37.296-14.417 66.277-6.662 58.238 4.242 108.329 31.533 144.858 1.473 1.971 3.729 3.012 6.014 3.011 1.561 0 3.136-.485 4.483-1.491 3.318-2.479 3.999-7.18 1.52-10.498-31.458-42.106-32.965-96.004-28.689-133.803 3.686-32.586 12.184-59.208 15.759-69.379 75.026-4.532 240.978-11.71 412.267-.287 6.237 17.694 28.604 88.789 10.999 153.683-1.084 3.998 1.277 8.118 5.274 9.202.658.179 1.318.264 1.968.264 3.302 0 6.328-2.198 7.234-5.538 17.261-63.624-.723-130.693-9.205-156.47 8.501.625 17.008 1.298 25.512 2.021.216.019.431-.001.644-.001 3.855 0 7.132-2.954 7.465-6.865.35-4.128-2.711-7.758-6.838-8.109zm-293.627-191.522c.163 28.188 5.091 53.453 8.808 68.568-32.947-13.635-58.13-32.002-70.842-42.332 19.753-7.667 40.971-16.48 62.034-26.236zm-.148 81.086c-30.762 12.589-60.257 23.581-86.467 32.799 9.344-28.565 14.031-58.076 16.158-75.104 13.334 10.774 37.928 28.468 70.309 42.305zm-145.136-25.677c12.86-4.021 34.415-11.03 60.16-20.465-1.938 15.93-6.451 45.588-15.599 73.802-15.545-24.083-33.567-42.89-44.561-53.337zm38.812 130.307c-25.298-13.544-46.242-23.533-60.281-29.906 15.29-4.579 38.462-11.782 66.541-21.35 8.604 6.044 34.405 25.099 53.833 49.118-21.815.601-41.978 1.347-60.093 2.138zm109.715-3.177c-10.666.152-21.062.346-31.153.575-16.945-23.952-40.798-43.88-55.014-54.633 27.956-9.811 59.681-21.641 92.747-35.279-3.406 18.622-8.376 53.224-6.58 89.337zm77.778-137.497c-18.697 9.046-37.562 17.581-56.171 25.568-3.306-12.382-9.115-37.949-9.786-66.795 24.908 19.467 50.524 33.531 65.957 41.227zm-41.711 137.162c-7.115.03-14.136.082-21.055.152-2.173-42.432 5.667-83.894 8.248-96.142 18.67-7.947 37.631-16.445 56.46-25.459-10.177 23.556-27.728 67.174-43.653 121.449z"/></g></svg>