<svg id="Layer_1" enable-background="new 0 0 512 512" height="512" viewBox="0 0 512 512" width="512" xmlns="http://www.w3.org/2000/svg"><g><path d="m508.955 249.966c-.341-.251-33.917-25.126-79.852-66.349.735-14.394 1.727-28.672 2.951-42.496.365-4.126-2.683-7.768-6.809-8.133-4.147-.358-7.767 2.683-8.133 6.809-1.208 13.645-2.193 27.723-2.932 41.915l-74.827 31.295c-9.005-17.509-23.347-31.842-40.862-40.837l30.7-74.841c44.049-2.418 77.809-6.259 93.675-8.282-.648 4.644-1.267 9.325-1.849 14.001-.512 4.11 2.405 7.857 6.516 8.369.314.039.627.059.937.059 3.729 0 6.96-2.778 7.433-6.574.983-7.89 2.069-15.798 3.229-23.503.354-2.354-.43-4.736-2.112-6.419-1.684-1.684-4.07-2.471-6.42-2.113-.418.062-41.811 6.218-103.379 9.548-23.994-26.576-45.913-53.264-65.187-79.37-1.414-1.915-3.653-3.045-6.034-3.045-2.38 0-4.619 1.13-6.033 3.045-.252.341-25.168 33.961-66.349 79.852-9.993-.511-19.931-1.144-29.59-1.886-4.137-.312-7.734 2.774-8.053 6.904-.316 4.131 2.774 7.735 6.904 8.052 9.42.723 19.097 1.344 28.833 1.851l31.108 74.378c-17.611 9.058-32.01 23.514-40.994 41.169l-74.496-30.557c-2.418-44.05-6.258-77.81-8.281-93.676 8.903 1.242 18.005 2.382 27.171 3.402 4.114.458 7.825-2.509 8.283-6.625s-2.508-7.825-6.625-8.283c-12.396-1.38-24.668-2.98-36.477-4.759-2.357-.357-4.736.431-6.42 2.112-1.684 1.683-2.468 4.065-2.114 6.42.063.418 6.218 41.811 9.548 103.38-26.577 23.993-53.265 45.912-79.37 65.188-1.915 1.413-3.045 3.652-3.045 6.033 0 2.38 1.13 4.619 3.045 6.033.341.252 33.961 25.168 79.852 66.349-1.827 35.76-5.198 70.13-10.028 102.218-.354 2.354.43 4.735 2.112 6.419 1.417 1.417 3.33 2.197 5.304 2.197.371 0 .744-.027 1.116-.084.106-.016 10.84-1.621 29.261-3.611 4.118-.445 7.096-4.145 6.651-8.263-.446-4.118-4.143-7.099-8.263-6.651-8.273.895-14.973 1.705-19.916 2.337 4.094-29.357 7.009-60.457 8.685-92.657l74.414-31.123c9.124 17.516 23.604 31.817 41.253 40.718l-30.678 74.788c-12.698.697-25.464 1.562-38.015 2.576-4.128.334-7.205 3.951-6.871 8.08s3.956 7.211 8.08 6.871c12.802-1.035 25.828-1.912 38.777-2.612 23.999 26.585 45.919 53.272 65.187 79.371 1.414 1.914 3.653 3.044 6.034 3.044s4.62-1.13 6.033-3.045c.252-.341 25.127-33.917 66.349-79.852 35.76 1.827 70.13 5.198 102.218 10.028 2.351.359 4.735-.43 6.419-2.112 1.684-1.684 2.468-4.065 2.114-6.42-.063-.418-6.219-41.811-9.549-103.379 26.579-23.995 53.267-45.914 79.371-65.188 1.915-1.412 3.045-3.651 3.045-6.032s-1.13-4.62-3.045-6.034zm-313.397-157.918c29.438-32.858 50.594-59.445 60.382-72.094 17.866 23.657 37.797 47.711 59.382 71.665l-30.679 74.791c-9.127-2.962-18.861-4.563-28.961-4.563-10.121 0-19.873 1.607-29.015 4.58zm-103.51 224.394c-32.858-29.438-59.445-50.594-72.094-60.382 23.656-17.866 47.71-37.797 71.665-59.382l74.498 30.558c-2.894 9.032-4.458 18.654-4.458 28.634 0 10.292 1.662 20.203 4.732 29.479zm164.012 175.604c-17.863-23.651-37.792-47.704-59.382-71.666l30.699-74.84c8.936 2.827 18.446 4.353 28.305 4.353 10.163 0 20.081-1.595 29.494-4.7l31.266 74.759c-29.438 32.856-50.594 59.444-60.382 72.094zm74.227-77.864-31.294-74.824c4.413-2.299 8.666-4.964 12.729-7.984 3.324-2.472 4.016-7.169 1.545-10.494-2.473-3.323-7.168-4.016-10.494-1.545-13.691 10.178-29.976 15.558-47.091 15.558-43.573 0-79.022-35.45-79.022-79.023s35.449-79.022 79.022-79.022 79.023 35.449 79.023 79.022c0 13.645-3.531 27.091-10.212 38.886-2.042 3.604-.775 8.181 2.829 10.222 3.6 2.042 8.18.775 10.222-2.829.702-1.24 1.375-2.495 2.019-3.764l75.107 30.809c2.418 44.049 6.259 77.809 8.282 93.675-29.36-4.095-60.463-7.011-92.665-8.687zm90.093-98.859-75.131-30.819c2.938-9.212 4.456-18.882 4.456-28.634 0-10.121-1.608-19.874-4.581-29.016l74.827-31.295c32.857 29.439 59.445 50.594 72.094 60.383-23.654 17.864-47.709 37.794-71.665 59.381z"/><path d="m255.682 230.921c-13.757 0-24.948 11.191-24.948 24.948 0 4.143 3.357 7.5 7.5 7.5s7.5-3.357 7.5-7.5c0-5.485 4.463-9.948 9.948-9.948 4.143 0 7.5-3.357 7.5-7.5s-3.358-7.5-7.5-7.5z"/><path d="m255.682 201.122c-30.188 0-54.747 24.56-54.747 54.747 0 4.143 3.357 7.5 7.5 7.5s7.5-3.357 7.5-7.5c0-21.917 17.83-39.747 39.747-39.747 4.143 0 7.5-3.357 7.5-7.5s-3.358-7.5-7.5-7.5z"/></g></svg>