<svg id="Layer_1" enable-background="new 0 0 512 512" height="512" viewBox="0 0 512 512" width="512" xmlns="http://www.w3.org/2000/svg"><g><path d="m156.149 313.412c55.28-49.343 117.012-94.908 117.676-95.398 1.675-1.233 2.763-3.107 3.003-5.174.239-2.066-.39-4.14-1.737-5.725-30.87-36.292-45.373-62.092-45.515-62.345-1.505-2.708-4.526-4.215-7.59-3.783-79.612 11.098-166.298.102-167.164-.01-3.042-.396-6.024 1.107-7.519 3.789-.144.257-14.647 26.057-45.517 62.349-1.348 1.585-1.977 3.658-1.737 5.725.24 2.066 1.328 3.94 3.003 5.174.177.13 17.892 13.189 42.562 32.674 3.251 2.565 7.967 2.013 10.534-1.237 2.567-3.251 2.014-7.967-1.237-10.534-8.642-6.825-16.445-12.874-22.956-17.867 10.486.582 23.877 1.233 39.425 1.793 22.349 21.943 38.005 48.908 47.692 69.112-11.36-9.894-23.567-20.193-36.518-30.806-3.203-2.624-7.93-2.157-10.555 1.047-2.626 3.204-2.157 7.93 1.047 10.555 17.337 14.208 33.316 27.835 47.682 40.661-46.821 8.377-82.469 49.364-82.469 98.511.003 55.183 44.942 100.077 100.18 100.077 33.028 0 63.922-16.26 82.64-43.496 2.347-3.414 1.481-8.083-1.933-10.429-3.414-2.349-8.083-1.482-10.429 1.933-15.92 23.163-42.192 36.992-70.278 36.992-46.967 0-85.177-38.165-85.177-85.077s38.21-85.077 85.177-85.077 85.178 38.165 85.178 85.077c0 6.798-.805 13.562-2.391 20.104-.976 4.026 1.496 8.08 5.521 9.057 4.034.973 8.08-1.496 9.057-5.521 1.866-7.698 2.812-15.651 2.812-23.639 0-49.148-35.646-90.134-82.467-98.512zm24.215-104.53c-30.158.583-58.868.327-83.899-.285 20.12-16.293 34.374-32.822 41.945-42.485 7.559 9.734 21.814 26.405 41.954 42.77zm25.108 14.328c12.941-.449 26.032-1.067 39.112-1.89-20.562 15.787-53.892 42.014-86.661 70.536 9.694-20.082 25.305-46.804 47.549-68.646zm48.886-17.582c-16.639 1.196-33.375 2.041-49.864 2.608-23.791-16.392-41.314-35.474-51.042-47.379 21-.292 43.501-1.519 65.633-4.35 4.791 7.879 16.228 25.626 35.273 49.121zm-196.517-49.199c10.077 1.105 34.643 3.48 65.642 4.252-9.718 11.804-27.251 30.782-51.071 47.192-21.278-.761-38.516-1.699-49.772-2.392 19.037-23.502 30.448-41.23 35.201-49.052zm87.91 67.777c12.471 0 25.378-.122 38.542-.404-23.054 26.268-37.88 55.764-45.835 74.444-7.943-18.758-22.769-48.409-45.844-74.745 16.289.425 34.211.705 53.137.705z"/><path d="m511.95 299.159c-.24-2.066-1.328-3.94-3.003-5.174-.128-.094-12.963-9.555-31.892-24.303-3.265-2.544-7.979-1.962-10.525 1.307-2.546 3.268-1.961 7.979 1.307 10.525 4.284 3.337 8.259 6.408 11.851 9.164-13.073-.822-26.158-1.44-39.093-1.888-22.24-21.838-37.85-48.554-47.543-68.633 14.149 12.321 29.595 25.253 46.182 38.663 3.222 2.604 7.943 2.101 10.548-1.118 2.604-3.221 2.104-7.943-1.118-10.548-21.125-17.077-40.367-33.36-57.395-48.565 46.821-8.377 82.469-49.364 82.469-98.512-.001-55.182-44.94-100.077-100.177-100.077-27.28 0-52.782 10.76-71.808 30.297-2.89 2.968-2.827 7.716.141 10.605 2.968 2.891 7.716 2.827 10.605-.141 16.178-16.612 37.863-25.761 61.062-25.761 46.967 0 85.177 38.165 85.177 85.077s-38.21 85.077-85.177 85.077-85.177-38.165-85.177-85.077c0-10.651 1.943-21.036 5.775-30.864 1.505-3.859-.403-8.207-4.263-9.712-3.86-1.507-8.208.403-9.712 4.263-4.513 11.572-6.801 23.79-6.801 36.313 0 49.147 35.646 90.133 82.466 98.511-55.28 49.342-117.011 94.907-117.675 95.397-1.675 1.233-2.763 3.107-3.003 5.174-.239 2.066.39 4.14 1.737 5.725 30.869 36.293 45.372 62.092 45.514 62.345 1.334 2.4 3.856 3.855 6.553 3.855.32 0 .645-.021.968-.062.866-.112 87.484-11.114 167.165-.01 3.062.432 6.081-1.075 7.588-3.779.144-.257 14.646-26.056 45.517-62.349 1.348-1.585 1.977-3.658 1.737-5.725zm-138.418 46.728c-7.571-9.663-21.825-26.192-41.946-42.485 25.032-.612 53.742-.867 83.901-.285-20.141 16.365-34.396 33.036-41.955 42.77zm-106.47-54.936c20.558-15.777 54.14-42.188 87.138-70.916-9.687 20.206-25.344 47.175-47.697 69.122-15.556.56-28.953 1.212-39.441 1.794zm60.674-2.452c23.075-26.336 37.901-55.987 45.844-74.746 7.956 18.682 22.781 48.177 45.836 74.445-33.142-.711-64.657-.403-91.68.301zm-69.974 18.019c11.257-.694 28.494-1.631 49.772-2.392 23.82 16.41 41.353 35.387 51.072 47.191-31.002.772-55.569 3.148-65.643 4.253-4.753-7.82-16.165-25.55-35.201-49.052zm196.445 48.973c-22.138-2.832-44.643-4.06-65.647-4.351 9.704-11.888 27.199-30.943 51.056-47.378 16.489.567 33.225 1.412 49.864 2.609-19.046 23.496-30.482 41.242-35.273 49.12z"/></g></svg>