<svg id="Layer_1" enable-background="new 0 0 512 512" height="512" viewBox="0 0 512 512" width="512" xmlns="http://www.w3.org/2000/svg"><g><path d="m243.955 347.592c-.425-.228-39.686-21.343-77.666-55.673 10.143-5.392 17.066-16.078 17.066-28.353 0-9.857-4.464-18.689-11.475-24.578 7.011-5.889 11.475-14.722 11.475-24.579 0-15.104-10.481-27.803-24.545-31.191v-21.426c27.781-3.686 49.287-27.556 49.287-56.361 0-31.351-25.475-56.855-56.787-56.855-6.028 0-11.966.942-17.648 2.802-3.937 1.287-6.084 5.522-4.796 9.46 1.287 3.936 5.521 6.088 9.46 4.796 4.174-1.365 8.543-2.058 12.984-2.058 23.041 0 41.787 18.776 41.787 41.855s-18.746 41.854-41.787 41.854-41.787-18.775-41.787-41.854c0-6.823 1.585-13.325 4.71-19.326 1.914-3.674.487-8.203-3.187-10.116-3.676-1.916-8.202-.487-10.116 3.187-4.191 8.048-6.407 17.127-6.407 26.256 0 28.805 21.506 52.675 49.287 56.361v21.426c-14.064 3.389-24.545 16.088-24.545 31.191 0 9.857 4.464 18.69 11.475 24.579-7.011 5.889-11.475 14.722-11.475 24.578 0 12.275 6.923 22.962 17.066 28.353-37.979 34.33-77.24 55.445-77.663 55.671-2.891 1.54-4.444 4.797-3.844 8.017.043.23 4.257 23.761-.11 82.271-.22 2.946 1.312 5.748 3.91 7.155.473.256 47.761 26.058 87.445 64.832 1.457 1.424 3.349 2.136 5.241 2.136s3.784-.712 5.241-2.136c8.234-8.045 17.415-16.137 27.29-24.05 3.232-2.59 3.752-7.311 1.162-10.543-2.591-3.232-7.312-3.754-10.543-1.162-5.112 4.097-10.05 8.244-14.78 12.413 2.879-29.181 12.891-55.447 29.896-78.427.264.289.527.575.79.858 13.065 14.104 26.094 23.738 35.09 29.514-5.323 3.228-12.237 7.582-20.165 12.95-3.43 2.322-4.327 6.985-2.005 10.415 2.32 3.43 6.982 4.328 10.415 2.005 17.508-11.854 30.17-18.737 30.296-18.805 2.598-1.407 4.13-4.209 3.91-7.155-4.368-58.51-.153-82.04-.114-82.249.621-3.233-.936-6.491-3.838-8.038zm-53.589 36.099c-.263.284-.526.57-.79.858-17.001-22.975-27.013-49.235-29.895-78.408 25.889 22.887 51.444 39.492 65.712 48.077-8.993 5.781-21.992 15.403-35.027 29.473zm-77.324 24.404c17.004 22.977 27.016 49.24 29.895 78.417-25.574-22.558-51.398-39.364-65.761-48.055 8.995-5.777 22.017-15.408 35.075-29.505.264-.282.527-.569.791-.857zm-11.385-9.778c-11.376 12.37-22.859 21.078-31.045 26.485 1.54-26.787 1.203-45.14.519-56.616 8.148 5.43 19.388 14.03 30.526 26.141.609.662 1.21 1.327 1.806 1.995-.596.669-1.198 1.334-1.806 1.995zm10.595-14.626c-13.035-14.071-26.034-23.693-35.027-29.473 14.269-8.585 39.824-25.19 65.712-48.077-2.881 29.174-12.893 55.433-29.894 78.408-.264-.288-.528-.574-.791-.858zm22.012-169.283c0-9.417 7.646-17.079 17.045-17.079s17.045 7.662 17.045 17.079-7.646 17.079-17.045 17.079-17.045-7.662-17.045-17.079zm17.045 32.079c9.398 0 17.045 7.661 17.045 17.078 0 9.412-7.639 17.072-17.031 17.079h-.027c-9.392-.007-17.031-7.667-17.031-17.079-.001-9.417 7.646-17.078 17.044-17.078zm0 205.369c-6.849-22.915-17.536-41.34-28.409-55.533 10.872-14.194 21.56-32.618 28.409-55.533 6.849 22.915 17.537 41.34 28.409 55.533-10.872 14.193-21.56 32.617-28.409 55.533zm49.652-53.539c-.609-.662-1.21-1.327-1.806-1.995.595-.668 1.197-1.333 1.806-1.995 11.138-12.11 22.379-20.711 30.527-26.141-.685 11.475-1.022 29.827.519 56.615-8.185-5.406-19.669-14.114-31.046-26.484z"/><path d="m457.288 74.124c.22-2.946-1.312-5.748-3.91-7.155-.473-.256-47.761-26.059-87.445-64.833-2.914-2.847-7.568-2.849-10.482 0-10.334 10.097-22.081 20.197-34.917 30.023-3.289 2.518-3.915 7.225-1.396 10.514 2.518 3.29 7.224 3.917 10.514 1.396 7.979-6.107 15.559-12.325 22.67-18.591-2.879 29.181-12.891 55.446-29.896 78.426-.264-.289-.527-.575-.79-.858-13.066-14.104-26.096-23.738-35.092-29.514 3.284-1.992 7.176-4.414 11.541-7.238 3.478-2.251 4.472-6.895 2.222-10.372-2.251-3.478-6.894-4.47-10.372-2.222-13.027 8.432-21.843 13.221-21.93 13.269-2.599 1.406-4.13 4.208-3.91 7.154 4.368 58.51.153 82.039.114 82.249-.621 3.23.936 6.489 3.838 8.037.426.227 39.686 21.341 77.666 55.671-10.143 5.392-17.066 16.078-17.066 28.353 0 9.857 4.464 18.69 11.475 24.579-7.011 5.889-11.475 14.722-11.475 24.578 0 15.104 10.481 27.803 24.545 31.191v21.426c-27.781 3.686-49.287 27.556-49.287 56.362 0 31.351 25.475 56.855 56.787 56.855s56.787-25.505 56.787-56.855c0-2.823-.21-5.665-.624-8.446-.609-4.098-4.431-6.926-8.521-6.314-4.098.609-6.925 4.425-6.314 8.521.305 2.053.46 4.152.46 6.239 0 23.079-18.746 41.855-41.787 41.855s-41.787-18.776-41.787-41.855 18.746-41.855 41.787-41.855c10.079 0 19.812 3.643 27.404 10.258 3.122 2.719 7.86 2.395 10.582-.729 2.721-3.124 2.395-7.861-.729-10.582-8.425-7.339-18.786-11.987-29.758-13.449v-21.43c14.064-3.389 24.545-16.088 24.545-31.191 0-9.857-4.464-18.689-11.475-24.578 7.011-5.889 11.475-14.722 11.475-24.579 0-12.275-6.923-22.962-17.066-28.353 37.979-34.33 77.239-55.444 77.663-55.67 2.891-1.54 4.444-4.798 3.844-8.017-.044-.231-4.259-23.76.11-82.27zm-135.654 54.185c.263-.283.526-.57.79-.858 17.001 22.975 27.014 49.234 29.895 78.408-25.889-22.887-51.444-39.492-65.712-48.076 8.993-5.781 21.993-15.403 35.027-29.474zm78.114 0c13.035 14.071 26.034 23.693 35.027 29.474-14.268 8.585-39.823 25.19-65.711 48.076 2.881-29.174 12.893-55.433 29.895-78.408.263.288.526.574.789.858zm11.003-10.194c-.748-.807-1.486-1.62-2.214-2.437.596-.668 1.197-1.333 1.806-1.995 11.376-12.37 22.859-21.078 31.045-26.485-1.542 26.804-1.203 45.163-.518 56.637-8.023-5.342-19.064-13.786-30.119-25.72zm-11.795-14.208c-17.003-22.974-27.015-49.235-29.894-78.419 25.575 22.558 51.399 39.364 65.761 48.055-8.995 5.777-22.017 15.408-35.075 29.504-.264.284-.528.571-.792.86zm-38.265-43.763c6.849 22.916 17.536 41.34 28.409 55.533-10.872 14.194-21.56 32.618-28.409 55.533-6.849-22.915-17.537-41.34-28.409-55.533 10.872-14.193 21.559-32.617 28.409-55.533zm-49.652 53.54c.609.662 1.21 1.327 1.806 1.995-.595.668-1.197 1.333-1.806 1.995-11.138 12.11-22.379 20.711-30.527 26.141.685-11.475 1.022-29.827-.52-56.616 8.186 5.407 19.669 14.115 31.047 26.485zm66.697 183.908c0 9.417-7.646 17.079-17.045 17.079s-17.045-7.662-17.045-17.079 7.646-17.078 17.045-17.078 17.045 7.661 17.045 17.078zm-17.045-32.078c-9.398 0-17.045-7.662-17.045-17.079s7.646-17.079 17.045-17.079 17.045 7.662 17.045 17.079-7.647 17.079-17.045 17.079z"/></g></svg>