<svg id="Capa_1" enable-background="new 0 0 512 512" height="512" viewBox="0 0 512 512" width="512" xmlns="http://www.w3.org/2000/svg"><g><path d="m366.162 338.225h15.34v15h-15.34z" transform="matrix(.675 -.738 .738 .675 -133.567 388.417)"/><path d="m80.692 91.261-60.815 136.2 237.49 256.809 105.661-115.605-11.072-10.12-74.601 81.623 82.336-206.666h106.552l-82.264 90.007 11.072 10.12 97.06-106.196-60.803-136.172zm391.003 127.24h-111.264l-28.638-112.24h89.785zm-318.171 15 81.829 204.869-189.459-204.869zm103.197 217.93-87.045-217.93h116.324v-15h-117.742l11.088-43.459-14.534-3.708-12.035 47.167h-112.472l50.117-112.24h90.994l-12.776 50.073 14.534 3.708 13.722-53.782h119.417l28.638 112.24h-43.951v15h42.544z"/><path d="m67.5 401.773v-9.773h-15v9.773c0 23.56-19.167 42.727-42.727 42.727h-9.773v15h9.773c23.56 0 42.727 19.167 42.727 42.727v9.773h15v-9.773c0-23.56 19.167-42.727 42.727-42.727h9.773v-15h-9.773c-23.56 0-42.727-19.167-42.727-42.727zm-7.5 72.021c-5.161-9.082-12.712-16.633-21.794-21.794 9.082-5.161 16.633-12.712 21.794-21.794 5.161 9.082 12.712 16.633 21.794 21.794-9.082 5.161-16.633 12.712-21.794 21.794z"/><path d="m503.81 37.403c-16.108 0-29.213-13.105-29.213-29.213v-8.19h-15v8.19c0 16.108-13.104 29.213-29.212 29.213h-8.19v15h8.19c16.108 0 29.212 13.104 29.212 29.212v8.19h15v-8.19c0-16.108 13.105-29.212 29.213-29.212h8.19v-15zm-36.713 19.6c-3.21-4.773-7.328-8.89-12.101-12.101 4.773-3.21 8.89-7.328 12.101-12.101 3.21 4.773 7.328 8.89 12.101 12.101-4.773 3.211-8.89 7.328-12.101 12.101z"/><path d="m98.5 120.688h15v15h-15z"/><path d="m128.5 120.688h15v15h-15z"/><path d="m203.5 248.188h15v15h-15z"/></g></svg>