<svg id="Capa_1" enable-background="new 0 0 512 512" height="512" viewBox="0 0 512 512" width="512" xmlns="http://www.w3.org/2000/svg"><g><path d="m67.5 401.773v-9.773h-15v9.773c0 23.56-19.167 42.727-42.727 42.727h-9.773v15h9.773c23.56 0 42.727 19.167 42.727 42.727v9.773h15v-9.773c0-23.56 19.167-42.727 42.727-42.727h9.773v-15h-9.773c-23.56 0-42.727-19.167-42.727-42.727zm-7.5 72.021c-5.161-9.082-12.712-16.633-21.794-21.794 9.082-5.161 16.633-12.712 21.794-21.794 5.161 9.082 12.712 16.633 21.794 21.794-9.082 5.161-16.633 12.712-21.794 21.794z"/><path d="m503.811 37.403c-16.108 0-29.213-13.105-29.213-29.213v-8.19h-15v8.19c0 16.108-13.104 29.213-29.213 29.213h-8.19v15h8.19c16.108 0 29.213 13.104 29.213 29.212v8.19h15v-8.19c0-16.108 13.104-29.212 29.213-29.212h8.189v-15zm-36.713 19.6c-3.21-4.773-7.328-8.89-12.101-12.101 4.772-3.21 8.891-7.328 12.101-12.101 3.21 4.773 7.328 8.891 12.101 12.101-4.773 3.211-8.891 7.328-12.101 12.101z"/><path d="m330.88 411.997h15.268v15h-15.268z" transform="matrix(.981 -.196 .196 .981 -75.688 74.524)"/><path d="m256 68.352-156.374 31.274-31.274 156.374 31.274 156.374 156.374 31.274 61.471-12.294-2.941-14.709-52.967 10.594 77.535-77.535 51.69 51.69-31.258 6.252 2.941 14.709 49.903-9.981 31.274-156.374-31.274-156.374zm37.5 160.755 16.325-16.325-10.607-10.606-16.325 16.324h-53.786l-45.598-45.598 72.491-72.49 72.491 72.491-17.794 17.794 10.607 10.606 17.794-17.794 72.49 72.491-72.49 72.491-45.598-45.598zm-15 4.393v45h-45v-45zm-105.597-71.204-51.69-51.69 129.225-25.845zm88.659-77.535 129.225 25.845-51.69 51.69zm88.142 88.142 51.69-51.69 25.845 129.225zm-239.098-51.69 51.69 51.69-77.535 77.536zm-25.845 140.349 35.785 35.786 10.607-10.606-30.741-30.742 72.49-72.491 45.598 45.598v53.786l-45.597 45.597-30.643-30.643-10.607 10.606 30.644 30.644-51.69 51.69zm88.142 88.142 77.535 77.535-129.225-25.845zm83.097 61.884-72.49-72.491 45.597-45.597h53.786l45.598 45.598zm145.394-20.801-51.69-51.69 77.535-77.536z"/><path d="m218.5 151h15v15h-15z"/><path d="m248.5 151h15v15h-15z"/></g></svg>