<svg id="Capa_1" enable-background="new 0 0 512 512" height="512" viewBox="0 0 512 512" width="512" xmlns="http://www.w3.org/2000/svg"><g><path d="m67.5 401.773v-9.773h-15v9.773c0 23.56-19.167 42.727-42.727 42.727h-9.773v15h9.773c23.56 0 42.727 19.167 42.727 42.727v9.773h15v-9.773c0-23.56 19.167-42.727 42.727-42.727h9.773v-15h-9.773c-23.56 0-42.727-19.167-42.727-42.727zm-7.5 72.021c-5.161-9.082-12.712-16.633-21.794-21.794 9.082-5.161 16.633-12.712 21.794-21.794 5.161 9.082 12.712 16.633 21.794 21.794-9.082 5.161-16.633 12.712-21.794 21.794z"/><path d="m503.81 37.403c-16.108 0-29.213-13.105-29.213-29.213v-8.19h-15v8.19c0 16.108-13.104 29.213-29.212 29.213h-8.19v15h8.19c16.108 0 29.212 13.104 29.212 29.212v8.19h15v-8.19c0-16.108 13.105-29.212 29.213-29.212h8.19v-15zm-36.713 19.6c-3.21-4.773-7.328-8.89-12.101-12.101 4.773-3.21 8.89-7.328 12.101-12.101 3.21 4.773 7.328 8.89 12.101 12.101-4.773 3.211-8.89 7.328-12.101 12.101z"/><path d="m338.5 361.191h15v14.809h-15z"/><path d="m237.006 67.74c-31.986 18.557-58.916 45.152-77.878 76.908l12.879 7.69c4.953-8.295 10.485-16.146 16.493-23.549v47.751l-36.014 19.584c3.245-10.471 7.346-20.71 12.332-30.669l-13.412-6.716c-15.199 30.355-22.906 63.078-22.906 97.261 0 58.096 22.624 112.715 63.704 153.796 42.78 42.991 100.771 65.437 161.296 63.704v-82.436h-15v52.436l-30-40v-192.181h-15v184.275l-33.449-11.149-57.208-57.208-15.928-71.237 15.929-71.237 57.208-57.208 33.449-11.149v79.594h15v-87.5l30-40v277.5h15v-307.5c-40.774-1.068-81.392 8.744-116.495 29.24zm-93.506 188.26c0-9.486.652-18.847 1.921-28.068l23.976 28.099-23.941 28.057c-1.28-9.184-1.956-18.558-1.956-28.088zm122.853 146.356 22.982 7.661-15.682 23.461zm-6.789 36.744c-17.426-8.259-33.492-18.932-47.764-31.588l38.554-7.679zm-56.064-45.229v-44.764l37.329 37.329zm-15-10.736c-15.923-19.688-28.233-42.409-35.922-67.149l35.922 19.534zm-35.958-84.243 22.656-26.552 9.895 44.253zm22.645-59.184-22.645-26.539 32.536-17.693zm84.356-166.66-9.189 39.181-38.593-7.687c14.392-12.698 30.497-23.305 47.782-31.494zm14.109 5.535 15.649 23.411-22.933 7.644zm-32.874 47.032-37.278 37.279v-44.704zm89.773 332.286c-16.866-1.278-33.161-4.628-48.63-9.802l19.453-29.102zm-29.199-364.87-19.393-29.012c15.614-5.244 31.921-8.604 48.576-9.899z"/><path d="m248.5 158.588h15v15h-15z"/></g></svg>