<svg id="Capa_1" enable-background="new 0 0 512 512" height="512" viewBox="0 0 512 512" width="512" xmlns="http://www.w3.org/2000/svg"><g><path d="m67.5 401.773v-9.773h-15v9.773c0 23.56-19.167 42.727-42.727 42.727h-9.773v15h9.773c23.56 0 42.727 19.167 42.727 42.727v9.773h15v-9.773c0-23.56 19.167-42.727 42.727-42.727h9.773v-15h-9.773c-23.56 0-42.727-19.167-42.727-42.727zm-7.5 72.021c-5.161-9.082-12.712-16.633-21.794-21.794 9.082-5.161 16.633-12.712 21.794-21.794 5.161 9.082 12.712 16.633 21.794 21.794-9.082 5.161-16.633 12.712-21.794 21.794z"/><path d="m503.81 37.403c-16.108 0-29.213-13.105-29.213-29.213v-8.19h-15v8.19c0 16.108-13.104 29.213-29.212 29.213h-8.19v15h8.19c16.108 0 29.212 13.104 29.212 29.212v8.19h15v-8.19c0-16.108 13.105-29.212 29.213-29.212h8.19v-15zm-36.713 19.6c-3.21-4.773-7.328-8.89-12.101-12.101 4.773-3.21 8.89-7.328 12.101-12.101 3.21 4.773 7.328 8.89 12.101 12.101-4.773 3.211-8.89 7.328-12.101 12.101z"/><path d="m372.026 83.5h-232.052c-31.14 0-56.474 25.334-56.474 56.474v232.053c0 31.14 25.334 56.474 56.474 56.474h168.59v-15h-32.607l39.806-28.147 73.479 24.39c-5.248 2.405-11.075 3.757-17.215 3.757h-18.271v15h18.271c31.14 0 56.474-25.334 56.474-56.474v-232.053c-.001-31.14-25.335-56.474-56.475-56.474zm41.474 56.474v96.069l-28.452-40.237 24.958-72.467c2.241 5.096 3.494 10.72 3.494 16.635zm-299.443 218.584-11.081 32.175c-2.856-5.625-4.476-11.978-4.476-18.706v-96.069l29.592 41.849-8.869 25.751 14.183 4.885 8.105-23.533 52.346-4.737-4.815 51.563-72.088 24.478 11.286-32.771zm-11.467-236.535 10.838 31.47 14.183-4.885-10.657-30.944 72.035 23.911 4.868 52.13-52.346-4.737-8.753-25.411-14.183 4.885 9.082 26.366-29.157 41.235v-96.069c0-6.427 1.469-12.516 4.09-17.951zm153.3 202.121-48.153-20.037-19.88-48.217 20.037-48.153 48.217-19.88 48.153 20.037 19.88 48.217-20.037 48.153zm-78.381-82.432-26.006-36.779 39.811 3.603zm-41.509-32.722 33.241 47.01-33.241 47.01-33.241-47.01zm41.546 61.245 14.449 35.044-41.911 3.793zm156.908-28.47-13.666-33.143 39.637-3.587zm.037 28.523 27.353 38.683-41.873-3.789zm41.509 32.722-33.241-47.01 33.241-47.01 33.241 47.01zm-4.462-114.042-52.346 4.737 4.868-52.13 72.035-23.911zm-67.22 2.701-34.03-14.16 37.852-26.765zm-48.318-22.428-47.01-33.241 47.01-33.241 47.01 33.241zm-14.235 8.305-33.079 13.639-3.702-39.647zm-32.905 143.275 32.851 13.67-36.541 25.838zm95.295-.353 3.797 40.655-37.717-26.669zm15.038-.296 52.346 4.737 24.558 71.304-72.035-23.911zm90.446 69.3-25.026-72.663 28.887-40.852v96.069c0 6.23-1.39 12.139-3.861 17.446zm-18.121-286.093-73.948 24.546-41.613-29.425h96.069c7.042 0 13.677 1.769 19.492 4.879zm-155.475-4.879-41.278 29.188-73.871-24.52c5.716-2.975 12.202-4.668 19.079-4.668zm-96.069 315c-5.968 0-11.639-1.277-16.771-3.556l73.37-24.354 39.471 27.91zm116.026-4.259-47.01-33.241 47.01-33.241 47.01 33.241z"/><path d="m323.5 413.5h15v15h-15z"/><path d="m218.5 218.5h15v15h-15z"/><path d="m248.5 218.5h15v15h-15z"/></g></svg>