<svg id="Capa_1" enable-background="new 0 0 512 512" height="512" viewBox="0 0 512 512" width="512" xmlns="http://www.w3.org/2000/svg"><g><path d="m67.5 401.773v-9.773h-15v9.773c0 23.56-19.167 42.727-42.727 42.727h-9.773v15h9.773c23.56 0 42.727 19.167 42.727 42.727v9.773h15v-9.773c0-23.56 19.167-42.727 42.727-42.727h9.773v-15h-9.773c-23.56 0-42.727-19.167-42.727-42.727zm-7.5 72.021c-5.161-9.082-12.712-16.633-21.794-21.794 9.082-5.161 16.633-12.712 21.794-21.794 5.161 9.082 12.712 16.633 21.794 21.794-9.082 5.161-16.633 12.712-21.794 21.794z"/><path d="m503.811 37.403c-16.108 0-29.213-13.105-29.213-29.213v-8.19h-15v8.19c0 16.108-13.104 29.213-29.213 29.213h-8.19v15h8.19c16.108 0 29.213 13.104 29.213 29.212v8.19h15v-8.19c0-16.108 13.104-29.212 29.213-29.212h8.189v-15zm-36.713 19.6c-3.21-4.773-7.328-8.89-12.101-12.101 4.772-3.21 8.891-7.328 12.101-12.101 3.21 4.773 7.328 8.891 12.101 12.101-4.773 3.211-8.891 7.328-12.101 12.101z"/><path d="m256 83.462-156.853 15.686-15.61 156.106 15.61 157.598 156.853 15.686 45.746-4.575-1.492-14.926-42.964 4.296 38.545-57.661 100.844 43.722-51.425 5.142 1.492 14.926 66.106-6.611 15.685-156.851-15.684-156.852zm1.29 15.205 139.767 13.976-101.117 43.841zm21.954 59.833h-46.488l23.244-34.772zm-63.281-1.87-101.371-43.952 140.118-14.011zm-10.343 11.864-37.142 37.142-28.615-65.651zm-47.12 110.75-34.772-23.244 34.772-23.244zm47.261 64.403-65.898 28.57 28.676-65.792zm10.307 11.88 38.642 57.806-139.74-13.973zm74.105-17.027h-68.346l-48.327-48.327v-68.346l48.327-48.327h68.346l48.327 48.327v68.346zm-10.929 15-23.244 34.772-23.244-34.772zm27.005-185.136 65.455-28.379-28.483 65.351zm47.251 64.392 34.772 23.244-34.772 23.244zm1.546-17.01 44.24-101.504 14.048 140.469zm-242.413-100.697 43.987 100.921-57.954 38.741zm-13.967 142.24 58.022 38.787-44.039 101.039zm207.442 86.489 37.052-37.052 28.544 65.492zm93.162 54.144-44.292-101.622 58.356-39.01z"/><path d="m315.963 406.75h15.075v15h-15.075z" transform="matrix(.995 -.1 .1 .995 -39.604 34.236)"/><path d="m218.5 196h15v15h-15z"/><path d="m248.5 196h15v15h-15z"/></g></svg>