<svg id="Capa_1" enable-background="new 0 0 512 512" height="512" viewBox="0 0 512 512" width="512" xmlns="http://www.w3.org/2000/svg"><g><path d="m67.5 401.773v-9.773h-15v9.773c0 23.56-19.167 42.727-42.727 42.727h-9.773v15h9.773c23.56 0 42.727 19.167 42.727 42.727v9.773h15v-9.773c0-23.56 19.167-42.727 42.727-42.727h9.773v-15h-9.773c-23.56 0-42.727-19.167-42.727-42.727zm-7.5 72.021c-5.161-9.082-12.712-16.633-21.794-21.794 9.082-5.161 16.633-12.712 21.794-21.794 5.161 9.082 12.712 16.633 21.794 21.794-9.082 5.161-16.633 12.712-21.794 21.794z"/><path d="m503.811 37.403c-16.108 0-29.213-13.105-29.213-29.213v-8.19h-15v8.19c0 16.108-13.104 29.213-29.213 29.213h-8.19v15h8.19c16.108 0 29.213 13.104 29.213 29.212v8.19h15v-8.19c0-16.108 13.104-29.212 29.213-29.212h8.189v-15zm-36.713 19.6c-3.21-4.773-7.328-8.89-12.101-12.101 4.772-3.21 8.891-7.328 12.101-12.101 3.21 4.773 7.328 8.891 12.101 12.101-4.773 3.211-8.891 7.328-12.101 12.101z"/><path d="m338.5 316h14.673v15h-14.673z"/><path d="m256 30.006-97.173 82.195v287.322l97.173 82.471 97.173-82.195v-53.672h-14.673v36.019l-30-5v-242.292l30-5v171.083h14.673v-188.736zm-30.986 360.994h61.972l-30.986 46.479zm-51.514-8.854v-252.292l30 5v76.115h15v-74.969h75v240h-75v-150.127h-15v151.274zm115.559-285.079-12.48 8.32 10.407 15.613h-61.972l30.986-46.479 11.917 17.875 12.48-8.32-21.075-31.613 74.447 62.972-29.219 4.87zm-36.382-44.604-45.228 67.842-29.219-4.87zm-45.228 339.232 45.228 67.842-74.447-62.972zm51.874 67.842 45.228-67.842 29.219 4.87z"/><path d="m233.5 151h15v15h-15z"/></g></svg>