<svg id="Capa_1" enable-background="new 0 0 512 512" height="512" viewBox="0 0 512 512" width="512" xmlns="http://www.w3.org/2000/svg"><g><path d="m289.075 362.731h15.073v15h-15.073z" transform="matrix(.453 -.892 .892 .453 -167.783 467.119)"/><path d="m96.85 182.852 151.65 298.715 44.255-87.172-13.375-6.79-23.38 46.053v-44.461l96.705-190.487 24.803-4.395-77.117 151.905 13.375 6.79 86.385-170.158-151.651-151.65zm214.127 8.02-17.999-17.999-10.606 10.606 16.915 16.916-50.787 100.038-50.787-100.038 50.787-50.787 23.021 23.02 10.606-10.606-26.127-26.126v-25.193l76.378 76.378zm-69.977 198.326v44.461l-121.508-239.343 24.803 4.395 31.55 62.146 13.375-6.79-26.44-52.081 20.789 3.684 57.431 113.125v37.267l-44.907-88.457-13.375 6.79zm-54.977-198.326-21.401-3.792 76.378-76.378v25.193zm54.977-101.383-94.397 94.397-25.123-4.452 119.52-119.519zm15 0v-29.574l119.52 119.52-25.123 4.452zm0 266.573v-37.267l57.431-113.125 20.789-3.684z"/><path d="m67.5 401.773v-9.773h-15v9.773c0 23.56-19.167 42.727-42.727 42.727h-9.773v15h9.773c23.56 0 42.727 19.167 42.727 42.727v9.773h15v-9.773c0-23.56 19.167-42.727 42.727-42.727h9.773v-15h-9.773c-23.56 0-42.727-19.167-42.727-42.727zm-7.5 72.021c-5.161-9.082-12.712-16.633-21.794-21.794 9.082-5.161 16.633-12.712 21.794-21.794 5.161 9.082 12.712 16.633 21.794 21.794-9.082 5.161-16.633 12.712-21.794 21.794z"/><path d="m503.81 37.403c-16.108 0-29.213-13.105-29.213-29.213v-8.19h-15v8.19c0 16.108-13.104 29.213-29.212 29.213h-8.19v15h8.19c16.108 0 29.212 13.104 29.212 29.212v8.19h15v-8.19c0-16.108 13.105-29.212 29.213-29.212h8.19v-15zm-36.713 19.6c-3.21-4.773-7.328-8.89-12.101-12.101 4.773-3.21 8.89-7.328 12.101-12.101 3.21 4.773 7.328 8.89 12.101 12.101-4.773 3.211-8.89 7.328-12.101 12.101z"/><path d="m226.016 188.5h15v15h-15z"/></g></svg>