<svg id="Capa_1" enable-background="new 0 0 512 512" height="512" viewBox="0 0 512 512" width="512" xmlns="http://www.w3.org/2000/svg"><g><path d="m67.5 401.773v-9.773h-15v9.773c0 23.56-19.167 42.727-42.727 42.727h-9.773v15h9.773c23.56 0 42.727 19.167 42.727 42.727v9.773h15v-9.773c0-23.56 19.167-42.727 42.727-42.727h9.773v-15h-9.773c-23.56 0-42.727-19.167-42.727-42.727zm-7.5 72.021c-5.161-9.082-12.712-16.633-21.794-21.794 9.082-5.161 16.633-12.712 21.794-21.794 5.161 9.082 12.712 16.633 21.794 21.794-9.082 5.161-16.633 12.712-21.794 21.794z"/><path d="m503.81 37.403c-16.108 0-29.213-13.105-29.213-29.213v-8.19h-15v8.19c0 16.108-13.104 29.213-29.212 29.213h-8.19v15h8.19c16.108 0 29.212 13.104 29.212 29.212v8.19h15v-8.19c0-16.108 13.105-29.212 29.213-29.212h8.19v-15zm-36.713 19.6c-3.21-4.773-7.328-8.89-12.101-12.101 4.773-3.21 8.89-7.328 12.101-12.101 3.21 4.773 7.328 8.89 12.101 12.101-4.773 3.211-8.89 7.328-12.101 12.101z"/><path d="m372.026 83.5h-232.052c-31.14 0-56.474 25.334-56.474 56.474v232.053c0 31.14 25.334 56.474 56.474 56.474h168.59v-15h-34.323l43.83-43.376 74.867 37.696c-6.144 3.604-13.288 5.68-20.911 5.68h-18.271v15h18.271c31.14 0 56.474-25.334 56.474-56.474v-232.053c-.001-31.14-25.335-56.474-56.475-56.474zm-159.719 128.807-48.024-19.611 28.413-28.413zm-19.611 135.41-28.413-28.413 48.024-19.611zm38.343-54.217h49.923l24.502 60h-98.927zm2.461-15v-45h45v45zm66.193 21.193 48.024 19.611-28.413 28.413zm-6.193-18.732v-49.923l60-24.502v98.927zm6.193-68.654 19.611-48.024 28.413 28.413zm5.77-53.807-24.502 60h-49.923l-24.502-60h49.464v-15h-42.386l42.386-41.948 42.386 41.948h-27.386v15zm-152.452 24.255-30.605-60.35 60.35 30.605zm5.489 73.075v-49.293l60 24.502v49.923l-60 24.502v-34.464h-15v27.386l-41.948-42.386 41.948-42.386v42.216zm-5.468 73.436 29.745 29.745-60.211 30.742zm145.354 39.234-42.386 41.948-42.386-41.948zm60.581-39.233 30.12 59.82-59.82-30.12zm9.533-115.653 41.948 42.386-41.948 42.386zm-9.511-30.859-29.745-29.745 60.35-30.605zm33.682-78.728-74.612 37.838-43.818-43.365h97.786c7.513 0 14.56 2.019 20.644 5.527zm-154.912-5.527-43.819 43.365-74.612-37.838c6.084-3.508 13.131-5.527 20.645-5.527zm-133.732 20.829 37.838 74.612-43.365 43.818v-97.786c0-7.513 2.019-14.56 5.527-20.644zm-5.527 154.912 43.376 43.83-37.704 74.853c-3.599-6.141-5.672-13.28-5.672-20.897zm21.08 133.877 74.372-37.972 43.807 43.354h-97.786c-7.41 0-14.366-1.963-20.393-5.382zm288.24-15.18-37.696-74.867 43.376-43.83v97.786c0 7.623-2.076 14.766-5.68 20.911zm5.68-155.179-43.365-43.819 37.838-74.612c3.508 6.084 5.527 13.131 5.527 20.645z"/><path d="m323.5 413.5h15v15h-15z"/><path d="m233.5 173.5h15v15h-15z"/><path d="m173.5 233.5h15v15h-15z"/></g></svg>