<svg id="Capa_1" enable-background="new 0 0 512 512" height="512" viewBox="0 0 512 512" width="512" xmlns="http://www.w3.org/2000/svg"><g><path d="m67.5 401.773v-9.773h-15v9.773c0 23.56-19.167 42.727-42.727 42.727h-9.773v15h9.773c23.56 0 42.727 19.167 42.727 42.727v9.773h15v-9.773c0-23.56 19.167-42.727 42.727-42.727h9.773v-15h-9.773c-23.56 0-42.727-19.167-42.727-42.727zm-7.5 72.021c-5.161-9.082-12.712-16.633-21.794-21.794 9.082-5.161 16.633-12.712 21.794-21.794 5.161 9.082 12.712 16.633 21.794 21.794-9.082 5.161-16.633 12.712-21.794 21.794z"/><path d="m503.811 37.403c-16.108 0-29.213-13.105-29.213-29.213v-8.19h-15v8.19c0 16.108-13.104 29.213-29.213 29.213h-8.19v15h8.19c16.108 0 29.213 13.104 29.213 29.212v8.19h15v-8.19c0-16.108 13.104-29.212 29.213-29.212h8.189v-15zm-36.713 19.6c-3.21-4.773-7.328-8.89-12.101-12.101 4.772-3.21 8.891-7.328 12.101-12.101 3.21 4.773 7.328 8.891 12.101 12.101-4.773 3.211-8.891 7.328-12.101 12.101z"/><path d="m143.5 142.324v227.348l112.5 122.411 35.522-38.651-11.045-10.15-16.977 18.473v-40.749l59.71-64.97 25.563 12.932-35.574 38.708 11.045 10.15 44.256-48.155v-227.346l-112.5-122.408zm157.488 185.66v-101.984h-15v103.672l-29.988 32.63-29.989-32.63v-146.344l29.989-32.63 29.988 32.63v27.672h15v-26.045l15.047-7.836v158.477zm-5.866-156.885-31.622-34.407v-23.532l46.249 50.322zm-78.244 0-14.627-7.617 46.249-50.322v23.532zm31.622-80.106-60.027 65.313-25.328-13.19 85.355-92.872zm-67.535 78.315v116.692h15v-108.88l15.046 7.836v143.029l-15.046 7.612v-34.597h-15v42.185l-22.465 11.365v-196.941zm7.825 186.729 59.71 64.97v40.749l-85.274-92.787zm13.906-7.036 14.135-7.151 31.669 34.458v22.531zm128.339-179.693 22.465-11.699v196.94l-22.465-11.365zm-7.508-13.001-60.027-65.314v-40.749l85.355 92.873zm-60.027 242.533v-22.531l31.668-34.458 14.135 7.151z"/><path d="m294.851 422.797h15.491v15.001h-15.491z" transform="matrix(.677 -.736 .736 .677 -218.984 361.932)"/><path d="m241.096 188.5h15v15h-15z"/></g></svg>