<svg id="Capa_1" enable-background="new 0 0 512 512" height="512" viewBox="0 0 512 512" width="512" xmlns="http://www.w3.org/2000/svg"><g><path d="m67.5 401.773v-9.773h-15v9.773c0 23.56-19.167 42.727-42.727 42.727h-9.773v15h9.773c23.56 0 42.727 19.167 42.727 42.727v9.773h15v-9.773c0-23.56 19.167-42.727 42.727-42.727h9.773v-15h-9.773c-23.56 0-42.727-19.167-42.727-42.727zm-7.5 72.021c-5.161-9.082-12.712-16.633-21.794-21.794 9.082-5.161 16.633-12.712 21.794-21.794 5.161 9.082 12.712 16.633 21.794 21.794-9.082 5.161-16.633 12.712-21.794 21.794z"/><path d="m503.811 37.403c-16.108 0-29.213-13.105-29.213-29.213v-8.19h-15v8.19c0 16.108-13.104 29.213-29.213 29.213h-8.19v15h8.19c16.108 0 29.213 13.104 29.213 29.212v8.19h15v-8.19c0-16.108 13.104-29.212 29.213-29.212h8.189v-15zm-36.713 19.6c-3.21-4.773-7.328-8.89-12.101-12.101 4.772-3.21 8.891-7.328 12.101-12.101 3.21 4.773 7.328 8.891 12.101 12.101-4.773 3.211-8.891 7.328-12.101 12.101z"/><path d="m83.69 256 172.31 223.376 53.068-68.795-11.877-9.162-33.691 43.676v-51.539l100.324-130.056h39.757l-77.588 100.582 11.877 9.162 90.44-117.244-172.31-223.376zm241.22-7.5-17.971-23.298-11.877 9.162 16.69 21.636-55.752 72.274-55.752-72.274 55.752-72.274 29.909 38.773 11.877-9.162-34.286-44.447v-25.888l81.381 105.498zm-76.41 145.057v51.539l-140.081-181.596h39.757l32.461 42.081 11.877-9.162-25.394-32.919h19.97l61.41 79.61v25.888l-46.562-60.361-11.877 9.162zm-61.41-145.057h-19.971l81.381-105.498v25.888zm61.41-130.057-100.324 130.057h-39.757l140.081-181.595zm15 0v-51.538l140.081 181.595h-39.757zm0 250.555v-25.888l61.41-79.61h19.971z"/><path d="m309.808 379.975h15.224v15h-15.224z" transform="matrix(.611 -.792 .792 .611 -183.258 402.135)"/><path d="m233.5 233.5h15v15h-15z"/></g></svg>