<svg id="Capa_1" enable-background="new 0 0 512 512" height="512" viewBox="0 0 512 512" width="512" xmlns="http://www.w3.org/2000/svg"><g><path d="m162.362 46.245-63.862 63.861v292.318l63.862 63.861h93.638v-15h-78.306l15.319-30.137h125.974l15.319 30.137h-33.306v15h48.638l63.862-63.861v-292.318l-63.862-63.862h-187.276zm170.095 95.869-15.036-15.036 8.651-16.901 23.336 23.336zm-152.914 0-16.952-8.6 23.336-23.336 8.651 16.901zm28.786-21.093-7.71-15.064h110.764l-7.71 15.064zm110.73-30.063h-126.118l-15.208-29.713h156.535zm-140.313 5.188-30.228 30.228-29.902-15.171 44.87-44.87zm-35.246 44.502v175.437h15v-167.826l15 7.61v200.302l-15 7.714v-32.863h-15v40.578l-30 15.429v-261.6zm5.12 245.185 30.178 30.178-15.333 30.165-44.891-44.891zm14.008-7.204 16.937-8.71 15.025 15.025-8.643 17.004zm44.221-2.64-18.349-18.348v-203.271l18.349-18.349h98.303l18.348 18.349v26.906h15v-25.408l15-7.61v215.626l-15-7.714v-160.34h-15v161.811l-18.349 18.349h-98.302zm110.561 8.954 15.025-15.025 16.937 8.71-23.318 23.318zm45.97.89 30.046 15.452-44.891 44.891-15.333-30.165zm5.12-14.234v-230.951l30-15.22v261.6zm-5.018-245.225-30.228-30.228 15.26-29.813 44.87 44.87zm-162.844 279.775 7.706-15.16h95.313l7.706 15.16z"/><path d="m271 451.286h15v15h-15z"/><path d="m67.5 401.773v-9.773h-15v9.773c0 23.56-19.167 42.727-42.727 42.727h-9.773v15h9.773c23.56 0 42.727 19.167 42.727 42.727v9.773h15v-9.773c0-23.56 19.167-42.727 42.727-42.727h9.773v-15h-9.773c-23.56 0-42.727-19.167-42.727-42.727zm-7.5 72.021c-5.161-9.082-12.712-16.633-21.794-21.794 9.082-5.161 16.633-12.712 21.794-21.794 5.161 9.082 12.712 16.633 21.794 21.794-9.082 5.161-16.633 12.712-21.794 21.794z"/><path d="m503.81 37.403c-16.108 0-29.213-13.105-29.213-29.213v-8.19h-15v8.19c0 16.108-13.104 29.213-29.212 29.213h-8.19v15h8.19c16.108 0 29.212 13.104 29.212 29.212v8.19h15v-8.19c0-16.108 13.105-29.212 29.213-29.212h8.19v-15zm-36.713 19.6c-3.21-4.773-7.328-8.89-12.101-12.101 4.773-3.21 8.89-7.328 12.101-12.101 3.21 4.773 7.328 8.89 12.101 12.101-4.773 3.211-8.89 7.328-12.101 12.101z"/><path d="m203.5 158.5h15v15h-15z"/><path d="m233.5 158.5h15v15h-15z"/></g></svg>