<svg id="Capa_1" enable-background="new 0 0 512 512" height="512" viewBox="0 0 512 512" width="512" xmlns="http://www.w3.org/2000/svg"><g><path d="m67.5 401.773v-9.773h-15v9.773c0 23.56-19.167 42.727-42.727 42.727h-9.773v15h9.773c23.56 0 42.727 19.167 42.727 42.727v9.773h15v-9.773c0-23.56 19.167-42.727 42.727-42.727h9.773v-15h-9.773c-23.56 0-42.727-19.167-42.727-42.727zm-7.5 72.021c-5.161-9.082-12.712-16.633-21.794-21.794 9.082-5.161 16.633-12.712 21.794-21.794 5.161 9.082 12.712 16.633 21.794 21.794-9.082 5.161-16.633 12.712-21.794 21.794z"/><path d="m503.811 37.403c-16.108 0-29.213-13.105-29.213-29.213v-8.19h-15v8.19c0 16.108-13.104 29.213-29.213 29.213h-8.19v15h8.19c16.108 0 29.213 13.104 29.213 29.212v8.19h15v-8.19c0-16.108 13.104-29.212 29.213-29.212h8.189v-15zm-36.713 19.6c-3.21-4.773-7.328-8.89-12.101-12.101 4.772-3.21 8.891-7.328 12.101-12.101 3.21 4.773 7.328 8.891 12.101 12.101-4.773 3.211-8.891 7.328-12.101 12.101z"/><path d="m256 53.5c-111.659 0-202.5 90.841-202.5 202.5s90.841 202.5 202.5 202.5 202.5-90.841 202.5-202.5-90.841-202.5-202.5-202.5zm147.095 86.36-45.12 32.781 16.423-61.917c10.586 8.644 20.214 18.415 28.697 29.136zm-230.432 245.141-18.441 12.118 19.025-71.726 45.153-32.806c4.154 4.267 9.021 7.833 14.414 10.499l-17.511 53.893-29.472 19.368 8.238 12.535 13.819-9.081-16.917 52.064c-12.502-4.638-24.379-10.571-35.468-17.639l25.398-16.69zm173.274-136.501v15h18.677l57.051 45.688-74.094 4.071-45.138-32.795c2.752-5.202 4.656-10.917 5.525-16.964h22.916v-15h-22.916c-.869-6.047-2.772-11.761-5.525-16.964l45.847-33.31 73.009 3.429-57.55 46.845zm-52.337-29.087c-4.154-4.268-9.022-7.833-14.415-10.5l17.511-53.893 61.082-40.14-19.025 71.727zm10.512-87.215 16.917-52.064c12.502 4.638 24.379 10.571 35.468 17.639zm-14.61-3.577-23.14-59.83c13.923.762 27.446 3.048 40.405 6.697zm-81.271 4.634-53.836-34.768c11.404-7.382 23.656-13.559 36.576-18.352zm-2.997-57.767c12.548-3.534 25.627-5.782 39.083-6.613l-22.163 58.688zm50.157 6.522 26.768 69.209-17.239 53.054c-2.902-.499-5.879-.774-8.921-.774s-6.019.275-8.921.774l-17.509-53.888zm.609 136.49c20.678 0 37.5 16.822 37.5 37.5s-16.822 37.5-37.5 37.5-37.5-16.822-37.5-37.5 16.822-37.5 37.5-37.5zm0 90c3.042 0 6.02-.275 8.921-.774l17.509 53.887-25.822 68.377-26.768-69.21 17.238-53.054c2.902.499 5.88.774 8.922.774zm-92.278 5.273-73.009-3.429 57.55-46.845h55.781c.869 6.047 2.772 11.761 5.525 16.964zm40.322-65.273h-56.657l-57.051-45.688 74.094-4.071 45.138 32.795c-2.751 5.203-4.655 10.917-5.524 16.964zm-122.89-60.206c4.991-12.846 11.358-25.01 18.921-36.31l45.132 32.79zm42.236 60.206h-54.727c.533-13.488 2.485-26.618 5.733-39.235zm1.112 15-49.763 40.506c-3.448-13.007-5.525-26.563-6.076-40.506zm19.806 64.378-44.233 32.137c-7.322-10.94-13.528-22.686-18.446-35.08zm78.19 55.501 23.141 59.83c-13.923-.762-27.446-3.048-40.405-6.697zm67.348 1.058 16.92 52.075c-12.548 3.534-25.627 5.782-39.083 6.613zm13.923-5.692 53.835 34.768c-11.404 7.382-23.656 13.559-36.576 18.352zm-7.343-22.599-17.24-53.06c5.392-2.666 10.26-6.231 14.414-10.499l45.863 33.321 19.3 70.495zm134.42-32.44c-4.991 12.846-11.358 25.01-18.921 36.31l-45.132-32.79zm-42.236-60.206h54.727c-.533 13.488-2.485 26.618-5.733 39.235zm-1.112-15 49.763-40.506c3.448 13.007 5.525 26.563 6.076 40.506zm-19.806-64.378 44.233-32.137c7.322 10.94 13.528 22.687 18.446 35.081zm-231.123-72.556 7.195 26.406 14.473-3.943-5.027-18.452 62.365 40.277 17.24 53.06c-5.392 2.666-10.26 6.231-14.414 10.499l-45.863-33.321-10.15-37.071-14.467 3.961 5.204 19.006-44.219-32.127c8.206-10.373 17.482-19.862 27.663-28.295zm-27.663 260.575 45.119-32.781-16.423 61.916c-10.586-8.644-20.214-18.415-28.696-29.135zm266.513 28.303-16.544-60.431 44.22 32.127c-8.21 10.377-17.49 19.868-27.676 28.304z"/><path d="m233.5 241h15v15h-15z"/><path d="m188.5 166h15v15h-15z"/></g></svg>