<svg id="Capa_1" enable-background="new 0 0 512 512" height="512" viewBox="0 0 512 512" width="512" xmlns="http://www.w3.org/2000/svg"><g><path d="m67.5 401.773v-9.773h-15v9.773c0 23.56-19.167 42.727-42.727 42.727h-9.773v15h9.773c23.56 0 42.727 19.167 42.727 42.727v9.773h15v-9.773c0-23.56 19.167-42.727 42.727-42.727h9.773v-15h-9.773c-23.56 0-42.727-19.167-42.727-42.727zm-7.5 72.021c-5.161-9.082-12.712-16.633-21.794-21.794 9.082-5.161 16.633-12.712 21.794-21.794 5.161 9.082 12.712 16.633 21.794 21.794-9.082 5.161-16.633 12.712-21.794 21.794z"/><path d="m503.81 37.403c-16.108 0-29.213-13.105-29.213-29.213v-8.19h-15v8.19c0 16.108-13.104 29.213-29.212 29.213h-8.19v15h8.19c16.108 0 29.212 13.104 29.212 29.212v8.19h15v-8.19c0-16.108 13.105-29.212 29.213-29.212h8.19v-15zm-36.713 19.6c-3.21-4.773-7.328-8.89-12.101-12.101 4.773-3.21 8.89-7.328 12.101-12.101 3.21 4.773 7.328 8.89 12.101 12.101-4.773 3.211-8.89 7.328-12.101 12.101z"/><path d="m256.527 37.358-109.289 44.96 5.707 13.872 19.061-7.841-12.757 59.8-38.52-38.706 18.124-7.456-5.707-13.872-31.377 12.908-64.411 154.45 63.666 154.758 154.449 64.412 154.758-63.666 64.412-154.449-63.667-154.758zm6.826 284.581 33.835-13.919 37.881 38.064-71.716 29.503zm29.89-28.516-37.37 15.374-37.296-15.554-15.374-37.37 15.554-37.296 37.37-15.374 37.296 15.554 15.374 37.37zm4.196-89.243-33.792-14.092v-53.756l71.856 29.968zm-25.34-80.576 52.611-35.237 13.659 62.874zm-23.452 66.457-33.835 13.919-37.881-38.064 71.716-29.503zm-44.467 24.5-14.092 33.792h-53.756l29.967-71.856zm-14.119 48.792 13.919 33.835-38.064 37.881-29.503-71.716zm24.5 44.467 33.792 14.092v53.756l-71.856-29.968zm123.666 53.185-12.424 62.648-54.079-35.29zm-30.407-63.566 14.092-33.792h18.598v-15h-18.571l-13.919-33.835 38.064-37.881 29.503 71.716h-19.27v15h19.351l-29.967 71.856zm53.278-123.439 62.556 13.345-35.238 53.06zm-7.928-25.283-13.091-60.262 51.897 21.643zm-89.523-37.506v-54.632l50.269 20.964zm-15-.159-50.425-33.487 50.425-20.745zm-8.243 12.532-66.404 27.318 13.345-62.556zm-116.747 116.191-35.29-53.626 62.969-12.745zm-12.312 8.578h-54.766l21.244-50.939zm-.294 15-33.488 50.424-20.743-50.424zm12.533 8.243 27.318 66.404-62.555-13.346zm35.246 91.688 5.161 23.758 14.658-3.184-5.018-23.1 66.27 27.637-52.613 35.237-5.307-24.431-14.658 3.184 4.596 21.159-51.895-21.643zm89.523 37.505v54.632l-50.27-20.965zm15 .023 51.101 33.346-51.101 21.022zm89.568-36.79 38.349 38.535-50.077 20.601zm35.475-91.923 35.237 52.611-62.874 13.659zm12.393-8.452h54.632l-20.964 50.269zm.159-15 33.487-50.426 20.745 50.426zm-37.097-89.397 38.706-38.52 21.095 51.277zm-253.753-39.226 38.454 38.64-59.599 12.062zm-21.75 219.968 59.802 12.758-38.706 38.52zm313.554 51.984-38.619-38.805 60.262-13.091z"/><path d="m226.075 233.5h15v15h-15z"/><path d="m166.138 218.5h15v15h-15z"/><path d="m211.015 166h15v15h-15z"/></g></svg>