<svg id="Capa_1" enable-background="new 0 0 512 512" height="512" viewBox="0 0 512 512" width="512" xmlns="http://www.w3.org/2000/svg"><g><path d="m67.5 401.773v-9.773h-15v9.773c0 23.56-19.167 42.727-42.727 42.727h-9.773v15h9.773c23.56 0 42.727 19.167 42.727 42.727v9.773h15v-9.773c0-23.56 19.167-42.727 42.727-42.727h9.773v-15h-9.773c-23.56 0-42.727-19.167-42.727-42.727zm-7.5 72.021c-5.161-9.082-12.712-16.633-21.794-21.794 9.082-5.161 16.633-12.712 21.794-21.794 5.161 9.082 12.712 16.633 21.794 21.794-9.082 5.161-16.633 12.712-21.794 21.794z"/><path d="m503.81 37.403c-16.108 0-29.213-13.105-29.213-29.213v-8.19h-15v8.19c0 16.108-13.104 29.213-29.212 29.213h-8.19v15h8.19c16.108 0 29.212 13.104 29.212 29.212v8.19h15v-8.19c0-16.108 13.105-29.212 29.213-29.212h8.19v-15zm-36.713 19.6c-3.21-4.773-7.328-8.89-12.101-12.101 4.773-3.21 8.89-7.328 12.101-12.101 3.21 4.773 7.328 8.89 12.101 12.101-4.773 3.211-8.89 7.328-12.101 12.101z"/><path d="m248.5 443.5h15v15h-15z"/><path d="m172.122 53.5-118.622 118.622v167.756l118.622 118.622h61.378v-15h-47.047l6.213-15h126.667l6.213 15h-47.046v15h61.378l118.622-118.622v-167.756l-118.622-118.622zm142.43 324.26 63.207-63.207 30 12.427-80.781 80.781zm-129.531 30-80.781-80.781 30-12.427 63.207 63.207zm198.479-107.066v-89.389l30-12.426v114.241zm-107.658-112.194h-39.683l-18.64-45h76.962zm-81.609 33.808-45.077-18.563 54.505-54.505 18.639 45zm106.461-93.808h-89.388l-12.426-30h114.241zm-103.246 5.74-63.317 63.317-30.051-12.375 80.942-80.942zm-8.948 101.929v39.672l-45 18.639v-76.843zm5.74 53.531 28.06 28.06-18.639 45-54.42-54.42zm40.013 18.8-30.753-30.753v-43.493l30.753-30.753h43.493l30.753 30.753v43.493l-30.752 30.753zm83.507-18.8 45 18.639-54.42 54.42-18.639-45zm5.74-13.858v-39.683l45-18.639v76.962zm54.26-78.394-25.933-25.933-10.606 10.606 21.54 21.54-45 18.639-28.06-28.06 18.639-45 21.519 21.519 10.606-10.606-25.912-25.912 12.427-30 80.781 80.781zm-58.426-113.948h-126.668l-6.213-15h139.094zm-140.526 5.74-89.754 89.754-15.026-6.188 98.567-98.567zm-95.308 103.69v78.049h15v-71.872l30 12.354v89.233l-30 12.426v-27.078h-15v33.291l-15 6.213v-138.793zm5.74 140.262 89.568 89.568-6.213 15-98.355-98.355zm146.918-9.692h39.683l18.64 45h-76.962zm186.602 9.692 15 6.213-98.354 98.354-6.213-15zm5.74-13.858v-126.668l15-6.213v139.094zm-5.74-140.526-89.568-89.568 6.213-15 98.354 98.354zm-223.881 234.692 12.426-30h89.388l12.426 30z"/><path d="m218.5 233.5h15v15h-15z"/><path d="m248.5 233.5h15v15h-15z"/></g></svg>