<svg id="Capa_1" enable-background="new 0 0 512 512" height="512" viewBox="0 0 512 512" width="512" xmlns="http://www.w3.org/2000/svg"><g><path d="m67.5 401.773v-9.773h-15v9.773c0 23.56-19.167 42.727-42.727 42.727h-9.773v15h9.773c23.56 0 42.727 19.167 42.727 42.727v9.773h15v-9.773c0-23.56 19.167-42.727 42.727-42.727h9.773v-15h-9.773c-23.56 0-42.727-19.167-42.727-42.727zm-7.5 72.021c-5.161-9.082-12.712-16.633-21.794-21.794 9.082-5.161 16.633-12.712 21.794-21.794 5.161 9.082 12.712 16.633 21.794 21.794-9.082 5.161-16.633 12.712-21.794 21.794z"/><path d="m503.811 37.403c-16.108 0-29.213-13.105-29.213-29.213v-8.19h-15v8.19c0 16.108-13.104 29.213-29.213 29.213h-8.19v15h8.19c16.108 0 29.213 13.104 29.213 29.212v8.19h15v-8.19c0-16.108 13.104-29.212 29.213-29.212h8.189v-15zm-36.713 19.6c-3.21-4.773-7.328-8.89-12.101-12.101 4.772-3.21 8.891-7.328 12.101-12.101 3.21 4.773 7.328 8.891 12.101 12.101-4.773 3.211-8.891 7.328-12.101 12.101z"/><path d="m370.707 84.329-74.427-30.829h-80.56l-74.427 30.829-56.964 56.964-30.829 74.427v80.56l30.829 74.427 56.964 56.964 74.427 30.829h80.56l29.583-12.254-5.74-13.858-26.827 11.112h-21.466l41.057-50.155 64.5 6.434-15.176 15.176-26.97 11.171 5.74 13.858 29.726-12.312 56.965-56.964 30.828-74.428v-80.56l-30.828-74.427zm-8.496 12.716 15.177 15.178-64.499 6.433-41.057-50.156h21.464zm-155.187 277.189-5.258-42.197 38.814 16.077zm.001-236.469 33.556 26.12-38.814 16.077zm107.146 60.064 24.095 58.171-24.095 58.171-58.171 24.095-58.171-24.095-24.095-58.171 24.095-58.171 58.171-24.095zm-100.19-73.658 42.019-51.33 42.02 51.33-42.02 32.707zm-28.071 61.739-52.84 6.584-6.584-66.008 66.008 6.584zm-5.948 15.857-16.077 38.814-26.12-33.556zm0 108.465-42.198-5.258 26.12-33.556zm-46.893 9.273 52.84 6.584 6.584 52.84-66.008 6.584zm177.162 12.534-5.257 42.197-33.556-26.12zm37.884-60.619 26.119 33.554-42.195 5.258zm39.714 26.6-32.709-42.019 32.709-42.019 51.329 42.019zm-39.714-57.439-16.077-38.812 42.195 5.258zm-76.696-76.696 33.556-26.12 5.258 42.197zm-121.629-66.84 68.914-28.545h21.464l-41.057 50.155-64.497-6.433zm-52.745 52.745 15.177-15.177 6.433 64.496-50.155 41.057v-21.462zm-28.545 143.506v-21.465l18.512 15.154 9.501-11.607-23.673-19.379 51.33-42.019 32.708 42.019-32.708 42.019-15.568-12.744-9.502 11.607 19.554 16.007-6.433 64.497-15.176-15.175zm81.29 121.659-15.178-15.178 64.496-6.433 41.058 50.156h-21.462zm106.208 24.204-42.019-51.33 42.019-32.708 42.02 32.708zm70.09-113.069 52.84-6.584 6.584 66.008-66.008-6.584zm88.867 36.12-15.18 15.18-6.433-64.498 50.157-41.059v21.464zm28.545-122.041-50.156-41.058 2.701-27.079-14.926-1.489-2.19 21.952-52.84-6.584-6.584-52.84 66.009-6.584-2.884 28.907 14.926 1.489 2.222-22.272 15.178 15.178 28.545 68.914v21.466z"/><path d="m211.16 211h15v15h-15z"/><path d="m241.032 211h15v15h-15z"/><path d="m151.117 151h15v15h-15z"/><path d="m248.5 106.191h15v15h-15z"/></g></svg>