<svg id="Capa_1" enable-background="new 0 0 512 512" height="512" viewBox="0 0 512 512" width="512" xmlns="http://www.w3.org/2000/svg"><g><path d="m67.5 401.773v-9.773h-15v9.773c0 23.56-19.167 42.727-42.727 42.727h-9.773v15h9.773c23.56 0 42.727 19.167 42.727 42.727v9.773h15v-9.773c0-23.56 19.167-42.727 42.727-42.727h9.773v-15h-9.773c-23.56 0-42.727-19.167-42.727-42.727zm-7.5 72.021c-5.161-9.082-12.712-16.633-21.794-21.794 9.082-5.161 16.633-12.712 21.794-21.794 5.161 9.082 12.712 16.633 21.794 21.794-9.082 5.161-16.633 12.712-21.794 21.794z"/><path d="m503.811 37.403c-16.108 0-29.213-13.105-29.213-29.213v-8.19h-15v8.19c0 16.108-13.104 29.213-29.213 29.213h-8.19v15h8.19c16.108 0 29.213 13.104 29.213 29.212v8.19h15v-8.19c0-16.108 13.104-29.212 29.213-29.212h8.189v-15zm-36.713 19.6c-3.21-4.773-7.328-8.89-12.101-12.101 4.772-3.21 8.891-7.328 12.101-12.101 3.21 4.773 7.328 8.891 12.101 12.101-4.773 3.211-8.891 7.328-12.101 12.101z"/><path d="m256 37.403c-38.708 0-74.854 23.187-101.778 65.288-26.26 41.062-40.722 95.509-40.722 153.309 0 89.291 34.654 168.72 88.286 202.356l7.971-12.708c-6.428-4.032-12.575-8.871-18.406-14.412l31.361-75.467 23.732 103.234c-7.985-.958-15.884-3.094-23.581-6.428l-5.963 13.765c12.65 5.479 25.806 8.257 39.1 8.257 38.708 0 74.854-23.187 101.778-65.288 26.26-41.062 40.722-95.509 40.722-153.309s-14.462-112.247-40.722-153.309c-26.924-42.102-63.07-65.288-101.778-65.288zm100.894 295.748-13.797 5.886 8.394 19.676-58.427-32.706-12.799-31.008 14.722-14.722 28.018 11.663 14.134 33.13 13.797-5.886-8.101-18.99 35.244 14.671c-2.745 14.496-6.507 28.438-11.232 41.613zm-56.16-66.73v-20.819l27.824-11.445 45.732 22.098-43.494 22.68zm-5.731-34.681-14.725-14.725 11.876-28.48 60.632-34.978-27.304 65.645zm-15.606-51.584-12.972 31.11h-20.824l-11.813-28.704 22.421-103.273zm-13.846-127.182c19.65 2.343 38.48 11.898 55.263 27.858l-31.495 75.53zm-33.812 164.024-14.725 14.725-28.069-11.697-29.365-66.75 59.421 32.774zm-48.254 60.866-45.775-22.119 43.51-22.689 30.046 12.52v20.827zm-14.606-66.2-34.951-14.564c2.659-14.035 6.276-27.547 10.794-40.349zm-5.691 13.878-34.442 17.96c.401-10.574 1.308-20.992 2.705-31.185zm1.699 59.995-33.39 13.775c-1.425-10.217-2.36-20.658-2.765-31.245zm1.999 15.401-22.231 53.447c-4.407-12.623-7.985-25.994-10.646-39.884zm53.021 22.491-60.695 35.013 27.284-65.594 30.504-12.584 14.726 14.725zm-9.465 22.778-30.34 73.009c-9.729-11.64-18.335-25.398-25.599-40.739zm33.242-60.473-17.418-17.417v-24.633l17.418-17.417h24.633l17.418 17.417v24.633l-17.418 17.417zm105.152.711 34.418-17.947c-.4 10.562-1.306 20.969-2.7 31.151zm-1.655-59.949 33.426-13.75c1.383 10.196 2.277 20.614 2.664 31.189zm-2.1-15.356 22.392-53.835c4.473 12.77 8.051 26.243 10.679 40.231zm12.588-77.717-56.007 32.309 30.388-72.874c4.567 5.461 8.944 11.43 13.09 17.914 4.561 7.131 8.74 14.703 12.529 22.651zm-177.251-41.125 10.104 24.55 13.871-5.709-12.678-30.807c16.686-15.694 35.372-25.083 54.863-27.375l-22.838 105.19-13.368-32.482-13.871 5.709 13.382 32.516-55.485-30.603c3.772-7.898 7.928-15.424 12.462-22.514 4.288-6.706 8.821-12.865 13.558-18.475zm65.164 208.436h20.823l11.821 28.64-22.435 103.337-23.17-100.788zm42.703 53.009 32.119 77.817c-16.716 15.76-35.445 25.186-54.981 27.484zm43.401 65.835-29.395-71.216 55.079 30.831c-3.711 7.722-7.788 15.089-12.229 22.035-4.257 6.656-8.756 12.772-13.455 18.35z"/><path d="m241 248.5h15v15h-15z"/></g></svg>