<svg id="Capa_1" enable-background="new 0 0 512 512" height="512" viewBox="0 0 512 512" width="512" xmlns="http://www.w3.org/2000/svg"><g><path d="m67.5 401.773v-9.773h-15v9.773c0 23.56-19.167 42.727-42.727 42.727h-9.773v15h9.773c23.56 0 42.727 19.167 42.727 42.727v9.773h15v-9.773c0-23.56 19.167-42.727 42.727-42.727h9.773v-15h-9.773c-23.56 0-42.727-19.167-42.727-42.727zm-7.5 72.021c-5.161-9.082-12.712-16.633-21.794-21.794 9.082-5.161 16.633-12.712 21.794-21.794 5.161 9.082 12.712 16.633 21.794 21.794-9.082 5.161-16.633 12.712-21.794 21.794z"/><path d="m503.811 37.403c-16.108 0-29.213-13.105-29.213-29.213v-8.19h-15v8.19c0 16.108-13.104 29.213-29.213 29.213h-8.19v15h8.19c16.108 0 29.213 13.104 29.213 29.212v8.19h15v-8.19c0-16.108 13.104-29.212 29.213-29.212h8.189v-15zm-36.713 19.6c-3.21-4.773-7.328-8.89-12.101-12.101 4.772-3.21 8.891-7.328 12.101-12.101 3.21 4.773 7.328 8.891 12.101 12.101-4.773 3.211-8.891 7.328-12.101 12.101z"/><path d="m337.528 60.082-81.527-21.846-81.527 21.844-59.684 59.682-21.793 81.333 21.475 100.196 57.989 88.596 23.382 24.334 10.816-10.393-19.583-20.381 23.414-60.385 43.677 130.206-36.529-38.015-10.816 10.393 49.178 51.179 83.538-86.937 57.988-88.594 21.478-100.196-21.791-81.333zm-197.906 56.063 37.257-37.257 22.442 37.257h-25.298v15h22.705l-30.304 54.143-30.977-54.143h22.51v-15zm162.379 20.212 32.145 57.433h-64.29zm-45.501 50.582-31.227-55.795h62.455zm-33.84-70.794 33.411-55.684 34.153 55.684zm20.484 77.645h-64.29l32.146-57.433zm1.244 15-33.388 73.978-33.386-73.978zm-46.196 82.063h-64.384l32.193-71.331zm57.809-71.331 11.085 24.563 13.672-6.17-13.144-29.125h66.774l-33.388 73.978-13.473-29.853-13.672 6.17 14.337 31.768h-64.384zm90 0 32.191 71.331h-64.384zm-29.727-88.377h60.537l-30.601 53.487zm-2.753-15 21.698-37.159 37.159 37.159zm-11.678-9.748-29.614-48.284 49.987 13.394zm-90.856.046-21.066-34.974 50.106-13.425zm-86.704 169.05-14.297-66.703h44.401zm76.791 30.36-24.437 63.023-41.251-63.023zm90.387 0-35.462 105.713-35.461-105.713zm10.049 17.209 23.413 60.386-67.091 69.82zm9.416-17.209h65.688l-41.252 63.024zm46.688-97.063h44.4l-14.298 66.701zm.638-15 29.465-51.502 13.8 51.502zm-233.886-51.807 29.64 51.807h-43.523z"/><path d="m248.501 331h15v15h-15z"/></g></svg>