<svg id="Capa_1" enable-background="new 0 0 512 512" height="512" viewBox="0 0 512 512" width="512" xmlns="http://www.w3.org/2000/svg"><g><path d="m67.5 401.773v-9.773h-15v9.773c0 23.56-19.167 42.727-42.727 42.727h-9.773v15h9.773c23.56 0 42.727 19.167 42.727 42.727v9.773h15v-9.773c0-23.56 19.167-42.727 42.727-42.727h9.773v-15h-9.773c-23.56 0-42.727-19.167-42.727-42.727zm-7.5 72.021c-5.161-9.082-12.712-16.633-21.794-21.794 9.082-5.161 16.633-12.712 21.794-21.794 5.161 9.082 12.712 16.633 21.794 21.794-9.082 5.161-16.633 12.712-21.794 21.794z"/><path d="m503.81 37.402c-16.108 0-29.213-13.104-29.213-29.213v-8.189h-15v8.189c0 16.108-13.104 29.213-29.212 29.213h-8.19v15h8.19c16.108 0 29.212 13.104 29.212 29.213v8.19h15v-8.19c0-16.108 13.105-29.213 29.213-29.213h8.19v-15zm-36.713 19.601c-3.21-4.772-7.328-8.891-12.101-12.101 4.773-3.21 8.89-7.328 12.101-12.101 3.21 4.772 7.328 8.891 12.101 12.101-4.773 3.21-8.89 7.328-12.101 12.101z"/><path d="m91 421h195v-15h-158.151l128.151-55.397 128.151 55.397h-53.151v15h90v-330h-330zm165-84.606-79.394-80.394 79.394-79.394 24.697 24.697 10.606-10.607-21.784-21.784 126.96-54.883-54.883 126.96-39.325-39.325-10.606 10.607 43.729 43.729zm-85.596-95.404-54.883-126.96 126.96 54.883zm172.093 29.12 53.982 124.877-124.877-53.982zm9.597-15.602 53.906-124.701v249.402zm-96.094-96.094-121.248-52.414h242.496zm-96.094 96.094-25.296 58.517 13.769 5.951 21.124-48.866 70.895 70.895-124.877 53.982 26.768-61.923-13.769-5.951-22.52 52.096v-249.402z"/><path d="m301 406h15v15h-15z"/><path d="m233.5 211h15v15h-15z"/><path d="m158.5 158.5h15v15h-15z"/></g></svg>