<svg id="Capa_1" enable-background="new 0 0 512 512" height="512" viewBox="0 0 512 512" width="512" xmlns="http://www.w3.org/2000/svg"><g><path d="m67.5 401.773v-9.773h-15v9.773c0 23.56-19.167 42.727-42.727 42.727h-9.773v15h9.773c23.56 0 42.727 19.167 42.727 42.727v9.773h15v-9.773c0-23.56 19.167-42.727 42.727-42.727h9.773v-15h-9.773c-23.56 0-42.727-19.167-42.727-42.727zm-7.5 72.021c-5.161-9.082-12.712-16.633-21.794-21.794 9.082-5.161 16.633-12.712 21.794-21.794 5.161 9.082 12.712 16.633 21.794 21.794-9.082 5.161-16.633 12.712-21.794 21.794z"/><path d="m256.073 23.5c-86.69 0-168.195 75.489-165.467 162.857 0 31.79 8.527 66.647 25.345 103.603 13.316 29.262 31.849 59.94 55.084 91.186 45.176 59.636 75.209 85.716 84.965 95.037 9.601-9.069 20.44-17.981 53.16-55.369l-11.37-9.783c-13.468 15.651-25.51 28.308-34.021 36.905v-39.928l71.044-123.237 34.514 24.893c-13.389 24.53-28.719 47.062-42.979 65.976l11.978 9.031c23.882-31.677 42.965-62.804 56.717-92.519 17.484-37.778 26.35-73.373 26.35-105.794.001-89.8-74.195-162.858-165.32-162.858zm21.94 202.027 10.651-15.483 15.157 6.357 28.783 50.086zm-141.341 3.391-23.551 9.633c-4.272-15.656-6.952-31.503-7.43-47.212l74.723 19.687-28.379 11.608 5.679 13.883 28.449-11.637-46.014 80.071c-8.79-16.596-16.653-34.095-22.647-51.987l24.849-10.164zm173.307-150.018 10.875-25.931c14.442 6.814 27.613 15.83 39.061 26.602l-66.469 38.748 10.538-25.126-13.833-5.801-10.715 25.547-20.096-74.397c16.687.36 32.711 3.405 47.645 8.712l-10.839 25.846zm-16.479 116.907v-14.831l15.352-6.279 51.218 13.494-51.537 13.921zm-5.804-28.662-10.376-10.376 6.487-15.468 45.845-26.725-26.6 46.287zm-68.657 13.698v14.385l-15.558 6.364-51.55-13.581 51.214-13.834zm4.519 28.742 10.987 15.97-55.106 41.131 29.341-51.057zm41.083 8.915h-16.742l-13.859-20.146v-19.192l13.022-13.021h18.417l13.022 13.021v19.192zm-1.226-67.36h-14.477l-6.404-15.656 13.556-51.454 13.895 51.443zm-30.316-38.723-26.834-65.604c14.897-5.209 30.542-8.066 46.305-8.3zm-13.795 5.895-67.206-38.621c11.981-11.258 25.629-20.428 40.269-27.234zm9.251 22.616 6.533 15.972-10.151 10.151-15.614-6.548-26.847-46.054zm-122.941 44.055c.038-16.591 2.949-32.816 8.521-48.138l66.476 27.881zm143.156 48.612v144.568l-59.263-102zm157.543-42.357c-.477 16.169-3.287 32.494-7.78 48.622l-67.468-28.297zm-74.395-25.977 66.263-27.104c5.161 14.672 8.029 30.384 8.193 46.722zm-6.248-13.649 38.818-67.549c11.447 11.729 20.945 25.306 27.991 40.221zm-178.181-67.397 38.852 66.648-66.341-27.823c6.863-14.076 16.092-27.172 27.489-38.825zm35.424 287.766c-13.303-17.904-27.569-39.12-40.179-62.222l34.533-24.805 71.502 123.066v40.449c-14.657-14.782-40.375-42.194-65.856-76.488zm80.857 5.993v-144.444l58.815 42.419zm62.847-152.012 67.461 28.294c-5.909 17.361-13.573 34.364-22.147 50.56z"/><path d="m307.812 399.132 11.574 9.541c3.2-3.882 6.396-7.842 9.5-11.771l-11.771-9.297c-3.04 3.847-6.17 7.725-9.303 11.527z"/><path d="m503.81 37.402c-16.108 0-29.213-13.104-29.213-29.213v-8.189h-15v8.189c0 16.108-13.104 29.213-29.212 29.213h-8.19v15h8.19c16.108 0 29.212 13.104 29.212 29.213v8.19h15v-8.19c0-16.108 13.105-29.213 29.213-29.213h8.19v-15zm-36.713 19.601c-3.21-4.772-7.328-8.891-12.101-12.101 4.773-3.21 8.89-7.328 12.101-12.101 3.21 4.772 7.328 8.891 12.101 12.101-4.773 3.21-8.89 7.328-12.101 12.101z"/><path d="m218.5 278.787h15v15h-15z"/></g></svg>