<svg id="Capa_1" enable-background="new 0 0 512 512" height="512" viewBox="0 0 512 512" width="512" xmlns="http://www.w3.org/2000/svg"><g><path d="m67.5 401.773v-9.773h-15v9.773c0 23.56-19.167 42.727-42.727 42.727h-9.773v15h9.773c23.56 0 42.727 19.167 42.727 42.727v9.773h15v-9.773c0-23.56 19.167-42.727 42.727-42.727h9.773v-15h-9.773c-23.56 0-42.727-19.167-42.727-42.727zm-7.5 72.021c-5.161-9.082-12.712-16.633-21.794-21.794 9.082-5.161 16.633-12.712 21.794-21.794 5.161 9.082 12.712 16.633 21.794 21.794-9.082 5.161-16.633 12.712-21.794 21.794z"/><path d="m503.81 37.402c-16.108 0-29.213-13.104-29.213-29.213v-8.189h-15v8.189c0 16.108-13.104 29.213-29.212 29.213h-8.19v15h8.19c16.108 0 29.212 13.104 29.212 29.213v8.19h15v-8.19c0-16.108 13.105-29.213 29.213-29.213h8.19v-15zm-36.713 19.601c-3.21-4.772-7.328-8.891-12.101-12.101 4.773-3.21 8.89-7.328 12.101-12.101 3.21 4.772 7.328 8.891 12.101 12.101-4.773 3.21-8.89 7.328-12.101 12.101z"/><path d="m346.959 77.95-90.488-13.489-91.424 13.486-73.1 36.55-58.805 58.806 222.381 278.662 57.128-71.274-11.704-9.381-37.447 46.718v-45.428l147.883-184.505 40.224-4.678-120.727 151.44 11.729 9.35 136.247-170.906-58.803-58.804zm-9.18 104.138-26.802-15.078 14.297-27.763 40.377 17.194zm-89.279 167.272-91.638-114.829-11.725 9.355 103.363 129.522v45.709l-188.095-235.699 40.208 4.675 33.984 42.584 11.725-9.355-31.304-39.227 19.81-16.309 33.69 30.663 79.983 99.428v53.483zm69.544-228.839-54.544-8.132v-31.714l69.711 10.392zm-69.544-8.045-53.822 7.941-15.707-29.36 69.529-10.258zm-67.851 13.519-44.271 20.921-26.85-24.438 54.628-27.313zm-57.031 29.59-21.374 17.596-42.792-4.976 37.181-37.181zm51.461 26.554-26.702-24.303 39.357-18.599 14.854 27.767zm41.826-20.173-14.71-27.497 46.305-6.832v30.68zm46.595-34.411 47.291 7.051-14.095 27.373-33.196-3.689zm68.659-1.68 15.788-30.661 54.582 27.291-24.766 22.79zm83.235 5.177 37.154 37.154-42.458 4.937-19.846-18.95zm-151.894 217.564v-52.717l35.036-43.11-11.641-9.461-30.866 37.979-70.588-87.749 29.581-16.274 40.994-4.733 42.638 4.737 28.763 16.182-30.047 36.97 11.641 9.461 35.318-43.458 34.854-32.071 18.122 17.304z"/><path d="m314.028 349.892h15.371v15h-15.371z" transform="matrix(.625 -.78 .78 .625 -158.361 384.908)"/><path d="m218.5 196h15v15h-15z"/><path d="m248.5 196h15v15h-15z"/></g></svg>