<svg id="Capa_1" enable-background="new 0 0 512 512" height="512" viewBox="0 0 512 512" width="512" xmlns="http://www.w3.org/2000/svg"><g><path d="m67.5 401.773v-9.773h-15v9.773c0 23.56-19.167 42.727-42.727 42.727h-9.773v15h9.773c23.56 0 42.727 19.167 42.727 42.727v9.773h15v-9.773c0-23.56 19.167-42.727 42.727-42.727h9.773v-15h-9.773c-23.56 0-42.727-19.167-42.727-42.727zm-7.5 72.021c-5.161-9.082-12.712-16.633-21.794-21.794 9.082-5.161 16.633-12.712 21.794-21.794 5.161 9.082 12.712 16.633 21.794 21.794-9.082 5.161-16.633 12.712-21.794 21.794z"/><path d="m503.811 37.402c-16.108 0-29.213-13.104-29.213-29.213v-8.189h-15v8.189c0 16.108-13.104 29.213-29.213 29.213h-8.19v15h8.19c16.108 0 29.213 13.104 29.213 29.213v8.19h15v-8.19c0-16.108 13.104-29.213 29.213-29.213h8.189v-15zm-36.713 19.601c-3.21-4.772-7.328-8.891-12.101-12.101 4.772-3.21 8.891-7.328 12.101-12.101 3.21 4.772 7.328 8.891 12.101 12.101-4.773 3.21-8.891 7.328-12.101 12.101z"/><path d="m248.298 428.5h15.128v15h-15.128z"/><path d="m147.09 68.5-108.951 187.5 108.951 187.5h86.272v-15h-67.923l20.326-30.418h144.121l17.676 30.418h-69.199v15h86.548l108.95-187.5-108.951-187.5zm48.623 240.427 45.56 26.96-45.56 26.96zm0-17.43v-69.784l60.287-34.648 60.287 34.647v26.788h15v-18.167l44.826 25.762-44.826 26.526v-19.121h-15v27.997l-60.287 35.675zm120.574-87.085-45.235-25.997 45.235-25.997zm-60.287-34.648-71.073-40.846h142.146zm-15.052 8.651-45.235 25.997v-51.994zm-60.235-47.085v81.703l-71.279 40.964zm0 99.003v52.288l-44.826-26.526zm135.574 78.593v53.92l-45.56-26.96zm15-8.876 71.397-42.25-71.397 122.87zm0-87.018v-81.702l71.28 122.667zm-1.401-99.114h-147.771l-17.676-30.418h183.122zm-160.763 7.5-73.844 127.082h-35.434l91.561-157.572zm-73.844 142.082 23.98 41.269 12.97-7.537-22.912-39.43 71.396 42.249v80.62l-40.753-70.134-12.97 7.537 43.813 75.4-18.953 28.363-92.005-158.337zm160.721 81.102 65.027 38.48h-130.054zm160.72-81.102h35.435l-91.562 157.572-17.717-30.49zm0-15-73.844-127.082 17.717-30.49 91.563 157.572z"/><path d="m218.5 226h15v15h-15z"/><path d="m248.5 226h15v15h-15z"/></g></svg>