<svg id="Capa_1" enable-background="new 0 0 512 512" height="512" viewBox="0 0 512 512" width="512" xmlns="http://www.w3.org/2000/svg"><g><path d="m67.5 401.773v-9.773h-15v9.773c0 23.56-19.167 42.727-42.727 42.727h-9.773v15h9.773c23.56 0 42.727 19.167 42.727 42.727v9.773h15v-9.773c0-23.56 19.167-42.727 42.727-42.727h9.773v-15h-9.773c-23.56 0-42.727-19.167-42.727-42.727zm-7.5 72.021c-5.161-9.082-12.712-16.633-21.794-21.794 9.082-5.161 16.633-12.712 21.794-21.794 5.161 9.082 12.712 16.633 21.794 21.794-9.082 5.161-16.633 12.712-21.794 21.794z"/><path d="m503.811 37.402c-16.108 0-29.213-13.104-29.213-29.213v-8.189h-15v8.189c0 16.108-13.104 29.213-29.213 29.213h-8.19v15h8.19c16.108 0 29.213 13.104 29.213 29.213v8.19h15v-8.19c0-16.108 13.104-29.213 29.213-29.213h8.189v-15zm-36.713 19.601c-3.21-4.772-7.328-8.891-12.101-12.101 4.772-3.21 8.891-7.328 12.101-12.101 3.21 4.772 7.328 8.891 12.101 12.101-4.773 3.21-8.891 7.328-12.101 12.101z"/><path d="m126.023 53.5-89.647 96.005 219.624 314.598 39.503-56.587-12.299-8.586-19.704 28.224v-60.179l90.421-69.343-44.071 63.129 12.299 8.586 153.475-219.842-89.647-96.005zm42.653 60.699 49.707 10.132-72.362 14.734zm26.29-9.949 61.034-20.345 61.022 20.341-61.07 12.436zm-26.428-7.002-23.458-28.748h109.704zm-12.438 8.482-34.412 37.77h-59.182l66.395-71.104zm-36.843 52.77 36.737 136.145-95.044-136.145zm129.243 268.654-90.42-129.521 90.42 69.342zm7.494-94.612-55.337-82.373-12.451 8.365 59.999 89.312-78.58-60.263-25.574-94.778 35.187 52.377 12.451-8.365-54.215-80.703 118.48-24.125 118.353 24.125zm37.529-208.202 49.788-10.138 22.54 24.881zm49.939-27.091-86.246-28.749h109.704zm-79.671 250.6 104.284-155.509-25.7 95.243zm128.952-189.349h17.449v-15h-20.099l-34.205-37.756 27.211-33.348 66.395 71.104h-22.599v15h24.155l-95.044 136.146z"/><path d="m295.533 376.298h14.762v14.999h-14.762z" transform="matrix(.572 -.82 .82 .572 -185.179 412.481)"/><path d="m173.5 166h15v15h-15z"/><path d="m203.5 166h15v15h-15z"/></g></svg>