<svg id="Capa_1" enable-background="new 0 0 512 512" height="512" viewBox="0 0 512 512" width="512" xmlns="http://www.w3.org/2000/svg"><g><path d="m67.5 401.773v-9.773h-15v9.773c0 23.56-19.167 42.727-42.727 42.727h-9.773v15h9.773c23.56 0 42.727 19.167 42.727 42.727v9.773h15v-9.773c0-23.56 19.167-42.727 42.727-42.727h9.773v-15h-9.773c-23.56 0-42.727-19.167-42.727-42.727zm-7.5 72.021c-5.161-9.082-12.712-16.633-21.794-21.794 9.082-5.161 16.633-12.712 21.794-21.794 5.161 9.082 12.712 16.633 21.794 21.794-9.082 5.161-16.633 12.712-21.794 21.794z"/><path d="m503.811 37.403c-16.108 0-29.213-13.105-29.213-29.213v-8.19h-15v8.19c0 16.108-13.104 29.213-29.213 29.213h-8.19v15h8.19c16.108 0 29.213 13.104 29.213 29.212v8.19h15v-8.19c0-16.108 13.104-29.212 29.213-29.212h8.189v-15zm-36.713 19.6c-3.21-4.773-7.328-8.89-12.101-12.101 4.772-3.21 8.891-7.328 12.101-12.101 3.21 4.773 7.328 8.89 12.101 12.101-4.773 3.211-8.891 7.328-12.101 12.101z"/><path d="m340.965 115.855c-45.176-59.637-75.209-85.716-84.965-95.038-9.683 9.246-39.853 35.472-84.965 95.038-23.235 31.244-41.769 61.923-55.084 91.185-16.817 36.956-25.345 71.813-25.345 103.604 0 89.8 74.195 162.857 165.394 162.857 16.029 0 31.877-2.255 47.104-6.702l-4.205-14.398c-8.776 2.563-17.783 4.32-26.917 5.269l43.707-56.195 33.305 25.447c-10.735 8.275-22.726 15.225-35.802 20.515l5.625 13.905c29.965-12.123 55.497-32.499 73.836-58.927 18.804-27.096 28.742-58.831 28.742-91.771 0-31.791-8.527-66.648-25.345-103.604-13.317-29.262-31.85-59.941-55.085-91.185zm23.439 202.169-22.319-63.77 57.312 33.02zm-177.856 70.896-28.048 22.224v-58.285zm9.21 11.841 44.258 56.903c-28.893-3.015-55.37-14.103-77.043-30.925zm29.189 13.098 31.101 15.551 31.518-16.21-31.566 40.584zm84.483-28.771-53.478 27.503-52.35-26.175-44.174-56.795 10.329-29.511-14.158-4.955-8.004 22.869-34.993-30.75 57.312-33.02-9.188 26.253 14.158 4.955 14.937-42.677 66.179-38.129 66.178 38.129 30.393 86.837zm-88.322-231.694 24.472 39.953-48.169 27.753zm93.481 67.706-48.169-27.753 24.472-39.953zm22.332 12.867 13.723-77.925c21.887 33.842 42.671 74.312 51.412 115.453zm1.645-95.829-12.426 70.558-36.007-102.878-14.158 4.955 8.521 24.347-28.496 46.521-28.496-46.522 28.496-81.416 14.721 42.058 14.158-4.955-10.922-31.204c14.845 15.667 35.062 38.408 55.13 65.417 3.118 4.196 6.289 8.578 9.479 13.119zm-100.523-78.536-51.973 148.495-12.383-70.318c3.105-4.413 6.191-8.675 9.227-12.761 20.067-27.008 40.284-49.749 55.129-65.416zm-76.439 96.058 13.761 78.142-65.421 37.692c8.774-41.295 29.681-81.915 51.66-115.834zm-55.734 145.666 37.63 33.068v74.259c-23.561-26.11-41.725-58.424-37.63-107.327zm247.63 51.533v58.628l-28.603-21.854zm15 56.045v-74.51l37.63-33.068c2.559 39.86-11.597 79.029-37.63 107.578z"/><path d="m203.5 248.5h15v15h-15z"/><path d="m233.5 248.5h15v15h-15z"/></g></svg>