<svg id="Capa_1" enable-background="new 0 0 512 512" height="512" viewBox="0 0 512 512" width="512" xmlns="http://www.w3.org/2000/svg"><g><path d="m67.5 401.773v-9.773h-15v9.773c0 23.56-19.167 42.727-42.727 42.727h-9.773v15h9.773c23.56 0 42.727 19.167 42.727 42.727v9.773h15v-9.773c0-23.56 19.167-42.727 42.727-42.727h9.773v-15h-9.773c-23.56 0-42.727-19.167-42.727-42.727zm-7.5 72.021c-5.161-9.082-12.712-16.633-21.794-21.794 9.082-5.161 16.633-12.712 21.794-21.794 5.161 9.082 12.712 16.633 21.794 21.794-9.082 5.161-16.633 12.712-21.794 21.794z"/><path d="m503.811 37.402c-16.108 0-29.213-13.104-29.213-29.213v-8.189h-15v8.189c0 16.108-13.104 29.213-29.213 29.213h-8.19v15h8.19c16.108 0 29.213 13.104 29.213 29.213v8.19h15v-8.19c0-16.108 13.104-29.213 29.213-29.213h8.189v-15zm-36.713 19.601c-3.21-4.772-7.328-8.891-12.101-12.101 4.772-3.21 8.891-7.328 12.101-12.101 3.21 4.772 7.328 8.891 12.101 12.101-4.773 3.21-8.891 7.328-12.101 12.101z"/><path d="m338.081 404.499h15.238v15h-15.238z" transform="matrix(.866 -.5 .5 .866 -159.685 228.05)"/><path d="m68.551 147.776v216.447l187.449 108.224 73.338-42.342-7.5-12.99-64.897 37.469 56.851-98.469h113.702l-64.867 37.45 7.5 12.99 73.322-42.332v-216.447l-187.449-108.223zm80.495 93.224-40.481-70.115h80.962zm53.563-62.774 41.735 70.274h-82.307zm40.39 85.274-40.481 70.115-40.481-70.115zm53.472-92.615-39.818 68.966-40.958-68.966h25.305v-15h-25.492l40.481-70.116 40.482 70.116h-40.482v15zm12.99 7.499 40.481 70.116h-80.963zm-111.274-22.499h-113.681l170.521-98.45zm-57.801 100.115-19.672 34.073 12.99 7.5 15.342-26.573 40.481 70.115h-80.962l17.057-29.543-12.99-7.5-29.081 50.37v-196.884zm57.802 100.115 56.84 98.45-170.521-98.45zm58.647-86.581 42.511 71.581h-83.839zm13.863-6.034h79.245l-39.063 67.659zm51.754-92.615h80.962l-40.481 70.115zm105.997-13.363v196.956l-56.856-98.478zm-114.657-1.637-56.852-98.469 170.553 98.469zm-57.803 270.346-40.481-70.116h80.963zm66.463-85.116 40.481-70.115 40.481 70.115z"/><path d="m173.5 121h15v15h-15z"/><path d="m143.5 188.5h15v15h-15z"/></g></svg>