<svg id="Capa_1" enable-background="new 0 0 512 512" height="512" viewBox="0 0 512 512" width="512" xmlns="http://www.w3.org/2000/svg"><g><path d="m67.5 401.773v-9.773h-15v9.773c0 23.56-19.167 42.727-42.727 42.727h-9.773v15h9.773c23.56 0 42.727 19.167 42.727 42.727v9.773h15v-9.773c0-23.56 19.167-42.727 42.727-42.727h9.773v-15h-9.773c-23.56 0-42.727-19.167-42.727-42.727zm-7.5 72.021c-5.161-9.082-12.712-16.633-21.794-21.794 9.082-5.161 16.633-12.712 21.794-21.794 5.161 9.082 12.712 16.633 21.794 21.794-9.082 5.161-16.633 12.712-21.794 21.794z"/><path d="m503.81 37.402c-16.108 0-29.213-13.104-29.213-29.213v-8.189h-15v8.189c0 16.108-13.104 29.213-29.212 29.213h-8.19v15h8.19c16.108 0 29.212 13.104 29.212 29.213v8.19h15v-8.19c0-16.108 13.105-29.213 29.213-29.213h8.19v-15zm-36.713 19.601c-3.21-4.772-7.328-8.891-12.101-12.101 4.773-3.21 8.89-7.328 12.101-12.101 3.21 4.772 7.328 8.891 12.101 12.101-4.773 3.21-8.89 7.328-12.101 12.101z"/><path d="m256 34.296-61.054 61.054c-42.911 42.912-66.543 99.965-66.543 160.65s23.632 117.738 66.543 160.65l61.054 61.054 61.054-61.054c27.419-27.42 47.458-61.519 57.949-98.609l-14.434-4.082c-3.544 12.527-8.271 24.683-14.053 36.317l-25.127-50.387 14.673-36.389h32.407c-.432 11.97-1.853 23.998-4.347 35.971l14.685 3.059c15.697-75.364-7.389-152.814-61.753-207.18zm65.363 177.564 24.946-50.612c13.543 27.091 21.128 56.815 22.178 87.252h-32.416zm-125.475 183.836c-8.151-9.306-15.35-19.159-21.598-29.434l23.931-47.499 23.016 57.082zm31.188-5.37 25.162 62.403-46.048-46.048zm57.933-.21 21.226 16.14-46.472 46.473zm-12.738-9.747-16.271 41.579-16.282-41.568 16.317-15.589zm-5.379-25.95 26.574-25.388-14.794 36.69zm-33.558 11.316-14.946-37.067 26.814 25.729zm-67.82-15.391c-13.539-27.333-20.819-56.998-21.866-86.844h32.289l14.816 36.746zm10.415-101.844h-32.281c1.051-29.981 8.397-59.778 22.054-87.213l5.5 11.174 13.458-6.625-10.107-20.533c6.326-10.345 13.619-20.259 21.878-29.616l24.965 19.549-23.268 57.962-6.762-13.738-13.458 6.625 12.71 25.822zm84.413-188.649 45.3 45.3-20.774 15.796zm-33.127 60.889-20.44-16.006 44.883-44.883zm6.281 24.619 11.612 11.04-25.936 24.645zm6.209-14.795 16.295-41.264 16.297 41.264-16.301 15.489zm38.798 14.793 14.343 35.729-25.966-24.686zm35.354 47.805-23.193-57.777 25.313-19.248c8.047 9.167 15.206 18.93 21.474 29.156zm23.851 173.063c-6.224 10.221-13.307 19.933-21.195 29.004l-25.689-19.534 23.072-57.221zm-30.637-70.936-51.013 48.736-51.343-49.264-15.632-38.767 16.66-41.502 50.248-47.746 50.289 47.811 16.634 41.437z"/><path d="m218.5 218.5h15v15h-15z"/><path d="m248.5 218.5h15v15h-15z"/></g></svg>