<svg id="Capa_1" enable-background="new 0 0 512 512" height="512" viewBox="0 0 512 512" width="512" xmlns="http://www.w3.org/2000/svg"><g><path d="m67.5 401.773v-9.773h-15v9.773c0 23.56-19.167 42.727-42.727 42.727h-9.773v15h9.773c23.56 0 42.727 19.167 42.727 42.727v9.773h15v-9.773c0-23.56 19.167-42.727 42.727-42.727h9.773v-15h-9.773c-23.56 0-42.727-19.167-42.727-42.727zm-7.5 72.021c-5.161-9.082-12.712-16.633-21.794-21.794 9.082-5.161 16.633-12.712 21.794-21.794 5.161 9.082 12.712 16.633 21.794 21.794-9.082 5.161-16.633 12.712-21.794 21.794z"/><path d="m503.81 37.402c-16.108 0-29.213-13.104-29.213-29.213v-8.189h-15v8.189c0 16.108-13.104 29.213-29.212 29.213h-8.19v15h8.19c16.108 0 29.212 13.104 29.212 29.213v8.19h15v-8.19c0-16.108 13.105-29.213 29.213-29.213h8.19v-15zm-36.713 19.601c-3.21-4.772-7.328-8.891-12.101-12.101 4.773-3.21 8.89-7.328 12.101-12.101 3.21 4.772 7.328 8.891 12.101 12.101-4.773 3.21-8.89 7.328-12.101 12.101z"/><path d="m248.5 428.5h15.064v15h-15.064z"/><path d="m146.692 68.5-109.375 187.5 109.375 187.5h86.808v-15h-69.442l26.452-45.347h130.98l26.452 45.347h-69.442v15h86.808l109.375-187.5-109.375-187.5zm152.555 246.751 30.188-51.751h53.103l-56.74 97.269zm-113.045 45.517-27.982-47.969-12.957 7.559 32.256 55.295-26.519 45.462-91.942-157.615h53.039l25.022 42.896 12.957-7.559-20.614-35.337h53.103l30.188 51.751zm100.054-171.52h-60.512l-26.484-45.401h113.48zm-103.691 59.252h-53.103l56.74-97.269 26.551 45.517zm138.925-119.653h-130.98l-26.452-45.347h183.884zm-143.971 7.5-65.422 112.153h-53.039l91.942-157.615zm48.225 171.405-30.189-51.752 30.188-51.752h60.513l10.518 18.031 12.957-7.559-10.484-17.972 26.551-45.517 56.74 97.269h-53.103l-11.439-19.611-12.957 7.559 11.406 19.552-30.188 51.752zm174.159-44.252h53.039l-91.942 157.615-26.52-45.462zm0-15-65.423-112.153 26.52-45.462 91.942 157.615zm-200.643 119.653 26.484-45.401h60.512l26.484 45.401z"/><path d="m233.5 218.5h15v15h-15z"/><path d="m196.032 98.5h15v15h-15z"/><path d="m226.032 98.5h15v15h-15z"/></g></svg>