<svg id="Capa_1" enable-background="new 0 0 512 512" height="512" viewBox="0 0 512 512" width="512" xmlns="http://www.w3.org/2000/svg"><g><path d="m67.5 401.773v-9.773h-15v9.773c0 23.56-19.167 42.727-42.727 42.727h-9.773v15h9.773c23.56 0 42.727 19.167 42.727 42.727v9.773h15v-9.773c0-23.56 19.167-42.727 42.727-42.727h9.773v-15h-9.773c-23.56 0-42.727-19.167-42.727-42.727zm-7.5 72.021c-5.161-9.082-12.712-16.633-21.794-21.794 9.082-5.161 16.633-12.712 21.794-21.794 5.161 9.082 12.712 16.633 21.794 21.794-9.082 5.161-16.633 12.712-21.794 21.794z"/><path d="m503.811 37.402c-16.108 0-29.213-13.104-29.213-29.213v-8.189h-15v8.189c0 16.108-13.104 29.213-29.213 29.213h-8.19v15h8.19c16.108 0 29.213 13.104 29.213 29.213v8.19h15v-8.19c0-16.108 13.104-29.213 29.213-29.213h8.189v-15zm-36.713 19.601c-3.21-4.772-7.328-8.891-12.101-12.101 4.772-3.21 8.891-7.328 12.101-12.101 3.21 4.772 7.328 8.891 12.101 12.101-4.773 3.21-8.891 7.328-12.101 12.101z"/><path d="m256 38.5c-58.096 0-112.715 22.624-153.796 63.704-41.08 41.081-63.704 95.699-63.704 153.796s22.624 112.715 63.704 153.796c41.081 41.08 95.7 63.704 153.796 63.704 58.097 0 112.715-22.624 153.796-63.704 41.08-41.081 63.704-95.699 63.704-153.796s-22.624-112.715-63.704-153.796c-41.081-41.08-95.699-63.704-153.796-63.704zm121.064 210h-82.068l-7.319 7.528 7.319 7.472h81.99c2.147 11.552 6.76 36.373 8.713 46.882l-38.754 25.958-80.338-80.34 80.283-80.283 39.271 27.018zm-67.798 137.662-45.766-9.098v-82.068l-7.5-7.723-7.5 7.723v81.989l-46.881 8.713-25.958-38.753 80.339-80.338 80.283 80.283zm-174.333-122.662h82.071l7.5-7.472-7.5-7.528h-81.992l-8.711-46.882 38.753-25.958 80.339 80.34-80.283 80.283-39.272-27.018zm67.801-137.662 45.766 9.095v82.07l7.472 7.532 7.528-7.532v-81.992l46.882-8.712 25.957 38.754-80.339 80.34-80.284-80.283zm144.417 28.404-20.217-30.183 57.017-6.617zm-83.651-34.487v-52.445l36.662 45.633zm-15-.115-35.648-7.084 35.648-45.008zm-83.57 34.683-37.05-37.05 58.177 6.342zm-10.688 10.526-30.184 20.217-6.616-57.018zm-34.488 83.651h-52.444l45.632-36.662zm-.115 15-7.084 35.647-45.007-35.647zm34.684 83.57-37.05 37.05 6.342-58.177zm10.526 10.688 20.217 30.183-57.017 6.617zm83.651 34.486v52.598l-37.062-45.71zm15 .114 35.648 7.085-35.648 45.009zm83.57-34.681 37.049 37.049-58.176-6.341zm10.688-10.526 30.183-20.217 6.616 57.017zm41.299-46.989c-3.552-19.113-5.617-30.223-6.814-36.662h52.447zm-6.699-51.662 7.085-35.648 45.008 35.648zm-34.681-83.57 37.05-37.05-6.342 58.176zm-40.328-55.181-45.184-55.604c43.73 3.471 83.587 20.896 115.118 47.809zm-121.376-.548-71.135-7.349c31.55-26.886 71.418-44.284 115.154-47.721zm-86.224 85.45-55.603 45.184c3.47-43.729 20.896-83.586 47.809-115.118zm-.479 121.029-7.418 71.482c-26.886-31.55-44.284-71.418-47.721-115.154zm85.381 86.572 45.081 55.593c-43.689-3.49-83.508-20.909-115.015-47.799zm121.376.547 71.135 7.349c-31.551 26.886-71.418 44.284-115.155 47.72zm86.225-85.45 55.602-45.184c-3.47 43.73-20.896 83.586-47.809 115.118zm.547-121.376 7.349-71.135c26.886 31.55 44.284 71.418 47.72 115.155z"/><path d="m203.5 151h15v15h-15z"/><path d="m157.776 203.532h15v15h-15z"/></g></svg>