<svg id="Capa_1" enable-background="new 0 0 512 512" height="512" viewBox="0 0 512 512" width="512" xmlns="http://www.w3.org/2000/svg"><g><path d="m67.5 401.773v-9.773h-15v9.773c0 23.56-19.167 42.727-42.727 42.727h-9.773v15h9.773c23.56 0 42.727 19.167 42.727 42.727v9.773h15v-9.773c0-23.56 19.167-42.727 42.727-42.727h9.773v-15h-9.773c-23.56 0-42.727-19.167-42.727-42.727zm-7.5 72.021c-5.161-9.082-12.712-16.633-21.794-21.794 9.082-5.161 16.633-12.712 21.794-21.794 5.161 9.082 12.712 16.633 21.794 21.794-9.082 5.161-16.633 12.712-21.794 21.794z"/><path d="m503.811 37.402c-16.108 0-29.213-13.104-29.213-29.213v-8.189h-15v8.189c0 16.108-13.104 29.213-29.213 29.213h-8.19v15h8.19c16.108 0 29.213 13.104 29.213 29.213v8.19h15v-8.19c0-16.108 13.104-29.213 29.213-29.213h8.189v-15zm-36.713 19.601c-3.21-4.772-7.328-8.891-12.101-12.101 4.772-3.21 8.891-7.328 12.101-12.101 3.21 4.772 7.328 8.891 12.101 12.101-4.773 3.21-8.891 7.328-12.101 12.101z"/><path d="m135.968 436h97.532v-15h-76.413l21.987-30.021h154.062l22.035 30.021h-76.671v15h97.813l61.065-360h-362.765zm241.261-314.979h-242.458l-32.22-30.021h306.898zm-65.395 215.586 18.549-109.353-14.789-2.508-18.021 106.237h-83.02l-25.559-149.967h134.018l-4.874 28.729 14.789 2.508 5.934-34.98 29.382-27.377-36.316 214.088zm17.105-170.59h-145.878l-32.191-29.995h210.262zm-234.317-61.903 31.067 28.948 28.837 169.198 14.787-2.52-25.534-149.823 29.362 27.359 27.156 159.338-20.037 27.359-8.39-49.232-14.787 2.52 10.833 63.568-21.201 28.948zm95.438 271.865 21.968-29.995h88.083l22.016 29.995zm175.486 33.807-21.26-28.965 42.027-247.762 31.087-28.965z"/><path d="m248.5 421h15v15h-15z"/><path d="m211.032 196h15v15h-15z"/><path d="m241.096 196h15v15h-15z"/></g></svg>