<svg id="Capa_1" enable-background="new 0 0 512 512" height="512" viewBox="0 0 512 512" width="512" xmlns="http://www.w3.org/2000/svg"><g><path d="m67.5 401.773v-9.773h-15v9.773c0 23.56-19.167 42.727-42.727 42.727h-9.773v15h9.773c23.56 0 42.727 19.167 42.727 42.727v9.773h15v-9.773c0-23.56 19.167-42.727 42.727-42.727h9.773v-15h-9.773c-23.56 0-42.727-19.167-42.727-42.727zm-7.5 72.021c-5.161-9.082-12.712-16.633-21.794-21.794 9.082-5.161 16.633-12.712 21.794-21.794 5.161 9.082 12.712 16.633 21.794 21.794-9.082 5.161-16.633 12.712-21.794 21.794z"/><path d="m503.811 37.402c-16.108 0-29.213-13.104-29.213-29.213v-8.189h-15v8.189c0 16.108-13.104 29.213-29.213 29.213h-8.19v15h8.19c16.108 0 29.213 13.104 29.213 29.213v8.19h15v-8.19c0-16.108 13.104-29.213 29.213-29.213h8.189v-15zm-36.713 19.601c-3.21-4.772-7.328-8.891-12.101-12.101 4.772-3.21 8.891-7.328 12.101-12.101 3.21 4.772 7.328 8.891 12.101 12.101-4.773 3.21-8.891 7.328-12.101 12.101z"/><path d="m143.5 458.5h90.606v-15h-64.999l30-30h113.785l30 30h-64.105v15h89.713v-405h-225zm150-85.607v-161.83h-15v157.437h-45v-225h45v52.5h15v-56.893l15-15v263.785zm-64.393-244.393-15-15h83.785l-15 15zm94.393-19.393 30-30v353.785l-30-30zm-10.607-10.607h-113.786l-30-30h173.785zm-124.393 10.607v206.893h15v-191.893l15 15v233.785l-15 15v-56.892h-15v71.893l-30 30v-353.786zm25.607 289.393 15-15h53.785l15 15z"/><path d="m248.915 443.5h14.809v15h-14.809z"/><path d="m248.5 158.5h15v15h-15z"/></g></svg>