<svg id="Capa_1" enable-background="new 0 0 512 512" height="512" viewBox="0 0 512 512" width="512" xmlns="http://www.w3.org/2000/svg"><g><path d="m67.5 401.773v-9.773h-15v9.773c0 23.56-19.167 42.727-42.727 42.727h-9.773v15h9.773c23.56 0 42.727 19.167 42.727 42.727v9.773h15v-9.773c0-23.56 19.167-42.727 42.727-42.727h9.773v-15h-9.773c-23.56 0-42.727-19.167-42.727-42.727zm-7.5 72.021c-5.161-9.082-12.712-16.633-21.794-21.794 9.082-5.161 16.633-12.712 21.794-21.794 5.161 9.082 12.712 16.633 21.794 21.794-9.082 5.161-16.633 12.712-21.794 21.794z"/><path d="m503.81 37.402c-16.108 0-29.213-13.104-29.213-29.213v-8.189h-15v8.189c0 16.108-13.104 29.213-29.212 29.213h-8.19v15h8.19c16.108 0 29.212 13.104 29.212 29.213v8.19h15v-8.19c0-16.108 13.105-29.213 29.213-29.213h8.19v-15zm-36.713 19.601c-3.21-4.772-7.328-8.891-12.101-12.101 4.773-3.21 8.89-7.328 12.101-12.101 3.21 4.772 7.328 8.891 12.101 12.101-4.773 3.21-8.89 7.328-12.101 12.101z"/><path d="m357.72 345.997h15v15.006h-15z" transform="matrix(1 -.028 .028 1 -9.574 10.168)"/><path d="m327.426 175.764-71.426-104.221-71.426 104.221-121.192 35.724 77.047 100.136-3.474 126.3 119.045-42.333 119.044 42.333-1.708-62.13-14.994.412.742 26.981-40.027-55.115-1.267-46.062 38.859 12.648.455 16.547 14.994-.412-.527-19.17 77.047-100.136zm18.441 61.176-44.175-13.021 24.011-33.026 84.128 24.8zm-190.515 77.719 38.859-12.648-1.267 46.062-40.027 55.115zm49.727 42.23 43.421-15.44v40.89l-83.456 29.677zm58.421-15.441 43.421 15.44 40.035 55.126-83.456-29.676zm40.325-1.581-47.825-17.006-47.825 17.006 1.396-50.739-30.953-40.229 48.688-14.353 28.694-41.869 28.695 41.869 48.688 14.353-30.953 40.229zm-14.27-124.763-26.055-38.017v-68.067l50.068 73.056zm-41.055-38.017-26.055 38.017-24.013-33.029 50.068-73.055zm-151.8 53.104 26.971 8.754 4.631-14.268-26.945-8.746 84.941-25.039 24.011 33.026-44.201 13.029-22.603-7.336-4.631 14.268 22.601 7.335 28.105 36.528-38.864 12.65zm264.585 70.202-38.864-12.65 28.123-36.551 65.284-21.686z"/><path d="m218.5 256h15v15h-15z"/><path d="m248.5 256h15v15h-15z"/></g></svg>