<svg id="Capa_1" enable-background="new 0 0 512 512" height="512" viewBox="0 0 512 512" width="512" xmlns="http://www.w3.org/2000/svg"><g><path d="m67.5 401.773v-9.773h-15v9.773c0 23.56-19.167 42.727-42.727 42.727h-9.773v15h9.773c23.56 0 42.727 19.167 42.727 42.727v9.773h15v-9.773c0-23.56 19.167-42.727 42.727-42.727h9.773v-15h-9.773c-23.56 0-42.727-19.167-42.727-42.727zm-7.5 72.021c-5.161-9.082-12.712-16.633-21.794-21.794 9.082-5.161 16.633-12.712 21.794-21.794 5.161 9.082 12.712 16.633 21.794 21.794-9.082 5.161-16.633 12.712-21.794 21.794z"/><path d="m503.81 37.402c-16.108 0-29.213-13.104-29.213-29.213v-8.189h-15v8.189c0 16.108-13.104 29.213-29.212 29.213h-8.19v15h8.19c16.108 0 29.212 13.104 29.212 29.213v8.19h15v-8.19c0-16.108 13.105-29.213 29.213-29.213h8.19v-15zm-36.713 19.601c-3.21-4.772-7.328-8.891-12.101-12.101 4.773-3.21 8.89-7.328 12.101-12.101 3.21 4.772 7.328 8.891 12.101 12.101-4.773 3.21-8.89 7.328-12.101 12.101z"/><path d="m293.302 376.729h15.179v15h-15.179z" transform="matrix(.452 -.892 .892 .452 -177.817 479.126)"/><path d="m256 20.485-157.638 157.638 157.638 311.386 41.28-81.541-13.383-6.775-20.397 40.29v-131.013l91.386-49.503-50.431 99.618 13.383 6.775 60.214-118.942 1.521-.824-.571-1.053 34.636-68.418zm67.516 151.599-20.626-40.515-13.367 6.805 17.162 33.71h-43.185v-84.824l18.91 37.143 13.367-6.805-37.462-73.584 128.07 128.07zm-179.266 63.472-24.539-48.472h67.331l51.161 100.492-33.01-18.277-7.266 13.123 50.573 28.001v131.06l-92.189-182.104 27.818 15.403 7.266-13.123zm104.25 39.184-44.626-87.656h44.626zm-43.184-102.656 43.184-84.824v84.824zm-16.832 0h-62.869l128.07-128.07zm75.016 15h44.626l-44.626 87.656zm10.117 100.846 51.341-100.846h67.331l-25.504 50.378z"/><path d="m151.224 203.5h15v15h-15z"/><path d="m203.5 308.5h15v15h-15z"/></g></svg>