<svg id="Capa_1" enable-background="new 0 0 512 512" height="512" viewBox="0 0 512 512" width="512" xmlns="http://www.w3.org/2000/svg"><g><path d="m67.5 401.773v-9.773h-15v9.773c0 23.56-19.167 42.727-42.727 42.727h-9.773v15h9.773c23.56 0 42.727 19.167 42.727 42.727v9.773h15v-9.773c0-23.56 19.167-42.727 42.727-42.727h9.773v-15h-9.773c-23.56 0-42.727-19.167-42.727-42.727zm-7.5 72.021c-5.161-9.082-12.712-16.633-21.794-21.794 9.082-5.161 16.633-12.712 21.794-21.794 5.161 9.082 12.712 16.633 21.794 21.794-9.082 5.161-16.633 12.712-21.794 21.794z"/><path d="m503.811 37.402c-16.108 0-29.213-13.104-29.213-29.213v-8.189h-15v8.189c0 16.108-13.104 29.213-29.213 29.213h-8.19v15h8.19c16.108 0 29.213 13.104 29.213 29.213v8.19h15v-8.19c0-16.108 13.104-29.213 29.213-29.213h8.189v-15zm-36.713 19.601c-3.21-4.772-7.328-8.891-12.101-12.101 4.772-3.21 8.891-7.328 12.101-12.101 3.21 4.772 7.328 8.891 12.101 12.101-4.773 3.21-8.891 7.328-12.101 12.101z"/><path d="m324.316 393.245h15.247v14.999h-15.247z" transform="matrix(.724 -.689 .689 .724 -184.782 339.274)"/><path d="m81.442 317.258 174.558 166.098 63.781-60.689-10.34-10.867-50.132 47.702 61.689-99.709 69.122-24.764-46.344 44.098 10.34 10.867 76.441-72.736-174.557-285.641zm20.763-5.211 152.202-249.058-63.844 280.714-22.034-7.894-5.06 14.121 27.531 9.863 61.689 99.709-130.811-124.473 26.593 9.527 5.059-14.121zm188.672-102.71-14.627 3.326 30.352 133.454h-101.205l50.603-222.494 16.839 74.04 14.627-3.326-29.873-131.348 152.202 249.059-88.358 31.655zm11.663 151.78-46.54 75.225-46.541-75.225z"/><path d="m188.5 196h15v15h-15z"/><path d="m233.5 301h15v15h-15z"/><path d="m263.5 301h15v15h-15z"/></g></svg>