<svg id="Capa_1" enable-background="new 0 0 512 512" height="512" viewBox="0 0 512 512" width="512" xmlns="http://www.w3.org/2000/svg"><g><path d="m67.5 401.773v-9.773h-15v9.773c0 23.56-19.167 42.727-42.727 42.727h-9.773v15h9.773c23.56 0 42.727 19.167 42.727 42.727v9.773h15v-9.773c0-23.56 19.167-42.727 42.727-42.727h9.773v-15h-9.773c-23.56 0-42.727-19.167-42.727-42.727zm-7.5 72.021c-5.161-9.082-12.712-16.633-21.794-21.794 9.082-5.161 16.633-12.712 21.794-21.794 5.161 9.082 12.712 16.633 21.794 21.794-9.082 5.161-16.633 12.712-21.794 21.794z"/><path d="m503.811 37.402c-16.108 0-29.213-13.104-29.213-29.213v-8.189h-15v8.189c0 16.108-13.104 29.213-29.213 29.213h-8.19v15h8.19c16.108 0 29.213 13.104 29.213 29.213v8.19h15v-8.19c0-16.108 13.104-29.213 29.213-29.213h8.189v-15zm-36.713 19.601c-3.21-4.772-7.328-8.891-12.101-12.101 4.772-3.21 8.891-7.328 12.101-12.101 3.21 4.772 7.328 8.891 12.101 12.101-4.773 3.21-8.891 7.328-12.101 12.101z"/><path d="m387.821 317.135 5.168 33.765-34.312-8.847-30.759-221.187 26.263-23.543 26.754 174.812 14.828-2.27-29.49-192.684-110.016-45.785-110.177 45.422-44.034 285.261 45.325 74.244 108.372 45.101 108.517-44.738 45.694-74.096-7.305-47.725zm-231.269 39.238 22.073 36.154-24.773 25.623-32.28-52.875zm33.335 46.085 18.231 7.587 5.764-13.848-20.701-8.616-21.417-35.08 84.224-21.435 84.22 21.715-21.589 35.007-62.765 25.876-26.972-11.225-5.764 13.848 25.222 10.498v35.31l-82.797-34.457zm73.453 24.345 58.518-24.125 24.263 25.261-82.781 34.128zm69.818-34.014 22.254-36.087 34.987 9.021-32.547 52.775zm9.812-54.786-79.47-20.49v-91.513h-15v91.494l-79.463 20.223 28.713-204.936 50.749 45.814v32.405h15v-32.388l50.952-45.674zm-86.952-172.828-50.057-45.189 50.185-21.986 50.094 22.155zm7.642-80.253v-34.197l81.974 34.115-27.143 24.332zm-15-.019-54.912 24.057-27.048-24.418 81.96-33.789zm-90.52 12.119 26.165 23.621-30.973 221.072-34.311 8.732z"/><path d="m384.292 285.913h15.001v15.175h-15.001z" transform="matrix(.989 -.151 .151 .989 -39.865 62.599)"/><path d="m203.5 181h15v15h-15z"/><path d="m203.5 361h15v15h-15z"/><path d="m233.5 361h15v15h-15z"/></g></svg>