<svg id="Capa_1" enable-background="new 0 0 512 512" height="512" viewBox="0 0 512 512" width="512" xmlns="http://www.w3.org/2000/svg"><g><path d="m67.5 401.773v-9.773h-15v9.773c0 23.56-19.167 42.727-42.727 42.727h-9.773v15h9.773c23.56 0 42.727 19.167 42.727 42.727v9.773h15v-9.773c0-23.56 19.167-42.727 42.727-42.727h9.773v-15h-9.773c-23.56 0-42.727-19.167-42.727-42.727zm-7.5 72.021c-5.161-9.082-12.712-16.633-21.794-21.794 9.082-5.161 16.633-12.712 21.794-21.794 5.161 9.082 12.712 16.633 21.794 21.794-9.082 5.161-16.633 12.712-21.794 21.794z"/><path d="m503.811 37.403c-16.108 0-29.213-13.105-29.213-29.213v-8.19h-15v8.19c0 16.108-13.104 29.213-29.213 29.213h-8.19v15h8.19c16.108 0 29.213 13.104 29.213 29.212v8.19h15v-8.19c0-16.108 13.104-29.212 29.213-29.212h8.189v-15zm-36.713 19.6c-3.21-4.773-7.328-8.89-12.101-12.101 4.772-3.21 8.891-7.328 12.101-12.101 3.21 4.773 7.328 8.89 12.101 12.101-4.773 3.211-8.891 7.328-12.101 12.101z"/><path d="m143.5 473.5h89.937v-15h-34.733l30-30h54.19l30 30h-34.265v15h89.871v-435h-225zm139.158-390h-53.721l-30-30h113.72zm-53.956 15h54.596l25.202 25.202v42.298h15v-27.128l30 30v174.897l-30 30v-192.769h-15v207.298l-25.202 25.202h-54.596l-25.202-25.202v-57.404h-15v41.196l-30-30v-171.538l30-30v175.534h15v-192.384zm97.501 21.861 27.297-27.298v54.595zm27.297 244.622v53.719l-26.859-26.859zm-195-215.645v-55.87l27.935 27.935zm27.497 241.462-27.497 27.497v-54.995zm-27.497 67.7v-18.989l37.5-37.5 18.989 18.989-37.5 37.5zm175.606 0-37.298-37.298 18.989-18.989 37.702 37.702v18.585zm19.394-386.651-37.82 37.82-18.989-18.989 37.18-37.181h19.629zm-175.776-18.349 37.382 37.383-18.989 18.989-37.617-37.619v-18.753z"/><path d="m248.563 458.5h15.128v15h-15.128z"/><path d="m218.5 128.5h15v15h-15z"/><path d="m248.5 128.5h15v15h-15z"/></g></svg>