<svg id="Capa_1" enable-background="new 0 0 512 512" height="512" viewBox="0 0 512 512" width="512" xmlns="http://www.w3.org/2000/svg"><g><path d="m67.5 401.773v-9.773h-15v9.773c0 23.56-19.167 42.727-42.727 42.727h-9.773v15h9.773c23.56 0 42.727 19.167 42.727 42.727v9.773h15v-9.773c0-23.56 19.167-42.727 42.727-42.727h9.773v-15h-9.773c-23.56 0-42.727-19.167-42.727-42.727zm-7.5 72.021c-5.161-9.082-12.712-16.633-21.794-21.794 9.082-5.161 16.633-12.712 21.794-21.794 5.161 9.082 12.712 16.633 21.794 21.794-9.082 5.161-16.633 12.712-21.794 21.794z"/><path d="m503.811 37.402c-16.108 0-29.213-13.104-29.213-29.213v-8.189h-15v8.189c0 16.108-13.104 29.213-29.213 29.213h-8.19v15h8.19c16.108 0 29.213 13.104 29.213 29.213v8.19h15v-8.19c0-16.108 13.104-29.213 29.213-29.213h8.189v-15zm-36.713 19.601c-3.21-4.772-7.328-8.891-12.101-12.101 4.772-3.21 8.891-7.328 12.101-12.101 3.21 4.772 7.328 8.891 12.101 12.101-4.773 3.21-8.891 7.328-12.101 12.101z"/><path d="m164.828 38.5-112.268 217.5 112.269 217.5h182.344l41.698-80.785-13.329-6.881-37.042 71.762v-194.139h100.21l-42.333 82.014 13.328 6.881 49.735-96.352-112.268-217.5zm23.672 20.912 25.788 39.846 12.592-8.15-24.34-37.608h106.919l-53.459 82.599-20.519-31.701-12.592 8.15 24.532 37.903-58.921 91.04zm135 0v182.079l-58.921-91.04zm-67.5 105.392 59.023 91.196-59.023 91.196-59.023-91.196zm53.459 293.696h-106.918l53.459-82.599zm-44.88-96.951 58.921-91.04v182.079zm-91.079-307.145v194.053h-100.166zm-100.21 209.053h100.21v82.884h15v-75.832l58.921 91.04-58.921 91.039v-91.312h-15v96.319zm265.21-209.053 100.166 194.053h-100.166z"/><path d="m385.103 362.007h14.615v15h-14.615z" transform="matrix(.459 -.889 .889 .459 -115.931 548.699)"/><path d="m203.5 136h15v15h-15z"/><path d="m233.5 226h15v15h-15z"/></g></svg>