<svg id="Capa_1" enable-background="new 0 0 512 512" height="512" viewBox="0 0 512 512" width="512" xmlns="http://www.w3.org/2000/svg"><g><path d="m67.5 401.773v-9.773h-15v9.773c0 23.56-19.167 42.727-42.727 42.727h-9.773v15h9.773c23.56 0 42.727 19.167 42.727 42.727v9.773h15v-9.773c0-23.56 19.167-42.727 42.727-42.727h9.773v-15h-9.773c-23.56 0-42.727-19.167-42.727-42.727zm-7.5 72.021c-5.161-9.082-12.712-16.633-21.794-21.794 9.082-5.161 16.633-12.712 21.794-21.794 5.161 9.082 12.712 16.633 21.794 21.794-9.082 5.161-16.633 12.712-21.794 21.794z"/><path d="m503.81 37.403c-16.108 0-29.213-13.105-29.213-29.213v-8.19h-15v8.19c0 16.108-13.104 29.213-29.212 29.213h-8.19v15h8.19c16.108 0 29.212 13.104 29.212 29.212v8.19h15v-8.19c0-16.108 13.105-29.212 29.213-29.212h8.19v-15zm-36.713 19.6c-3.21-4.773-7.328-8.89-12.101-12.101 4.773-3.21 8.89-7.328 12.101-12.101 3.21 4.773 7.328 8.89 12.101 12.101-4.773 3.211-8.89 7.328-12.101 12.101z"/><path d="m360.822 74.444-104.822-28.088-104.822 28.088-76.734 76.734-28.088 104.822 28.087 104.822 76.734 76.734 104.823 28.088 104.822-28.087 76.734-76.734 28.088-104.823-28.087-104.822zm59.834 86.416-28.994 77.533-52.649-92.135 28.257 5.054 2.641-14.766-33.423-5.978 21.991-37.254 50.158 50.158-22.575-4.038-2.641 14.766zm-151.732 102.64h111.237l-55.619 97.333zm-81.466 97.333-55.619-97.333h111.237zm81.466-112.333 55.619-97.333 55.619 97.333zm-12.924-7.617-55.619-97.333h111.237zm-52.489-112.333 52.489-62.74 52.489 62.741h-104.978zm39.565 119.95h-111.237l55.619-97.333zm-70.089 117.243-81.643-14.602 28.994-77.533zm27.394 2.707 55.619-97.333 55.619 97.333h-33.044v15h29.915l-52.49 62.74-52.489-62.741h29.872v-15h-33.002zm191.281-94.843 28.994 77.533-81.643 14.602zm-68.18-150.513-46.505-55.587 68.486 18.351zm-134.964 0-21.981-37.237 68.486-18.351zm-13.006 7.474-72.149 12.904 50.158-50.158zm-85.437 69.724 14.05-5.254-12.781-34.179 81.643-14.602-52.649 92.136-10.687-28.577-14.05 5.254 12.502 33.43h-44.208l18.453-68.869zm18.028 63.208-25.754 68.869-18.454-68.869zm67.409 117.932-21.991 37.254-50.158-50.158zm13.006 7.474 46.505 55.587-68.486-18.351zm134.964 0 21.981 37.237-68.486 18.351zm13.006-7.474 72.149-12.904-50.158 50.158zm67.409-117.932h44.208l-18.453 68.869zm0-15 25.754-68.869 18.453 68.869z"/><path d="m248.447 368.45h15.064v15h-15.064z"/><path d="m233.5 158.5h15v15h-15z"/><path d="m173.5 196h15v15h-15z"/></g></svg>