<svg id="Capa_1" enable-background="new 0 0 512 512" height="512" viewBox="0 0 512 512" width="512" xmlns="http://www.w3.org/2000/svg"><g><path d="m67.5 401.773v-9.773h-15v9.773c0 23.56-19.167 42.727-42.727 42.727h-9.773v15h9.773c23.56 0 42.727 19.167 42.727 42.727v9.773h15v-9.773c0-23.56 19.167-42.727 42.727-42.727h9.773v-15h-9.773c-23.56 0-42.727-19.167-42.727-42.727zm-7.5 72.021c-5.161-9.082-12.712-16.633-21.794-21.794 9.082-5.161 16.633-12.712 21.794-21.794 5.161 9.082 12.712 16.633 21.794 21.794-9.082 5.161-16.633 12.712-21.794 21.794z"/><path d="m503.81 37.403c-16.108 0-29.213-13.105-29.213-29.213v-8.19h-15v8.19c0 16.108-13.104 29.213-29.212 29.213h-8.19v15h8.19c16.108 0 29.212 13.104 29.212 29.212v8.19h15v-8.19c0-16.108 13.105-29.212 29.213-29.212h8.19v-15zm-36.713 19.6c-3.21-4.773-7.328-8.89-12.101-12.101 4.773-3.21 8.89-7.328 12.101-12.101 3.21 4.773 7.328 8.89 12.101 12.101-4.773 3.211-8.89 7.328-12.101 12.101z"/><path d="m278.5 84.85v-31.35h-45v31.35c-44.092 5.277-84.764 25.997-115.152 58.838-32.145 34.739-49.848 79.953-49.848 127.312 0 94.213 70.376 174.177 163.701 186.003l1.886-14.881c-85.849-10.879-150.587-84.445-150.587-171.122 0-86.346 65.251-159.94 150-171.042v15.158c-47.477 6.824-89.71 35.27-113.924 77.127l12.984 7.511c21.55-37.251 58.859-62.776 100.939-69.481v77.071c-26.768 9.43-45 34.82-45 63.657 0 37.22 30.28 67.5 67.5 67.5s67.5-30.28 67.5-67.5c0-28.838-18.232-54.227-45-63.657v-41.236h-15v74.84h-15v-172.448h15v82.5h15v-20.73c68.97 10.848 120 69.945 120 140.73 0 78.575-63.925 142.5-142.5 142.5s-142.499-63.925-142.499-142.5c0-19.817 3.988-38.994 11.854-56.997l-13.745-6.006c-8.698 19.909-13.109 41.106-13.109 63.003 0 86.846 70.654 157.5 157.5 157.5s157.5-70.654 157.5-157.5c0-39.322-14.571-76.976-41.03-106.025-24.742-27.164-57.899-44.708-93.97-49.874v-15.143c84.749 11.102 150 84.696 150 171.042 0 86.676-64.738 160.242-150.585 171.122l1.886 14.881c93.324-11.827 163.699-91.791 163.699-186.003 0-47.359-17.703-92.573-49.848-127.312-30.388-32.841-71.06-53.561-115.152-58.838zm30 186.15c0 28.949-23.551 52.5-52.5 52.5s-52.5-23.551-52.5-52.5c0-20.587 11.946-38.905 30-47.449v17.465c-9.342 7.032-15 18.15-15 29.984 0 20.678 16.822 37.5 37.5 37.5s37.5-16.822 37.5-37.5c0-11.835-5.657-22.953-15-29.984v-17.465c18.054 8.544 30 26.862 30 47.449zm-35.798-15.053c3.667 4.082 5.798 9.432 5.798 15.053 0 12.407-10.093 22.5-22.5 22.5s-22.5-10.093-22.5-22.5c0-5.621 2.131-10.971 5.798-15.053z"/><path d="m248.718 443.349-.622 14.987c2.617.108 5.276.164 7.904.164 2.581 0 5.197-.053 7.776-.159l-.611-14.987c-4.796.195-9.668.193-14.447-.005z"/><path d="m173.5 166h15v15h-15z"/><path d="m203.5 166h15v15h-15z"/></g></svg>