<svg id="Capa_1" enable-background="new 0 0 512 512" height="512" viewBox="0 0 512 512" width="512" xmlns="http://www.w3.org/2000/svg"><g><path d="m67.5 401.773v-9.773h-15v9.773c0 23.56-19.167 42.727-42.727 42.727h-9.773v15h9.773c23.56 0 42.727 19.167 42.727 42.727v9.773h15v-9.773c0-23.56 19.167-42.727 42.727-42.727h9.773v-15h-9.773c-23.56 0-42.727-19.167-42.727-42.727zm-7.5 72.021c-5.161-9.082-12.712-16.633-21.794-21.794 9.082-5.161 16.633-12.712 21.794-21.794 5.161 9.082 12.712 16.633 21.794 21.794-9.082 5.161-16.633 12.712-21.794 21.794z"/><path d="m503.811 37.403c-16.108 0-29.213-13.105-29.213-29.213v-8.19h-15v8.19c0 16.108-13.104 29.213-29.213 29.213h-8.19v15h8.19c16.108 0 29.213 13.104 29.213 29.212v8.19h15v-8.19c0-16.108 13.104-29.212 29.213-29.212h8.189v-15zm-36.713 19.6c-3.21-4.773-7.328-8.89-12.101-12.101 4.772-3.21 8.891-7.328 12.101-12.101 3.21 4.773 7.328 8.891 12.101 12.101-4.773 3.211-8.891 7.328-12.101 12.101z"/><path d="m256 36.433c-8.762 8.087-12.001 9.858-33.708 34.708l11.426 9.718c5.514-6.483 10.562-11.997 14.782-16.418v48.886c-5.277 5.867-19.323 22.419-32.5 46.005l-10.095-41.673c5.777-8.666 11.633-16.666 17.281-23.89l-11.816-9.24c-30.962 39.595-67.87 101.484-67.87 171.471 0 61.708 29.275 116.944 53.834 152.416 32.032 44.817 49.288 58.308 58.666 67.152 8.816-8.144 12.505-10.283 34.737-35.923l-11.463-9.675c-5.901 6.992-11.303 12.904-15.774 17.589v-48.885c5.161-5.738 18.71-21.698 31.631-44.464l10.05 41.488c-5.352 7.952-10.753 15.33-15.976 22.031l11.83 9.222c30.777-39.485 67.465-101.195 67.465-170.951 0-61.708-29.275-116.944-53.834-152.416-26.452-38.206-58.666-67.151-58.666-67.151zm97.5 219.567c0 19.473-3.107 38.328-8.222 56.213l-22.321-53.544 23.137-55.726c4.585 16.848 7.406 34.672 7.406 53.057zm-150 0c0-59.635 38.106-111.062 52.5-128.355 14.397 17.299 52.5 68.725 52.5 128.355 0 59.635-38.106 111.062-52.5 128.355-14.397-17.299-52.5-68.725-52.5-128.355zm-45 0c0-18.369 2.752-36.195 7.357-53.172l23.129 55.939-22.225 53.353c-5.088-17.745-8.261-36.617-8.261-56.12zm45.709 72.627h-28.052l15.926-38.447c2.827 13.707 7.119 26.617 12.126 38.447zm-12.808-103.327-15.243-36.8h25.953c-4.509 11.424-8.287 23.77-10.71 36.8zm12.598 118.327-8.327 34.376c-6.159-10.457-12.192-21.993-17.554-34.376zm116.6-118.327c-2.423-13.03-6.2-25.376-10.71-36.8h25.953zm-.682 64.88 15.926 38.447h-28.052c5.007-11.83 9.299-24.74 12.126-38.447zm-11.916-116.68 9.205-38c6.695 11.501 13.21 24.264 18.836 38zm-1.909-55.831-10.092 41.663c-13.177-23.587-27.223-40.138-32.5-46.005v-48.872c9.948 10.433 27.202 29.715 42.592 53.214zm-102.093 55.831h-28.133c5.531-13.495 12.014-26.244 18.915-38.052zm2.82 222.197 10.05-41.487c12.921 22.765 26.47 38.725 31.631 44.464v48.871c-9.948-10.433-24.819-27.077-41.681-51.848zm101.182-52.07h25.967c-5.277 12.171-11.291 23.69-17.631 34.413z"/><path d="m233.5 181h15v15h-15z"/></g></svg>